G04 #@! TF.FileFunction,Profile,NP*
%FSLAX46Y46*%
G04 Gerber Fmt 4.6, Leading zero omitted, Abs format (unit mm)*
G04 Created by KiCad (PCBNEW 4.0.7+dfsg1-1ubuntu2) date Mon Aug  5 22:46:18 2019*
%MOMM*%
%LPD*%
G01*
G04 APERTURE LIST*
%ADD10C,0.100000*%
%ADD11C,0.150000*%
%ADD12C,0.000100*%
G04 APERTURE END LIST*
D10*
D11*
X0Y-5000000D02*
X0Y-15000000D01*
X2500000Y-15000000D02*
X0Y-15000000D01*
X2500000Y-15000000D02*
X2500000Y-20000000D01*
X0Y-20000000D02*
X2500000Y-20000000D01*
X97500000Y-5000000D02*
G75*
G03X97500000Y-5000000I-2500000J0D01*
G01*
X7500000Y-5000000D02*
G75*
G03X7500000Y-5000000I-2500000J0D01*
G01*
X7500000Y-70000000D02*
G75*
G03X7500000Y-70000000I-2500000J0D01*
G01*
X97500000Y-70000000D02*
G75*
G03X97500000Y-70000000I-2500000J0D01*
G01*
X95000000Y-75000000D02*
X5000000Y-75000000D01*
X100000000Y-5000000D02*
X100000000Y-70000000D01*
X5000000Y0D02*
X95000000Y0D01*
X0Y-70000000D02*
X0Y-20000000D01*
X0Y-70000000D02*
G75*
G03X5000000Y-75000000I5000000J0D01*
G01*
X95000000Y-75000000D02*
G75*
G03X100000000Y-70000000I0J5000000D01*
G01*
X100000000Y-5000000D02*
G75*
G03X95000000Y0I-5000000J0D01*
G01*
X5000000Y0D02*
G75*
G03X0Y-5000000I0J-5000000D01*
G01*
D12*
X4600000Y-16750000D02*
X5400000Y-16750000D01*
X5400000Y-16750000D02*
X5400000Y-18250000D01*
X5400000Y-18250000D02*
X4600000Y-18250000D01*
X4600000Y-18250000D02*
X4600000Y-16750000D01*
X500000Y-11500000D02*
X500000Y-15500000D01*
X500000Y-15500000D02*
X1700000Y-15500000D01*
X1700000Y-15500000D02*
X1700000Y-19500000D01*
X1700000Y-19500000D02*
X500000Y-19500000D01*
X500000Y-19500000D02*
X500000Y-23500000D01*
X9250000Y-12900000D02*
X9250000Y-12100000D01*
X9250000Y-12100000D02*
X10750000Y-12100000D01*
X10750000Y-12100000D02*
X10750000Y-12900000D01*
X10750000Y-12900000D02*
X9250000Y-12900000D01*
X9250000Y-22900000D02*
X9250000Y-22100000D01*
X9250000Y-22100000D02*
X10750000Y-22100000D01*
X10750000Y-22100000D02*
X10750000Y-22900000D01*
X10750000Y-22900000D02*
X9250000Y-22900000D01*
X13000000Y-58250000D02*
X14000000Y-58250000D01*
X14000000Y-58250000D02*
X14000000Y-61750000D01*
X14000000Y-61750000D02*
X13000000Y-61750000D01*
X13000000Y-61750000D02*
X13000000Y-58250000D01*
X7000000Y-58500000D02*
X8000000Y-58500000D01*
X8000000Y-58500000D02*
X8000000Y-61500000D01*
X8000000Y-61500000D02*
X7000000Y-61500000D01*
X7000000Y-61500000D02*
X7000000Y-58500000D01*
M02*
