G04 #@! TF.FileFunction,Copper,L2,Bot,Signal*
%FSLAX46Y46*%
G04 Gerber Fmt 4.6, Leading zero omitted, Abs format (unit mm)*
G04 Created by KiCad (PCBNEW 4.0.7+dfsg1-1ubuntu2) date Fri Aug 16 22:59:17 2019*
%MOMM*%
%LPD*%
G01*
G04 APERTURE LIST*
%ADD10C,0.100000*%
%ADD11R,1.524000X1.524000*%
%ADD12C,1.524000*%
%ADD13R,1.800000X1.800000*%
%ADD14C,1.800000*%
%ADD15O,1.308000X2.616000*%
%ADD16O,2.616000X1.308000*%
%ADD17O,2.500000X5.000000*%
%ADD18O,2.250000X4.500000*%
%ADD19C,2.400000*%
%ADD20R,2.400000X2.400000*%
%ADD21C,1.520000*%
%ADD22R,1.520000X1.520000*%
%ADD23O,1.800000X1.800000*%
%ADD24R,1.998980X1.998980*%
%ADD25R,1.625600X1.625600*%
%ADD26C,1.625600*%
%ADD27C,1.000000*%
%ADD28C,0.250000*%
%ADD29C,0.500000*%
%ADD30C,0.254000*%
G04 APERTURE END LIST*
D10*
D11*
X12485400Y-70000000D03*
D12*
X15000000Y-70000000D03*
D11*
X22500000Y-62500000D03*
D12*
X30018400Y-62500000D03*
D11*
X12500000Y-5000000D03*
D12*
X15014600Y-5000000D03*
D11*
X22481600Y-12500000D03*
D12*
X30000000Y-12500000D03*
D13*
X4960000Y-55000000D03*
D14*
X7500000Y-55000000D03*
D15*
X5000000Y-17500000D03*
D16*
X10000000Y-22500000D03*
X10000000Y-12500000D03*
D17*
X13500000Y-37500000D03*
D18*
X7500000Y-37500000D03*
D19*
X95000000Y-50000000D03*
D20*
X95000000Y-53500000D03*
D19*
X95000000Y-22500000D03*
D20*
X95000000Y-26000000D03*
D21*
X24960000Y-50000000D03*
X22420000Y-50000000D03*
D22*
X27500000Y-50000000D03*
D13*
X40000000Y-39920000D03*
D23*
X40000000Y-42460000D03*
X40000000Y-45000000D03*
D13*
X40000000Y-49920000D03*
D23*
X40000000Y-52460000D03*
X40000000Y-55000000D03*
D21*
X25000000Y-25000000D03*
X27540000Y-25000000D03*
D22*
X22460000Y-25000000D03*
D13*
X40000000Y-29960000D03*
D23*
X40000000Y-32500000D03*
X40000000Y-35040000D03*
D13*
X40000000Y-20000000D03*
D23*
X40000000Y-22540000D03*
X40000000Y-25080000D03*
D24*
X82500000Y-42497480D03*
X82500000Y-52500000D03*
X20085740Y-45000000D03*
X30088260Y-45000000D03*
X90000000Y-52588260D03*
X90000000Y-42585740D03*
X19998740Y-40000000D03*
X30001260Y-40000000D03*
D25*
X93888000Y-62500000D03*
D26*
X37500000Y-62500000D03*
D24*
X82500000Y-32588260D03*
X82500000Y-22585740D03*
X19997480Y-30000000D03*
X30000000Y-30000000D03*
X90000000Y-22497480D03*
X90000000Y-32500000D03*
X20085740Y-35000000D03*
X30088260Y-35000000D03*
D25*
X93888000Y-12500000D03*
D26*
X37500000Y-12500000D03*
D24*
X12500000Y-55000000D03*
X12500000Y-44997480D03*
D27*
X75000000Y-50000000D03*
X70000000Y-50000000D03*
X65000000Y-50000000D03*
X60000000Y-50000000D03*
X55000000Y-50000000D03*
X50000000Y-50000000D03*
X75000000Y-45000000D03*
X70000000Y-45000000D03*
X65000000Y-45000000D03*
X60000000Y-45000000D03*
X55000000Y-45000000D03*
X50000000Y-45000000D03*
X75000000Y-40000000D03*
X70000000Y-40000000D03*
X65000000Y-40000000D03*
X60000000Y-40000000D03*
X55000000Y-40000000D03*
X50000000Y-40000000D03*
X75000000Y-35000000D03*
X70000000Y-35000000D03*
X65000000Y-35000000D03*
X60000000Y-35000000D03*
X55000000Y-35000000D03*
X50000000Y-35000000D03*
X75000000Y-30000000D03*
X70000000Y-30000000D03*
X65000000Y-30000000D03*
X60000000Y-30000000D03*
X55000000Y-30000000D03*
X50000000Y-30000000D03*
X75000000Y-25000000D03*
X70000000Y-25000000D03*
X65000000Y-25000000D03*
X60000000Y-25000000D03*
X55000000Y-25000000D03*
X50000000Y-25000000D03*
D28*
X12500000Y-25000000D02*
X12500000Y-15904000D01*
X10000000Y-13404000D02*
X10000000Y-12500000D01*
X12500000Y-15904000D02*
X10000000Y-13404000D01*
X11080229Y-26419771D02*
X12500000Y-25000000D01*
X12485400Y-64985400D02*
X11080229Y-63580229D01*
X11080229Y-63580229D02*
X11080229Y-26419771D01*
X12485400Y-70000000D02*
X12485400Y-64985400D01*
D29*
X13500000Y-37500000D02*
X13500000Y-38750000D01*
X13500000Y-38750000D02*
X17210000Y-42460000D01*
X17210000Y-42460000D02*
X38727208Y-42460000D01*
X38727208Y-42460000D02*
X40000000Y-42460000D01*
X40000000Y-32500000D02*
X17250000Y-32500000D01*
X17250000Y-32500000D02*
X13500000Y-36250000D01*
X13500000Y-36250000D02*
X13500000Y-37500000D01*
D28*
X7500000Y-11012000D02*
X7500000Y-19096000D01*
X7500000Y-19096000D02*
X10000000Y-21596000D01*
X10000000Y-21596000D02*
X10000000Y-22500000D01*
X12500000Y-5000000D02*
X12500000Y-6012000D01*
X12500000Y-6012000D02*
X7500000Y-11012000D01*
X82500000Y-22585740D02*
X81250510Y-22585740D01*
X81250510Y-22585740D02*
X76164770Y-17500000D01*
X76164770Y-17500000D02*
X32500000Y-17500000D01*
X32500000Y-17500000D02*
X25000000Y-25000000D01*
X95000000Y-26000000D02*
X88588242Y-26000000D01*
X72588242Y-10000000D02*
X32500000Y-10000000D01*
X32500000Y-10000000D02*
X30000000Y-12500000D01*
X88588242Y-26000000D02*
X72588242Y-10000000D01*
X90000000Y-42585740D02*
X90000000Y-43835230D01*
X90000000Y-43835230D02*
X86335230Y-47500000D01*
X86335230Y-47500000D02*
X54920000Y-47500000D01*
X54920000Y-47500000D02*
X49920000Y-52500000D01*
X49920000Y-52500000D02*
X43730000Y-52500000D01*
X43730000Y-52500000D02*
X41150000Y-49920000D01*
X41150000Y-49920000D02*
X40000000Y-49920000D01*
X95000000Y-50000000D02*
X95000000Y-46336250D01*
X95000000Y-46336250D02*
X91249490Y-42585740D01*
X91249490Y-42585740D02*
X90000000Y-42585740D01*
X77500000Y-25000000D02*
X81250510Y-25000000D01*
X40000000Y-20000000D02*
X42500000Y-22500000D01*
X75000000Y-22500000D02*
X77500000Y-25000000D01*
X42500000Y-22500000D02*
X75000000Y-22500000D01*
X88750510Y-32500000D02*
X90000000Y-32500000D01*
X81250510Y-25000000D02*
X88750510Y-32500000D01*
X40000000Y-20000000D02*
X41150000Y-20000000D01*
X31338770Y-47500000D02*
X45000000Y-47500000D01*
X82500000Y-42497480D02*
X50002520Y-42497480D01*
X50002520Y-42497480D02*
X45000000Y-47500000D01*
X30088260Y-45000000D02*
X30088260Y-46249490D01*
X30088260Y-46249490D02*
X31338770Y-47500000D01*
X40000000Y-60000000D02*
X81338770Y-60000000D01*
X81338770Y-60000000D02*
X88750510Y-52588260D01*
X88750510Y-52588260D02*
X90000000Y-52588260D01*
X30000000Y-50000000D02*
X40000000Y-60000000D01*
X27500000Y-50000000D02*
X30000000Y-50000000D01*
X42500000Y-27500000D02*
X42420000Y-27500000D01*
X42420000Y-27500000D02*
X40000000Y-25080000D01*
X42500000Y-30000000D02*
X42500000Y-27500000D01*
X82500000Y-32588260D02*
X45088260Y-32588260D01*
X45088260Y-32588260D02*
X42500000Y-30000000D01*
X25000000Y-10000000D02*
X25000000Y-21450000D01*
X25000000Y-21450000D02*
X22460000Y-23990000D01*
X22460000Y-23990000D02*
X22460000Y-25000000D01*
X30000000Y-5000000D02*
X25000000Y-10000000D01*
X73752010Y-5000000D02*
X30000000Y-5000000D01*
X90000000Y-21247990D02*
X73752010Y-5000000D01*
X90000000Y-22497480D02*
X90000000Y-21247990D01*
X37500000Y-30000000D02*
X37540000Y-29960000D01*
X37540000Y-29960000D02*
X40000000Y-29960000D01*
X37500000Y-25040000D02*
X37500000Y-30000000D01*
X40000000Y-22540000D02*
X37500000Y-25040000D01*
D30*
G36*
X96636390Y-1049408D02*
X98023654Y-1976349D01*
X98950592Y-3363610D01*
X99290000Y-5069931D01*
X99290000Y-69930069D01*
X98950592Y-71636390D01*
X98023654Y-73023651D01*
X96636390Y-73950592D01*
X94930069Y-74290000D01*
X5069931Y-74290000D01*
X3363610Y-73950592D01*
X1976349Y-73023654D01*
X1049408Y-71636390D01*
X710000Y-69930069D01*
X710000Y-55285750D01*
X3425000Y-55285750D01*
X3425000Y-56026310D01*
X3521673Y-56259699D01*
X3700302Y-56438327D01*
X3933691Y-56535000D01*
X4674250Y-56535000D01*
X4833000Y-56376250D01*
X4833000Y-55127000D01*
X3583750Y-55127000D01*
X3425000Y-55285750D01*
X710000Y-55285750D01*
X710000Y-53973690D01*
X3425000Y-53973690D01*
X3425000Y-54714250D01*
X3583750Y-54873000D01*
X4833000Y-54873000D01*
X4833000Y-53623750D01*
X5087000Y-53623750D01*
X5087000Y-54873000D01*
X5107000Y-54873000D01*
X5107000Y-55127000D01*
X5087000Y-55127000D01*
X5087000Y-56376250D01*
X5245750Y-56535000D01*
X5986309Y-56535000D01*
X6219698Y-56438327D01*
X6398327Y-56259699D01*
X6454119Y-56125006D01*
X6629357Y-56300551D01*
X7193330Y-56534733D01*
X7803991Y-56535265D01*
X8368371Y-56302068D01*
X8800551Y-55870643D01*
X9034733Y-55306670D01*
X9035265Y-54696009D01*
X8802068Y-54131629D01*
X8370643Y-53699449D01*
X7806670Y-53465267D01*
X7196009Y-53464735D01*
X6631629Y-53697932D01*
X6454159Y-53875092D01*
X6398327Y-53740301D01*
X6219698Y-53561673D01*
X5986309Y-53465000D01*
X5245750Y-53465000D01*
X5087000Y-53623750D01*
X4833000Y-53623750D01*
X4674250Y-53465000D01*
X3933691Y-53465000D01*
X3700302Y-53561673D01*
X3521673Y-53740301D01*
X3425000Y-53973690D01*
X710000Y-53973690D01*
X710000Y-36248000D01*
X5740000Y-36248000D01*
X5740000Y-37373000D01*
X6364950Y-37373000D01*
X6364950Y-37627000D01*
X5740000Y-37627000D01*
X5740000Y-38752000D01*
X5922573Y-39415856D01*
X6345295Y-39959311D01*
X6943810Y-40299629D01*
X7099957Y-40338933D01*
X7373000Y-40221206D01*
X7373000Y-39635050D01*
X7627000Y-39635050D01*
X7627000Y-40221206D01*
X7900043Y-40338933D01*
X8056190Y-40299629D01*
X8654705Y-39959311D01*
X9077427Y-39415856D01*
X9260000Y-38752000D01*
X9260000Y-37627000D01*
X8635050Y-37627000D01*
X8635050Y-37373000D01*
X9260000Y-37373000D01*
X9260000Y-36248000D01*
X9077427Y-35584144D01*
X8654705Y-35040689D01*
X8056190Y-34700371D01*
X7900043Y-34661067D01*
X7627000Y-34778794D01*
X7627000Y-35364950D01*
X7373000Y-35364950D01*
X7373000Y-34778794D01*
X7099957Y-34661067D01*
X6943810Y-34700371D01*
X6345295Y-35040689D01*
X5922573Y-35584144D01*
X5740000Y-36248000D01*
X710000Y-36248000D01*
X710000Y-24093279D01*
X743023Y-24086710D01*
X949048Y-23949048D01*
X1086710Y-23743023D01*
X1135050Y-23500000D01*
X1135050Y-22744579D01*
X1264786Y-22744579D01*
X1452408Y-23198657D01*
X1799515Y-23546371D01*
X2253266Y-23734785D01*
X2744579Y-23735214D01*
X3198657Y-23547592D01*
X3546371Y-23200485D01*
X3734785Y-22746734D01*
X3734786Y-22744579D01*
X3764786Y-22744579D01*
X3952408Y-23198657D01*
X4299515Y-23546371D01*
X4753266Y-23734785D01*
X5244579Y-23735214D01*
X5698657Y-23547592D01*
X6046371Y-23200485D01*
X6234785Y-22746734D01*
X6235214Y-22255421D01*
X6047592Y-21801343D01*
X5700485Y-21453629D01*
X5246734Y-21265215D01*
X4755421Y-21264786D01*
X4301343Y-21452408D01*
X3953629Y-21799515D01*
X3765215Y-22253266D01*
X3764786Y-22744579D01*
X3734786Y-22744579D01*
X3735214Y-22255421D01*
X3547592Y-21801343D01*
X3200485Y-21453629D01*
X2746734Y-21265215D01*
X2255421Y-21264786D01*
X1801343Y-21452408D01*
X1453629Y-21799515D01*
X1265215Y-22253266D01*
X1264786Y-22744579D01*
X1135050Y-22744579D01*
X1135050Y-20710000D01*
X2500000Y-20710000D01*
X2771705Y-20655954D01*
X3002046Y-20502046D01*
X3155954Y-20271705D01*
X3210000Y-20000000D01*
X3210000Y-16719000D01*
X3711000Y-16719000D01*
X3711000Y-17373000D01*
X3964950Y-17373000D01*
X3964950Y-17627000D01*
X3711000Y-17627000D01*
X3711000Y-18281000D01*
X3857720Y-18764612D01*
X4178342Y-19155264D01*
X4624054Y-19393482D01*
X4673901Y-19401068D01*
X4873000Y-19277092D01*
X4873000Y-18885050D01*
X5127000Y-18885050D01*
X5127000Y-19277092D01*
X5326099Y-19401068D01*
X5375946Y-19393482D01*
X5821658Y-19155264D01*
X6142280Y-18764612D01*
X6289000Y-18281000D01*
X6289000Y-17627000D01*
X6035050Y-17627000D01*
X6035050Y-17373000D01*
X6289000Y-17373000D01*
X6289000Y-16719000D01*
X6142280Y-16235388D01*
X5821658Y-15844736D01*
X5375946Y-15606518D01*
X5326099Y-15598932D01*
X5127000Y-15722908D01*
X5127000Y-16114950D01*
X4873000Y-16114950D01*
X4873000Y-15722908D01*
X4673901Y-15598932D01*
X4624054Y-15606518D01*
X4178342Y-15844736D01*
X3857720Y-16235388D01*
X3711000Y-16719000D01*
X3210000Y-16719000D01*
X3210000Y-15000000D01*
X3155954Y-14728295D01*
X3002046Y-14497954D01*
X2771705Y-14344046D01*
X2500000Y-14290000D01*
X1135050Y-14290000D01*
X1135050Y-12744579D01*
X1264786Y-12744579D01*
X1452408Y-13198657D01*
X1799515Y-13546371D01*
X2253266Y-13734785D01*
X2744579Y-13735214D01*
X3198657Y-13547592D01*
X3546371Y-13200485D01*
X3734785Y-12746734D01*
X3734786Y-12744579D01*
X3764786Y-12744579D01*
X3952408Y-13198657D01*
X4299515Y-13546371D01*
X4753266Y-13734785D01*
X5244579Y-13735214D01*
X5698657Y-13547592D01*
X6046371Y-13200485D01*
X6234785Y-12746734D01*
X6235214Y-12255421D01*
X6047592Y-11801343D01*
X5700485Y-11453629D01*
X5246734Y-11265215D01*
X4755421Y-11264786D01*
X4301343Y-11452408D01*
X3953629Y-11799515D01*
X3765215Y-12253266D01*
X3764786Y-12744579D01*
X3734786Y-12744579D01*
X3735214Y-12255421D01*
X3547592Y-11801343D01*
X3200485Y-11453629D01*
X2746734Y-11265215D01*
X2255421Y-11264786D01*
X1801343Y-11452408D01*
X1453629Y-11799515D01*
X1265215Y-12253266D01*
X1264786Y-12744579D01*
X1135050Y-12744579D01*
X1135050Y-11500000D01*
X1086710Y-11256977D01*
X949048Y-11050952D01*
X890753Y-11012000D01*
X6740000Y-11012000D01*
X6740000Y-19096000D01*
X6797852Y-19386839D01*
X6962599Y-19633401D01*
X8708948Y-21379750D01*
X8396473Y-21588539D01*
X8117053Y-22006721D01*
X8018934Y-22500000D01*
X8117053Y-22993279D01*
X8396473Y-23411461D01*
X8814655Y-23690881D01*
X9307934Y-23789000D01*
X10692066Y-23789000D01*
X11185345Y-23690881D01*
X11603527Y-23411461D01*
X11740000Y-23207215D01*
X11740000Y-24685198D01*
X10542828Y-25882370D01*
X10378081Y-26128932D01*
X10320229Y-26419771D01*
X10320229Y-63580229D01*
X10378081Y-63871068D01*
X10542828Y-64117630D01*
X11725400Y-65300202D01*
X11725400Y-68590560D01*
X11723400Y-68590560D01*
X11488083Y-68634838D01*
X11271959Y-68773910D01*
X11126969Y-68986110D01*
X11075960Y-69238000D01*
X11075960Y-70762000D01*
X11120238Y-70997317D01*
X11259310Y-71213441D01*
X11471510Y-71358431D01*
X11723400Y-71409440D01*
X13247400Y-71409440D01*
X13482717Y-71365162D01*
X13698841Y-71226090D01*
X13843831Y-71013890D01*
X13876609Y-70852029D01*
X14207630Y-71183629D01*
X14720900Y-71396757D01*
X15276661Y-71397242D01*
X15790303Y-71185010D01*
X16183629Y-70792370D01*
X16396757Y-70279100D01*
X16397242Y-69723339D01*
X16185010Y-69209697D01*
X15792370Y-68816371D01*
X15279100Y-68603243D01*
X14723339Y-68602758D01*
X14209697Y-68814990D01*
X13877621Y-69146487D01*
X13850562Y-69002683D01*
X13711490Y-68786559D01*
X13499290Y-68641569D01*
X13247400Y-68590560D01*
X13245400Y-68590560D01*
X13245400Y-64985400D01*
X13187548Y-64694561D01*
X13022801Y-64447999D01*
X11840229Y-63265427D01*
X11840229Y-61738000D01*
X21090560Y-61738000D01*
X21090560Y-63262000D01*
X21134838Y-63497317D01*
X21273910Y-63713441D01*
X21486110Y-63858431D01*
X21738000Y-63909440D01*
X23262000Y-63909440D01*
X23497317Y-63865162D01*
X23713441Y-63726090D01*
X23858431Y-63513890D01*
X23909440Y-63262000D01*
X23909440Y-62776661D01*
X28621158Y-62776661D01*
X28833390Y-63290303D01*
X29226030Y-63683629D01*
X29739300Y-63896757D01*
X30295061Y-63897242D01*
X30808703Y-63685010D01*
X30976990Y-63517016D01*
X36662589Y-63517016D01*
X36738295Y-63764462D01*
X37280165Y-63959703D01*
X37855503Y-63932718D01*
X38261705Y-63764462D01*
X38337411Y-63517016D01*
X37500000Y-62679605D01*
X36662589Y-63517016D01*
X30976990Y-63517016D01*
X31202029Y-63292370D01*
X31415157Y-62779100D01*
X31415592Y-62280165D01*
X36040297Y-62280165D01*
X36067282Y-62855503D01*
X36235538Y-63261705D01*
X36482984Y-63337411D01*
X37320395Y-62500000D01*
X37679605Y-62500000D01*
X38517016Y-63337411D01*
X38764462Y-63261705D01*
X38959703Y-62719835D01*
X38932718Y-62144497D01*
X38764462Y-61738295D01*
X38597458Y-61687200D01*
X92427760Y-61687200D01*
X92427760Y-63312800D01*
X92472038Y-63548117D01*
X92611110Y-63764241D01*
X92823310Y-63909231D01*
X93075200Y-63960240D01*
X94700800Y-63960240D01*
X94936117Y-63915962D01*
X95152241Y-63776890D01*
X95297231Y-63564690D01*
X95348240Y-63312800D01*
X95348240Y-61687200D01*
X95303962Y-61451883D01*
X95164890Y-61235759D01*
X94952690Y-61090769D01*
X94700800Y-61039760D01*
X93075200Y-61039760D01*
X92839883Y-61084038D01*
X92623759Y-61223110D01*
X92478769Y-61435310D01*
X92427760Y-61687200D01*
X38597458Y-61687200D01*
X38517016Y-61662589D01*
X37679605Y-62500000D01*
X37320395Y-62500000D01*
X36482984Y-61662589D01*
X36235538Y-61738295D01*
X36040297Y-62280165D01*
X31415592Y-62280165D01*
X31415642Y-62223339D01*
X31203410Y-61709697D01*
X30977093Y-61482984D01*
X36662589Y-61482984D01*
X37500000Y-62320395D01*
X38337411Y-61482984D01*
X38261705Y-61235538D01*
X37719835Y-61040297D01*
X37144497Y-61067282D01*
X36738295Y-61235538D01*
X36662589Y-61482984D01*
X30977093Y-61482984D01*
X30810770Y-61316371D01*
X30297500Y-61103243D01*
X29741739Y-61102758D01*
X29228097Y-61314990D01*
X28834771Y-61707630D01*
X28621643Y-62220900D01*
X28621158Y-62776661D01*
X23909440Y-62776661D01*
X23909440Y-61738000D01*
X23865162Y-61502683D01*
X23726090Y-61286559D01*
X23513890Y-61141569D01*
X23262000Y-61090560D01*
X21738000Y-61090560D01*
X21502683Y-61134838D01*
X21286559Y-61273910D01*
X21141569Y-61486110D01*
X21090560Y-61738000D01*
X11840229Y-61738000D01*
X11840229Y-56646930D01*
X13499490Y-56646930D01*
X13734807Y-56602652D01*
X13950931Y-56463580D01*
X14095921Y-56251380D01*
X14146930Y-55999490D01*
X14146930Y-54000510D01*
X14102652Y-53765193D01*
X13963580Y-53549069D01*
X13751380Y-53404079D01*
X13499490Y-53353070D01*
X11840229Y-53353070D01*
X11840229Y-50276265D01*
X21024758Y-50276265D01*
X21236687Y-50789172D01*
X21628764Y-51181934D01*
X22141300Y-51394758D01*
X22696265Y-51395242D01*
X23209172Y-51183313D01*
X23601934Y-50791236D01*
X23689954Y-50579262D01*
X23776687Y-50789172D01*
X24168764Y-51181934D01*
X24681300Y-51394758D01*
X25236265Y-51395242D01*
X25749172Y-51183313D01*
X26105316Y-50827790D01*
X26136838Y-50995317D01*
X26275910Y-51211441D01*
X26488110Y-51356431D01*
X26740000Y-51407440D01*
X28260000Y-51407440D01*
X28495317Y-51363162D01*
X28711441Y-51224090D01*
X28856431Y-51011890D01*
X28907440Y-50760000D01*
X29685198Y-50760000D01*
X39462599Y-60537401D01*
X39709161Y-60702148D01*
X40000000Y-60760000D01*
X81338770Y-60760000D01*
X81629609Y-60702148D01*
X81876171Y-60537401D01*
X88472976Y-53940596D01*
X88536420Y-54039191D01*
X88748620Y-54184181D01*
X89000510Y-54235190D01*
X90999490Y-54235190D01*
X91234807Y-54190912D01*
X91450931Y-54051840D01*
X91595921Y-53839640D01*
X91646930Y-53587750D01*
X91646930Y-51588770D01*
X91602652Y-51353453D01*
X91463580Y-51137329D01*
X91251380Y-50992339D01*
X90999490Y-50941330D01*
X89000510Y-50941330D01*
X88765193Y-50985608D01*
X88549069Y-51124680D01*
X88404079Y-51336880D01*
X88353070Y-51588770D01*
X88353070Y-51957340D01*
X88213109Y-52050859D01*
X81023968Y-59240000D01*
X40314802Y-59240000D01*
X30537401Y-49462599D01*
X30290839Y-49297852D01*
X30000000Y-49240000D01*
X28907440Y-49240000D01*
X28866045Y-49020000D01*
X38452560Y-49020000D01*
X38452560Y-50820000D01*
X38496838Y-51055317D01*
X38635910Y-51271441D01*
X38848110Y-51416431D01*
X38864344Y-51419719D01*
X38581845Y-51842509D01*
X38465000Y-52429928D01*
X38465000Y-52490072D01*
X38581845Y-53077491D01*
X38914591Y-53575481D01*
X39145845Y-53730000D01*
X38914591Y-53884519D01*
X38581845Y-54382509D01*
X38465000Y-54969928D01*
X38465000Y-55030072D01*
X38581845Y-55617491D01*
X38914591Y-56115481D01*
X39412581Y-56448227D01*
X40000000Y-56565072D01*
X40587419Y-56448227D01*
X41085409Y-56115481D01*
X41418155Y-55617491D01*
X41535000Y-55030072D01*
X41535000Y-54969928D01*
X41418155Y-54382509D01*
X41085409Y-53884519D01*
X40854155Y-53730000D01*
X41085409Y-53575481D01*
X41418155Y-53077491D01*
X41535000Y-52490072D01*
X41535000Y-52429928D01*
X41418155Y-51842509D01*
X41137163Y-51421974D01*
X41351441Y-51284090D01*
X41387100Y-51231902D01*
X43192599Y-53037401D01*
X43439161Y-53202148D01*
X43730000Y-53260000D01*
X49920000Y-53260000D01*
X50210839Y-53202148D01*
X50457401Y-53037401D01*
X51994292Y-51500510D01*
X80853070Y-51500510D01*
X80853070Y-53499490D01*
X80897348Y-53734807D01*
X81036420Y-53950931D01*
X81248620Y-54095921D01*
X81500510Y-54146930D01*
X83499490Y-54146930D01*
X83734807Y-54102652D01*
X83950931Y-53963580D01*
X84095921Y-53751380D01*
X84146930Y-53499490D01*
X84146930Y-51500510D01*
X84102652Y-51265193D01*
X83963580Y-51049069D01*
X83751380Y-50904079D01*
X83499490Y-50853070D01*
X81500510Y-50853070D01*
X81265193Y-50897348D01*
X81049069Y-51036420D01*
X80904079Y-51248620D01*
X80853070Y-51500510D01*
X51994292Y-51500510D01*
X53967195Y-49527607D01*
X53865197Y-49773244D01*
X53864803Y-50224775D01*
X54037233Y-50642086D01*
X54356235Y-50961645D01*
X54773244Y-51134803D01*
X55224775Y-51135197D01*
X55642086Y-50962767D01*
X55961645Y-50643765D01*
X56134803Y-50226756D01*
X56134804Y-50224775D01*
X58864803Y-50224775D01*
X59037233Y-50642086D01*
X59356235Y-50961645D01*
X59773244Y-51134803D01*
X60224775Y-51135197D01*
X60642086Y-50962767D01*
X60961645Y-50643765D01*
X61134803Y-50226756D01*
X61134804Y-50224775D01*
X63864803Y-50224775D01*
X64037233Y-50642086D01*
X64356235Y-50961645D01*
X64773244Y-51134803D01*
X65224775Y-51135197D01*
X65642086Y-50962767D01*
X65961645Y-50643765D01*
X66134803Y-50226756D01*
X66134804Y-50224775D01*
X68864803Y-50224775D01*
X69037233Y-50642086D01*
X69356235Y-50961645D01*
X69773244Y-51134803D01*
X70224775Y-51135197D01*
X70642086Y-50962767D01*
X70961645Y-50643765D01*
X71134803Y-50226756D01*
X71134804Y-50224775D01*
X73864803Y-50224775D01*
X74037233Y-50642086D01*
X74356235Y-50961645D01*
X74773244Y-51134803D01*
X75224775Y-51135197D01*
X75642086Y-50962767D01*
X75961645Y-50643765D01*
X76134803Y-50226756D01*
X76135197Y-49775225D01*
X75962767Y-49357914D01*
X75643765Y-49038355D01*
X75226756Y-48865197D01*
X74775225Y-48864803D01*
X74357914Y-49037233D01*
X74038355Y-49356235D01*
X73865197Y-49773244D01*
X73864803Y-50224775D01*
X71134804Y-50224775D01*
X71135197Y-49775225D01*
X70962767Y-49357914D01*
X70643765Y-49038355D01*
X70226756Y-48865197D01*
X69775225Y-48864803D01*
X69357914Y-49037233D01*
X69038355Y-49356235D01*
X68865197Y-49773244D01*
X68864803Y-50224775D01*
X66134804Y-50224775D01*
X66135197Y-49775225D01*
X65962767Y-49357914D01*
X65643765Y-49038355D01*
X65226756Y-48865197D01*
X64775225Y-48864803D01*
X64357914Y-49037233D01*
X64038355Y-49356235D01*
X63865197Y-49773244D01*
X63864803Y-50224775D01*
X61134804Y-50224775D01*
X61135197Y-49775225D01*
X60962767Y-49357914D01*
X60643765Y-49038355D01*
X60226756Y-48865197D01*
X59775225Y-48864803D01*
X59357914Y-49037233D01*
X59038355Y-49356235D01*
X58865197Y-49773244D01*
X58864803Y-50224775D01*
X56134804Y-50224775D01*
X56135197Y-49775225D01*
X55962767Y-49357914D01*
X55643765Y-49038355D01*
X55226756Y-48865197D01*
X54775225Y-48864803D01*
X54527740Y-48967062D01*
X55234802Y-48260000D01*
X86335230Y-48260000D01*
X86626069Y-48202148D01*
X86872631Y-48037401D01*
X90537401Y-44372631D01*
X90630920Y-44232670D01*
X90999490Y-44232670D01*
X91234807Y-44188392D01*
X91450931Y-44049320D01*
X91526975Y-43938027D01*
X94240000Y-46651052D01*
X94240000Y-48328552D01*
X93961914Y-48443455D01*
X93445270Y-48959199D01*
X93165319Y-49633395D01*
X93164682Y-50363403D01*
X93443455Y-51038086D01*
X93959199Y-51554730D01*
X94194799Y-51652560D01*
X93800000Y-51652560D01*
X93564683Y-51696838D01*
X93348559Y-51835910D01*
X93203569Y-52048110D01*
X93152560Y-52300000D01*
X93152560Y-54700000D01*
X93196838Y-54935317D01*
X93335910Y-55151441D01*
X93548110Y-55296431D01*
X93800000Y-55347440D01*
X96200000Y-55347440D01*
X96435317Y-55303162D01*
X96651441Y-55164090D01*
X96796431Y-54951890D01*
X96847440Y-54700000D01*
X96847440Y-52300000D01*
X96803162Y-52064683D01*
X96664090Y-51848559D01*
X96451890Y-51703569D01*
X96200000Y-51652560D01*
X95805712Y-51652560D01*
X96038086Y-51556545D01*
X96554730Y-51040801D01*
X96834681Y-50366605D01*
X96835318Y-49636597D01*
X96556545Y-48961914D01*
X96040801Y-48445270D01*
X95760000Y-48328671D01*
X95760000Y-46336250D01*
X95702148Y-46045411D01*
X95537401Y-45798849D01*
X91786891Y-42048339D01*
X91646930Y-41954820D01*
X91646930Y-41586250D01*
X91602652Y-41350933D01*
X91463580Y-41134809D01*
X91251380Y-40989819D01*
X90999490Y-40938810D01*
X89000510Y-40938810D01*
X88765193Y-40983088D01*
X88549069Y-41122160D01*
X88404079Y-41334360D01*
X88353070Y-41586250D01*
X88353070Y-43585230D01*
X88397348Y-43820547D01*
X88536420Y-44036671D01*
X88647713Y-44112715D01*
X86020428Y-46740000D01*
X54920000Y-46740000D01*
X54629161Y-46797852D01*
X54382599Y-46962599D01*
X51134817Y-50210381D01*
X51135197Y-49775225D01*
X50962767Y-49357914D01*
X50643765Y-49038355D01*
X50226756Y-48865197D01*
X49775225Y-48864803D01*
X49357914Y-49037233D01*
X49038355Y-49356235D01*
X48865197Y-49773244D01*
X48864803Y-50224775D01*
X49037233Y-50642086D01*
X49356235Y-50961645D01*
X49773244Y-51134803D01*
X50210014Y-51135184D01*
X49605198Y-51740000D01*
X44044802Y-51740000D01*
X41687401Y-49382599D01*
X41547440Y-49289080D01*
X41547440Y-49020000D01*
X41503162Y-48784683D01*
X41364090Y-48568559D01*
X41151890Y-48423569D01*
X40900000Y-48372560D01*
X39100000Y-48372560D01*
X38864683Y-48416838D01*
X38648559Y-48555910D01*
X38503569Y-48768110D01*
X38452560Y-49020000D01*
X28866045Y-49020000D01*
X28863162Y-49004683D01*
X28724090Y-48788559D01*
X28511890Y-48643569D01*
X28260000Y-48592560D01*
X26740000Y-48592560D01*
X26504683Y-48636838D01*
X26288559Y-48775910D01*
X26143569Y-48988110D01*
X26106031Y-49173480D01*
X25751236Y-48818066D01*
X25238700Y-48605242D01*
X24683735Y-48604758D01*
X24170828Y-48816687D01*
X23778066Y-49208764D01*
X23690046Y-49420738D01*
X23603313Y-49210828D01*
X23211236Y-48818066D01*
X22698700Y-48605242D01*
X22143735Y-48604758D01*
X21630828Y-48816687D01*
X21238066Y-49208764D01*
X21025242Y-49721300D01*
X21024758Y-50276265D01*
X11840229Y-50276265D01*
X11840229Y-46644410D01*
X13499490Y-46644410D01*
X13734807Y-46600132D01*
X13950931Y-46461060D01*
X14095921Y-46248860D01*
X14146930Y-45996970D01*
X14146930Y-44000510D01*
X18438810Y-44000510D01*
X18438810Y-45999490D01*
X18483088Y-46234807D01*
X18622160Y-46450931D01*
X18834360Y-46595921D01*
X19086250Y-46646930D01*
X21085230Y-46646930D01*
X21320547Y-46602652D01*
X21536671Y-46463580D01*
X21681661Y-46251380D01*
X21732670Y-45999490D01*
X21732670Y-44000510D01*
X28441330Y-44000510D01*
X28441330Y-45999490D01*
X28485608Y-46234807D01*
X28624680Y-46450931D01*
X28836880Y-46595921D01*
X29088770Y-46646930D01*
X29457340Y-46646930D01*
X29550859Y-46786891D01*
X30801369Y-48037401D01*
X31047930Y-48202148D01*
X31338770Y-48260000D01*
X45000000Y-48260000D01*
X45290839Y-48202148D01*
X45537401Y-48037401D01*
X48910387Y-44664415D01*
X48865197Y-44773244D01*
X48864803Y-45224775D01*
X49037233Y-45642086D01*
X49356235Y-45961645D01*
X49773244Y-46134803D01*
X50224775Y-46135197D01*
X50642086Y-45962767D01*
X50961645Y-45643765D01*
X51134803Y-45226756D01*
X51134804Y-45224775D01*
X53864803Y-45224775D01*
X54037233Y-45642086D01*
X54356235Y-45961645D01*
X54773244Y-46134803D01*
X55224775Y-46135197D01*
X55642086Y-45962767D01*
X55961645Y-45643765D01*
X56134803Y-45226756D01*
X56134804Y-45224775D01*
X58864803Y-45224775D01*
X59037233Y-45642086D01*
X59356235Y-45961645D01*
X59773244Y-46134803D01*
X60224775Y-46135197D01*
X60642086Y-45962767D01*
X60961645Y-45643765D01*
X61134803Y-45226756D01*
X61134804Y-45224775D01*
X63864803Y-45224775D01*
X64037233Y-45642086D01*
X64356235Y-45961645D01*
X64773244Y-46134803D01*
X65224775Y-46135197D01*
X65642086Y-45962767D01*
X65961645Y-45643765D01*
X66134803Y-45226756D01*
X66134804Y-45224775D01*
X68864803Y-45224775D01*
X69037233Y-45642086D01*
X69356235Y-45961645D01*
X69773244Y-46134803D01*
X70224775Y-46135197D01*
X70642086Y-45962767D01*
X70961645Y-45643765D01*
X71134803Y-45226756D01*
X71134804Y-45224775D01*
X73864803Y-45224775D01*
X74037233Y-45642086D01*
X74356235Y-45961645D01*
X74773244Y-46134803D01*
X75224775Y-46135197D01*
X75642086Y-45962767D01*
X75961645Y-45643765D01*
X76134803Y-45226756D01*
X76135197Y-44775225D01*
X75962767Y-44357914D01*
X75643765Y-44038355D01*
X75226756Y-43865197D01*
X74775225Y-43864803D01*
X74357914Y-44037233D01*
X74038355Y-44356235D01*
X73865197Y-44773244D01*
X73864803Y-45224775D01*
X71134804Y-45224775D01*
X71135197Y-44775225D01*
X70962767Y-44357914D01*
X70643765Y-44038355D01*
X70226756Y-43865197D01*
X69775225Y-43864803D01*
X69357914Y-44037233D01*
X69038355Y-44356235D01*
X68865197Y-44773244D01*
X68864803Y-45224775D01*
X66134804Y-45224775D01*
X66135197Y-44775225D01*
X65962767Y-44357914D01*
X65643765Y-44038355D01*
X65226756Y-43865197D01*
X64775225Y-43864803D01*
X64357914Y-44037233D01*
X64038355Y-44356235D01*
X63865197Y-44773244D01*
X63864803Y-45224775D01*
X61134804Y-45224775D01*
X61135197Y-44775225D01*
X60962767Y-44357914D01*
X60643765Y-44038355D01*
X60226756Y-43865197D01*
X59775225Y-43864803D01*
X59357914Y-44037233D01*
X59038355Y-44356235D01*
X58865197Y-44773244D01*
X58864803Y-45224775D01*
X56134804Y-45224775D01*
X56135197Y-44775225D01*
X55962767Y-44357914D01*
X55643765Y-44038355D01*
X55226756Y-43865197D01*
X54775225Y-43864803D01*
X54357914Y-44037233D01*
X54038355Y-44356235D01*
X53865197Y-44773244D01*
X53864803Y-45224775D01*
X51134804Y-45224775D01*
X51135197Y-44775225D01*
X50962767Y-44357914D01*
X50643765Y-44038355D01*
X50226756Y-43865197D01*
X49775225Y-43864803D01*
X49664071Y-43910731D01*
X50317322Y-43257480D01*
X80853070Y-43257480D01*
X80853070Y-43496970D01*
X80897348Y-43732287D01*
X81036420Y-43948411D01*
X81248620Y-44093401D01*
X81500510Y-44144410D01*
X83499490Y-44144410D01*
X83734807Y-44100132D01*
X83950931Y-43961060D01*
X84095921Y-43748860D01*
X84146930Y-43496970D01*
X84146930Y-41497990D01*
X84102652Y-41262673D01*
X83963580Y-41046549D01*
X83751380Y-40901559D01*
X83499490Y-40850550D01*
X81500510Y-40850550D01*
X81265193Y-40894828D01*
X81049069Y-41033900D01*
X80904079Y-41246100D01*
X80853070Y-41497990D01*
X80853070Y-41737480D01*
X50002520Y-41737480D01*
X49711681Y-41795332D01*
X49465119Y-41960079D01*
X44685198Y-46740000D01*
X31653572Y-46740000D01*
X31440596Y-46527024D01*
X31539191Y-46463580D01*
X31684181Y-46251380D01*
X31735190Y-45999490D01*
X31735190Y-44000510D01*
X31690912Y-43765193D01*
X31551840Y-43549069D01*
X31339640Y-43404079D01*
X31087750Y-43353070D01*
X29088770Y-43353070D01*
X28853453Y-43397348D01*
X28637329Y-43536420D01*
X28492339Y-43748620D01*
X28441330Y-44000510D01*
X21732670Y-44000510D01*
X21688392Y-43765193D01*
X21549320Y-43549069D01*
X21337120Y-43404079D01*
X21085230Y-43353070D01*
X19086250Y-43353070D01*
X18850933Y-43397348D01*
X18634809Y-43536420D01*
X18489819Y-43748620D01*
X18438810Y-44000510D01*
X14146930Y-44000510D01*
X14146930Y-43997990D01*
X14102652Y-43762673D01*
X13963580Y-43546549D01*
X13751380Y-43401559D01*
X13499490Y-43350550D01*
X11840229Y-43350550D01*
X11840229Y-39655111D01*
X12167104Y-40144314D01*
X12778642Y-40552931D01*
X13500000Y-40696418D01*
X14079557Y-40581137D01*
X16584208Y-43085787D01*
X16584210Y-43085790D01*
X16754582Y-43199628D01*
X16871325Y-43277633D01*
X17210000Y-43345000D01*
X38760589Y-43345000D01*
X38914591Y-43575481D01*
X39145845Y-43730000D01*
X38914591Y-43884519D01*
X38581845Y-44382509D01*
X38465000Y-44969928D01*
X38465000Y-45030072D01*
X38581845Y-45617491D01*
X38914591Y-46115481D01*
X39412581Y-46448227D01*
X40000000Y-46565072D01*
X40587419Y-46448227D01*
X41085409Y-46115481D01*
X41418155Y-45617491D01*
X41535000Y-45030072D01*
X41535000Y-44969928D01*
X41418155Y-44382509D01*
X41085409Y-43884519D01*
X40854155Y-43730000D01*
X41085409Y-43575481D01*
X41418155Y-43077491D01*
X41535000Y-42490072D01*
X41535000Y-42429928D01*
X41418155Y-41842509D01*
X41137163Y-41421974D01*
X41351441Y-41284090D01*
X41496431Y-41071890D01*
X41547440Y-40820000D01*
X41547440Y-40224775D01*
X48864803Y-40224775D01*
X49037233Y-40642086D01*
X49356235Y-40961645D01*
X49773244Y-41134803D01*
X50224775Y-41135197D01*
X50642086Y-40962767D01*
X50961645Y-40643765D01*
X51134803Y-40226756D01*
X51134804Y-40224775D01*
X53864803Y-40224775D01*
X54037233Y-40642086D01*
X54356235Y-40961645D01*
X54773244Y-41134803D01*
X55224775Y-41135197D01*
X55642086Y-40962767D01*
X55961645Y-40643765D01*
X56134803Y-40226756D01*
X56134804Y-40224775D01*
X58864803Y-40224775D01*
X59037233Y-40642086D01*
X59356235Y-40961645D01*
X59773244Y-41134803D01*
X60224775Y-41135197D01*
X60642086Y-40962767D01*
X60961645Y-40643765D01*
X61134803Y-40226756D01*
X61134804Y-40224775D01*
X63864803Y-40224775D01*
X64037233Y-40642086D01*
X64356235Y-40961645D01*
X64773244Y-41134803D01*
X65224775Y-41135197D01*
X65642086Y-40962767D01*
X65961645Y-40643765D01*
X66134803Y-40226756D01*
X66134804Y-40224775D01*
X68864803Y-40224775D01*
X69037233Y-40642086D01*
X69356235Y-40961645D01*
X69773244Y-41134803D01*
X70224775Y-41135197D01*
X70642086Y-40962767D01*
X70961645Y-40643765D01*
X71134803Y-40226756D01*
X71134804Y-40224775D01*
X73864803Y-40224775D01*
X74037233Y-40642086D01*
X74356235Y-40961645D01*
X74773244Y-41134803D01*
X75224775Y-41135197D01*
X75642086Y-40962767D01*
X75961645Y-40643765D01*
X76134803Y-40226756D01*
X76135197Y-39775225D01*
X75962767Y-39357914D01*
X75643765Y-39038355D01*
X75226756Y-38865197D01*
X74775225Y-38864803D01*
X74357914Y-39037233D01*
X74038355Y-39356235D01*
X73865197Y-39773244D01*
X73864803Y-40224775D01*
X71134804Y-40224775D01*
X71135197Y-39775225D01*
X70962767Y-39357914D01*
X70643765Y-39038355D01*
X70226756Y-38865197D01*
X69775225Y-38864803D01*
X69357914Y-39037233D01*
X69038355Y-39356235D01*
X68865197Y-39773244D01*
X68864803Y-40224775D01*
X66134804Y-40224775D01*
X66135197Y-39775225D01*
X65962767Y-39357914D01*
X65643765Y-39038355D01*
X65226756Y-38865197D01*
X64775225Y-38864803D01*
X64357914Y-39037233D01*
X64038355Y-39356235D01*
X63865197Y-39773244D01*
X63864803Y-40224775D01*
X61134804Y-40224775D01*
X61135197Y-39775225D01*
X60962767Y-39357914D01*
X60643765Y-39038355D01*
X60226756Y-38865197D01*
X59775225Y-38864803D01*
X59357914Y-39037233D01*
X59038355Y-39356235D01*
X58865197Y-39773244D01*
X58864803Y-40224775D01*
X56134804Y-40224775D01*
X56135197Y-39775225D01*
X55962767Y-39357914D01*
X55643765Y-39038355D01*
X55226756Y-38865197D01*
X54775225Y-38864803D01*
X54357914Y-39037233D01*
X54038355Y-39356235D01*
X53865197Y-39773244D01*
X53864803Y-40224775D01*
X51134804Y-40224775D01*
X51135197Y-39775225D01*
X50962767Y-39357914D01*
X50643765Y-39038355D01*
X50226756Y-38865197D01*
X49775225Y-38864803D01*
X49357914Y-39037233D01*
X49038355Y-39356235D01*
X48865197Y-39773244D01*
X48864803Y-40224775D01*
X41547440Y-40224775D01*
X41547440Y-39020000D01*
X41503162Y-38784683D01*
X41364090Y-38568559D01*
X41151890Y-38423569D01*
X40900000Y-38372560D01*
X39100000Y-38372560D01*
X38864683Y-38416838D01*
X38648559Y-38555910D01*
X38503569Y-38768110D01*
X38452560Y-39020000D01*
X38452560Y-40820000D01*
X38496838Y-41055317D01*
X38635910Y-41271441D01*
X38848110Y-41416431D01*
X38864344Y-41419719D01*
X38760589Y-41575000D01*
X31279039Y-41575000D01*
X31452191Y-41463580D01*
X31597181Y-41251380D01*
X31648190Y-40999490D01*
X31648190Y-39000510D01*
X31603912Y-38765193D01*
X31464840Y-38549069D01*
X31252640Y-38404079D01*
X31000750Y-38353070D01*
X29001770Y-38353070D01*
X28766453Y-38397348D01*
X28550329Y-38536420D01*
X28405339Y-38748620D01*
X28354330Y-39000510D01*
X28354330Y-40999490D01*
X28398608Y-41234807D01*
X28537680Y-41450931D01*
X28719261Y-41575000D01*
X21276519Y-41575000D01*
X21449671Y-41463580D01*
X21594661Y-41251380D01*
X21645670Y-40999490D01*
X21645670Y-39000510D01*
X21601392Y-38765193D01*
X21462320Y-38549069D01*
X21250120Y-38404079D01*
X20998230Y-38353070D01*
X18999250Y-38353070D01*
X18763933Y-38397348D01*
X18547809Y-38536420D01*
X18402819Y-38748620D01*
X18351810Y-39000510D01*
X18351810Y-40999490D01*
X18396088Y-41234807D01*
X18535160Y-41450931D01*
X18716741Y-41575000D01*
X17576579Y-41575000D01*
X15290099Y-39288519D01*
X15385000Y-38811418D01*
X15385000Y-36188582D01*
X15290099Y-35711481D01*
X17616579Y-33385000D01*
X18916557Y-33385000D01*
X18850933Y-33397348D01*
X18634809Y-33536420D01*
X18489819Y-33748620D01*
X18438810Y-34000510D01*
X18438810Y-35999490D01*
X18483088Y-36234807D01*
X18622160Y-36450931D01*
X18834360Y-36595921D01*
X19086250Y-36646930D01*
X21085230Y-36646930D01*
X21320547Y-36602652D01*
X21536671Y-36463580D01*
X21681661Y-36251380D01*
X21732670Y-35999490D01*
X21732670Y-34000510D01*
X21688392Y-33765193D01*
X21549320Y-33549069D01*
X21337120Y-33404079D01*
X21242905Y-33385000D01*
X28919077Y-33385000D01*
X28853453Y-33397348D01*
X28637329Y-33536420D01*
X28492339Y-33748620D01*
X28441330Y-34000510D01*
X28441330Y-35999490D01*
X28485608Y-36234807D01*
X28624680Y-36450931D01*
X28836880Y-36595921D01*
X29088770Y-36646930D01*
X31087750Y-36646930D01*
X31323067Y-36602652D01*
X31539191Y-36463580D01*
X31684181Y-36251380D01*
X31735190Y-35999490D01*
X31735190Y-34000510D01*
X31690912Y-33765193D01*
X31551840Y-33549069D01*
X31339640Y-33404079D01*
X31245425Y-33385000D01*
X38760589Y-33385000D01*
X38914591Y-33615481D01*
X39145845Y-33770000D01*
X38914591Y-33924519D01*
X38581845Y-34422509D01*
X38465000Y-35009928D01*
X38465000Y-35070072D01*
X38581845Y-35657491D01*
X38914591Y-36155481D01*
X39412581Y-36488227D01*
X40000000Y-36605072D01*
X40587419Y-36488227D01*
X41085409Y-36155481D01*
X41418155Y-35657491D01*
X41504227Y-35224775D01*
X48864803Y-35224775D01*
X49037233Y-35642086D01*
X49356235Y-35961645D01*
X49773244Y-36134803D01*
X50224775Y-36135197D01*
X50642086Y-35962767D01*
X50961645Y-35643765D01*
X51134803Y-35226756D01*
X51134804Y-35224775D01*
X53864803Y-35224775D01*
X54037233Y-35642086D01*
X54356235Y-35961645D01*
X54773244Y-36134803D01*
X55224775Y-36135197D01*
X55642086Y-35962767D01*
X55961645Y-35643765D01*
X56134803Y-35226756D01*
X56134804Y-35224775D01*
X58864803Y-35224775D01*
X59037233Y-35642086D01*
X59356235Y-35961645D01*
X59773244Y-36134803D01*
X60224775Y-36135197D01*
X60642086Y-35962767D01*
X60961645Y-35643765D01*
X61134803Y-35226756D01*
X61134804Y-35224775D01*
X63864803Y-35224775D01*
X64037233Y-35642086D01*
X64356235Y-35961645D01*
X64773244Y-36134803D01*
X65224775Y-36135197D01*
X65642086Y-35962767D01*
X65961645Y-35643765D01*
X66134803Y-35226756D01*
X66134804Y-35224775D01*
X68864803Y-35224775D01*
X69037233Y-35642086D01*
X69356235Y-35961645D01*
X69773244Y-36134803D01*
X70224775Y-36135197D01*
X70642086Y-35962767D01*
X70961645Y-35643765D01*
X71134803Y-35226756D01*
X71134804Y-35224775D01*
X73864803Y-35224775D01*
X74037233Y-35642086D01*
X74356235Y-35961645D01*
X74773244Y-36134803D01*
X75224775Y-36135197D01*
X75642086Y-35962767D01*
X75961645Y-35643765D01*
X76134803Y-35226756D01*
X76135197Y-34775225D01*
X75962767Y-34357914D01*
X75643765Y-34038355D01*
X75226756Y-33865197D01*
X74775225Y-33864803D01*
X74357914Y-34037233D01*
X74038355Y-34356235D01*
X73865197Y-34773244D01*
X73864803Y-35224775D01*
X71134804Y-35224775D01*
X71135197Y-34775225D01*
X70962767Y-34357914D01*
X70643765Y-34038355D01*
X70226756Y-33865197D01*
X69775225Y-33864803D01*
X69357914Y-34037233D01*
X69038355Y-34356235D01*
X68865197Y-34773244D01*
X68864803Y-35224775D01*
X66134804Y-35224775D01*
X66135197Y-34775225D01*
X65962767Y-34357914D01*
X65643765Y-34038355D01*
X65226756Y-33865197D01*
X64775225Y-33864803D01*
X64357914Y-34037233D01*
X64038355Y-34356235D01*
X63865197Y-34773244D01*
X63864803Y-35224775D01*
X61134804Y-35224775D01*
X61135197Y-34775225D01*
X60962767Y-34357914D01*
X60643765Y-34038355D01*
X60226756Y-33865197D01*
X59775225Y-33864803D01*
X59357914Y-34037233D01*
X59038355Y-34356235D01*
X58865197Y-34773244D01*
X58864803Y-35224775D01*
X56134804Y-35224775D01*
X56135197Y-34775225D01*
X55962767Y-34357914D01*
X55643765Y-34038355D01*
X55226756Y-33865197D01*
X54775225Y-33864803D01*
X54357914Y-34037233D01*
X54038355Y-34356235D01*
X53865197Y-34773244D01*
X53864803Y-35224775D01*
X51134804Y-35224775D01*
X51135197Y-34775225D01*
X50962767Y-34357914D01*
X50643765Y-34038355D01*
X50226756Y-33865197D01*
X49775225Y-33864803D01*
X49357914Y-34037233D01*
X49038355Y-34356235D01*
X48865197Y-34773244D01*
X48864803Y-35224775D01*
X41504227Y-35224775D01*
X41535000Y-35070072D01*
X41535000Y-35009928D01*
X41418155Y-34422509D01*
X41085409Y-33924519D01*
X40854155Y-33770000D01*
X41085409Y-33615481D01*
X41418155Y-33117491D01*
X41535000Y-32530072D01*
X41535000Y-32469928D01*
X41418155Y-31882509D01*
X41137163Y-31461974D01*
X41351441Y-31324090D01*
X41496431Y-31111890D01*
X41547440Y-30860000D01*
X41547440Y-29060000D01*
X41503162Y-28824683D01*
X41364090Y-28608559D01*
X41151890Y-28463569D01*
X40900000Y-28412560D01*
X39100000Y-28412560D01*
X38864683Y-28456838D01*
X38648559Y-28595910D01*
X38503569Y-28808110D01*
X38452560Y-29060000D01*
X38452560Y-29200000D01*
X38260000Y-29200000D01*
X38260000Y-25354802D01*
X38471592Y-25143210D01*
X38581845Y-25697491D01*
X38914591Y-26195481D01*
X39412581Y-26528227D01*
X40000000Y-26645072D01*
X40408929Y-26563731D01*
X41740000Y-27894802D01*
X41740000Y-30000000D01*
X41797852Y-30290839D01*
X41962599Y-30537401D01*
X44550859Y-33125661D01*
X44797420Y-33290408D01*
X45088260Y-33348260D01*
X80853070Y-33348260D01*
X80853070Y-33587750D01*
X80897348Y-33823067D01*
X81036420Y-34039191D01*
X81248620Y-34184181D01*
X81500510Y-34235190D01*
X83499490Y-34235190D01*
X83734807Y-34190912D01*
X83950931Y-34051840D01*
X84095921Y-33839640D01*
X84146930Y-33587750D01*
X84146930Y-31588770D01*
X84102652Y-31353453D01*
X83963580Y-31137329D01*
X83751380Y-30992339D01*
X83499490Y-30941330D01*
X81500510Y-30941330D01*
X81265193Y-30985608D01*
X81049069Y-31124680D01*
X80904079Y-31336880D01*
X80853070Y-31588770D01*
X80853070Y-31828260D01*
X45403062Y-31828260D01*
X43799577Y-30224775D01*
X48864803Y-30224775D01*
X49037233Y-30642086D01*
X49356235Y-30961645D01*
X49773244Y-31134803D01*
X50224775Y-31135197D01*
X50642086Y-30962767D01*
X50961645Y-30643765D01*
X51134803Y-30226756D01*
X51134804Y-30224775D01*
X53864803Y-30224775D01*
X54037233Y-30642086D01*
X54356235Y-30961645D01*
X54773244Y-31134803D01*
X55224775Y-31135197D01*
X55642086Y-30962767D01*
X55961645Y-30643765D01*
X56134803Y-30226756D01*
X56134804Y-30224775D01*
X58864803Y-30224775D01*
X59037233Y-30642086D01*
X59356235Y-30961645D01*
X59773244Y-31134803D01*
X60224775Y-31135197D01*
X60642086Y-30962767D01*
X60961645Y-30643765D01*
X61134803Y-30226756D01*
X61134804Y-30224775D01*
X63864803Y-30224775D01*
X64037233Y-30642086D01*
X64356235Y-30961645D01*
X64773244Y-31134803D01*
X65224775Y-31135197D01*
X65642086Y-30962767D01*
X65961645Y-30643765D01*
X66134803Y-30226756D01*
X66134804Y-30224775D01*
X68864803Y-30224775D01*
X69037233Y-30642086D01*
X69356235Y-30961645D01*
X69773244Y-31134803D01*
X70224775Y-31135197D01*
X70642086Y-30962767D01*
X70961645Y-30643765D01*
X71134803Y-30226756D01*
X71134804Y-30224775D01*
X73864803Y-30224775D01*
X74037233Y-30642086D01*
X74356235Y-30961645D01*
X74773244Y-31134803D01*
X75224775Y-31135197D01*
X75642086Y-30962767D01*
X75961645Y-30643765D01*
X76134803Y-30226756D01*
X76135197Y-29775225D01*
X75962767Y-29357914D01*
X75643765Y-29038355D01*
X75226756Y-28865197D01*
X74775225Y-28864803D01*
X74357914Y-29037233D01*
X74038355Y-29356235D01*
X73865197Y-29773244D01*
X73864803Y-30224775D01*
X71134804Y-30224775D01*
X71135197Y-29775225D01*
X70962767Y-29357914D01*
X70643765Y-29038355D01*
X70226756Y-28865197D01*
X69775225Y-28864803D01*
X69357914Y-29037233D01*
X69038355Y-29356235D01*
X68865197Y-29773244D01*
X68864803Y-30224775D01*
X66134804Y-30224775D01*
X66135197Y-29775225D01*
X65962767Y-29357914D01*
X65643765Y-29038355D01*
X65226756Y-28865197D01*
X64775225Y-28864803D01*
X64357914Y-29037233D01*
X64038355Y-29356235D01*
X63865197Y-29773244D01*
X63864803Y-30224775D01*
X61134804Y-30224775D01*
X61135197Y-29775225D01*
X60962767Y-29357914D01*
X60643765Y-29038355D01*
X60226756Y-28865197D01*
X59775225Y-28864803D01*
X59357914Y-29037233D01*
X59038355Y-29356235D01*
X58865197Y-29773244D01*
X58864803Y-30224775D01*
X56134804Y-30224775D01*
X56135197Y-29775225D01*
X55962767Y-29357914D01*
X55643765Y-29038355D01*
X55226756Y-28865197D01*
X54775225Y-28864803D01*
X54357914Y-29037233D01*
X54038355Y-29356235D01*
X53865197Y-29773244D01*
X53864803Y-30224775D01*
X51134804Y-30224775D01*
X51135197Y-29775225D01*
X50962767Y-29357914D01*
X50643765Y-29038355D01*
X50226756Y-28865197D01*
X49775225Y-28864803D01*
X49357914Y-29037233D01*
X49038355Y-29356235D01*
X48865197Y-29773244D01*
X48864803Y-30224775D01*
X43799577Y-30224775D01*
X43260000Y-29685198D01*
X43260000Y-27500000D01*
X43202148Y-27209161D01*
X43037401Y-26962599D01*
X42796309Y-26801507D01*
X41463637Y-25468835D01*
X41512183Y-25224775D01*
X48864803Y-25224775D01*
X49037233Y-25642086D01*
X49356235Y-25961645D01*
X49773244Y-26134803D01*
X50224775Y-26135197D01*
X50642086Y-25962767D01*
X50961645Y-25643765D01*
X51134803Y-25226756D01*
X51134804Y-25224775D01*
X53864803Y-25224775D01*
X54037233Y-25642086D01*
X54356235Y-25961645D01*
X54773244Y-26134803D01*
X55224775Y-26135197D01*
X55642086Y-25962767D01*
X55961645Y-25643765D01*
X56134803Y-25226756D01*
X56134804Y-25224775D01*
X58864803Y-25224775D01*
X59037233Y-25642086D01*
X59356235Y-25961645D01*
X59773244Y-26134803D01*
X60224775Y-26135197D01*
X60642086Y-25962767D01*
X60961645Y-25643765D01*
X61134803Y-25226756D01*
X61134804Y-25224775D01*
X63864803Y-25224775D01*
X64037233Y-25642086D01*
X64356235Y-25961645D01*
X64773244Y-26134803D01*
X65224775Y-26135197D01*
X65642086Y-25962767D01*
X65961645Y-25643765D01*
X66134803Y-25226756D01*
X66134804Y-25224775D01*
X68864803Y-25224775D01*
X69037233Y-25642086D01*
X69356235Y-25961645D01*
X69773244Y-26134803D01*
X70224775Y-26135197D01*
X70642086Y-25962767D01*
X70961645Y-25643765D01*
X71134803Y-25226756D01*
X71135197Y-24775225D01*
X70962767Y-24357914D01*
X70643765Y-24038355D01*
X70226756Y-23865197D01*
X69775225Y-23864803D01*
X69357914Y-24037233D01*
X69038355Y-24356235D01*
X68865197Y-24773244D01*
X68864803Y-25224775D01*
X66134804Y-25224775D01*
X66135197Y-24775225D01*
X65962767Y-24357914D01*
X65643765Y-24038355D01*
X65226756Y-23865197D01*
X64775225Y-23864803D01*
X64357914Y-24037233D01*
X64038355Y-24356235D01*
X63865197Y-24773244D01*
X63864803Y-25224775D01*
X61134804Y-25224775D01*
X61135197Y-24775225D01*
X60962767Y-24357914D01*
X60643765Y-24038355D01*
X60226756Y-23865197D01*
X59775225Y-23864803D01*
X59357914Y-24037233D01*
X59038355Y-24356235D01*
X58865197Y-24773244D01*
X58864803Y-25224775D01*
X56134804Y-25224775D01*
X56135197Y-24775225D01*
X55962767Y-24357914D01*
X55643765Y-24038355D01*
X55226756Y-23865197D01*
X54775225Y-23864803D01*
X54357914Y-24037233D01*
X54038355Y-24356235D01*
X53865197Y-24773244D01*
X53864803Y-25224775D01*
X51134804Y-25224775D01*
X51135197Y-24775225D01*
X50962767Y-24357914D01*
X50643765Y-24038355D01*
X50226756Y-23865197D01*
X49775225Y-23864803D01*
X49357914Y-24037233D01*
X49038355Y-24356235D01*
X48865197Y-24773244D01*
X48864803Y-25224775D01*
X41512183Y-25224775D01*
X41535000Y-25110072D01*
X41535000Y-25049928D01*
X41418155Y-24462509D01*
X41085409Y-23964519D01*
X40854155Y-23810000D01*
X41085409Y-23655481D01*
X41418155Y-23157491D01*
X41528408Y-22603210D01*
X41962599Y-23037401D01*
X42209161Y-23202148D01*
X42500000Y-23260000D01*
X74685198Y-23260000D01*
X75335585Y-23910387D01*
X75226756Y-23865197D01*
X74775225Y-23864803D01*
X74357914Y-24037233D01*
X74038355Y-24356235D01*
X73865197Y-24773244D01*
X73864803Y-25224775D01*
X74037233Y-25642086D01*
X74356235Y-25961645D01*
X74773244Y-26134803D01*
X75224775Y-26135197D01*
X75642086Y-25962767D01*
X75961645Y-25643765D01*
X76134803Y-25226756D01*
X76135197Y-24775225D01*
X76089269Y-24664071D01*
X76962599Y-25537401D01*
X77209161Y-25702148D01*
X77500000Y-25760000D01*
X80935708Y-25760000D01*
X88213109Y-33037401D01*
X88353070Y-33130920D01*
X88353070Y-33499490D01*
X88397348Y-33734807D01*
X88536420Y-33950931D01*
X88748620Y-34095921D01*
X89000510Y-34146930D01*
X90999490Y-34146930D01*
X91234807Y-34102652D01*
X91450931Y-33963580D01*
X91595921Y-33751380D01*
X91646930Y-33499490D01*
X91646930Y-31500510D01*
X91602652Y-31265193D01*
X91463580Y-31049069D01*
X91251380Y-30904079D01*
X90999490Y-30853070D01*
X89000510Y-30853070D01*
X88765193Y-30897348D01*
X88549069Y-31036420D01*
X88473025Y-31147713D01*
X81787911Y-24462599D01*
X81541349Y-24297852D01*
X81250510Y-24240000D01*
X77814802Y-24240000D01*
X75537401Y-21962599D01*
X75290839Y-21797852D01*
X75000000Y-21740000D01*
X42814802Y-21740000D01*
X41642323Y-20567521D01*
X41687401Y-20537401D01*
X41852148Y-20290839D01*
X41910000Y-20000000D01*
X41852148Y-19709161D01*
X41687401Y-19462599D01*
X41547440Y-19369080D01*
X41547440Y-19100000D01*
X41503162Y-18864683D01*
X41364090Y-18648559D01*
X41151890Y-18503569D01*
X40900000Y-18452560D01*
X39100000Y-18452560D01*
X38864683Y-18496838D01*
X38648559Y-18635910D01*
X38503569Y-18848110D01*
X38452560Y-19100000D01*
X38452560Y-20900000D01*
X38496838Y-21135317D01*
X38635910Y-21351441D01*
X38848110Y-21496431D01*
X38864344Y-21499719D01*
X38581845Y-21922509D01*
X38465000Y-22509928D01*
X38465000Y-22570072D01*
X38536363Y-22928835D01*
X36962599Y-24502599D01*
X36797852Y-24749161D01*
X36740000Y-25040000D01*
X36740000Y-30000000D01*
X36797852Y-30290839D01*
X36962599Y-30537401D01*
X37209161Y-30702148D01*
X37500000Y-30760000D01*
X37701092Y-30720000D01*
X38452560Y-30720000D01*
X38452560Y-30860000D01*
X38496838Y-31095317D01*
X38635910Y-31311441D01*
X38848110Y-31456431D01*
X38864344Y-31459719D01*
X38760589Y-31615000D01*
X31169183Y-31615000D01*
X31234807Y-31602652D01*
X31450931Y-31463580D01*
X31595921Y-31251380D01*
X31646930Y-30999490D01*
X31646930Y-29000510D01*
X31602652Y-28765193D01*
X31463580Y-28549069D01*
X31251380Y-28404079D01*
X30999490Y-28353070D01*
X29000510Y-28353070D01*
X28765193Y-28397348D01*
X28549069Y-28536420D01*
X28404079Y-28748620D01*
X28353070Y-29000510D01*
X28353070Y-30999490D01*
X28397348Y-31234807D01*
X28536420Y-31450931D01*
X28748620Y-31595921D01*
X28842835Y-31615000D01*
X21166663Y-31615000D01*
X21232287Y-31602652D01*
X21448411Y-31463580D01*
X21593401Y-31251380D01*
X21644410Y-30999490D01*
X21644410Y-29000510D01*
X21600132Y-28765193D01*
X21461060Y-28549069D01*
X21248860Y-28404079D01*
X20996970Y-28353070D01*
X18997990Y-28353070D01*
X18762673Y-28397348D01*
X18546549Y-28536420D01*
X18401559Y-28748620D01*
X18350550Y-29000510D01*
X18350550Y-30999490D01*
X18394828Y-31234807D01*
X18533900Y-31450931D01*
X18746100Y-31595921D01*
X18840315Y-31615000D01*
X17250005Y-31615000D01*
X17250000Y-31614999D01*
X16967516Y-31671190D01*
X16911325Y-31682367D01*
X16624210Y-31874210D01*
X16624208Y-31874213D01*
X14079557Y-34418863D01*
X13500000Y-34303582D01*
X12778642Y-34447069D01*
X12167104Y-34855686D01*
X11840229Y-35344889D01*
X11840229Y-26734573D01*
X13037401Y-25537401D01*
X13202148Y-25290840D01*
X13238105Y-25110072D01*
X13260000Y-25000000D01*
X13260000Y-24240000D01*
X21052560Y-24240000D01*
X21052560Y-25760000D01*
X21096838Y-25995317D01*
X21235910Y-26211441D01*
X21448110Y-26356431D01*
X21700000Y-26407440D01*
X23220000Y-26407440D01*
X23455317Y-26363162D01*
X23671441Y-26224090D01*
X23816431Y-26011890D01*
X23853969Y-25826520D01*
X24208764Y-26181934D01*
X24721300Y-26394758D01*
X25276265Y-26395242D01*
X25789172Y-26183313D01*
X26181934Y-25791236D01*
X26269954Y-25579262D01*
X26356687Y-25789172D01*
X26748764Y-26181934D01*
X27261300Y-26394758D01*
X27816265Y-26395242D01*
X28329172Y-26183313D01*
X28721934Y-25791236D01*
X28934758Y-25278700D01*
X28935242Y-24723735D01*
X28723313Y-24210828D01*
X28331236Y-23818066D01*
X27818700Y-23605242D01*
X27469864Y-23604938D01*
X32814802Y-18260000D01*
X75849968Y-18260000D01*
X80713109Y-23123141D01*
X80853070Y-23216660D01*
X80853070Y-23585230D01*
X80897348Y-23820547D01*
X81036420Y-24036671D01*
X81248620Y-24181661D01*
X81500510Y-24232670D01*
X83499490Y-24232670D01*
X83734807Y-24188392D01*
X83950931Y-24049320D01*
X84095921Y-23837120D01*
X84146930Y-23585230D01*
X84146930Y-22633490D01*
X88050841Y-26537401D01*
X88297403Y-26702148D01*
X88588242Y-26760000D01*
X93152560Y-26760000D01*
X93152560Y-27200000D01*
X93196838Y-27435317D01*
X93335910Y-27651441D01*
X93548110Y-27796431D01*
X93800000Y-27847440D01*
X96200000Y-27847440D01*
X96435317Y-27803162D01*
X96651441Y-27664090D01*
X96796431Y-27451890D01*
X96847440Y-27200000D01*
X96847440Y-24800000D01*
X96803162Y-24564683D01*
X96664090Y-24348559D01*
X96451890Y-24203569D01*
X96200000Y-24152560D01*
X95805712Y-24152560D01*
X96038086Y-24056545D01*
X96554730Y-23540801D01*
X96834681Y-22866605D01*
X96835318Y-22136597D01*
X96556545Y-21461914D01*
X96040801Y-20945270D01*
X95366605Y-20665319D01*
X94636597Y-20664682D01*
X93961914Y-20943455D01*
X93445270Y-21459199D01*
X93165319Y-22133395D01*
X93164682Y-22863403D01*
X93443455Y-23538086D01*
X93959199Y-24054730D01*
X94194799Y-24152560D01*
X93800000Y-24152560D01*
X93564683Y-24196838D01*
X93348559Y-24335910D01*
X93203569Y-24548110D01*
X93152560Y-24800000D01*
X93152560Y-25240000D01*
X88903044Y-25240000D01*
X73125643Y-9462599D01*
X72879081Y-9297852D01*
X72588242Y-9240000D01*
X32500000Y-9240000D01*
X32209161Y-9297852D01*
X31962599Y-9462599D01*
X30309381Y-11115817D01*
X30279100Y-11103243D01*
X29723339Y-11102758D01*
X29209697Y-11314990D01*
X28816371Y-11707630D01*
X28603243Y-12220900D01*
X28602758Y-12776661D01*
X28814990Y-13290303D01*
X29207630Y-13683629D01*
X29720900Y-13896757D01*
X30276661Y-13897242D01*
X30790303Y-13685010D01*
X30958590Y-13517016D01*
X36662589Y-13517016D01*
X36738295Y-13764462D01*
X37280165Y-13959703D01*
X37855503Y-13932718D01*
X38261705Y-13764462D01*
X38337411Y-13517016D01*
X37500000Y-12679605D01*
X36662589Y-13517016D01*
X30958590Y-13517016D01*
X31183629Y-13292370D01*
X31396757Y-12779100D01*
X31397192Y-12280165D01*
X36040297Y-12280165D01*
X36067282Y-12855503D01*
X36235538Y-13261705D01*
X36482984Y-13337411D01*
X37320395Y-12500000D01*
X37679605Y-12500000D01*
X38517016Y-13337411D01*
X38764462Y-13261705D01*
X38959703Y-12719835D01*
X38932718Y-12144497D01*
X38764462Y-11738295D01*
X38517016Y-11662589D01*
X37679605Y-12500000D01*
X37320395Y-12500000D01*
X36482984Y-11662589D01*
X36235538Y-11738295D01*
X36040297Y-12280165D01*
X31397192Y-12280165D01*
X31397242Y-12223339D01*
X31383857Y-12190945D01*
X32091818Y-11482984D01*
X36662589Y-11482984D01*
X37500000Y-12320395D01*
X38337411Y-11482984D01*
X38261705Y-11235538D01*
X37719835Y-11040297D01*
X37144497Y-11067282D01*
X36738295Y-11235538D01*
X36662589Y-11482984D01*
X32091818Y-11482984D01*
X32814802Y-10760000D01*
X72273440Y-10760000D01*
X82452250Y-20938810D01*
X81500510Y-20938810D01*
X81265193Y-20983088D01*
X81049069Y-21122160D01*
X80973025Y-21233453D01*
X76702171Y-16962599D01*
X76455609Y-16797852D01*
X76164770Y-16740000D01*
X32500000Y-16740000D01*
X32209161Y-16797852D01*
X31962599Y-16962599D01*
X25307851Y-23617347D01*
X25278700Y-23605242D01*
X24723735Y-23604758D01*
X24210828Y-23816687D01*
X23854684Y-24172210D01*
X23823162Y-24004683D01*
X23704510Y-23820292D01*
X25537401Y-21987401D01*
X25702148Y-21740840D01*
X25720028Y-21650952D01*
X25760000Y-21450000D01*
X25760000Y-10314802D01*
X30314802Y-5760000D01*
X73437208Y-5760000D01*
X88647664Y-20970456D01*
X88549069Y-21033900D01*
X88404079Y-21246100D01*
X88353070Y-21497990D01*
X88353070Y-23496970D01*
X88397348Y-23732287D01*
X88536420Y-23948411D01*
X88748620Y-24093401D01*
X89000510Y-24144410D01*
X90999490Y-24144410D01*
X91234807Y-24100132D01*
X91450931Y-23961060D01*
X91595921Y-23748860D01*
X91646930Y-23496970D01*
X91646930Y-21497990D01*
X91602652Y-21262673D01*
X91463580Y-21046549D01*
X91251380Y-20901559D01*
X90999490Y-20850550D01*
X90630920Y-20850550D01*
X90537401Y-20710589D01*
X81514012Y-11687200D01*
X92427760Y-11687200D01*
X92427760Y-13312800D01*
X92472038Y-13548117D01*
X92611110Y-13764241D01*
X92823310Y-13909231D01*
X93075200Y-13960240D01*
X94700800Y-13960240D01*
X94936117Y-13915962D01*
X95152241Y-13776890D01*
X95297231Y-13564690D01*
X95348240Y-13312800D01*
X95348240Y-11687200D01*
X95303962Y-11451883D01*
X95164890Y-11235759D01*
X94952690Y-11090769D01*
X94700800Y-11039760D01*
X93075200Y-11039760D01*
X92839883Y-11084038D01*
X92623759Y-11223110D01*
X92478769Y-11435310D01*
X92427760Y-11687200D01*
X81514012Y-11687200D01*
X74289411Y-4462599D01*
X74042849Y-4297852D01*
X73752010Y-4240000D01*
X30000000Y-4240000D01*
X29709161Y-4297852D01*
X29462599Y-4462599D01*
X24462599Y-9462599D01*
X24297852Y-9709161D01*
X24240000Y-10000000D01*
X24240000Y-21135198D01*
X21922599Y-23452599D01*
X21829080Y-23592560D01*
X21700000Y-23592560D01*
X21464683Y-23636838D01*
X21248559Y-23775910D01*
X21103569Y-23988110D01*
X21052560Y-24240000D01*
X13260000Y-24240000D01*
X13260000Y-15904000D01*
X13202148Y-15613161D01*
X13037401Y-15366599D01*
X11291052Y-13620250D01*
X11603527Y-13411461D01*
X11882947Y-12993279D01*
X11981066Y-12500000D01*
X11882947Y-12006721D01*
X11703394Y-11738000D01*
X21072160Y-11738000D01*
X21072160Y-13262000D01*
X21116438Y-13497317D01*
X21255510Y-13713441D01*
X21467710Y-13858431D01*
X21719600Y-13909440D01*
X23243600Y-13909440D01*
X23478917Y-13865162D01*
X23695041Y-13726090D01*
X23840031Y-13513890D01*
X23891040Y-13262000D01*
X23891040Y-11738000D01*
X23846762Y-11502683D01*
X23707690Y-11286559D01*
X23495490Y-11141569D01*
X23243600Y-11090560D01*
X21719600Y-11090560D01*
X21484283Y-11134838D01*
X21268159Y-11273910D01*
X21123169Y-11486110D01*
X21072160Y-11738000D01*
X11703394Y-11738000D01*
X11603527Y-11588539D01*
X11185345Y-11309119D01*
X10692066Y-11211000D01*
X9307934Y-11211000D01*
X8814655Y-11309119D01*
X8396473Y-11588539D01*
X8260000Y-11792785D01*
X8260000Y-11326802D01*
X13037401Y-6549401D01*
X13130920Y-6409440D01*
X13262000Y-6409440D01*
X13497317Y-6365162D01*
X13713441Y-6226090D01*
X13858431Y-6013890D01*
X13891209Y-5852029D01*
X14222230Y-6183629D01*
X14735500Y-6396757D01*
X15291261Y-6397242D01*
X15804903Y-6185010D01*
X16198229Y-5792370D01*
X16411357Y-5279100D01*
X16411842Y-4723339D01*
X16199610Y-4209697D01*
X15806970Y-3816371D01*
X15293700Y-3603243D01*
X14737939Y-3602758D01*
X14224297Y-3814990D01*
X13892221Y-4146487D01*
X13865162Y-4002683D01*
X13726090Y-3786559D01*
X13513890Y-3641569D01*
X13262000Y-3590560D01*
X11738000Y-3590560D01*
X11502683Y-3634838D01*
X11286559Y-3773910D01*
X11141569Y-3986110D01*
X11090560Y-4238000D01*
X11090560Y-5762000D01*
X11134838Y-5997317D01*
X11254273Y-6182925D01*
X6962599Y-10474599D01*
X6797852Y-10721161D01*
X6740000Y-11012000D01*
X890753Y-11012000D01*
X743023Y-10913290D01*
X710000Y-10906721D01*
X710000Y-5069931D01*
X1049408Y-3363610D01*
X1976349Y-1976346D01*
X3363610Y-1049408D01*
X5069931Y-710000D01*
X94930069Y-710000D01*
X96636390Y-1049408D01*
X96636390Y-1049408D01*
G37*
X96636390Y-1049408D02*
X98023654Y-1976349D01*
X98950592Y-3363610D01*
X99290000Y-5069931D01*
X99290000Y-69930069D01*
X98950592Y-71636390D01*
X98023654Y-73023651D01*
X96636390Y-73950592D01*
X94930069Y-74290000D01*
X5069931Y-74290000D01*
X3363610Y-73950592D01*
X1976349Y-73023654D01*
X1049408Y-71636390D01*
X710000Y-69930069D01*
X710000Y-55285750D01*
X3425000Y-55285750D01*
X3425000Y-56026310D01*
X3521673Y-56259699D01*
X3700302Y-56438327D01*
X3933691Y-56535000D01*
X4674250Y-56535000D01*
X4833000Y-56376250D01*
X4833000Y-55127000D01*
X3583750Y-55127000D01*
X3425000Y-55285750D01*
X710000Y-55285750D01*
X710000Y-53973690D01*
X3425000Y-53973690D01*
X3425000Y-54714250D01*
X3583750Y-54873000D01*
X4833000Y-54873000D01*
X4833000Y-53623750D01*
X5087000Y-53623750D01*
X5087000Y-54873000D01*
X5107000Y-54873000D01*
X5107000Y-55127000D01*
X5087000Y-55127000D01*
X5087000Y-56376250D01*
X5245750Y-56535000D01*
X5986309Y-56535000D01*
X6219698Y-56438327D01*
X6398327Y-56259699D01*
X6454119Y-56125006D01*
X6629357Y-56300551D01*
X7193330Y-56534733D01*
X7803991Y-56535265D01*
X8368371Y-56302068D01*
X8800551Y-55870643D01*
X9034733Y-55306670D01*
X9035265Y-54696009D01*
X8802068Y-54131629D01*
X8370643Y-53699449D01*
X7806670Y-53465267D01*
X7196009Y-53464735D01*
X6631629Y-53697932D01*
X6454159Y-53875092D01*
X6398327Y-53740301D01*
X6219698Y-53561673D01*
X5986309Y-53465000D01*
X5245750Y-53465000D01*
X5087000Y-53623750D01*
X4833000Y-53623750D01*
X4674250Y-53465000D01*
X3933691Y-53465000D01*
X3700302Y-53561673D01*
X3521673Y-53740301D01*
X3425000Y-53973690D01*
X710000Y-53973690D01*
X710000Y-36248000D01*
X5740000Y-36248000D01*
X5740000Y-37373000D01*
X6364950Y-37373000D01*
X6364950Y-37627000D01*
X5740000Y-37627000D01*
X5740000Y-38752000D01*
X5922573Y-39415856D01*
X6345295Y-39959311D01*
X6943810Y-40299629D01*
X7099957Y-40338933D01*
X7373000Y-40221206D01*
X7373000Y-39635050D01*
X7627000Y-39635050D01*
X7627000Y-40221206D01*
X7900043Y-40338933D01*
X8056190Y-40299629D01*
X8654705Y-39959311D01*
X9077427Y-39415856D01*
X9260000Y-38752000D01*
X9260000Y-37627000D01*
X8635050Y-37627000D01*
X8635050Y-37373000D01*
X9260000Y-37373000D01*
X9260000Y-36248000D01*
X9077427Y-35584144D01*
X8654705Y-35040689D01*
X8056190Y-34700371D01*
X7900043Y-34661067D01*
X7627000Y-34778794D01*
X7627000Y-35364950D01*
X7373000Y-35364950D01*
X7373000Y-34778794D01*
X7099957Y-34661067D01*
X6943810Y-34700371D01*
X6345295Y-35040689D01*
X5922573Y-35584144D01*
X5740000Y-36248000D01*
X710000Y-36248000D01*
X710000Y-24093279D01*
X743023Y-24086710D01*
X949048Y-23949048D01*
X1086710Y-23743023D01*
X1135050Y-23500000D01*
X1135050Y-22744579D01*
X1264786Y-22744579D01*
X1452408Y-23198657D01*
X1799515Y-23546371D01*
X2253266Y-23734785D01*
X2744579Y-23735214D01*
X3198657Y-23547592D01*
X3546371Y-23200485D01*
X3734785Y-22746734D01*
X3734786Y-22744579D01*
X3764786Y-22744579D01*
X3952408Y-23198657D01*
X4299515Y-23546371D01*
X4753266Y-23734785D01*
X5244579Y-23735214D01*
X5698657Y-23547592D01*
X6046371Y-23200485D01*
X6234785Y-22746734D01*
X6235214Y-22255421D01*
X6047592Y-21801343D01*
X5700485Y-21453629D01*
X5246734Y-21265215D01*
X4755421Y-21264786D01*
X4301343Y-21452408D01*
X3953629Y-21799515D01*
X3765215Y-22253266D01*
X3764786Y-22744579D01*
X3734786Y-22744579D01*
X3735214Y-22255421D01*
X3547592Y-21801343D01*
X3200485Y-21453629D01*
X2746734Y-21265215D01*
X2255421Y-21264786D01*
X1801343Y-21452408D01*
X1453629Y-21799515D01*
X1265215Y-22253266D01*
X1264786Y-22744579D01*
X1135050Y-22744579D01*
X1135050Y-20710000D01*
X2500000Y-20710000D01*
X2771705Y-20655954D01*
X3002046Y-20502046D01*
X3155954Y-20271705D01*
X3210000Y-20000000D01*
X3210000Y-16719000D01*
X3711000Y-16719000D01*
X3711000Y-17373000D01*
X3964950Y-17373000D01*
X3964950Y-17627000D01*
X3711000Y-17627000D01*
X3711000Y-18281000D01*
X3857720Y-18764612D01*
X4178342Y-19155264D01*
X4624054Y-19393482D01*
X4673901Y-19401068D01*
X4873000Y-19277092D01*
X4873000Y-18885050D01*
X5127000Y-18885050D01*
X5127000Y-19277092D01*
X5326099Y-19401068D01*
X5375946Y-19393482D01*
X5821658Y-19155264D01*
X6142280Y-18764612D01*
X6289000Y-18281000D01*
X6289000Y-17627000D01*
X6035050Y-17627000D01*
X6035050Y-17373000D01*
X6289000Y-17373000D01*
X6289000Y-16719000D01*
X6142280Y-16235388D01*
X5821658Y-15844736D01*
X5375946Y-15606518D01*
X5326099Y-15598932D01*
X5127000Y-15722908D01*
X5127000Y-16114950D01*
X4873000Y-16114950D01*
X4873000Y-15722908D01*
X4673901Y-15598932D01*
X4624054Y-15606518D01*
X4178342Y-15844736D01*
X3857720Y-16235388D01*
X3711000Y-16719000D01*
X3210000Y-16719000D01*
X3210000Y-15000000D01*
X3155954Y-14728295D01*
X3002046Y-14497954D01*
X2771705Y-14344046D01*
X2500000Y-14290000D01*
X1135050Y-14290000D01*
X1135050Y-12744579D01*
X1264786Y-12744579D01*
X1452408Y-13198657D01*
X1799515Y-13546371D01*
X2253266Y-13734785D01*
X2744579Y-13735214D01*
X3198657Y-13547592D01*
X3546371Y-13200485D01*
X3734785Y-12746734D01*
X3734786Y-12744579D01*
X3764786Y-12744579D01*
X3952408Y-13198657D01*
X4299515Y-13546371D01*
X4753266Y-13734785D01*
X5244579Y-13735214D01*
X5698657Y-13547592D01*
X6046371Y-13200485D01*
X6234785Y-12746734D01*
X6235214Y-12255421D01*
X6047592Y-11801343D01*
X5700485Y-11453629D01*
X5246734Y-11265215D01*
X4755421Y-11264786D01*
X4301343Y-11452408D01*
X3953629Y-11799515D01*
X3765215Y-12253266D01*
X3764786Y-12744579D01*
X3734786Y-12744579D01*
X3735214Y-12255421D01*
X3547592Y-11801343D01*
X3200485Y-11453629D01*
X2746734Y-11265215D01*
X2255421Y-11264786D01*
X1801343Y-11452408D01*
X1453629Y-11799515D01*
X1265215Y-12253266D01*
X1264786Y-12744579D01*
X1135050Y-12744579D01*
X1135050Y-11500000D01*
X1086710Y-11256977D01*
X949048Y-11050952D01*
X890753Y-11012000D01*
X6740000Y-11012000D01*
X6740000Y-19096000D01*
X6797852Y-19386839D01*
X6962599Y-19633401D01*
X8708948Y-21379750D01*
X8396473Y-21588539D01*
X8117053Y-22006721D01*
X8018934Y-22500000D01*
X8117053Y-22993279D01*
X8396473Y-23411461D01*
X8814655Y-23690881D01*
X9307934Y-23789000D01*
X10692066Y-23789000D01*
X11185345Y-23690881D01*
X11603527Y-23411461D01*
X11740000Y-23207215D01*
X11740000Y-24685198D01*
X10542828Y-25882370D01*
X10378081Y-26128932D01*
X10320229Y-26419771D01*
X10320229Y-63580229D01*
X10378081Y-63871068D01*
X10542828Y-64117630D01*
X11725400Y-65300202D01*
X11725400Y-68590560D01*
X11723400Y-68590560D01*
X11488083Y-68634838D01*
X11271959Y-68773910D01*
X11126969Y-68986110D01*
X11075960Y-69238000D01*
X11075960Y-70762000D01*
X11120238Y-70997317D01*
X11259310Y-71213441D01*
X11471510Y-71358431D01*
X11723400Y-71409440D01*
X13247400Y-71409440D01*
X13482717Y-71365162D01*
X13698841Y-71226090D01*
X13843831Y-71013890D01*
X13876609Y-70852029D01*
X14207630Y-71183629D01*
X14720900Y-71396757D01*
X15276661Y-71397242D01*
X15790303Y-71185010D01*
X16183629Y-70792370D01*
X16396757Y-70279100D01*
X16397242Y-69723339D01*
X16185010Y-69209697D01*
X15792370Y-68816371D01*
X15279100Y-68603243D01*
X14723339Y-68602758D01*
X14209697Y-68814990D01*
X13877621Y-69146487D01*
X13850562Y-69002683D01*
X13711490Y-68786559D01*
X13499290Y-68641569D01*
X13247400Y-68590560D01*
X13245400Y-68590560D01*
X13245400Y-64985400D01*
X13187548Y-64694561D01*
X13022801Y-64447999D01*
X11840229Y-63265427D01*
X11840229Y-61738000D01*
X21090560Y-61738000D01*
X21090560Y-63262000D01*
X21134838Y-63497317D01*
X21273910Y-63713441D01*
X21486110Y-63858431D01*
X21738000Y-63909440D01*
X23262000Y-63909440D01*
X23497317Y-63865162D01*
X23713441Y-63726090D01*
X23858431Y-63513890D01*
X23909440Y-63262000D01*
X23909440Y-62776661D01*
X28621158Y-62776661D01*
X28833390Y-63290303D01*
X29226030Y-63683629D01*
X29739300Y-63896757D01*
X30295061Y-63897242D01*
X30808703Y-63685010D01*
X30976990Y-63517016D01*
X36662589Y-63517016D01*
X36738295Y-63764462D01*
X37280165Y-63959703D01*
X37855503Y-63932718D01*
X38261705Y-63764462D01*
X38337411Y-63517016D01*
X37500000Y-62679605D01*
X36662589Y-63517016D01*
X30976990Y-63517016D01*
X31202029Y-63292370D01*
X31415157Y-62779100D01*
X31415592Y-62280165D01*
X36040297Y-62280165D01*
X36067282Y-62855503D01*
X36235538Y-63261705D01*
X36482984Y-63337411D01*
X37320395Y-62500000D01*
X37679605Y-62500000D01*
X38517016Y-63337411D01*
X38764462Y-63261705D01*
X38959703Y-62719835D01*
X38932718Y-62144497D01*
X38764462Y-61738295D01*
X38597458Y-61687200D01*
X92427760Y-61687200D01*
X92427760Y-63312800D01*
X92472038Y-63548117D01*
X92611110Y-63764241D01*
X92823310Y-63909231D01*
X93075200Y-63960240D01*
X94700800Y-63960240D01*
X94936117Y-63915962D01*
X95152241Y-63776890D01*
X95297231Y-63564690D01*
X95348240Y-63312800D01*
X95348240Y-61687200D01*
X95303962Y-61451883D01*
X95164890Y-61235759D01*
X94952690Y-61090769D01*
X94700800Y-61039760D01*
X93075200Y-61039760D01*
X92839883Y-61084038D01*
X92623759Y-61223110D01*
X92478769Y-61435310D01*
X92427760Y-61687200D01*
X38597458Y-61687200D01*
X38517016Y-61662589D01*
X37679605Y-62500000D01*
X37320395Y-62500000D01*
X36482984Y-61662589D01*
X36235538Y-61738295D01*
X36040297Y-62280165D01*
X31415592Y-62280165D01*
X31415642Y-62223339D01*
X31203410Y-61709697D01*
X30977093Y-61482984D01*
X36662589Y-61482984D01*
X37500000Y-62320395D01*
X38337411Y-61482984D01*
X38261705Y-61235538D01*
X37719835Y-61040297D01*
X37144497Y-61067282D01*
X36738295Y-61235538D01*
X36662589Y-61482984D01*
X30977093Y-61482984D01*
X30810770Y-61316371D01*
X30297500Y-61103243D01*
X29741739Y-61102758D01*
X29228097Y-61314990D01*
X28834771Y-61707630D01*
X28621643Y-62220900D01*
X28621158Y-62776661D01*
X23909440Y-62776661D01*
X23909440Y-61738000D01*
X23865162Y-61502683D01*
X23726090Y-61286559D01*
X23513890Y-61141569D01*
X23262000Y-61090560D01*
X21738000Y-61090560D01*
X21502683Y-61134838D01*
X21286559Y-61273910D01*
X21141569Y-61486110D01*
X21090560Y-61738000D01*
X11840229Y-61738000D01*
X11840229Y-56646930D01*
X13499490Y-56646930D01*
X13734807Y-56602652D01*
X13950931Y-56463580D01*
X14095921Y-56251380D01*
X14146930Y-55999490D01*
X14146930Y-54000510D01*
X14102652Y-53765193D01*
X13963580Y-53549069D01*
X13751380Y-53404079D01*
X13499490Y-53353070D01*
X11840229Y-53353070D01*
X11840229Y-50276265D01*
X21024758Y-50276265D01*
X21236687Y-50789172D01*
X21628764Y-51181934D01*
X22141300Y-51394758D01*
X22696265Y-51395242D01*
X23209172Y-51183313D01*
X23601934Y-50791236D01*
X23689954Y-50579262D01*
X23776687Y-50789172D01*
X24168764Y-51181934D01*
X24681300Y-51394758D01*
X25236265Y-51395242D01*
X25749172Y-51183313D01*
X26105316Y-50827790D01*
X26136838Y-50995317D01*
X26275910Y-51211441D01*
X26488110Y-51356431D01*
X26740000Y-51407440D01*
X28260000Y-51407440D01*
X28495317Y-51363162D01*
X28711441Y-51224090D01*
X28856431Y-51011890D01*
X28907440Y-50760000D01*
X29685198Y-50760000D01*
X39462599Y-60537401D01*
X39709161Y-60702148D01*
X40000000Y-60760000D01*
X81338770Y-60760000D01*
X81629609Y-60702148D01*
X81876171Y-60537401D01*
X88472976Y-53940596D01*
X88536420Y-54039191D01*
X88748620Y-54184181D01*
X89000510Y-54235190D01*
X90999490Y-54235190D01*
X91234807Y-54190912D01*
X91450931Y-54051840D01*
X91595921Y-53839640D01*
X91646930Y-53587750D01*
X91646930Y-51588770D01*
X91602652Y-51353453D01*
X91463580Y-51137329D01*
X91251380Y-50992339D01*
X90999490Y-50941330D01*
X89000510Y-50941330D01*
X88765193Y-50985608D01*
X88549069Y-51124680D01*
X88404079Y-51336880D01*
X88353070Y-51588770D01*
X88353070Y-51957340D01*
X88213109Y-52050859D01*
X81023968Y-59240000D01*
X40314802Y-59240000D01*
X30537401Y-49462599D01*
X30290839Y-49297852D01*
X30000000Y-49240000D01*
X28907440Y-49240000D01*
X28866045Y-49020000D01*
X38452560Y-49020000D01*
X38452560Y-50820000D01*
X38496838Y-51055317D01*
X38635910Y-51271441D01*
X38848110Y-51416431D01*
X38864344Y-51419719D01*
X38581845Y-51842509D01*
X38465000Y-52429928D01*
X38465000Y-52490072D01*
X38581845Y-53077491D01*
X38914591Y-53575481D01*
X39145845Y-53730000D01*
X38914591Y-53884519D01*
X38581845Y-54382509D01*
X38465000Y-54969928D01*
X38465000Y-55030072D01*
X38581845Y-55617491D01*
X38914591Y-56115481D01*
X39412581Y-56448227D01*
X40000000Y-56565072D01*
X40587419Y-56448227D01*
X41085409Y-56115481D01*
X41418155Y-55617491D01*
X41535000Y-55030072D01*
X41535000Y-54969928D01*
X41418155Y-54382509D01*
X41085409Y-53884519D01*
X40854155Y-53730000D01*
X41085409Y-53575481D01*
X41418155Y-53077491D01*
X41535000Y-52490072D01*
X41535000Y-52429928D01*
X41418155Y-51842509D01*
X41137163Y-51421974D01*
X41351441Y-51284090D01*
X41387100Y-51231902D01*
X43192599Y-53037401D01*
X43439161Y-53202148D01*
X43730000Y-53260000D01*
X49920000Y-53260000D01*
X50210839Y-53202148D01*
X50457401Y-53037401D01*
X51994292Y-51500510D01*
X80853070Y-51500510D01*
X80853070Y-53499490D01*
X80897348Y-53734807D01*
X81036420Y-53950931D01*
X81248620Y-54095921D01*
X81500510Y-54146930D01*
X83499490Y-54146930D01*
X83734807Y-54102652D01*
X83950931Y-53963580D01*
X84095921Y-53751380D01*
X84146930Y-53499490D01*
X84146930Y-51500510D01*
X84102652Y-51265193D01*
X83963580Y-51049069D01*
X83751380Y-50904079D01*
X83499490Y-50853070D01*
X81500510Y-50853070D01*
X81265193Y-50897348D01*
X81049069Y-51036420D01*
X80904079Y-51248620D01*
X80853070Y-51500510D01*
X51994292Y-51500510D01*
X53967195Y-49527607D01*
X53865197Y-49773244D01*
X53864803Y-50224775D01*
X54037233Y-50642086D01*
X54356235Y-50961645D01*
X54773244Y-51134803D01*
X55224775Y-51135197D01*
X55642086Y-50962767D01*
X55961645Y-50643765D01*
X56134803Y-50226756D01*
X56134804Y-50224775D01*
X58864803Y-50224775D01*
X59037233Y-50642086D01*
X59356235Y-50961645D01*
X59773244Y-51134803D01*
X60224775Y-51135197D01*
X60642086Y-50962767D01*
X60961645Y-50643765D01*
X61134803Y-50226756D01*
X61134804Y-50224775D01*
X63864803Y-50224775D01*
X64037233Y-50642086D01*
X64356235Y-50961645D01*
X64773244Y-51134803D01*
X65224775Y-51135197D01*
X65642086Y-50962767D01*
X65961645Y-50643765D01*
X66134803Y-50226756D01*
X66134804Y-50224775D01*
X68864803Y-50224775D01*
X69037233Y-50642086D01*
X69356235Y-50961645D01*
X69773244Y-51134803D01*
X70224775Y-51135197D01*
X70642086Y-50962767D01*
X70961645Y-50643765D01*
X71134803Y-50226756D01*
X71134804Y-50224775D01*
X73864803Y-50224775D01*
X74037233Y-50642086D01*
X74356235Y-50961645D01*
X74773244Y-51134803D01*
X75224775Y-51135197D01*
X75642086Y-50962767D01*
X75961645Y-50643765D01*
X76134803Y-50226756D01*
X76135197Y-49775225D01*
X75962767Y-49357914D01*
X75643765Y-49038355D01*
X75226756Y-48865197D01*
X74775225Y-48864803D01*
X74357914Y-49037233D01*
X74038355Y-49356235D01*
X73865197Y-49773244D01*
X73864803Y-50224775D01*
X71134804Y-50224775D01*
X71135197Y-49775225D01*
X70962767Y-49357914D01*
X70643765Y-49038355D01*
X70226756Y-48865197D01*
X69775225Y-48864803D01*
X69357914Y-49037233D01*
X69038355Y-49356235D01*
X68865197Y-49773244D01*
X68864803Y-50224775D01*
X66134804Y-50224775D01*
X66135197Y-49775225D01*
X65962767Y-49357914D01*
X65643765Y-49038355D01*
X65226756Y-48865197D01*
X64775225Y-48864803D01*
X64357914Y-49037233D01*
X64038355Y-49356235D01*
X63865197Y-49773244D01*
X63864803Y-50224775D01*
X61134804Y-50224775D01*
X61135197Y-49775225D01*
X60962767Y-49357914D01*
X60643765Y-49038355D01*
X60226756Y-48865197D01*
X59775225Y-48864803D01*
X59357914Y-49037233D01*
X59038355Y-49356235D01*
X58865197Y-49773244D01*
X58864803Y-50224775D01*
X56134804Y-50224775D01*
X56135197Y-49775225D01*
X55962767Y-49357914D01*
X55643765Y-49038355D01*
X55226756Y-48865197D01*
X54775225Y-48864803D01*
X54527740Y-48967062D01*
X55234802Y-48260000D01*
X86335230Y-48260000D01*
X86626069Y-48202148D01*
X86872631Y-48037401D01*
X90537401Y-44372631D01*
X90630920Y-44232670D01*
X90999490Y-44232670D01*
X91234807Y-44188392D01*
X91450931Y-44049320D01*
X91526975Y-43938027D01*
X94240000Y-46651052D01*
X94240000Y-48328552D01*
X93961914Y-48443455D01*
X93445270Y-48959199D01*
X93165319Y-49633395D01*
X93164682Y-50363403D01*
X93443455Y-51038086D01*
X93959199Y-51554730D01*
X94194799Y-51652560D01*
X93800000Y-51652560D01*
X93564683Y-51696838D01*
X93348559Y-51835910D01*
X93203569Y-52048110D01*
X93152560Y-52300000D01*
X93152560Y-54700000D01*
X93196838Y-54935317D01*
X93335910Y-55151441D01*
X93548110Y-55296431D01*
X93800000Y-55347440D01*
X96200000Y-55347440D01*
X96435317Y-55303162D01*
X96651441Y-55164090D01*
X96796431Y-54951890D01*
X96847440Y-54700000D01*
X96847440Y-52300000D01*
X96803162Y-52064683D01*
X96664090Y-51848559D01*
X96451890Y-51703569D01*
X96200000Y-51652560D01*
X95805712Y-51652560D01*
X96038086Y-51556545D01*
X96554730Y-51040801D01*
X96834681Y-50366605D01*
X96835318Y-49636597D01*
X96556545Y-48961914D01*
X96040801Y-48445270D01*
X95760000Y-48328671D01*
X95760000Y-46336250D01*
X95702148Y-46045411D01*
X95537401Y-45798849D01*
X91786891Y-42048339D01*
X91646930Y-41954820D01*
X91646930Y-41586250D01*
X91602652Y-41350933D01*
X91463580Y-41134809D01*
X91251380Y-40989819D01*
X90999490Y-40938810D01*
X89000510Y-40938810D01*
X88765193Y-40983088D01*
X88549069Y-41122160D01*
X88404079Y-41334360D01*
X88353070Y-41586250D01*
X88353070Y-43585230D01*
X88397348Y-43820547D01*
X88536420Y-44036671D01*
X88647713Y-44112715D01*
X86020428Y-46740000D01*
X54920000Y-46740000D01*
X54629161Y-46797852D01*
X54382599Y-46962599D01*
X51134817Y-50210381D01*
X51135197Y-49775225D01*
X50962767Y-49357914D01*
X50643765Y-49038355D01*
X50226756Y-48865197D01*
X49775225Y-48864803D01*
X49357914Y-49037233D01*
X49038355Y-49356235D01*
X48865197Y-49773244D01*
X48864803Y-50224775D01*
X49037233Y-50642086D01*
X49356235Y-50961645D01*
X49773244Y-51134803D01*
X50210014Y-51135184D01*
X49605198Y-51740000D01*
X44044802Y-51740000D01*
X41687401Y-49382599D01*
X41547440Y-49289080D01*
X41547440Y-49020000D01*
X41503162Y-48784683D01*
X41364090Y-48568559D01*
X41151890Y-48423569D01*
X40900000Y-48372560D01*
X39100000Y-48372560D01*
X38864683Y-48416838D01*
X38648559Y-48555910D01*
X38503569Y-48768110D01*
X38452560Y-49020000D01*
X28866045Y-49020000D01*
X28863162Y-49004683D01*
X28724090Y-48788559D01*
X28511890Y-48643569D01*
X28260000Y-48592560D01*
X26740000Y-48592560D01*
X26504683Y-48636838D01*
X26288559Y-48775910D01*
X26143569Y-48988110D01*
X26106031Y-49173480D01*
X25751236Y-48818066D01*
X25238700Y-48605242D01*
X24683735Y-48604758D01*
X24170828Y-48816687D01*
X23778066Y-49208764D01*
X23690046Y-49420738D01*
X23603313Y-49210828D01*
X23211236Y-48818066D01*
X22698700Y-48605242D01*
X22143735Y-48604758D01*
X21630828Y-48816687D01*
X21238066Y-49208764D01*
X21025242Y-49721300D01*
X21024758Y-50276265D01*
X11840229Y-50276265D01*
X11840229Y-46644410D01*
X13499490Y-46644410D01*
X13734807Y-46600132D01*
X13950931Y-46461060D01*
X14095921Y-46248860D01*
X14146930Y-45996970D01*
X14146930Y-44000510D01*
X18438810Y-44000510D01*
X18438810Y-45999490D01*
X18483088Y-46234807D01*
X18622160Y-46450931D01*
X18834360Y-46595921D01*
X19086250Y-46646930D01*
X21085230Y-46646930D01*
X21320547Y-46602652D01*
X21536671Y-46463580D01*
X21681661Y-46251380D01*
X21732670Y-45999490D01*
X21732670Y-44000510D01*
X28441330Y-44000510D01*
X28441330Y-45999490D01*
X28485608Y-46234807D01*
X28624680Y-46450931D01*
X28836880Y-46595921D01*
X29088770Y-46646930D01*
X29457340Y-46646930D01*
X29550859Y-46786891D01*
X30801369Y-48037401D01*
X31047930Y-48202148D01*
X31338770Y-48260000D01*
X45000000Y-48260000D01*
X45290839Y-48202148D01*
X45537401Y-48037401D01*
X48910387Y-44664415D01*
X48865197Y-44773244D01*
X48864803Y-45224775D01*
X49037233Y-45642086D01*
X49356235Y-45961645D01*
X49773244Y-46134803D01*
X50224775Y-46135197D01*
X50642086Y-45962767D01*
X50961645Y-45643765D01*
X51134803Y-45226756D01*
X51134804Y-45224775D01*
X53864803Y-45224775D01*
X54037233Y-45642086D01*
X54356235Y-45961645D01*
X54773244Y-46134803D01*
X55224775Y-46135197D01*
X55642086Y-45962767D01*
X55961645Y-45643765D01*
X56134803Y-45226756D01*
X56134804Y-45224775D01*
X58864803Y-45224775D01*
X59037233Y-45642086D01*
X59356235Y-45961645D01*
X59773244Y-46134803D01*
X60224775Y-46135197D01*
X60642086Y-45962767D01*
X60961645Y-45643765D01*
X61134803Y-45226756D01*
X61134804Y-45224775D01*
X63864803Y-45224775D01*
X64037233Y-45642086D01*
X64356235Y-45961645D01*
X64773244Y-46134803D01*
X65224775Y-46135197D01*
X65642086Y-45962767D01*
X65961645Y-45643765D01*
X66134803Y-45226756D01*
X66134804Y-45224775D01*
X68864803Y-45224775D01*
X69037233Y-45642086D01*
X69356235Y-45961645D01*
X69773244Y-46134803D01*
X70224775Y-46135197D01*
X70642086Y-45962767D01*
X70961645Y-45643765D01*
X71134803Y-45226756D01*
X71134804Y-45224775D01*
X73864803Y-45224775D01*
X74037233Y-45642086D01*
X74356235Y-45961645D01*
X74773244Y-46134803D01*
X75224775Y-46135197D01*
X75642086Y-45962767D01*
X75961645Y-45643765D01*
X76134803Y-45226756D01*
X76135197Y-44775225D01*
X75962767Y-44357914D01*
X75643765Y-44038355D01*
X75226756Y-43865197D01*
X74775225Y-43864803D01*
X74357914Y-44037233D01*
X74038355Y-44356235D01*
X73865197Y-44773244D01*
X73864803Y-45224775D01*
X71134804Y-45224775D01*
X71135197Y-44775225D01*
X70962767Y-44357914D01*
X70643765Y-44038355D01*
X70226756Y-43865197D01*
X69775225Y-43864803D01*
X69357914Y-44037233D01*
X69038355Y-44356235D01*
X68865197Y-44773244D01*
X68864803Y-45224775D01*
X66134804Y-45224775D01*
X66135197Y-44775225D01*
X65962767Y-44357914D01*
X65643765Y-44038355D01*
X65226756Y-43865197D01*
X64775225Y-43864803D01*
X64357914Y-44037233D01*
X64038355Y-44356235D01*
X63865197Y-44773244D01*
X63864803Y-45224775D01*
X61134804Y-45224775D01*
X61135197Y-44775225D01*
X60962767Y-44357914D01*
X60643765Y-44038355D01*
X60226756Y-43865197D01*
X59775225Y-43864803D01*
X59357914Y-44037233D01*
X59038355Y-44356235D01*
X58865197Y-44773244D01*
X58864803Y-45224775D01*
X56134804Y-45224775D01*
X56135197Y-44775225D01*
X55962767Y-44357914D01*
X55643765Y-44038355D01*
X55226756Y-43865197D01*
X54775225Y-43864803D01*
X54357914Y-44037233D01*
X54038355Y-44356235D01*
X53865197Y-44773244D01*
X53864803Y-45224775D01*
X51134804Y-45224775D01*
X51135197Y-44775225D01*
X50962767Y-44357914D01*
X50643765Y-44038355D01*
X50226756Y-43865197D01*
X49775225Y-43864803D01*
X49664071Y-43910731D01*
X50317322Y-43257480D01*
X80853070Y-43257480D01*
X80853070Y-43496970D01*
X80897348Y-43732287D01*
X81036420Y-43948411D01*
X81248620Y-44093401D01*
X81500510Y-44144410D01*
X83499490Y-44144410D01*
X83734807Y-44100132D01*
X83950931Y-43961060D01*
X84095921Y-43748860D01*
X84146930Y-43496970D01*
X84146930Y-41497990D01*
X84102652Y-41262673D01*
X83963580Y-41046549D01*
X83751380Y-40901559D01*
X83499490Y-40850550D01*
X81500510Y-40850550D01*
X81265193Y-40894828D01*
X81049069Y-41033900D01*
X80904079Y-41246100D01*
X80853070Y-41497990D01*
X80853070Y-41737480D01*
X50002520Y-41737480D01*
X49711681Y-41795332D01*
X49465119Y-41960079D01*
X44685198Y-46740000D01*
X31653572Y-46740000D01*
X31440596Y-46527024D01*
X31539191Y-46463580D01*
X31684181Y-46251380D01*
X31735190Y-45999490D01*
X31735190Y-44000510D01*
X31690912Y-43765193D01*
X31551840Y-43549069D01*
X31339640Y-43404079D01*
X31087750Y-43353070D01*
X29088770Y-43353070D01*
X28853453Y-43397348D01*
X28637329Y-43536420D01*
X28492339Y-43748620D01*
X28441330Y-44000510D01*
X21732670Y-44000510D01*
X21688392Y-43765193D01*
X21549320Y-43549069D01*
X21337120Y-43404079D01*
X21085230Y-43353070D01*
X19086250Y-43353070D01*
X18850933Y-43397348D01*
X18634809Y-43536420D01*
X18489819Y-43748620D01*
X18438810Y-44000510D01*
X14146930Y-44000510D01*
X14146930Y-43997990D01*
X14102652Y-43762673D01*
X13963580Y-43546549D01*
X13751380Y-43401559D01*
X13499490Y-43350550D01*
X11840229Y-43350550D01*
X11840229Y-39655111D01*
X12167104Y-40144314D01*
X12778642Y-40552931D01*
X13500000Y-40696418D01*
X14079557Y-40581137D01*
X16584208Y-43085787D01*
X16584210Y-43085790D01*
X16754582Y-43199628D01*
X16871325Y-43277633D01*
X17210000Y-43345000D01*
X38760589Y-43345000D01*
X38914591Y-43575481D01*
X39145845Y-43730000D01*
X38914591Y-43884519D01*
X38581845Y-44382509D01*
X38465000Y-44969928D01*
X38465000Y-45030072D01*
X38581845Y-45617491D01*
X38914591Y-46115481D01*
X39412581Y-46448227D01*
X40000000Y-46565072D01*
X40587419Y-46448227D01*
X41085409Y-46115481D01*
X41418155Y-45617491D01*
X41535000Y-45030072D01*
X41535000Y-44969928D01*
X41418155Y-44382509D01*
X41085409Y-43884519D01*
X40854155Y-43730000D01*
X41085409Y-43575481D01*
X41418155Y-43077491D01*
X41535000Y-42490072D01*
X41535000Y-42429928D01*
X41418155Y-41842509D01*
X41137163Y-41421974D01*
X41351441Y-41284090D01*
X41496431Y-41071890D01*
X41547440Y-40820000D01*
X41547440Y-40224775D01*
X48864803Y-40224775D01*
X49037233Y-40642086D01*
X49356235Y-40961645D01*
X49773244Y-41134803D01*
X50224775Y-41135197D01*
X50642086Y-40962767D01*
X50961645Y-40643765D01*
X51134803Y-40226756D01*
X51134804Y-40224775D01*
X53864803Y-40224775D01*
X54037233Y-40642086D01*
X54356235Y-40961645D01*
X54773244Y-41134803D01*
X55224775Y-41135197D01*
X55642086Y-40962767D01*
X55961645Y-40643765D01*
X56134803Y-40226756D01*
X56134804Y-40224775D01*
X58864803Y-40224775D01*
X59037233Y-40642086D01*
X59356235Y-40961645D01*
X59773244Y-41134803D01*
X60224775Y-41135197D01*
X60642086Y-40962767D01*
X60961645Y-40643765D01*
X61134803Y-40226756D01*
X61134804Y-40224775D01*
X63864803Y-40224775D01*
X64037233Y-40642086D01*
X64356235Y-40961645D01*
X64773244Y-41134803D01*
X65224775Y-41135197D01*
X65642086Y-40962767D01*
X65961645Y-40643765D01*
X66134803Y-40226756D01*
X66134804Y-40224775D01*
X68864803Y-40224775D01*
X69037233Y-40642086D01*
X69356235Y-40961645D01*
X69773244Y-41134803D01*
X70224775Y-41135197D01*
X70642086Y-40962767D01*
X70961645Y-40643765D01*
X71134803Y-40226756D01*
X71134804Y-40224775D01*
X73864803Y-40224775D01*
X74037233Y-40642086D01*
X74356235Y-40961645D01*
X74773244Y-41134803D01*
X75224775Y-41135197D01*
X75642086Y-40962767D01*
X75961645Y-40643765D01*
X76134803Y-40226756D01*
X76135197Y-39775225D01*
X75962767Y-39357914D01*
X75643765Y-39038355D01*
X75226756Y-38865197D01*
X74775225Y-38864803D01*
X74357914Y-39037233D01*
X74038355Y-39356235D01*
X73865197Y-39773244D01*
X73864803Y-40224775D01*
X71134804Y-40224775D01*
X71135197Y-39775225D01*
X70962767Y-39357914D01*
X70643765Y-39038355D01*
X70226756Y-38865197D01*
X69775225Y-38864803D01*
X69357914Y-39037233D01*
X69038355Y-39356235D01*
X68865197Y-39773244D01*
X68864803Y-40224775D01*
X66134804Y-40224775D01*
X66135197Y-39775225D01*
X65962767Y-39357914D01*
X65643765Y-39038355D01*
X65226756Y-38865197D01*
X64775225Y-38864803D01*
X64357914Y-39037233D01*
X64038355Y-39356235D01*
X63865197Y-39773244D01*
X63864803Y-40224775D01*
X61134804Y-40224775D01*
X61135197Y-39775225D01*
X60962767Y-39357914D01*
X60643765Y-39038355D01*
X60226756Y-38865197D01*
X59775225Y-38864803D01*
X59357914Y-39037233D01*
X59038355Y-39356235D01*
X58865197Y-39773244D01*
X58864803Y-40224775D01*
X56134804Y-40224775D01*
X56135197Y-39775225D01*
X55962767Y-39357914D01*
X55643765Y-39038355D01*
X55226756Y-38865197D01*
X54775225Y-38864803D01*
X54357914Y-39037233D01*
X54038355Y-39356235D01*
X53865197Y-39773244D01*
X53864803Y-40224775D01*
X51134804Y-40224775D01*
X51135197Y-39775225D01*
X50962767Y-39357914D01*
X50643765Y-39038355D01*
X50226756Y-38865197D01*
X49775225Y-38864803D01*
X49357914Y-39037233D01*
X49038355Y-39356235D01*
X48865197Y-39773244D01*
X48864803Y-40224775D01*
X41547440Y-40224775D01*
X41547440Y-39020000D01*
X41503162Y-38784683D01*
X41364090Y-38568559D01*
X41151890Y-38423569D01*
X40900000Y-38372560D01*
X39100000Y-38372560D01*
X38864683Y-38416838D01*
X38648559Y-38555910D01*
X38503569Y-38768110D01*
X38452560Y-39020000D01*
X38452560Y-40820000D01*
X38496838Y-41055317D01*
X38635910Y-41271441D01*
X38848110Y-41416431D01*
X38864344Y-41419719D01*
X38760589Y-41575000D01*
X31279039Y-41575000D01*
X31452191Y-41463580D01*
X31597181Y-41251380D01*
X31648190Y-40999490D01*
X31648190Y-39000510D01*
X31603912Y-38765193D01*
X31464840Y-38549069D01*
X31252640Y-38404079D01*
X31000750Y-38353070D01*
X29001770Y-38353070D01*
X28766453Y-38397348D01*
X28550329Y-38536420D01*
X28405339Y-38748620D01*
X28354330Y-39000510D01*
X28354330Y-40999490D01*
X28398608Y-41234807D01*
X28537680Y-41450931D01*
X28719261Y-41575000D01*
X21276519Y-41575000D01*
X21449671Y-41463580D01*
X21594661Y-41251380D01*
X21645670Y-40999490D01*
X21645670Y-39000510D01*
X21601392Y-38765193D01*
X21462320Y-38549069D01*
X21250120Y-38404079D01*
X20998230Y-38353070D01*
X18999250Y-38353070D01*
X18763933Y-38397348D01*
X18547809Y-38536420D01*
X18402819Y-38748620D01*
X18351810Y-39000510D01*
X18351810Y-40999490D01*
X18396088Y-41234807D01*
X18535160Y-41450931D01*
X18716741Y-41575000D01*
X17576579Y-41575000D01*
X15290099Y-39288519D01*
X15385000Y-38811418D01*
X15385000Y-36188582D01*
X15290099Y-35711481D01*
X17616579Y-33385000D01*
X18916557Y-33385000D01*
X18850933Y-33397348D01*
X18634809Y-33536420D01*
X18489819Y-33748620D01*
X18438810Y-34000510D01*
X18438810Y-35999490D01*
X18483088Y-36234807D01*
X18622160Y-36450931D01*
X18834360Y-36595921D01*
X19086250Y-36646930D01*
X21085230Y-36646930D01*
X21320547Y-36602652D01*
X21536671Y-36463580D01*
X21681661Y-36251380D01*
X21732670Y-35999490D01*
X21732670Y-34000510D01*
X21688392Y-33765193D01*
X21549320Y-33549069D01*
X21337120Y-33404079D01*
X21242905Y-33385000D01*
X28919077Y-33385000D01*
X28853453Y-33397348D01*
X28637329Y-33536420D01*
X28492339Y-33748620D01*
X28441330Y-34000510D01*
X28441330Y-35999490D01*
X28485608Y-36234807D01*
X28624680Y-36450931D01*
X28836880Y-36595921D01*
X29088770Y-36646930D01*
X31087750Y-36646930D01*
X31323067Y-36602652D01*
X31539191Y-36463580D01*
X31684181Y-36251380D01*
X31735190Y-35999490D01*
X31735190Y-34000510D01*
X31690912Y-33765193D01*
X31551840Y-33549069D01*
X31339640Y-33404079D01*
X31245425Y-33385000D01*
X38760589Y-33385000D01*
X38914591Y-33615481D01*
X39145845Y-33770000D01*
X38914591Y-33924519D01*
X38581845Y-34422509D01*
X38465000Y-35009928D01*
X38465000Y-35070072D01*
X38581845Y-35657491D01*
X38914591Y-36155481D01*
X39412581Y-36488227D01*
X40000000Y-36605072D01*
X40587419Y-36488227D01*
X41085409Y-36155481D01*
X41418155Y-35657491D01*
X41504227Y-35224775D01*
X48864803Y-35224775D01*
X49037233Y-35642086D01*
X49356235Y-35961645D01*
X49773244Y-36134803D01*
X50224775Y-36135197D01*
X50642086Y-35962767D01*
X50961645Y-35643765D01*
X51134803Y-35226756D01*
X51134804Y-35224775D01*
X53864803Y-35224775D01*
X54037233Y-35642086D01*
X54356235Y-35961645D01*
X54773244Y-36134803D01*
X55224775Y-36135197D01*
X55642086Y-35962767D01*
X55961645Y-35643765D01*
X56134803Y-35226756D01*
X56134804Y-35224775D01*
X58864803Y-35224775D01*
X59037233Y-35642086D01*
X59356235Y-35961645D01*
X59773244Y-36134803D01*
X60224775Y-36135197D01*
X60642086Y-35962767D01*
X60961645Y-35643765D01*
X61134803Y-35226756D01*
X61134804Y-35224775D01*
X63864803Y-35224775D01*
X64037233Y-35642086D01*
X64356235Y-35961645D01*
X64773244Y-36134803D01*
X65224775Y-36135197D01*
X65642086Y-35962767D01*
X65961645Y-35643765D01*
X66134803Y-35226756D01*
X66134804Y-35224775D01*
X68864803Y-35224775D01*
X69037233Y-35642086D01*
X69356235Y-35961645D01*
X69773244Y-36134803D01*
X70224775Y-36135197D01*
X70642086Y-35962767D01*
X70961645Y-35643765D01*
X71134803Y-35226756D01*
X71134804Y-35224775D01*
X73864803Y-35224775D01*
X74037233Y-35642086D01*
X74356235Y-35961645D01*
X74773244Y-36134803D01*
X75224775Y-36135197D01*
X75642086Y-35962767D01*
X75961645Y-35643765D01*
X76134803Y-35226756D01*
X76135197Y-34775225D01*
X75962767Y-34357914D01*
X75643765Y-34038355D01*
X75226756Y-33865197D01*
X74775225Y-33864803D01*
X74357914Y-34037233D01*
X74038355Y-34356235D01*
X73865197Y-34773244D01*
X73864803Y-35224775D01*
X71134804Y-35224775D01*
X71135197Y-34775225D01*
X70962767Y-34357914D01*
X70643765Y-34038355D01*
X70226756Y-33865197D01*
X69775225Y-33864803D01*
X69357914Y-34037233D01*
X69038355Y-34356235D01*
X68865197Y-34773244D01*
X68864803Y-35224775D01*
X66134804Y-35224775D01*
X66135197Y-34775225D01*
X65962767Y-34357914D01*
X65643765Y-34038355D01*
X65226756Y-33865197D01*
X64775225Y-33864803D01*
X64357914Y-34037233D01*
X64038355Y-34356235D01*
X63865197Y-34773244D01*
X63864803Y-35224775D01*
X61134804Y-35224775D01*
X61135197Y-34775225D01*
X60962767Y-34357914D01*
X60643765Y-34038355D01*
X60226756Y-33865197D01*
X59775225Y-33864803D01*
X59357914Y-34037233D01*
X59038355Y-34356235D01*
X58865197Y-34773244D01*
X58864803Y-35224775D01*
X56134804Y-35224775D01*
X56135197Y-34775225D01*
X55962767Y-34357914D01*
X55643765Y-34038355D01*
X55226756Y-33865197D01*
X54775225Y-33864803D01*
X54357914Y-34037233D01*
X54038355Y-34356235D01*
X53865197Y-34773244D01*
X53864803Y-35224775D01*
X51134804Y-35224775D01*
X51135197Y-34775225D01*
X50962767Y-34357914D01*
X50643765Y-34038355D01*
X50226756Y-33865197D01*
X49775225Y-33864803D01*
X49357914Y-34037233D01*
X49038355Y-34356235D01*
X48865197Y-34773244D01*
X48864803Y-35224775D01*
X41504227Y-35224775D01*
X41535000Y-35070072D01*
X41535000Y-35009928D01*
X41418155Y-34422509D01*
X41085409Y-33924519D01*
X40854155Y-33770000D01*
X41085409Y-33615481D01*
X41418155Y-33117491D01*
X41535000Y-32530072D01*
X41535000Y-32469928D01*
X41418155Y-31882509D01*
X41137163Y-31461974D01*
X41351441Y-31324090D01*
X41496431Y-31111890D01*
X41547440Y-30860000D01*
X41547440Y-29060000D01*
X41503162Y-28824683D01*
X41364090Y-28608559D01*
X41151890Y-28463569D01*
X40900000Y-28412560D01*
X39100000Y-28412560D01*
X38864683Y-28456838D01*
X38648559Y-28595910D01*
X38503569Y-28808110D01*
X38452560Y-29060000D01*
X38452560Y-29200000D01*
X38260000Y-29200000D01*
X38260000Y-25354802D01*
X38471592Y-25143210D01*
X38581845Y-25697491D01*
X38914591Y-26195481D01*
X39412581Y-26528227D01*
X40000000Y-26645072D01*
X40408929Y-26563731D01*
X41740000Y-27894802D01*
X41740000Y-30000000D01*
X41797852Y-30290839D01*
X41962599Y-30537401D01*
X44550859Y-33125661D01*
X44797420Y-33290408D01*
X45088260Y-33348260D01*
X80853070Y-33348260D01*
X80853070Y-33587750D01*
X80897348Y-33823067D01*
X81036420Y-34039191D01*
X81248620Y-34184181D01*
X81500510Y-34235190D01*
X83499490Y-34235190D01*
X83734807Y-34190912D01*
X83950931Y-34051840D01*
X84095921Y-33839640D01*
X84146930Y-33587750D01*
X84146930Y-31588770D01*
X84102652Y-31353453D01*
X83963580Y-31137329D01*
X83751380Y-30992339D01*
X83499490Y-30941330D01*
X81500510Y-30941330D01*
X81265193Y-30985608D01*
X81049069Y-31124680D01*
X80904079Y-31336880D01*
X80853070Y-31588770D01*
X80853070Y-31828260D01*
X45403062Y-31828260D01*
X43799577Y-30224775D01*
X48864803Y-30224775D01*
X49037233Y-30642086D01*
X49356235Y-30961645D01*
X49773244Y-31134803D01*
X50224775Y-31135197D01*
X50642086Y-30962767D01*
X50961645Y-30643765D01*
X51134803Y-30226756D01*
X51134804Y-30224775D01*
X53864803Y-30224775D01*
X54037233Y-30642086D01*
X54356235Y-30961645D01*
X54773244Y-31134803D01*
X55224775Y-31135197D01*
X55642086Y-30962767D01*
X55961645Y-30643765D01*
X56134803Y-30226756D01*
X56134804Y-30224775D01*
X58864803Y-30224775D01*
X59037233Y-30642086D01*
X59356235Y-30961645D01*
X59773244Y-31134803D01*
X60224775Y-31135197D01*
X60642086Y-30962767D01*
X60961645Y-30643765D01*
X61134803Y-30226756D01*
X61134804Y-30224775D01*
X63864803Y-30224775D01*
X64037233Y-30642086D01*
X64356235Y-30961645D01*
X64773244Y-31134803D01*
X65224775Y-31135197D01*
X65642086Y-30962767D01*
X65961645Y-30643765D01*
X66134803Y-30226756D01*
X66134804Y-30224775D01*
X68864803Y-30224775D01*
X69037233Y-30642086D01*
X69356235Y-30961645D01*
X69773244Y-31134803D01*
X70224775Y-31135197D01*
X70642086Y-30962767D01*
X70961645Y-30643765D01*
X71134803Y-30226756D01*
X71134804Y-30224775D01*
X73864803Y-30224775D01*
X74037233Y-30642086D01*
X74356235Y-30961645D01*
X74773244Y-31134803D01*
X75224775Y-31135197D01*
X75642086Y-30962767D01*
X75961645Y-30643765D01*
X76134803Y-30226756D01*
X76135197Y-29775225D01*
X75962767Y-29357914D01*
X75643765Y-29038355D01*
X75226756Y-28865197D01*
X74775225Y-28864803D01*
X74357914Y-29037233D01*
X74038355Y-29356235D01*
X73865197Y-29773244D01*
X73864803Y-30224775D01*
X71134804Y-30224775D01*
X71135197Y-29775225D01*
X70962767Y-29357914D01*
X70643765Y-29038355D01*
X70226756Y-28865197D01*
X69775225Y-28864803D01*
X69357914Y-29037233D01*
X69038355Y-29356235D01*
X68865197Y-29773244D01*
X68864803Y-30224775D01*
X66134804Y-30224775D01*
X66135197Y-29775225D01*
X65962767Y-29357914D01*
X65643765Y-29038355D01*
X65226756Y-28865197D01*
X64775225Y-28864803D01*
X64357914Y-29037233D01*
X64038355Y-29356235D01*
X63865197Y-29773244D01*
X63864803Y-30224775D01*
X61134804Y-30224775D01*
X61135197Y-29775225D01*
X60962767Y-29357914D01*
X60643765Y-29038355D01*
X60226756Y-28865197D01*
X59775225Y-28864803D01*
X59357914Y-29037233D01*
X59038355Y-29356235D01*
X58865197Y-29773244D01*
X58864803Y-30224775D01*
X56134804Y-30224775D01*
X56135197Y-29775225D01*
X55962767Y-29357914D01*
X55643765Y-29038355D01*
X55226756Y-28865197D01*
X54775225Y-28864803D01*
X54357914Y-29037233D01*
X54038355Y-29356235D01*
X53865197Y-29773244D01*
X53864803Y-30224775D01*
X51134804Y-30224775D01*
X51135197Y-29775225D01*
X50962767Y-29357914D01*
X50643765Y-29038355D01*
X50226756Y-28865197D01*
X49775225Y-28864803D01*
X49357914Y-29037233D01*
X49038355Y-29356235D01*
X48865197Y-29773244D01*
X48864803Y-30224775D01*
X43799577Y-30224775D01*
X43260000Y-29685198D01*
X43260000Y-27500000D01*
X43202148Y-27209161D01*
X43037401Y-26962599D01*
X42796309Y-26801507D01*
X41463637Y-25468835D01*
X41512183Y-25224775D01*
X48864803Y-25224775D01*
X49037233Y-25642086D01*
X49356235Y-25961645D01*
X49773244Y-26134803D01*
X50224775Y-26135197D01*
X50642086Y-25962767D01*
X50961645Y-25643765D01*
X51134803Y-25226756D01*
X51134804Y-25224775D01*
X53864803Y-25224775D01*
X54037233Y-25642086D01*
X54356235Y-25961645D01*
X54773244Y-26134803D01*
X55224775Y-26135197D01*
X55642086Y-25962767D01*
X55961645Y-25643765D01*
X56134803Y-25226756D01*
X56134804Y-25224775D01*
X58864803Y-25224775D01*
X59037233Y-25642086D01*
X59356235Y-25961645D01*
X59773244Y-26134803D01*
X60224775Y-26135197D01*
X60642086Y-25962767D01*
X60961645Y-25643765D01*
X61134803Y-25226756D01*
X61134804Y-25224775D01*
X63864803Y-25224775D01*
X64037233Y-25642086D01*
X64356235Y-25961645D01*
X64773244Y-26134803D01*
X65224775Y-26135197D01*
X65642086Y-25962767D01*
X65961645Y-25643765D01*
X66134803Y-25226756D01*
X66134804Y-25224775D01*
X68864803Y-25224775D01*
X69037233Y-25642086D01*
X69356235Y-25961645D01*
X69773244Y-26134803D01*
X70224775Y-26135197D01*
X70642086Y-25962767D01*
X70961645Y-25643765D01*
X71134803Y-25226756D01*
X71135197Y-24775225D01*
X70962767Y-24357914D01*
X70643765Y-24038355D01*
X70226756Y-23865197D01*
X69775225Y-23864803D01*
X69357914Y-24037233D01*
X69038355Y-24356235D01*
X68865197Y-24773244D01*
X68864803Y-25224775D01*
X66134804Y-25224775D01*
X66135197Y-24775225D01*
X65962767Y-24357914D01*
X65643765Y-24038355D01*
X65226756Y-23865197D01*
X64775225Y-23864803D01*
X64357914Y-24037233D01*
X64038355Y-24356235D01*
X63865197Y-24773244D01*
X63864803Y-25224775D01*
X61134804Y-25224775D01*
X61135197Y-24775225D01*
X60962767Y-24357914D01*
X60643765Y-24038355D01*
X60226756Y-23865197D01*
X59775225Y-23864803D01*
X59357914Y-24037233D01*
X59038355Y-24356235D01*
X58865197Y-24773244D01*
X58864803Y-25224775D01*
X56134804Y-25224775D01*
X56135197Y-24775225D01*
X55962767Y-24357914D01*
X55643765Y-24038355D01*
X55226756Y-23865197D01*
X54775225Y-23864803D01*
X54357914Y-24037233D01*
X54038355Y-24356235D01*
X53865197Y-24773244D01*
X53864803Y-25224775D01*
X51134804Y-25224775D01*
X51135197Y-24775225D01*
X50962767Y-24357914D01*
X50643765Y-24038355D01*
X50226756Y-23865197D01*
X49775225Y-23864803D01*
X49357914Y-24037233D01*
X49038355Y-24356235D01*
X48865197Y-24773244D01*
X48864803Y-25224775D01*
X41512183Y-25224775D01*
X41535000Y-25110072D01*
X41535000Y-25049928D01*
X41418155Y-24462509D01*
X41085409Y-23964519D01*
X40854155Y-23810000D01*
X41085409Y-23655481D01*
X41418155Y-23157491D01*
X41528408Y-22603210D01*
X41962599Y-23037401D01*
X42209161Y-23202148D01*
X42500000Y-23260000D01*
X74685198Y-23260000D01*
X75335585Y-23910387D01*
X75226756Y-23865197D01*
X74775225Y-23864803D01*
X74357914Y-24037233D01*
X74038355Y-24356235D01*
X73865197Y-24773244D01*
X73864803Y-25224775D01*
X74037233Y-25642086D01*
X74356235Y-25961645D01*
X74773244Y-26134803D01*
X75224775Y-26135197D01*
X75642086Y-25962767D01*
X75961645Y-25643765D01*
X76134803Y-25226756D01*
X76135197Y-24775225D01*
X76089269Y-24664071D01*
X76962599Y-25537401D01*
X77209161Y-25702148D01*
X77500000Y-25760000D01*
X80935708Y-25760000D01*
X88213109Y-33037401D01*
X88353070Y-33130920D01*
X88353070Y-33499490D01*
X88397348Y-33734807D01*
X88536420Y-33950931D01*
X88748620Y-34095921D01*
X89000510Y-34146930D01*
X90999490Y-34146930D01*
X91234807Y-34102652D01*
X91450931Y-33963580D01*
X91595921Y-33751380D01*
X91646930Y-33499490D01*
X91646930Y-31500510D01*
X91602652Y-31265193D01*
X91463580Y-31049069D01*
X91251380Y-30904079D01*
X90999490Y-30853070D01*
X89000510Y-30853070D01*
X88765193Y-30897348D01*
X88549069Y-31036420D01*
X88473025Y-31147713D01*
X81787911Y-24462599D01*
X81541349Y-24297852D01*
X81250510Y-24240000D01*
X77814802Y-24240000D01*
X75537401Y-21962599D01*
X75290839Y-21797852D01*
X75000000Y-21740000D01*
X42814802Y-21740000D01*
X41642323Y-20567521D01*
X41687401Y-20537401D01*
X41852148Y-20290839D01*
X41910000Y-20000000D01*
X41852148Y-19709161D01*
X41687401Y-19462599D01*
X41547440Y-19369080D01*
X41547440Y-19100000D01*
X41503162Y-18864683D01*
X41364090Y-18648559D01*
X41151890Y-18503569D01*
X40900000Y-18452560D01*
X39100000Y-18452560D01*
X38864683Y-18496838D01*
X38648559Y-18635910D01*
X38503569Y-18848110D01*
X38452560Y-19100000D01*
X38452560Y-20900000D01*
X38496838Y-21135317D01*
X38635910Y-21351441D01*
X38848110Y-21496431D01*
X38864344Y-21499719D01*
X38581845Y-21922509D01*
X38465000Y-22509928D01*
X38465000Y-22570072D01*
X38536363Y-22928835D01*
X36962599Y-24502599D01*
X36797852Y-24749161D01*
X36740000Y-25040000D01*
X36740000Y-30000000D01*
X36797852Y-30290839D01*
X36962599Y-30537401D01*
X37209161Y-30702148D01*
X37500000Y-30760000D01*
X37701092Y-30720000D01*
X38452560Y-30720000D01*
X38452560Y-30860000D01*
X38496838Y-31095317D01*
X38635910Y-31311441D01*
X38848110Y-31456431D01*
X38864344Y-31459719D01*
X38760589Y-31615000D01*
X31169183Y-31615000D01*
X31234807Y-31602652D01*
X31450931Y-31463580D01*
X31595921Y-31251380D01*
X31646930Y-30999490D01*
X31646930Y-29000510D01*
X31602652Y-28765193D01*
X31463580Y-28549069D01*
X31251380Y-28404079D01*
X30999490Y-28353070D01*
X29000510Y-28353070D01*
X28765193Y-28397348D01*
X28549069Y-28536420D01*
X28404079Y-28748620D01*
X28353070Y-29000510D01*
X28353070Y-30999490D01*
X28397348Y-31234807D01*
X28536420Y-31450931D01*
X28748620Y-31595921D01*
X28842835Y-31615000D01*
X21166663Y-31615000D01*
X21232287Y-31602652D01*
X21448411Y-31463580D01*
X21593401Y-31251380D01*
X21644410Y-30999490D01*
X21644410Y-29000510D01*
X21600132Y-28765193D01*
X21461060Y-28549069D01*
X21248860Y-28404079D01*
X20996970Y-28353070D01*
X18997990Y-28353070D01*
X18762673Y-28397348D01*
X18546549Y-28536420D01*
X18401559Y-28748620D01*
X18350550Y-29000510D01*
X18350550Y-30999490D01*
X18394828Y-31234807D01*
X18533900Y-31450931D01*
X18746100Y-31595921D01*
X18840315Y-31615000D01*
X17250005Y-31615000D01*
X17250000Y-31614999D01*
X16967516Y-31671190D01*
X16911325Y-31682367D01*
X16624210Y-31874210D01*
X16624208Y-31874213D01*
X14079557Y-34418863D01*
X13500000Y-34303582D01*
X12778642Y-34447069D01*
X12167104Y-34855686D01*
X11840229Y-35344889D01*
X11840229Y-26734573D01*
X13037401Y-25537401D01*
X13202148Y-25290840D01*
X13238105Y-25110072D01*
X13260000Y-25000000D01*
X13260000Y-24240000D01*
X21052560Y-24240000D01*
X21052560Y-25760000D01*
X21096838Y-25995317D01*
X21235910Y-26211441D01*
X21448110Y-26356431D01*
X21700000Y-26407440D01*
X23220000Y-26407440D01*
X23455317Y-26363162D01*
X23671441Y-26224090D01*
X23816431Y-26011890D01*
X23853969Y-25826520D01*
X24208764Y-26181934D01*
X24721300Y-26394758D01*
X25276265Y-26395242D01*
X25789172Y-26183313D01*
X26181934Y-25791236D01*
X26269954Y-25579262D01*
X26356687Y-25789172D01*
X26748764Y-26181934D01*
X27261300Y-26394758D01*
X27816265Y-26395242D01*
X28329172Y-26183313D01*
X28721934Y-25791236D01*
X28934758Y-25278700D01*
X28935242Y-24723735D01*
X28723313Y-24210828D01*
X28331236Y-23818066D01*
X27818700Y-23605242D01*
X27469864Y-23604938D01*
X32814802Y-18260000D01*
X75849968Y-18260000D01*
X80713109Y-23123141D01*
X80853070Y-23216660D01*
X80853070Y-23585230D01*
X80897348Y-23820547D01*
X81036420Y-24036671D01*
X81248620Y-24181661D01*
X81500510Y-24232670D01*
X83499490Y-24232670D01*
X83734807Y-24188392D01*
X83950931Y-24049320D01*
X84095921Y-23837120D01*
X84146930Y-23585230D01*
X84146930Y-22633490D01*
X88050841Y-26537401D01*
X88297403Y-26702148D01*
X88588242Y-26760000D01*
X93152560Y-26760000D01*
X93152560Y-27200000D01*
X93196838Y-27435317D01*
X93335910Y-27651441D01*
X93548110Y-27796431D01*
X93800000Y-27847440D01*
X96200000Y-27847440D01*
X96435317Y-27803162D01*
X96651441Y-27664090D01*
X96796431Y-27451890D01*
X96847440Y-27200000D01*
X96847440Y-24800000D01*
X96803162Y-24564683D01*
X96664090Y-24348559D01*
X96451890Y-24203569D01*
X96200000Y-24152560D01*
X95805712Y-24152560D01*
X96038086Y-24056545D01*
X96554730Y-23540801D01*
X96834681Y-22866605D01*
X96835318Y-22136597D01*
X96556545Y-21461914D01*
X96040801Y-20945270D01*
X95366605Y-20665319D01*
X94636597Y-20664682D01*
X93961914Y-20943455D01*
X93445270Y-21459199D01*
X93165319Y-22133395D01*
X93164682Y-22863403D01*
X93443455Y-23538086D01*
X93959199Y-24054730D01*
X94194799Y-24152560D01*
X93800000Y-24152560D01*
X93564683Y-24196838D01*
X93348559Y-24335910D01*
X93203569Y-24548110D01*
X93152560Y-24800000D01*
X93152560Y-25240000D01*
X88903044Y-25240000D01*
X73125643Y-9462599D01*
X72879081Y-9297852D01*
X72588242Y-9240000D01*
X32500000Y-9240000D01*
X32209161Y-9297852D01*
X31962599Y-9462599D01*
X30309381Y-11115817D01*
X30279100Y-11103243D01*
X29723339Y-11102758D01*
X29209697Y-11314990D01*
X28816371Y-11707630D01*
X28603243Y-12220900D01*
X28602758Y-12776661D01*
X28814990Y-13290303D01*
X29207630Y-13683629D01*
X29720900Y-13896757D01*
X30276661Y-13897242D01*
X30790303Y-13685010D01*
X30958590Y-13517016D01*
X36662589Y-13517016D01*
X36738295Y-13764462D01*
X37280165Y-13959703D01*
X37855503Y-13932718D01*
X38261705Y-13764462D01*
X38337411Y-13517016D01*
X37500000Y-12679605D01*
X36662589Y-13517016D01*
X30958590Y-13517016D01*
X31183629Y-13292370D01*
X31396757Y-12779100D01*
X31397192Y-12280165D01*
X36040297Y-12280165D01*
X36067282Y-12855503D01*
X36235538Y-13261705D01*
X36482984Y-13337411D01*
X37320395Y-12500000D01*
X37679605Y-12500000D01*
X38517016Y-13337411D01*
X38764462Y-13261705D01*
X38959703Y-12719835D01*
X38932718Y-12144497D01*
X38764462Y-11738295D01*
X38517016Y-11662589D01*
X37679605Y-12500000D01*
X37320395Y-12500000D01*
X36482984Y-11662589D01*
X36235538Y-11738295D01*
X36040297Y-12280165D01*
X31397192Y-12280165D01*
X31397242Y-12223339D01*
X31383857Y-12190945D01*
X32091818Y-11482984D01*
X36662589Y-11482984D01*
X37500000Y-12320395D01*
X38337411Y-11482984D01*
X38261705Y-11235538D01*
X37719835Y-11040297D01*
X37144497Y-11067282D01*
X36738295Y-11235538D01*
X36662589Y-11482984D01*
X32091818Y-11482984D01*
X32814802Y-10760000D01*
X72273440Y-10760000D01*
X82452250Y-20938810D01*
X81500510Y-20938810D01*
X81265193Y-20983088D01*
X81049069Y-21122160D01*
X80973025Y-21233453D01*
X76702171Y-16962599D01*
X76455609Y-16797852D01*
X76164770Y-16740000D01*
X32500000Y-16740000D01*
X32209161Y-16797852D01*
X31962599Y-16962599D01*
X25307851Y-23617347D01*
X25278700Y-23605242D01*
X24723735Y-23604758D01*
X24210828Y-23816687D01*
X23854684Y-24172210D01*
X23823162Y-24004683D01*
X23704510Y-23820292D01*
X25537401Y-21987401D01*
X25702148Y-21740840D01*
X25720028Y-21650952D01*
X25760000Y-21450000D01*
X25760000Y-10314802D01*
X30314802Y-5760000D01*
X73437208Y-5760000D01*
X88647664Y-20970456D01*
X88549069Y-21033900D01*
X88404079Y-21246100D01*
X88353070Y-21497990D01*
X88353070Y-23496970D01*
X88397348Y-23732287D01*
X88536420Y-23948411D01*
X88748620Y-24093401D01*
X89000510Y-24144410D01*
X90999490Y-24144410D01*
X91234807Y-24100132D01*
X91450931Y-23961060D01*
X91595921Y-23748860D01*
X91646930Y-23496970D01*
X91646930Y-21497990D01*
X91602652Y-21262673D01*
X91463580Y-21046549D01*
X91251380Y-20901559D01*
X90999490Y-20850550D01*
X90630920Y-20850550D01*
X90537401Y-20710589D01*
X81514012Y-11687200D01*
X92427760Y-11687200D01*
X92427760Y-13312800D01*
X92472038Y-13548117D01*
X92611110Y-13764241D01*
X92823310Y-13909231D01*
X93075200Y-13960240D01*
X94700800Y-13960240D01*
X94936117Y-13915962D01*
X95152241Y-13776890D01*
X95297231Y-13564690D01*
X95348240Y-13312800D01*
X95348240Y-11687200D01*
X95303962Y-11451883D01*
X95164890Y-11235759D01*
X94952690Y-11090769D01*
X94700800Y-11039760D01*
X93075200Y-11039760D01*
X92839883Y-11084038D01*
X92623759Y-11223110D01*
X92478769Y-11435310D01*
X92427760Y-11687200D01*
X81514012Y-11687200D01*
X74289411Y-4462599D01*
X74042849Y-4297852D01*
X73752010Y-4240000D01*
X30000000Y-4240000D01*
X29709161Y-4297852D01*
X29462599Y-4462599D01*
X24462599Y-9462599D01*
X24297852Y-9709161D01*
X24240000Y-10000000D01*
X24240000Y-21135198D01*
X21922599Y-23452599D01*
X21829080Y-23592560D01*
X21700000Y-23592560D01*
X21464683Y-23636838D01*
X21248559Y-23775910D01*
X21103569Y-23988110D01*
X21052560Y-24240000D01*
X13260000Y-24240000D01*
X13260000Y-15904000D01*
X13202148Y-15613161D01*
X13037401Y-15366599D01*
X11291052Y-13620250D01*
X11603527Y-13411461D01*
X11882947Y-12993279D01*
X11981066Y-12500000D01*
X11882947Y-12006721D01*
X11703394Y-11738000D01*
X21072160Y-11738000D01*
X21072160Y-13262000D01*
X21116438Y-13497317D01*
X21255510Y-13713441D01*
X21467710Y-13858431D01*
X21719600Y-13909440D01*
X23243600Y-13909440D01*
X23478917Y-13865162D01*
X23695041Y-13726090D01*
X23840031Y-13513890D01*
X23891040Y-13262000D01*
X23891040Y-11738000D01*
X23846762Y-11502683D01*
X23707690Y-11286559D01*
X23495490Y-11141569D01*
X23243600Y-11090560D01*
X21719600Y-11090560D01*
X21484283Y-11134838D01*
X21268159Y-11273910D01*
X21123169Y-11486110D01*
X21072160Y-11738000D01*
X11703394Y-11738000D01*
X11603527Y-11588539D01*
X11185345Y-11309119D01*
X10692066Y-11211000D01*
X9307934Y-11211000D01*
X8814655Y-11309119D01*
X8396473Y-11588539D01*
X8260000Y-11792785D01*
X8260000Y-11326802D01*
X13037401Y-6549401D01*
X13130920Y-6409440D01*
X13262000Y-6409440D01*
X13497317Y-6365162D01*
X13713441Y-6226090D01*
X13858431Y-6013890D01*
X13891209Y-5852029D01*
X14222230Y-6183629D01*
X14735500Y-6396757D01*
X15291261Y-6397242D01*
X15804903Y-6185010D01*
X16198229Y-5792370D01*
X16411357Y-5279100D01*
X16411842Y-4723339D01*
X16199610Y-4209697D01*
X15806970Y-3816371D01*
X15293700Y-3603243D01*
X14737939Y-3602758D01*
X14224297Y-3814990D01*
X13892221Y-4146487D01*
X13865162Y-4002683D01*
X13726090Y-3786559D01*
X13513890Y-3641569D01*
X13262000Y-3590560D01*
X11738000Y-3590560D01*
X11502683Y-3634838D01*
X11286559Y-3773910D01*
X11141569Y-3986110D01*
X11090560Y-4238000D01*
X11090560Y-5762000D01*
X11134838Y-5997317D01*
X11254273Y-6182925D01*
X6962599Y-10474599D01*
X6797852Y-10721161D01*
X6740000Y-11012000D01*
X890753Y-11012000D01*
X743023Y-10913290D01*
X710000Y-10906721D01*
X710000Y-5069931D01*
X1049408Y-3363610D01*
X1976349Y-1976346D01*
X3363610Y-1049408D01*
X5069931Y-710000D01*
X94930069Y-710000D01*
X96636390Y-1049408D01*
M02*
