G04 #@! TF.FileFunction,Soldermask,Bot*
%FSLAX46Y46*%
G04 Gerber Fmt 4.6, Leading zero omitted, Abs format (unit mm)*
G04 Created by KiCad (PCBNEW 4.0.7+dfsg1-1ubuntu2) date Fri Aug 16 22:59:17 2019*
%MOMM*%
%LPD*%
G01*
G04 APERTURE LIST*
%ADD10C,0.100000*%
%ADD11R,1.924000X1.924000*%
%ADD12C,1.924000*%
%ADD13R,2.200000X2.200000*%
%ADD14C,2.200000*%
%ADD15O,1.708000X3.016000*%
%ADD16O,3.016000X1.708000*%
%ADD17C,1.600000*%
%ADD18O,2.900000X5.400000*%
%ADD19O,2.650000X4.900000*%
%ADD20C,2.800000*%
%ADD21R,2.800000X2.800000*%
%ADD22C,1.920000*%
%ADD23R,1.920000X1.920000*%
%ADD24O,2.200000X2.200000*%
%ADD25R,2.398980X2.398980*%
%ADD26R,2.025600X2.025600*%
%ADD27C,2.025600*%
G04 APERTURE END LIST*
D10*
D11*
X12485400Y-70000000D03*
D12*
X15000000Y-70000000D03*
D11*
X22500000Y-62500000D03*
D12*
X30018400Y-62500000D03*
D11*
X12500000Y-5000000D03*
D12*
X15014600Y-5000000D03*
D11*
X22481600Y-12500000D03*
D12*
X30000000Y-12500000D03*
D13*
X4960000Y-55000000D03*
D14*
X7500000Y-55000000D03*
D15*
X5000000Y-17500000D03*
D16*
X10000000Y-22500000D03*
X10000000Y-12500000D03*
D17*
X2500000Y-12500000D03*
X5000000Y-12500000D03*
X10000000Y-17500000D03*
X2500000Y-22500000D03*
X5000000Y-22500000D03*
D18*
X13500000Y-37500000D03*
D19*
X7500000Y-37500000D03*
D20*
X95000000Y-50000000D03*
D21*
X95000000Y-53500000D03*
D20*
X95000000Y-22500000D03*
D21*
X95000000Y-26000000D03*
D22*
X24960000Y-50000000D03*
X22420000Y-50000000D03*
D23*
X27500000Y-50000000D03*
D13*
X40000000Y-39920000D03*
D24*
X40000000Y-42460000D03*
X40000000Y-45000000D03*
D13*
X40000000Y-49920000D03*
D24*
X40000000Y-52460000D03*
X40000000Y-55000000D03*
D22*
X25000000Y-25000000D03*
X27540000Y-25000000D03*
D23*
X22460000Y-25000000D03*
D13*
X40000000Y-29960000D03*
D24*
X40000000Y-32500000D03*
X40000000Y-35040000D03*
D13*
X40000000Y-20000000D03*
D24*
X40000000Y-22540000D03*
X40000000Y-25080000D03*
D25*
X82500000Y-42497480D03*
X82500000Y-52500000D03*
X20085740Y-45000000D03*
X30088260Y-45000000D03*
X90000000Y-52588260D03*
X90000000Y-42585740D03*
X19998740Y-40000000D03*
X30001260Y-40000000D03*
D26*
X93888000Y-62500000D03*
D27*
X37500000Y-62500000D03*
D25*
X82500000Y-32588260D03*
X82500000Y-22585740D03*
X19997480Y-30000000D03*
X30000000Y-30000000D03*
X90000000Y-22497480D03*
X90000000Y-32500000D03*
X20085740Y-35000000D03*
X30088260Y-35000000D03*
D26*
X93888000Y-12500000D03*
D27*
X37500000Y-12500000D03*
D25*
X12500000Y-55000000D03*
X12500000Y-44997480D03*
M02*
