G04 #@! TF.FileFunction,Copper,L1,Top,Signal*
%FSLAX46Y46*%
G04 Gerber Fmt 4.6, Leading zero omitted, Abs format (unit mm)*
G04 Created by KiCad (PCBNEW 4.0.7+dfsg1-1ubuntu2) date Fri Aug 16 22:59:17 2019*
%MOMM*%
%LPD*%
G01*
G04 APERTURE LIST*
%ADD10C,0.100000*%
%ADD11R,1.524000X1.524000*%
%ADD12C,1.524000*%
%ADD13R,1.800000X1.800000*%
%ADD14C,1.800000*%
%ADD15O,1.308000X2.616000*%
%ADD16O,2.616000X1.308000*%
%ADD17O,2.500000X5.000000*%
%ADD18O,2.250000X4.500000*%
%ADD19C,2.400000*%
%ADD20R,2.400000X2.400000*%
%ADD21C,1.520000*%
%ADD22R,1.520000X1.520000*%
%ADD23O,1.800000X1.800000*%
%ADD24R,1.998980X1.998980*%
%ADD25R,1.625600X1.625600*%
%ADD26C,1.625600*%
%ADD27C,1.000000*%
%ADD28C,0.250000*%
%ADD29C,0.500000*%
%ADD30C,0.254000*%
G04 APERTURE END LIST*
D10*
D11*
X12485400Y-70000000D03*
D12*
X15000000Y-70000000D03*
D11*
X22500000Y-62500000D03*
D12*
X30018400Y-62500000D03*
D11*
X12500000Y-5000000D03*
D12*
X15014600Y-5000000D03*
D11*
X22481600Y-12500000D03*
D12*
X30000000Y-12500000D03*
D13*
X4960000Y-55000000D03*
D14*
X7500000Y-55000000D03*
D15*
X5000000Y-17500000D03*
D16*
X10000000Y-22500000D03*
X10000000Y-12500000D03*
D17*
X13500000Y-37500000D03*
D18*
X7500000Y-37500000D03*
D19*
X95000000Y-50000000D03*
D20*
X95000000Y-53500000D03*
D19*
X95000000Y-22500000D03*
D20*
X95000000Y-26000000D03*
D21*
X24960000Y-50000000D03*
X22420000Y-50000000D03*
D22*
X27500000Y-50000000D03*
D13*
X40000000Y-39920000D03*
D23*
X40000000Y-42460000D03*
X40000000Y-45000000D03*
D13*
X40000000Y-49920000D03*
D23*
X40000000Y-52460000D03*
X40000000Y-55000000D03*
D21*
X25000000Y-25000000D03*
X27540000Y-25000000D03*
D22*
X22460000Y-25000000D03*
D13*
X40000000Y-29960000D03*
D23*
X40000000Y-32500000D03*
X40000000Y-35040000D03*
D13*
X40000000Y-20000000D03*
D23*
X40000000Y-22540000D03*
X40000000Y-25080000D03*
D10*
G36*
X81301120Y-43335680D02*
X83698880Y-43335680D01*
X83300100Y-46835800D01*
X81699900Y-46835800D01*
X81301120Y-43335680D01*
X81301120Y-43335680D01*
G37*
G36*
X83698880Y-51661800D02*
X81301120Y-51661800D01*
X81699900Y-48161680D01*
X83300100Y-48161680D01*
X83698880Y-51661800D01*
X83698880Y-51661800D01*
G37*
D24*
X82500000Y-42497480D03*
X82500000Y-52500000D03*
D10*
G36*
X20923940Y-46198880D02*
X20923940Y-43801120D01*
X24424060Y-44199900D01*
X24424060Y-45800100D01*
X20923940Y-46198880D01*
X20923940Y-46198880D01*
G37*
G36*
X29250060Y-43801120D02*
X29250060Y-46198880D01*
X25749940Y-45800100D01*
X25749940Y-44199900D01*
X29250060Y-43801120D01*
X29250060Y-43801120D01*
G37*
D24*
X20085740Y-45000000D03*
X30088260Y-45000000D03*
D10*
G36*
X91198880Y-51750060D02*
X88801120Y-51750060D01*
X89199900Y-48249940D01*
X90800100Y-48249940D01*
X91198880Y-51750060D01*
X91198880Y-51750060D01*
G37*
G36*
X88801120Y-43423940D02*
X91198880Y-43423940D01*
X90800100Y-46924060D01*
X89199900Y-46924060D01*
X88801120Y-43423940D01*
X88801120Y-43423940D01*
G37*
D24*
X90000000Y-52588260D03*
X90000000Y-42585740D03*
D10*
G36*
X20836940Y-41198880D02*
X20836940Y-38801120D01*
X24337060Y-39199900D01*
X24337060Y-40800100D01*
X20836940Y-41198880D01*
X20836940Y-41198880D01*
G37*
G36*
X29163060Y-38801120D02*
X29163060Y-41198880D01*
X25662940Y-40800100D01*
X25662940Y-39199900D01*
X29163060Y-38801120D01*
X29163060Y-38801120D01*
G37*
D24*
X19998740Y-40000000D03*
X30001260Y-40000000D03*
D25*
X93888000Y-62500000D03*
D26*
X37500000Y-62500000D03*
D10*
G36*
X83698880Y-31750060D02*
X81301120Y-31750060D01*
X81699900Y-28249940D01*
X83300100Y-28249940D01*
X83698880Y-31750060D01*
X83698880Y-31750060D01*
G37*
G36*
X81301120Y-23423940D02*
X83698880Y-23423940D01*
X83300100Y-26924060D01*
X81699900Y-26924060D01*
X81301120Y-23423940D01*
X81301120Y-23423940D01*
G37*
D24*
X82500000Y-32588260D03*
X82500000Y-22585740D03*
D10*
G36*
X20835680Y-31198880D02*
X20835680Y-28801120D01*
X24335800Y-29199900D01*
X24335800Y-30800100D01*
X20835680Y-31198880D01*
X20835680Y-31198880D01*
G37*
G36*
X29161800Y-28801120D02*
X29161800Y-31198880D01*
X25661680Y-30800100D01*
X25661680Y-29199900D01*
X29161800Y-28801120D01*
X29161800Y-28801120D01*
G37*
D24*
X19997480Y-30000000D03*
X30000000Y-30000000D03*
D10*
G36*
X88801120Y-23335680D02*
X91198880Y-23335680D01*
X90800100Y-26835800D01*
X89199900Y-26835800D01*
X88801120Y-23335680D01*
X88801120Y-23335680D01*
G37*
G36*
X91198880Y-31661800D02*
X88801120Y-31661800D01*
X89199900Y-28161680D01*
X90800100Y-28161680D01*
X91198880Y-31661800D01*
X91198880Y-31661800D01*
G37*
D24*
X90000000Y-22497480D03*
X90000000Y-32500000D03*
D10*
G36*
X20923940Y-36198880D02*
X20923940Y-33801120D01*
X24424060Y-34199900D01*
X24424060Y-35800100D01*
X20923940Y-36198880D01*
X20923940Y-36198880D01*
G37*
G36*
X29250060Y-33801120D02*
X29250060Y-36198880D01*
X25749940Y-35800100D01*
X25749940Y-34199900D01*
X29250060Y-33801120D01*
X29250060Y-33801120D01*
G37*
D24*
X20085740Y-35000000D03*
X30088260Y-35000000D03*
D25*
X93888000Y-12500000D03*
D26*
X37500000Y-12500000D03*
D10*
G36*
X13698880Y-54161800D02*
X11301120Y-54161800D01*
X11699900Y-50661680D01*
X13300100Y-50661680D01*
X13698880Y-54161800D01*
X13698880Y-54161800D01*
G37*
G36*
X11301120Y-45835680D02*
X13698880Y-45835680D01*
X13300100Y-49335800D01*
X11699900Y-49335800D01*
X11301120Y-45835680D01*
X11301120Y-45835680D01*
G37*
D24*
X12500000Y-55000000D03*
X12500000Y-44997480D03*
D27*
X75000000Y-50000000D03*
X70000000Y-50000000D03*
X65000000Y-50000000D03*
X60000000Y-50000000D03*
X55000000Y-50000000D03*
X50000000Y-50000000D03*
X75000000Y-45000000D03*
X70000000Y-45000000D03*
X65000000Y-45000000D03*
X60000000Y-45000000D03*
X55000000Y-45000000D03*
X50000000Y-45000000D03*
X75000000Y-40000000D03*
X70000000Y-40000000D03*
X65000000Y-40000000D03*
X60000000Y-40000000D03*
X55000000Y-40000000D03*
X50000000Y-40000000D03*
X75000000Y-35000000D03*
X70000000Y-35000000D03*
X65000000Y-35000000D03*
X60000000Y-35000000D03*
X55000000Y-35000000D03*
X50000000Y-35000000D03*
X75000000Y-30000000D03*
X70000000Y-30000000D03*
X65000000Y-30000000D03*
X60000000Y-30000000D03*
X55000000Y-30000000D03*
X50000000Y-30000000D03*
X75000000Y-25000000D03*
X70000000Y-25000000D03*
X65000000Y-25000000D03*
X60000000Y-25000000D03*
X55000000Y-25000000D03*
X50000000Y-25000000D03*
D28*
X24960000Y-67460000D02*
X22420000Y-70000000D01*
X22420000Y-70000000D02*
X15000000Y-70000000D01*
X24960000Y-50000000D02*
X24960000Y-67460000D01*
X82500000Y-49911740D02*
X82500000Y-52500000D01*
X80000000Y-57500000D02*
X82500000Y-55000000D01*
X82500000Y-55000000D02*
X82500000Y-52500000D01*
X76250510Y-57500000D02*
X80000000Y-57500000D01*
X31712880Y-60000000D02*
X73750510Y-60000000D01*
X73750510Y-60000000D02*
X76250510Y-57500000D01*
X24960000Y-50000000D02*
X24960000Y-53247120D01*
X24960000Y-53247120D02*
X31712880Y-60000000D01*
D29*
X13500000Y-37500000D02*
X13500000Y-20219600D01*
X13500000Y-20219600D02*
X21219600Y-12500000D01*
X21219600Y-12500000D02*
X22481600Y-12500000D01*
X17500000Y-57500000D02*
X22500000Y-62500000D01*
X17500000Y-45000000D02*
X17500000Y-57500000D01*
X13500000Y-41000000D02*
X17500000Y-45000000D01*
X13500000Y-37500000D02*
X13500000Y-41000000D01*
X12500000Y-47585740D02*
X12500000Y-44997480D01*
X22585740Y-30000000D02*
X19997480Y-30000000D01*
X22674000Y-35000000D02*
X20085740Y-35000000D01*
X22587000Y-40000000D02*
X19998740Y-40000000D01*
X22674000Y-45000000D02*
X20085740Y-45000000D01*
X13500000Y-37500000D02*
X13500000Y-36250000D01*
X13500000Y-36250000D02*
X19750000Y-30000000D01*
X19750000Y-30000000D02*
X19997480Y-30000000D01*
X13500000Y-37500000D02*
X13500000Y-38750000D01*
X13500000Y-38750000D02*
X19750000Y-45000000D01*
X19750000Y-45000000D02*
X20085740Y-45000000D01*
X15250000Y-37500000D02*
X17750000Y-40000000D01*
X17750000Y-40000000D02*
X19998740Y-40000000D01*
X13500000Y-37500000D02*
X15250000Y-37500000D01*
X15250000Y-37500000D02*
X17750000Y-35000000D01*
X17750000Y-35000000D02*
X20085740Y-35000000D01*
X12500000Y-44997480D02*
X12500000Y-38500000D01*
X12500000Y-38500000D02*
X13500000Y-37500000D01*
D28*
X30018400Y-62500000D02*
X35018400Y-67500000D01*
X35018400Y-67500000D02*
X79550000Y-67500000D01*
X93550000Y-53500000D02*
X95000000Y-53500000D01*
X79550000Y-67500000D02*
X93550000Y-53500000D01*
X25000000Y-12500000D02*
X17500000Y-5000000D01*
X17500000Y-5000000D02*
X15014600Y-5000000D01*
X25000000Y-25000000D02*
X25000000Y-12500000D01*
X82500000Y-22585740D02*
X82500000Y-25174000D01*
D29*
X5000000Y-17500000D02*
X5000000Y-19308000D01*
X7500000Y-21808000D02*
X7500000Y-34750000D01*
X5000000Y-19308000D02*
X7500000Y-21808000D01*
X7500000Y-34750000D02*
X7500000Y-37500000D01*
X7500000Y-37500000D02*
X7500000Y-52460000D01*
X7500000Y-52460000D02*
X4960000Y-55000000D01*
D28*
X90000000Y-42585740D02*
X90000000Y-45174000D01*
X97500000Y-52500000D02*
X96924999Y-51924999D01*
X96924999Y-51924999D02*
X95000000Y-50000000D01*
X97500000Y-57825200D02*
X97500000Y-52500000D01*
X93888000Y-62500000D02*
X93888000Y-61437200D01*
X93888000Y-61437200D02*
X97500000Y-57825200D01*
X90000000Y-29911740D02*
X90000000Y-32500000D01*
X92500000Y-28750510D02*
X92500000Y-25000000D01*
X92500000Y-25000000D02*
X95000000Y-22500000D01*
X90000000Y-32500000D02*
X90000000Y-31250510D01*
X90000000Y-31250510D02*
X92500000Y-28750510D01*
X95000000Y-12549200D02*
X94950800Y-12500000D01*
X94950800Y-12500000D02*
X93888000Y-12500000D01*
X95000000Y-22500000D02*
X95000000Y-12549200D01*
X82500000Y-45085740D02*
X82500000Y-42497480D01*
X22420000Y-50000000D02*
X27420000Y-45000000D01*
X27420000Y-45000000D02*
X30088260Y-45000000D01*
X30088260Y-45000000D02*
X30088260Y-46249490D01*
X30088260Y-46249490D02*
X38838770Y-55000000D01*
X38838770Y-55000000D02*
X40000000Y-55000000D01*
X90000000Y-50000000D02*
X90000000Y-52588260D01*
X42500000Y-41270000D02*
X42500000Y-49960000D01*
X42500000Y-49960000D02*
X40000000Y-52460000D01*
X40000000Y-39920000D02*
X41150000Y-39920000D01*
X41150000Y-39920000D02*
X42500000Y-41270000D01*
X27413000Y-40000000D02*
X30001260Y-40000000D01*
X30001260Y-40000000D02*
X35000000Y-40000000D01*
X35000000Y-40000000D02*
X40000000Y-45000000D01*
X82500000Y-30000000D02*
X82500000Y-32588260D01*
X27411740Y-30000000D02*
X30000000Y-30000000D01*
X27540000Y-25000000D02*
X39920000Y-25000000D01*
X39920000Y-25000000D02*
X40000000Y-25080000D01*
X30000000Y-30000000D02*
X35080000Y-30000000D01*
X35080000Y-30000000D02*
X40000000Y-25080000D01*
X90000000Y-22497480D02*
X90000000Y-25085740D01*
X27500000Y-35000000D02*
X30088260Y-35000000D01*
X30088260Y-35000000D02*
X39960000Y-35000000D01*
X39960000Y-35000000D02*
X40000000Y-35040000D01*
X12500000Y-52411740D02*
X12500000Y-55000000D01*
X7500000Y-55000000D02*
X12500000Y-55000000D01*
D30*
G36*
X96636390Y-1049408D02*
X98023654Y-1976349D01*
X98950592Y-3363610D01*
X99290000Y-5069931D01*
X99290000Y-69930069D01*
X98950592Y-71636390D01*
X98023654Y-73023651D01*
X96636390Y-73950592D01*
X94930069Y-74290000D01*
X5069931Y-74290000D01*
X3363610Y-73950592D01*
X1976349Y-73023654D01*
X1049408Y-71636390D01*
X710000Y-69930069D01*
X710000Y-69238000D01*
X11075960Y-69238000D01*
X11075960Y-70762000D01*
X11120238Y-70997317D01*
X11259310Y-71213441D01*
X11471510Y-71358431D01*
X11723400Y-71409440D01*
X13247400Y-71409440D01*
X13482717Y-71365162D01*
X13698841Y-71226090D01*
X13843831Y-71013890D01*
X13876609Y-70852029D01*
X14207630Y-71183629D01*
X14720900Y-71396757D01*
X15276661Y-71397242D01*
X15790303Y-71185010D01*
X16183629Y-70792370D01*
X16197070Y-70760000D01*
X22420000Y-70760000D01*
X22710839Y-70702148D01*
X22957401Y-70537401D01*
X25497401Y-67997401D01*
X25662148Y-67750840D01*
X25712043Y-67500000D01*
X25720000Y-67460000D01*
X25720000Y-62776661D01*
X28621158Y-62776661D01*
X28833390Y-63290303D01*
X29226030Y-63683629D01*
X29739300Y-63896757D01*
X30295061Y-63897242D01*
X30327455Y-63883857D01*
X34480999Y-68037401D01*
X34727561Y-68202148D01*
X35018400Y-68260000D01*
X79550000Y-68260000D01*
X79840839Y-68202148D01*
X80087401Y-68037401D01*
X93195674Y-54929128D01*
X93196838Y-54935317D01*
X93335910Y-55151441D01*
X93548110Y-55296431D01*
X93800000Y-55347440D01*
X96200000Y-55347440D01*
X96435317Y-55303162D01*
X96651441Y-55164090D01*
X96740000Y-55034480D01*
X96740000Y-57510398D01*
X93350599Y-60899799D01*
X93257080Y-61039760D01*
X93075200Y-61039760D01*
X92839883Y-61084038D01*
X92623759Y-61223110D01*
X92478769Y-61435310D01*
X92427760Y-61687200D01*
X92427760Y-63312800D01*
X92472038Y-63548117D01*
X92611110Y-63764241D01*
X92823310Y-63909231D01*
X93075200Y-63960240D01*
X94700800Y-63960240D01*
X94936117Y-63915962D01*
X95152241Y-63776890D01*
X95297231Y-63564690D01*
X95348240Y-63312800D01*
X95348240Y-61687200D01*
X95303962Y-61451883D01*
X95164890Y-61235759D01*
X95164506Y-61235496D01*
X98037401Y-58362601D01*
X98202148Y-58116040D01*
X98260000Y-57825200D01*
X98260000Y-52500000D01*
X98207178Y-52234447D01*
X98202148Y-52209160D01*
X98037401Y-51962599D01*
X96719293Y-50644491D01*
X96834681Y-50366605D01*
X96835318Y-49636597D01*
X96556545Y-48961914D01*
X96040801Y-48445270D01*
X95366605Y-48165319D01*
X94636597Y-48164682D01*
X93961914Y-48443455D01*
X93445270Y-48959199D01*
X93165319Y-49633395D01*
X93164682Y-50363403D01*
X93443455Y-51038086D01*
X93959199Y-51554730D01*
X94194799Y-51652560D01*
X93800000Y-51652560D01*
X93564683Y-51696838D01*
X93348559Y-51835910D01*
X93203569Y-52048110D01*
X93152560Y-52300000D01*
X93152560Y-52869080D01*
X93012599Y-52962599D01*
X79235198Y-66740000D01*
X35333202Y-66740000D01*
X32110218Y-63517016D01*
X36662589Y-63517016D01*
X36738295Y-63764462D01*
X37280165Y-63959703D01*
X37855503Y-63932718D01*
X38261705Y-63764462D01*
X38337411Y-63517016D01*
X37500000Y-62679605D01*
X36662589Y-63517016D01*
X32110218Y-63517016D01*
X31402583Y-62809381D01*
X31415157Y-62779100D01*
X31415592Y-62280165D01*
X36040297Y-62280165D01*
X36067282Y-62855503D01*
X36235538Y-63261705D01*
X36482984Y-63337411D01*
X37320395Y-62500000D01*
X37679605Y-62500000D01*
X38517016Y-63337411D01*
X38764462Y-63261705D01*
X38959703Y-62719835D01*
X38932718Y-62144497D01*
X38764462Y-61738295D01*
X38517016Y-61662589D01*
X37679605Y-62500000D01*
X37320395Y-62500000D01*
X36482984Y-61662589D01*
X36235538Y-61738295D01*
X36040297Y-62280165D01*
X31415592Y-62280165D01*
X31415642Y-62223339D01*
X31203410Y-61709697D01*
X30977093Y-61482984D01*
X36662589Y-61482984D01*
X37500000Y-62320395D01*
X38337411Y-61482984D01*
X38261705Y-61235538D01*
X37719835Y-61040297D01*
X37144497Y-61067282D01*
X36738295Y-61235538D01*
X36662589Y-61482984D01*
X30977093Y-61482984D01*
X30810770Y-61316371D01*
X30297500Y-61103243D01*
X29741739Y-61102758D01*
X29228097Y-61314990D01*
X28834771Y-61707630D01*
X28621643Y-62220900D01*
X28621158Y-62776661D01*
X25720000Y-62776661D01*
X25720000Y-55081922D01*
X31175479Y-60537401D01*
X31422040Y-60702148D01*
X31470294Y-60711746D01*
X31712880Y-60760000D01*
X73750510Y-60760000D01*
X74041349Y-60702148D01*
X74287911Y-60537401D01*
X76565312Y-58260000D01*
X80000000Y-58260000D01*
X80290839Y-58202148D01*
X80537401Y-58037401D01*
X83037401Y-55537401D01*
X83202148Y-55290839D01*
X83260000Y-55000000D01*
X83260000Y-54146930D01*
X83499490Y-54146930D01*
X83734807Y-54102652D01*
X83950931Y-53963580D01*
X84095921Y-53751380D01*
X84146930Y-53499490D01*
X84146930Y-52115142D01*
X84199955Y-52071803D01*
X84319991Y-51844555D01*
X84334516Y-51676769D01*
X88157842Y-51676769D01*
X88197958Y-51985377D01*
X88337030Y-52201501D01*
X88353070Y-52212461D01*
X88353070Y-53587750D01*
X88397348Y-53823067D01*
X88536420Y-54039191D01*
X88748620Y-54184181D01*
X89000510Y-54235190D01*
X90999490Y-54235190D01*
X91234807Y-54190912D01*
X91450931Y-54051840D01*
X91595921Y-53839640D01*
X91646930Y-53587750D01*
X91646930Y-52203402D01*
X91699955Y-52160063D01*
X91819991Y-51932815D01*
X91842158Y-51676769D01*
X91443378Y-48176649D01*
X91403262Y-48014623D01*
X91264190Y-47798499D01*
X91051990Y-47653509D01*
X90800100Y-47602500D01*
X89199900Y-47602500D01*
X89034374Y-47624017D01*
X88803896Y-47737730D01*
X88635817Y-47932152D01*
X88556622Y-48176649D01*
X88157842Y-51676769D01*
X84334516Y-51676769D01*
X84342158Y-51588509D01*
X83943378Y-48088389D01*
X83903262Y-47926363D01*
X83764190Y-47710239D01*
X83551990Y-47565249D01*
X83300100Y-47514240D01*
X81699900Y-47514240D01*
X81534374Y-47535757D01*
X81303896Y-47649470D01*
X81135817Y-47843892D01*
X81056622Y-48088389D01*
X80657842Y-51588509D01*
X80697958Y-51897117D01*
X80837030Y-52113241D01*
X80853070Y-52124201D01*
X80853070Y-53499490D01*
X80897348Y-53734807D01*
X81036420Y-53950931D01*
X81248620Y-54095921D01*
X81500510Y-54146930D01*
X81740000Y-54146930D01*
X81740000Y-54685198D01*
X79685198Y-56740000D01*
X76250510Y-56740000D01*
X75959671Y-56797852D01*
X75713109Y-56962599D01*
X73435708Y-59240000D01*
X32027682Y-59240000D01*
X25720000Y-52932318D01*
X25720000Y-51195367D01*
X25749172Y-51183313D01*
X26105316Y-50827790D01*
X26136838Y-50995317D01*
X26275910Y-51211441D01*
X26488110Y-51356431D01*
X26740000Y-51407440D01*
X28260000Y-51407440D01*
X28495317Y-51363162D01*
X28711441Y-51224090D01*
X28856431Y-51011890D01*
X28907440Y-50760000D01*
X28907440Y-49240000D01*
X28863162Y-49004683D01*
X28724090Y-48788559D01*
X28511890Y-48643569D01*
X28260000Y-48592560D01*
X26740000Y-48592560D01*
X26504683Y-48636838D01*
X26288559Y-48775910D01*
X26143569Y-48988110D01*
X26106031Y-49173480D01*
X25751236Y-48818066D01*
X25238700Y-48605242D01*
X24889864Y-48604938D01*
X26910812Y-46583990D01*
X29176769Y-46842158D01*
X29485377Y-46802042D01*
X29538249Y-46768019D01*
X29550859Y-46786891D01*
X38301369Y-55537401D01*
X38547931Y-55702148D01*
X38652280Y-55722904D01*
X38914591Y-56115481D01*
X39412581Y-56448227D01*
X40000000Y-56565072D01*
X40587419Y-56448227D01*
X41085409Y-56115481D01*
X41418155Y-55617491D01*
X41535000Y-55030072D01*
X41535000Y-54969928D01*
X41418155Y-54382509D01*
X41085409Y-53884519D01*
X40854155Y-53730000D01*
X41085409Y-53575481D01*
X41418155Y-53077491D01*
X41535000Y-52490072D01*
X41535000Y-52429928D01*
X41463637Y-52071165D01*
X43037401Y-50497401D01*
X43202148Y-50250839D01*
X43207332Y-50224775D01*
X48864803Y-50224775D01*
X49037233Y-50642086D01*
X49356235Y-50961645D01*
X49773244Y-51134803D01*
X50224775Y-51135197D01*
X50642086Y-50962767D01*
X50961645Y-50643765D01*
X51134803Y-50226756D01*
X51134804Y-50224775D01*
X53864803Y-50224775D01*
X54037233Y-50642086D01*
X54356235Y-50961645D01*
X54773244Y-51134803D01*
X55224775Y-51135197D01*
X55642086Y-50962767D01*
X55961645Y-50643765D01*
X56134803Y-50226756D01*
X56134804Y-50224775D01*
X58864803Y-50224775D01*
X59037233Y-50642086D01*
X59356235Y-50961645D01*
X59773244Y-51134803D01*
X60224775Y-51135197D01*
X60642086Y-50962767D01*
X60961645Y-50643765D01*
X61134803Y-50226756D01*
X61134804Y-50224775D01*
X63864803Y-50224775D01*
X64037233Y-50642086D01*
X64356235Y-50961645D01*
X64773244Y-51134803D01*
X65224775Y-51135197D01*
X65642086Y-50962767D01*
X65961645Y-50643765D01*
X66134803Y-50226756D01*
X66134804Y-50224775D01*
X68864803Y-50224775D01*
X69037233Y-50642086D01*
X69356235Y-50961645D01*
X69773244Y-51134803D01*
X70224775Y-51135197D01*
X70642086Y-50962767D01*
X70961645Y-50643765D01*
X71134803Y-50226756D01*
X71134804Y-50224775D01*
X73864803Y-50224775D01*
X74037233Y-50642086D01*
X74356235Y-50961645D01*
X74773244Y-51134803D01*
X75224775Y-51135197D01*
X75642086Y-50962767D01*
X75961645Y-50643765D01*
X76134803Y-50226756D01*
X76135197Y-49775225D01*
X75962767Y-49357914D01*
X75643765Y-49038355D01*
X75226756Y-48865197D01*
X74775225Y-48864803D01*
X74357914Y-49037233D01*
X74038355Y-49356235D01*
X73865197Y-49773244D01*
X73864803Y-50224775D01*
X71134804Y-50224775D01*
X71135197Y-49775225D01*
X70962767Y-49357914D01*
X70643765Y-49038355D01*
X70226756Y-48865197D01*
X69775225Y-48864803D01*
X69357914Y-49037233D01*
X69038355Y-49356235D01*
X68865197Y-49773244D01*
X68864803Y-50224775D01*
X66134804Y-50224775D01*
X66135197Y-49775225D01*
X65962767Y-49357914D01*
X65643765Y-49038355D01*
X65226756Y-48865197D01*
X64775225Y-48864803D01*
X64357914Y-49037233D01*
X64038355Y-49356235D01*
X63865197Y-49773244D01*
X63864803Y-50224775D01*
X61134804Y-50224775D01*
X61135197Y-49775225D01*
X60962767Y-49357914D01*
X60643765Y-49038355D01*
X60226756Y-48865197D01*
X59775225Y-48864803D01*
X59357914Y-49037233D01*
X59038355Y-49356235D01*
X58865197Y-49773244D01*
X58864803Y-50224775D01*
X56134804Y-50224775D01*
X56135197Y-49775225D01*
X55962767Y-49357914D01*
X55643765Y-49038355D01*
X55226756Y-48865197D01*
X54775225Y-48864803D01*
X54357914Y-49037233D01*
X54038355Y-49356235D01*
X53865197Y-49773244D01*
X53864803Y-50224775D01*
X51134804Y-50224775D01*
X51135197Y-49775225D01*
X50962767Y-49357914D01*
X50643765Y-49038355D01*
X50226756Y-48865197D01*
X49775225Y-48864803D01*
X49357914Y-49037233D01*
X49038355Y-49356235D01*
X48865197Y-49773244D01*
X48864803Y-50224775D01*
X43207332Y-50224775D01*
X43260000Y-49960000D01*
X43260000Y-45224775D01*
X48864803Y-45224775D01*
X49037233Y-45642086D01*
X49356235Y-45961645D01*
X49773244Y-46134803D01*
X50224775Y-46135197D01*
X50642086Y-45962767D01*
X50961645Y-45643765D01*
X51134803Y-45226756D01*
X51134804Y-45224775D01*
X53864803Y-45224775D01*
X54037233Y-45642086D01*
X54356235Y-45961645D01*
X54773244Y-46134803D01*
X55224775Y-46135197D01*
X55642086Y-45962767D01*
X55961645Y-45643765D01*
X56134803Y-45226756D01*
X56134804Y-45224775D01*
X58864803Y-45224775D01*
X59037233Y-45642086D01*
X59356235Y-45961645D01*
X59773244Y-46134803D01*
X60224775Y-46135197D01*
X60642086Y-45962767D01*
X60961645Y-45643765D01*
X61134803Y-45226756D01*
X61134804Y-45224775D01*
X63864803Y-45224775D01*
X64037233Y-45642086D01*
X64356235Y-45961645D01*
X64773244Y-46134803D01*
X65224775Y-46135197D01*
X65642086Y-45962767D01*
X65961645Y-45643765D01*
X66134803Y-45226756D01*
X66134804Y-45224775D01*
X68864803Y-45224775D01*
X69037233Y-45642086D01*
X69356235Y-45961645D01*
X69773244Y-46134803D01*
X70224775Y-46135197D01*
X70642086Y-45962767D01*
X70961645Y-45643765D01*
X71134803Y-45226756D01*
X71134804Y-45224775D01*
X73864803Y-45224775D01*
X74037233Y-45642086D01*
X74356235Y-45961645D01*
X74773244Y-46134803D01*
X75224775Y-46135197D01*
X75642086Y-45962767D01*
X75961645Y-45643765D01*
X76134803Y-45226756D01*
X76135197Y-44775225D01*
X75962767Y-44357914D01*
X75643765Y-44038355D01*
X75226756Y-43865197D01*
X74775225Y-43864803D01*
X74357914Y-44037233D01*
X74038355Y-44356235D01*
X73865197Y-44773244D01*
X73864803Y-45224775D01*
X71134804Y-45224775D01*
X71135197Y-44775225D01*
X70962767Y-44357914D01*
X70643765Y-44038355D01*
X70226756Y-43865197D01*
X69775225Y-43864803D01*
X69357914Y-44037233D01*
X69038355Y-44356235D01*
X68865197Y-44773244D01*
X68864803Y-45224775D01*
X66134804Y-45224775D01*
X66135197Y-44775225D01*
X65962767Y-44357914D01*
X65643765Y-44038355D01*
X65226756Y-43865197D01*
X64775225Y-43864803D01*
X64357914Y-44037233D01*
X64038355Y-44356235D01*
X63865197Y-44773244D01*
X63864803Y-45224775D01*
X61134804Y-45224775D01*
X61135197Y-44775225D01*
X60962767Y-44357914D01*
X60643765Y-44038355D01*
X60226756Y-43865197D01*
X59775225Y-43864803D01*
X59357914Y-44037233D01*
X59038355Y-44356235D01*
X58865197Y-44773244D01*
X58864803Y-45224775D01*
X56134804Y-45224775D01*
X56135197Y-44775225D01*
X55962767Y-44357914D01*
X55643765Y-44038355D01*
X55226756Y-43865197D01*
X54775225Y-43864803D01*
X54357914Y-44037233D01*
X54038355Y-44356235D01*
X53865197Y-44773244D01*
X53864803Y-45224775D01*
X51134804Y-45224775D01*
X51135197Y-44775225D01*
X50962767Y-44357914D01*
X50643765Y-44038355D01*
X50226756Y-43865197D01*
X49775225Y-43864803D01*
X49357914Y-44037233D01*
X49038355Y-44356235D01*
X48865197Y-44773244D01*
X48864803Y-45224775D01*
X43260000Y-45224775D01*
X43260000Y-43408971D01*
X80657842Y-43408971D01*
X81056622Y-46909091D01*
X81096738Y-47071117D01*
X81235810Y-47287241D01*
X81448010Y-47432231D01*
X81699900Y-47483240D01*
X83300100Y-47483240D01*
X83465626Y-47461723D01*
X83696104Y-47348010D01*
X83864183Y-47153588D01*
X83943378Y-46909091D01*
X84332102Y-43497231D01*
X88157842Y-43497231D01*
X88556622Y-46997351D01*
X88596738Y-47159377D01*
X88735810Y-47375501D01*
X88948010Y-47520491D01*
X89199900Y-47571500D01*
X90800100Y-47571500D01*
X90965626Y-47549983D01*
X91196104Y-47436270D01*
X91364183Y-47241848D01*
X91443378Y-46997351D01*
X91842158Y-43497231D01*
X91802042Y-43188623D01*
X91662970Y-42972499D01*
X91646930Y-42961539D01*
X91646930Y-41586250D01*
X91602652Y-41350933D01*
X91463580Y-41134809D01*
X91251380Y-40989819D01*
X90999490Y-40938810D01*
X89000510Y-40938810D01*
X88765193Y-40983088D01*
X88549069Y-41122160D01*
X88404079Y-41334360D01*
X88353070Y-41586250D01*
X88353070Y-42970598D01*
X88300045Y-43013937D01*
X88180009Y-43241185D01*
X88157842Y-43497231D01*
X84332102Y-43497231D01*
X84342158Y-43408971D01*
X84302042Y-43100363D01*
X84162970Y-42884239D01*
X84146930Y-42873279D01*
X84146930Y-41497990D01*
X84102652Y-41262673D01*
X83963580Y-41046549D01*
X83751380Y-40901559D01*
X83499490Y-40850550D01*
X81500510Y-40850550D01*
X81265193Y-40894828D01*
X81049069Y-41033900D01*
X80904079Y-41246100D01*
X80853070Y-41497990D01*
X80853070Y-42882338D01*
X80800045Y-42925677D01*
X80680009Y-43152925D01*
X80657842Y-43408971D01*
X43260000Y-43408971D01*
X43260000Y-41270000D01*
X43216635Y-41051990D01*
X43202148Y-40979160D01*
X43037401Y-40732599D01*
X42529577Y-40224775D01*
X48864803Y-40224775D01*
X49037233Y-40642086D01*
X49356235Y-40961645D01*
X49773244Y-41134803D01*
X50224775Y-41135197D01*
X50642086Y-40962767D01*
X50961645Y-40643765D01*
X51134803Y-40226756D01*
X51134804Y-40224775D01*
X53864803Y-40224775D01*
X54037233Y-40642086D01*
X54356235Y-40961645D01*
X54773244Y-41134803D01*
X55224775Y-41135197D01*
X55642086Y-40962767D01*
X55961645Y-40643765D01*
X56134803Y-40226756D01*
X56134804Y-40224775D01*
X58864803Y-40224775D01*
X59037233Y-40642086D01*
X59356235Y-40961645D01*
X59773244Y-41134803D01*
X60224775Y-41135197D01*
X60642086Y-40962767D01*
X60961645Y-40643765D01*
X61134803Y-40226756D01*
X61134804Y-40224775D01*
X63864803Y-40224775D01*
X64037233Y-40642086D01*
X64356235Y-40961645D01*
X64773244Y-41134803D01*
X65224775Y-41135197D01*
X65642086Y-40962767D01*
X65961645Y-40643765D01*
X66134803Y-40226756D01*
X66134804Y-40224775D01*
X68864803Y-40224775D01*
X69037233Y-40642086D01*
X69356235Y-40961645D01*
X69773244Y-41134803D01*
X70224775Y-41135197D01*
X70642086Y-40962767D01*
X70961645Y-40643765D01*
X71134803Y-40226756D01*
X71134804Y-40224775D01*
X73864803Y-40224775D01*
X74037233Y-40642086D01*
X74356235Y-40961645D01*
X74773244Y-41134803D01*
X75224775Y-41135197D01*
X75642086Y-40962767D01*
X75961645Y-40643765D01*
X76134803Y-40226756D01*
X76135197Y-39775225D01*
X75962767Y-39357914D01*
X75643765Y-39038355D01*
X75226756Y-38865197D01*
X74775225Y-38864803D01*
X74357914Y-39037233D01*
X74038355Y-39356235D01*
X73865197Y-39773244D01*
X73864803Y-40224775D01*
X71134804Y-40224775D01*
X71135197Y-39775225D01*
X70962767Y-39357914D01*
X70643765Y-39038355D01*
X70226756Y-38865197D01*
X69775225Y-38864803D01*
X69357914Y-39037233D01*
X69038355Y-39356235D01*
X68865197Y-39773244D01*
X68864803Y-40224775D01*
X66134804Y-40224775D01*
X66135197Y-39775225D01*
X65962767Y-39357914D01*
X65643765Y-39038355D01*
X65226756Y-38865197D01*
X64775225Y-38864803D01*
X64357914Y-39037233D01*
X64038355Y-39356235D01*
X63865197Y-39773244D01*
X63864803Y-40224775D01*
X61134804Y-40224775D01*
X61135197Y-39775225D01*
X60962767Y-39357914D01*
X60643765Y-39038355D01*
X60226756Y-38865197D01*
X59775225Y-38864803D01*
X59357914Y-39037233D01*
X59038355Y-39356235D01*
X58865197Y-39773244D01*
X58864803Y-40224775D01*
X56134804Y-40224775D01*
X56135197Y-39775225D01*
X55962767Y-39357914D01*
X55643765Y-39038355D01*
X55226756Y-38865197D01*
X54775225Y-38864803D01*
X54357914Y-39037233D01*
X54038355Y-39356235D01*
X53865197Y-39773244D01*
X53864803Y-40224775D01*
X51134804Y-40224775D01*
X51135197Y-39775225D01*
X50962767Y-39357914D01*
X50643765Y-39038355D01*
X50226756Y-38865197D01*
X49775225Y-38864803D01*
X49357914Y-39037233D01*
X49038355Y-39356235D01*
X48865197Y-39773244D01*
X48864803Y-40224775D01*
X42529577Y-40224775D01*
X41687401Y-39382599D01*
X41547440Y-39289080D01*
X41547440Y-39020000D01*
X41503162Y-38784683D01*
X41364090Y-38568559D01*
X41151890Y-38423569D01*
X40900000Y-38372560D01*
X39100000Y-38372560D01*
X38864683Y-38416838D01*
X38648559Y-38555910D01*
X38503569Y-38768110D01*
X38452560Y-39020000D01*
X38452560Y-40820000D01*
X38496838Y-41055317D01*
X38635910Y-41271441D01*
X38848110Y-41416431D01*
X38864344Y-41419719D01*
X38581845Y-41842509D01*
X38471592Y-42396790D01*
X35537401Y-39462599D01*
X35290839Y-39297852D01*
X35000000Y-39240000D01*
X31648190Y-39240000D01*
X31648190Y-39000510D01*
X31603912Y-38765193D01*
X31464840Y-38549069D01*
X31252640Y-38404079D01*
X31000750Y-38353070D01*
X29616402Y-38353070D01*
X29573063Y-38300045D01*
X29345815Y-38180009D01*
X29089769Y-38157842D01*
X25589649Y-38556622D01*
X25427623Y-38596738D01*
X25211499Y-38735810D01*
X25066509Y-38948010D01*
X25015500Y-39199900D01*
X25015500Y-40800100D01*
X25037017Y-40965626D01*
X25150730Y-41196104D01*
X25345152Y-41364183D01*
X25589649Y-41443378D01*
X29089769Y-41842158D01*
X29398377Y-41802042D01*
X29614501Y-41662970D01*
X29625461Y-41646930D01*
X31000750Y-41646930D01*
X31236067Y-41602652D01*
X31452191Y-41463580D01*
X31597181Y-41251380D01*
X31648190Y-40999490D01*
X31648190Y-40760000D01*
X34685198Y-40760000D01*
X38536363Y-44611165D01*
X38465000Y-44969928D01*
X38465000Y-45030072D01*
X38581845Y-45617491D01*
X38914591Y-46115481D01*
X39412581Y-46448227D01*
X40000000Y-46565072D01*
X40587419Y-46448227D01*
X41085409Y-46115481D01*
X41418155Y-45617491D01*
X41535000Y-45030072D01*
X41535000Y-44969928D01*
X41418155Y-44382509D01*
X41085409Y-43884519D01*
X40854155Y-43730000D01*
X41085409Y-43575481D01*
X41418155Y-43077491D01*
X41535000Y-42490072D01*
X41535000Y-42429928D01*
X41418155Y-41842509D01*
X41137163Y-41421974D01*
X41351441Y-41284090D01*
X41387100Y-41231902D01*
X41740000Y-41584802D01*
X41740000Y-49645198D01*
X41547440Y-49837758D01*
X41547440Y-49020000D01*
X41503162Y-48784683D01*
X41364090Y-48568559D01*
X41151890Y-48423569D01*
X40900000Y-48372560D01*
X39100000Y-48372560D01*
X38864683Y-48416838D01*
X38648559Y-48555910D01*
X38503569Y-48768110D01*
X38452560Y-49020000D01*
X38452560Y-50820000D01*
X38496838Y-51055317D01*
X38635910Y-51271441D01*
X38848110Y-51416431D01*
X38864344Y-51419719D01*
X38581845Y-51842509D01*
X38465000Y-52429928D01*
X38465000Y-52490072D01*
X38581845Y-53077491D01*
X38914591Y-53575481D01*
X39145845Y-53730000D01*
X38914591Y-53884519D01*
X38867928Y-53954356D01*
X31440596Y-46527024D01*
X31539191Y-46463580D01*
X31684181Y-46251380D01*
X31735190Y-45999490D01*
X31735190Y-44000510D01*
X31690912Y-43765193D01*
X31551840Y-43549069D01*
X31339640Y-43404079D01*
X31087750Y-43353070D01*
X29703402Y-43353070D01*
X29660063Y-43300045D01*
X29432815Y-43180009D01*
X29176769Y-43157842D01*
X25676649Y-43556622D01*
X25514623Y-43596738D01*
X25298499Y-43735810D01*
X25153509Y-43948010D01*
X25102500Y-44199900D01*
X25102500Y-45800100D01*
X25124017Y-45965626D01*
X25208447Y-46136751D01*
X22727851Y-48617347D01*
X22698700Y-48605242D01*
X22143735Y-48604758D01*
X21630828Y-48816687D01*
X21238066Y-49208764D01*
X21025242Y-49721300D01*
X21024758Y-50276265D01*
X21236687Y-50789172D01*
X21628764Y-51181934D01*
X22141300Y-51394758D01*
X22696265Y-51395242D01*
X23209172Y-51183313D01*
X23601934Y-50791236D01*
X23689954Y-50579262D01*
X23776687Y-50789172D01*
X24168764Y-51181934D01*
X24200000Y-51194904D01*
X24200000Y-67145198D01*
X22105198Y-69240000D01*
X16197531Y-69240000D01*
X16185010Y-69209697D01*
X15792370Y-68816371D01*
X15279100Y-68603243D01*
X14723339Y-68602758D01*
X14209697Y-68814990D01*
X13877621Y-69146487D01*
X13850562Y-69002683D01*
X13711490Y-68786559D01*
X13499290Y-68641569D01*
X13247400Y-68590560D01*
X11723400Y-68590560D01*
X11488083Y-68634838D01*
X11271959Y-68773910D01*
X11126969Y-68986110D01*
X11075960Y-69238000D01*
X710000Y-69238000D01*
X710000Y-55285750D01*
X3425000Y-55285750D01*
X3425000Y-56026310D01*
X3521673Y-56259699D01*
X3700302Y-56438327D01*
X3933691Y-56535000D01*
X4674250Y-56535000D01*
X4833000Y-56376250D01*
X4833000Y-55127000D01*
X3583750Y-55127000D01*
X3425000Y-55285750D01*
X710000Y-55285750D01*
X710000Y-53973690D01*
X3425000Y-53973690D01*
X3425000Y-54714250D01*
X3583750Y-54873000D01*
X4833000Y-54873000D01*
X4833000Y-53623750D01*
X5087000Y-53623750D01*
X5087000Y-54873000D01*
X5107000Y-54873000D01*
X5107000Y-55127000D01*
X5087000Y-55127000D01*
X5087000Y-56376250D01*
X5245750Y-56535000D01*
X5986309Y-56535000D01*
X6219698Y-56438327D01*
X6398327Y-56259699D01*
X6454119Y-56125006D01*
X6629357Y-56300551D01*
X7193330Y-56534733D01*
X7803991Y-56535265D01*
X8368371Y-56302068D01*
X8800551Y-55870643D01*
X8846494Y-55760000D01*
X10853070Y-55760000D01*
X10853070Y-55999490D01*
X10897348Y-56234807D01*
X11036420Y-56450931D01*
X11248620Y-56595921D01*
X11500510Y-56646930D01*
X13499490Y-56646930D01*
X13734807Y-56602652D01*
X13950931Y-56463580D01*
X14095921Y-56251380D01*
X14146930Y-55999490D01*
X14146930Y-54615142D01*
X14199955Y-54571803D01*
X14319991Y-54344555D01*
X14342158Y-54088509D01*
X13943378Y-50588389D01*
X13903262Y-50426363D01*
X13764190Y-50210239D01*
X13551990Y-50065249D01*
X13300100Y-50014240D01*
X11699900Y-50014240D01*
X11534374Y-50035757D01*
X11303896Y-50149470D01*
X11135817Y-50343892D01*
X11056622Y-50588389D01*
X10657842Y-54088509D01*
X10677534Y-54240000D01*
X8846846Y-54240000D01*
X8802068Y-54131629D01*
X8370643Y-53699449D01*
X7806670Y-53465267D01*
X7196009Y-53464735D01*
X6631629Y-53697932D01*
X6454159Y-53875092D01*
X6398327Y-53740301D01*
X6219698Y-53561673D01*
X5986309Y-53465000D01*
X5245750Y-53465000D01*
X5087000Y-53623750D01*
X4833000Y-53623750D01*
X4674250Y-53465000D01*
X3933691Y-53465000D01*
X3700302Y-53561673D01*
X3521673Y-53740301D01*
X3425000Y-53973690D01*
X710000Y-53973690D01*
X710000Y-45908971D01*
X10657842Y-45908971D01*
X11056622Y-49409091D01*
X11096738Y-49571117D01*
X11235810Y-49787241D01*
X11448010Y-49932231D01*
X11699900Y-49983240D01*
X13300100Y-49983240D01*
X13465626Y-49961723D01*
X13696104Y-49848010D01*
X13864183Y-49653588D01*
X13943378Y-49409091D01*
X14342158Y-45908971D01*
X14302042Y-45600363D01*
X14162970Y-45384239D01*
X14146930Y-45373279D01*
X14146930Y-43997990D01*
X14102652Y-43762673D01*
X13963580Y-43546549D01*
X13751380Y-43401559D01*
X13499490Y-43350550D01*
X13385000Y-43350550D01*
X13385000Y-42136580D01*
X16615000Y-45366579D01*
X16615000Y-57499995D01*
X16614999Y-57500000D01*
X16671190Y-57782484D01*
X16682367Y-57838675D01*
X16815151Y-58037401D01*
X16874210Y-58125790D01*
X21090560Y-62342139D01*
X21090560Y-63262000D01*
X21134838Y-63497317D01*
X21273910Y-63713441D01*
X21486110Y-63858431D01*
X21738000Y-63909440D01*
X23262000Y-63909440D01*
X23497317Y-63865162D01*
X23713441Y-63726090D01*
X23858431Y-63513890D01*
X23909440Y-63262000D01*
X23909440Y-61738000D01*
X23865162Y-61502683D01*
X23726090Y-61286559D01*
X23513890Y-61141569D01*
X23262000Y-61090560D01*
X22342139Y-61090560D01*
X18385000Y-57133420D01*
X18385000Y-45000005D01*
X18385001Y-45000000D01*
X18356838Y-44858417D01*
X18438810Y-44940389D01*
X18438810Y-45999490D01*
X18483088Y-46234807D01*
X18622160Y-46450931D01*
X18834360Y-46595921D01*
X19086250Y-46646930D01*
X20470598Y-46646930D01*
X20513937Y-46699955D01*
X20741185Y-46819991D01*
X20997231Y-46842158D01*
X24497351Y-46443378D01*
X24659377Y-46403262D01*
X24875501Y-46264190D01*
X25020491Y-46051990D01*
X25071500Y-45800100D01*
X25071500Y-44199900D01*
X25049983Y-44034374D01*
X24936270Y-43803896D01*
X24741848Y-43635817D01*
X24497351Y-43556622D01*
X20997231Y-43157842D01*
X20688623Y-43197958D01*
X20472499Y-43337030D01*
X20461539Y-43353070D01*
X19354649Y-43353070D01*
X15290099Y-39288519D01*
X15372530Y-38874110D01*
X17124208Y-40625787D01*
X17124210Y-40625790D01*
X17411325Y-40817633D01*
X17423225Y-40820000D01*
X17750000Y-40885001D01*
X17750005Y-40885000D01*
X18351810Y-40885000D01*
X18351810Y-40999490D01*
X18396088Y-41234807D01*
X18535160Y-41450931D01*
X18747360Y-41595921D01*
X18999250Y-41646930D01*
X20383598Y-41646930D01*
X20426937Y-41699955D01*
X20654185Y-41819991D01*
X20910231Y-41842158D01*
X24410351Y-41443378D01*
X24572377Y-41403262D01*
X24788501Y-41264190D01*
X24933491Y-41051990D01*
X24984500Y-40800100D01*
X24984500Y-39199900D01*
X24962983Y-39034374D01*
X24849270Y-38803896D01*
X24654848Y-38635817D01*
X24410351Y-38556622D01*
X20910231Y-38157842D01*
X20601623Y-38197958D01*
X20385499Y-38337030D01*
X20374539Y-38353070D01*
X18999250Y-38353070D01*
X18763933Y-38397348D01*
X18547809Y-38536420D01*
X18402819Y-38748620D01*
X18351810Y-39000510D01*
X18351810Y-39115000D01*
X18116579Y-39115000D01*
X16501580Y-37500000D01*
X18116579Y-35885000D01*
X18438810Y-35885000D01*
X18438810Y-35999490D01*
X18483088Y-36234807D01*
X18622160Y-36450931D01*
X18834360Y-36595921D01*
X19086250Y-36646930D01*
X20470598Y-36646930D01*
X20513937Y-36699955D01*
X20741185Y-36819991D01*
X20997231Y-36842158D01*
X24497351Y-36443378D01*
X24659377Y-36403262D01*
X24875501Y-36264190D01*
X25020491Y-36051990D01*
X25071500Y-35800100D01*
X25071500Y-34199900D01*
X25102500Y-34199900D01*
X25102500Y-35800100D01*
X25124017Y-35965626D01*
X25237730Y-36196104D01*
X25432152Y-36364183D01*
X25676649Y-36443378D01*
X29176769Y-36842158D01*
X29485377Y-36802042D01*
X29701501Y-36662970D01*
X29712461Y-36646930D01*
X31087750Y-36646930D01*
X31323067Y-36602652D01*
X31539191Y-36463580D01*
X31684181Y-36251380D01*
X31735190Y-35999490D01*
X31735190Y-35760000D01*
X38650339Y-35760000D01*
X38914591Y-36155481D01*
X39412581Y-36488227D01*
X40000000Y-36605072D01*
X40587419Y-36488227D01*
X41085409Y-36155481D01*
X41418155Y-35657491D01*
X41504227Y-35224775D01*
X48864803Y-35224775D01*
X49037233Y-35642086D01*
X49356235Y-35961645D01*
X49773244Y-36134803D01*
X50224775Y-36135197D01*
X50642086Y-35962767D01*
X50961645Y-35643765D01*
X51134803Y-35226756D01*
X51134804Y-35224775D01*
X53864803Y-35224775D01*
X54037233Y-35642086D01*
X54356235Y-35961645D01*
X54773244Y-36134803D01*
X55224775Y-36135197D01*
X55642086Y-35962767D01*
X55961645Y-35643765D01*
X56134803Y-35226756D01*
X56134804Y-35224775D01*
X58864803Y-35224775D01*
X59037233Y-35642086D01*
X59356235Y-35961645D01*
X59773244Y-36134803D01*
X60224775Y-36135197D01*
X60642086Y-35962767D01*
X60961645Y-35643765D01*
X61134803Y-35226756D01*
X61134804Y-35224775D01*
X63864803Y-35224775D01*
X64037233Y-35642086D01*
X64356235Y-35961645D01*
X64773244Y-36134803D01*
X65224775Y-36135197D01*
X65642086Y-35962767D01*
X65961645Y-35643765D01*
X66134803Y-35226756D01*
X66134804Y-35224775D01*
X68864803Y-35224775D01*
X69037233Y-35642086D01*
X69356235Y-35961645D01*
X69773244Y-36134803D01*
X70224775Y-36135197D01*
X70642086Y-35962767D01*
X70961645Y-35643765D01*
X71134803Y-35226756D01*
X71134804Y-35224775D01*
X73864803Y-35224775D01*
X74037233Y-35642086D01*
X74356235Y-35961645D01*
X74773244Y-36134803D01*
X75224775Y-36135197D01*
X75642086Y-35962767D01*
X75961645Y-35643765D01*
X76134803Y-35226756D01*
X76135197Y-34775225D01*
X75962767Y-34357914D01*
X75643765Y-34038355D01*
X75226756Y-33865197D01*
X74775225Y-33864803D01*
X74357914Y-34037233D01*
X74038355Y-34356235D01*
X73865197Y-34773244D01*
X73864803Y-35224775D01*
X71134804Y-35224775D01*
X71135197Y-34775225D01*
X70962767Y-34357914D01*
X70643765Y-34038355D01*
X70226756Y-33865197D01*
X69775225Y-33864803D01*
X69357914Y-34037233D01*
X69038355Y-34356235D01*
X68865197Y-34773244D01*
X68864803Y-35224775D01*
X66134804Y-35224775D01*
X66135197Y-34775225D01*
X65962767Y-34357914D01*
X65643765Y-34038355D01*
X65226756Y-33865197D01*
X64775225Y-33864803D01*
X64357914Y-34037233D01*
X64038355Y-34356235D01*
X63865197Y-34773244D01*
X63864803Y-35224775D01*
X61134804Y-35224775D01*
X61135197Y-34775225D01*
X60962767Y-34357914D01*
X60643765Y-34038355D01*
X60226756Y-33865197D01*
X59775225Y-33864803D01*
X59357914Y-34037233D01*
X59038355Y-34356235D01*
X58865197Y-34773244D01*
X58864803Y-35224775D01*
X56134804Y-35224775D01*
X56135197Y-34775225D01*
X55962767Y-34357914D01*
X55643765Y-34038355D01*
X55226756Y-33865197D01*
X54775225Y-33864803D01*
X54357914Y-34037233D01*
X54038355Y-34356235D01*
X53865197Y-34773244D01*
X53864803Y-35224775D01*
X51134804Y-35224775D01*
X51135197Y-34775225D01*
X50962767Y-34357914D01*
X50643765Y-34038355D01*
X50226756Y-33865197D01*
X49775225Y-33864803D01*
X49357914Y-34037233D01*
X49038355Y-34356235D01*
X48865197Y-34773244D01*
X48864803Y-35224775D01*
X41504227Y-35224775D01*
X41535000Y-35070072D01*
X41535000Y-35009928D01*
X41418155Y-34422509D01*
X41085409Y-33924519D01*
X40854155Y-33770000D01*
X41085409Y-33615481D01*
X41418155Y-33117491D01*
X41535000Y-32530072D01*
X41535000Y-32469928D01*
X41418155Y-31882509D01*
X41280685Y-31676769D01*
X80657842Y-31676769D01*
X80697958Y-31985377D01*
X80837030Y-32201501D01*
X80853070Y-32212461D01*
X80853070Y-33587750D01*
X80897348Y-33823067D01*
X81036420Y-34039191D01*
X81248620Y-34184181D01*
X81500510Y-34235190D01*
X83499490Y-34235190D01*
X83734807Y-34190912D01*
X83950931Y-34051840D01*
X84095921Y-33839640D01*
X84146930Y-33587750D01*
X84146930Y-32203402D01*
X84199955Y-32160063D01*
X84319991Y-31932815D01*
X84342158Y-31676769D01*
X84332103Y-31588509D01*
X88157842Y-31588509D01*
X88197958Y-31897117D01*
X88337030Y-32113241D01*
X88353070Y-32124201D01*
X88353070Y-33499490D01*
X88397348Y-33734807D01*
X88536420Y-33950931D01*
X88748620Y-34095921D01*
X89000510Y-34146930D01*
X90999490Y-34146930D01*
X91234807Y-34102652D01*
X91450931Y-33963580D01*
X91595921Y-33751380D01*
X91646930Y-33499490D01*
X91646930Y-32115142D01*
X91699955Y-32071803D01*
X91819991Y-31844555D01*
X91842158Y-31588509D01*
X91729102Y-30596210D01*
X93037401Y-29287911D01*
X93202148Y-29041349D01*
X93260000Y-28750510D01*
X93260000Y-27533474D01*
X93335910Y-27651441D01*
X93548110Y-27796431D01*
X93800000Y-27847440D01*
X96200000Y-27847440D01*
X96435317Y-27803162D01*
X96651441Y-27664090D01*
X96796431Y-27451890D01*
X96847440Y-27200000D01*
X96847440Y-24800000D01*
X96803162Y-24564683D01*
X96664090Y-24348559D01*
X96451890Y-24203569D01*
X96200000Y-24152560D01*
X95805712Y-24152560D01*
X96038086Y-24056545D01*
X96554730Y-23540801D01*
X96834681Y-22866605D01*
X96835318Y-22136597D01*
X96556545Y-21461914D01*
X96040801Y-20945270D01*
X95760000Y-20828671D01*
X95760000Y-12549200D01*
X95740457Y-12450952D01*
X95702148Y-12258360D01*
X95537401Y-12011799D01*
X95488201Y-11962599D01*
X95348240Y-11869080D01*
X95348240Y-11687200D01*
X95303962Y-11451883D01*
X95164890Y-11235759D01*
X94952690Y-11090769D01*
X94700800Y-11039760D01*
X93075200Y-11039760D01*
X92839883Y-11084038D01*
X92623759Y-11223110D01*
X92478769Y-11435310D01*
X92427760Y-11687200D01*
X92427760Y-13312800D01*
X92472038Y-13548117D01*
X92611110Y-13764241D01*
X92823310Y-13909231D01*
X93075200Y-13960240D01*
X94240000Y-13960240D01*
X94240000Y-20828552D01*
X93961914Y-20943455D01*
X93445270Y-21459199D01*
X93165319Y-22133395D01*
X93164682Y-22863403D01*
X93280791Y-23144407D01*
X91962599Y-24462599D01*
X91797852Y-24709161D01*
X91740000Y-25000000D01*
X91740000Y-28435708D01*
X91509240Y-28666468D01*
X91443378Y-28088389D01*
X91403262Y-27926363D01*
X91264190Y-27710239D01*
X91051990Y-27565249D01*
X90800100Y-27514240D01*
X89199900Y-27514240D01*
X89034374Y-27535757D01*
X88803896Y-27649470D01*
X88635817Y-27843892D01*
X88556622Y-28088389D01*
X88157842Y-31588509D01*
X84332103Y-31588509D01*
X83943378Y-28176649D01*
X83903262Y-28014623D01*
X83764190Y-27798499D01*
X83551990Y-27653509D01*
X83300100Y-27602500D01*
X81699900Y-27602500D01*
X81534374Y-27624017D01*
X81303896Y-27737730D01*
X81135817Y-27932152D01*
X81056622Y-28176649D01*
X80657842Y-31676769D01*
X41280685Y-31676769D01*
X41137163Y-31461974D01*
X41351441Y-31324090D01*
X41496431Y-31111890D01*
X41547440Y-30860000D01*
X41547440Y-30224775D01*
X48864803Y-30224775D01*
X49037233Y-30642086D01*
X49356235Y-30961645D01*
X49773244Y-31134803D01*
X50224775Y-31135197D01*
X50642086Y-30962767D01*
X50961645Y-30643765D01*
X51134803Y-30226756D01*
X51134804Y-30224775D01*
X53864803Y-30224775D01*
X54037233Y-30642086D01*
X54356235Y-30961645D01*
X54773244Y-31134803D01*
X55224775Y-31135197D01*
X55642086Y-30962767D01*
X55961645Y-30643765D01*
X56134803Y-30226756D01*
X56134804Y-30224775D01*
X58864803Y-30224775D01*
X59037233Y-30642086D01*
X59356235Y-30961645D01*
X59773244Y-31134803D01*
X60224775Y-31135197D01*
X60642086Y-30962767D01*
X60961645Y-30643765D01*
X61134803Y-30226756D01*
X61134804Y-30224775D01*
X63864803Y-30224775D01*
X64037233Y-30642086D01*
X64356235Y-30961645D01*
X64773244Y-31134803D01*
X65224775Y-31135197D01*
X65642086Y-30962767D01*
X65961645Y-30643765D01*
X66134803Y-30226756D01*
X66134804Y-30224775D01*
X68864803Y-30224775D01*
X69037233Y-30642086D01*
X69356235Y-30961645D01*
X69773244Y-31134803D01*
X70224775Y-31135197D01*
X70642086Y-30962767D01*
X70961645Y-30643765D01*
X71134803Y-30226756D01*
X71134804Y-30224775D01*
X73864803Y-30224775D01*
X74037233Y-30642086D01*
X74356235Y-30961645D01*
X74773244Y-31134803D01*
X75224775Y-31135197D01*
X75642086Y-30962767D01*
X75961645Y-30643765D01*
X76134803Y-30226756D01*
X76135197Y-29775225D01*
X75962767Y-29357914D01*
X75643765Y-29038355D01*
X75226756Y-28865197D01*
X74775225Y-28864803D01*
X74357914Y-29037233D01*
X74038355Y-29356235D01*
X73865197Y-29773244D01*
X73864803Y-30224775D01*
X71134804Y-30224775D01*
X71135197Y-29775225D01*
X70962767Y-29357914D01*
X70643765Y-29038355D01*
X70226756Y-28865197D01*
X69775225Y-28864803D01*
X69357914Y-29037233D01*
X69038355Y-29356235D01*
X68865197Y-29773244D01*
X68864803Y-30224775D01*
X66134804Y-30224775D01*
X66135197Y-29775225D01*
X65962767Y-29357914D01*
X65643765Y-29038355D01*
X65226756Y-28865197D01*
X64775225Y-28864803D01*
X64357914Y-29037233D01*
X64038355Y-29356235D01*
X63865197Y-29773244D01*
X63864803Y-30224775D01*
X61134804Y-30224775D01*
X61135197Y-29775225D01*
X60962767Y-29357914D01*
X60643765Y-29038355D01*
X60226756Y-28865197D01*
X59775225Y-28864803D01*
X59357914Y-29037233D01*
X59038355Y-29356235D01*
X58865197Y-29773244D01*
X58864803Y-30224775D01*
X56134804Y-30224775D01*
X56135197Y-29775225D01*
X55962767Y-29357914D01*
X55643765Y-29038355D01*
X55226756Y-28865197D01*
X54775225Y-28864803D01*
X54357914Y-29037233D01*
X54038355Y-29356235D01*
X53865197Y-29773244D01*
X53864803Y-30224775D01*
X51134804Y-30224775D01*
X51135197Y-29775225D01*
X50962767Y-29357914D01*
X50643765Y-29038355D01*
X50226756Y-28865197D01*
X49775225Y-28864803D01*
X49357914Y-29037233D01*
X49038355Y-29356235D01*
X48865197Y-29773244D01*
X48864803Y-30224775D01*
X41547440Y-30224775D01*
X41547440Y-29060000D01*
X41503162Y-28824683D01*
X41364090Y-28608559D01*
X41151890Y-28463569D01*
X40900000Y-28412560D01*
X39100000Y-28412560D01*
X38864683Y-28456838D01*
X38648559Y-28595910D01*
X38503569Y-28808110D01*
X38452560Y-29060000D01*
X38452560Y-30860000D01*
X38496838Y-31095317D01*
X38635910Y-31311441D01*
X38848110Y-31456431D01*
X38864344Y-31459719D01*
X38581845Y-31882509D01*
X38465000Y-32469928D01*
X38465000Y-32530072D01*
X38581845Y-33117491D01*
X38914591Y-33615481D01*
X39145845Y-33770000D01*
X38914591Y-33924519D01*
X38703794Y-34240000D01*
X31735190Y-34240000D01*
X31735190Y-34000510D01*
X31690912Y-33765193D01*
X31551840Y-33549069D01*
X31339640Y-33404079D01*
X31087750Y-33353070D01*
X29703402Y-33353070D01*
X29660063Y-33300045D01*
X29432815Y-33180009D01*
X29176769Y-33157842D01*
X25676649Y-33556622D01*
X25514623Y-33596738D01*
X25298499Y-33735810D01*
X25153509Y-33948010D01*
X25102500Y-34199900D01*
X25071500Y-34199900D01*
X25049983Y-34034374D01*
X24936270Y-33803896D01*
X24741848Y-33635817D01*
X24497351Y-33556622D01*
X20997231Y-33157842D01*
X20688623Y-33197958D01*
X20472499Y-33337030D01*
X20461539Y-33353070D01*
X19086250Y-33353070D01*
X18850933Y-33397348D01*
X18634809Y-33536420D01*
X18489819Y-33748620D01*
X18438810Y-34000510D01*
X18438810Y-34115000D01*
X17750005Y-34115000D01*
X17750000Y-34114999D01*
X17467516Y-34171190D01*
X17411325Y-34182367D01*
X17124210Y-34374210D01*
X17124208Y-34374213D01*
X15372530Y-36125890D01*
X15290099Y-35711481D01*
X19354649Y-31646930D01*
X20382338Y-31646930D01*
X20425677Y-31699955D01*
X20652925Y-31819991D01*
X20908971Y-31842158D01*
X24409091Y-31443378D01*
X24571117Y-31403262D01*
X24787241Y-31264190D01*
X24932231Y-31051990D01*
X24983240Y-30800100D01*
X24983240Y-29199900D01*
X24961723Y-29034374D01*
X24848010Y-28803896D01*
X24653588Y-28635817D01*
X24409091Y-28556622D01*
X20908971Y-28157842D01*
X20600363Y-28197958D01*
X20384239Y-28337030D01*
X20373279Y-28353070D01*
X18997990Y-28353070D01*
X18762673Y-28397348D01*
X18546549Y-28536420D01*
X18401559Y-28748620D01*
X18350550Y-29000510D01*
X18350550Y-30147871D01*
X14385000Y-34113420D01*
X14385000Y-20586180D01*
X21256834Y-13714345D01*
X21467710Y-13858431D01*
X21719600Y-13909440D01*
X23243600Y-13909440D01*
X23478917Y-13865162D01*
X23695041Y-13726090D01*
X23840031Y-13513890D01*
X23891040Y-13262000D01*
X23891040Y-12465842D01*
X24240000Y-12814802D01*
X24240000Y-23804633D01*
X24210828Y-23816687D01*
X23854684Y-24172210D01*
X23823162Y-24004683D01*
X23684090Y-23788559D01*
X23471890Y-23643569D01*
X23220000Y-23592560D01*
X21700000Y-23592560D01*
X21464683Y-23636838D01*
X21248559Y-23775910D01*
X21103569Y-23988110D01*
X21052560Y-24240000D01*
X21052560Y-25760000D01*
X21096838Y-25995317D01*
X21235910Y-26211441D01*
X21448110Y-26356431D01*
X21700000Y-26407440D01*
X23220000Y-26407440D01*
X23455317Y-26363162D01*
X23671441Y-26224090D01*
X23816431Y-26011890D01*
X23853969Y-25826520D01*
X24208764Y-26181934D01*
X24721300Y-26394758D01*
X25276265Y-26395242D01*
X25789172Y-26183313D01*
X26181934Y-25791236D01*
X26269954Y-25579262D01*
X26356687Y-25789172D01*
X26748764Y-26181934D01*
X27261300Y-26394758D01*
X27816265Y-26395242D01*
X28329172Y-26183313D01*
X28721934Y-25791236D01*
X28734904Y-25760000D01*
X38245198Y-25760000D01*
X34765198Y-29240000D01*
X31646930Y-29240000D01*
X31646930Y-29000510D01*
X31602652Y-28765193D01*
X31463580Y-28549069D01*
X31251380Y-28404079D01*
X30999490Y-28353070D01*
X29615142Y-28353070D01*
X29571803Y-28300045D01*
X29344555Y-28180009D01*
X29088509Y-28157842D01*
X25588389Y-28556622D01*
X25426363Y-28596738D01*
X25210239Y-28735810D01*
X25065249Y-28948010D01*
X25014240Y-29199900D01*
X25014240Y-30800100D01*
X25035757Y-30965626D01*
X25149470Y-31196104D01*
X25343892Y-31364183D01*
X25588389Y-31443378D01*
X29088509Y-31842158D01*
X29397117Y-31802042D01*
X29613241Y-31662970D01*
X29624201Y-31646930D01*
X30999490Y-31646930D01*
X31234807Y-31602652D01*
X31450931Y-31463580D01*
X31595921Y-31251380D01*
X31646930Y-30999490D01*
X31646930Y-30760000D01*
X35080000Y-30760000D01*
X35370839Y-30702148D01*
X35617401Y-30537401D01*
X39591071Y-26563731D01*
X40000000Y-26645072D01*
X40587419Y-26528227D01*
X41085409Y-26195481D01*
X41418155Y-25697491D01*
X41512184Y-25224775D01*
X48864803Y-25224775D01*
X49037233Y-25642086D01*
X49356235Y-25961645D01*
X49773244Y-26134803D01*
X50224775Y-26135197D01*
X50642086Y-25962767D01*
X50961645Y-25643765D01*
X51134803Y-25226756D01*
X51134804Y-25224775D01*
X53864803Y-25224775D01*
X54037233Y-25642086D01*
X54356235Y-25961645D01*
X54773244Y-26134803D01*
X55224775Y-26135197D01*
X55642086Y-25962767D01*
X55961645Y-25643765D01*
X56134803Y-25226756D01*
X56134804Y-25224775D01*
X58864803Y-25224775D01*
X59037233Y-25642086D01*
X59356235Y-25961645D01*
X59773244Y-26134803D01*
X60224775Y-26135197D01*
X60642086Y-25962767D01*
X60961645Y-25643765D01*
X61134803Y-25226756D01*
X61134804Y-25224775D01*
X63864803Y-25224775D01*
X64037233Y-25642086D01*
X64356235Y-25961645D01*
X64773244Y-26134803D01*
X65224775Y-26135197D01*
X65642086Y-25962767D01*
X65961645Y-25643765D01*
X66134803Y-25226756D01*
X66134804Y-25224775D01*
X68864803Y-25224775D01*
X69037233Y-25642086D01*
X69356235Y-25961645D01*
X69773244Y-26134803D01*
X70224775Y-26135197D01*
X70642086Y-25962767D01*
X70961645Y-25643765D01*
X71134803Y-25226756D01*
X71134804Y-25224775D01*
X73864803Y-25224775D01*
X74037233Y-25642086D01*
X74356235Y-25961645D01*
X74773244Y-26134803D01*
X75224775Y-26135197D01*
X75642086Y-25962767D01*
X75961645Y-25643765D01*
X76134803Y-25226756D01*
X76135197Y-24775225D01*
X75962767Y-24357914D01*
X75643765Y-24038355D01*
X75226756Y-23865197D01*
X74775225Y-23864803D01*
X74357914Y-24037233D01*
X74038355Y-24356235D01*
X73865197Y-24773244D01*
X73864803Y-25224775D01*
X71134804Y-25224775D01*
X71135197Y-24775225D01*
X70962767Y-24357914D01*
X70643765Y-24038355D01*
X70226756Y-23865197D01*
X69775225Y-23864803D01*
X69357914Y-24037233D01*
X69038355Y-24356235D01*
X68865197Y-24773244D01*
X68864803Y-25224775D01*
X66134804Y-25224775D01*
X66135197Y-24775225D01*
X65962767Y-24357914D01*
X65643765Y-24038355D01*
X65226756Y-23865197D01*
X64775225Y-23864803D01*
X64357914Y-24037233D01*
X64038355Y-24356235D01*
X63865197Y-24773244D01*
X63864803Y-25224775D01*
X61134804Y-25224775D01*
X61135197Y-24775225D01*
X60962767Y-24357914D01*
X60643765Y-24038355D01*
X60226756Y-23865197D01*
X59775225Y-23864803D01*
X59357914Y-24037233D01*
X59038355Y-24356235D01*
X58865197Y-24773244D01*
X58864803Y-25224775D01*
X56134804Y-25224775D01*
X56135197Y-24775225D01*
X55962767Y-24357914D01*
X55643765Y-24038355D01*
X55226756Y-23865197D01*
X54775225Y-23864803D01*
X54357914Y-24037233D01*
X54038355Y-24356235D01*
X53865197Y-24773244D01*
X53864803Y-25224775D01*
X51134804Y-25224775D01*
X51135197Y-24775225D01*
X50962767Y-24357914D01*
X50643765Y-24038355D01*
X50226756Y-23865197D01*
X49775225Y-23864803D01*
X49357914Y-24037233D01*
X49038355Y-24356235D01*
X48865197Y-24773244D01*
X48864803Y-25224775D01*
X41512184Y-25224775D01*
X41535000Y-25110072D01*
X41535000Y-25049928D01*
X41418155Y-24462509D01*
X41085409Y-23964519D01*
X40854155Y-23810000D01*
X41085409Y-23655481D01*
X41191148Y-23497231D01*
X80657842Y-23497231D01*
X81056622Y-26997351D01*
X81096738Y-27159377D01*
X81235810Y-27375501D01*
X81448010Y-27520491D01*
X81699900Y-27571500D01*
X83300100Y-27571500D01*
X83465626Y-27549983D01*
X83696104Y-27436270D01*
X83864183Y-27241848D01*
X83943378Y-26997351D01*
X84342158Y-23497231D01*
X84330686Y-23408971D01*
X88157842Y-23408971D01*
X88556622Y-26909091D01*
X88596738Y-27071117D01*
X88735810Y-27287241D01*
X88948010Y-27432231D01*
X89199900Y-27483240D01*
X90800100Y-27483240D01*
X90965626Y-27461723D01*
X91196104Y-27348010D01*
X91364183Y-27153588D01*
X91443378Y-26909091D01*
X91842158Y-23408971D01*
X91802042Y-23100363D01*
X91662970Y-22884239D01*
X91646930Y-22873279D01*
X91646930Y-21497990D01*
X91602652Y-21262673D01*
X91463580Y-21046549D01*
X91251380Y-20901559D01*
X90999490Y-20850550D01*
X89000510Y-20850550D01*
X88765193Y-20894828D01*
X88549069Y-21033900D01*
X88404079Y-21246100D01*
X88353070Y-21497990D01*
X88353070Y-22882338D01*
X88300045Y-22925677D01*
X88180009Y-23152925D01*
X88157842Y-23408971D01*
X84330686Y-23408971D01*
X84302042Y-23188623D01*
X84162970Y-22972499D01*
X84146930Y-22961539D01*
X84146930Y-21586250D01*
X84102652Y-21350933D01*
X83963580Y-21134809D01*
X83751380Y-20989819D01*
X83499490Y-20938810D01*
X81500510Y-20938810D01*
X81265193Y-20983088D01*
X81049069Y-21122160D01*
X80904079Y-21334360D01*
X80853070Y-21586250D01*
X80853070Y-22970598D01*
X80800045Y-23013937D01*
X80680009Y-23241185D01*
X80657842Y-23497231D01*
X41191148Y-23497231D01*
X41418155Y-23157491D01*
X41535000Y-22570072D01*
X41535000Y-22509928D01*
X41418155Y-21922509D01*
X41137163Y-21501974D01*
X41351441Y-21364090D01*
X41496431Y-21151890D01*
X41547440Y-20900000D01*
X41547440Y-19100000D01*
X41503162Y-18864683D01*
X41364090Y-18648559D01*
X41151890Y-18503569D01*
X40900000Y-18452560D01*
X39100000Y-18452560D01*
X38864683Y-18496838D01*
X38648559Y-18635910D01*
X38503569Y-18848110D01*
X38452560Y-19100000D01*
X38452560Y-20900000D01*
X38496838Y-21135317D01*
X38635910Y-21351441D01*
X38848110Y-21496431D01*
X38864344Y-21499719D01*
X38581845Y-21922509D01*
X38465000Y-22509928D01*
X38465000Y-22570072D01*
X38581845Y-23157491D01*
X38914591Y-23655481D01*
X39145845Y-23810000D01*
X38914591Y-23964519D01*
X38730521Y-24240000D01*
X28735367Y-24240000D01*
X28723313Y-24210828D01*
X28331236Y-23818066D01*
X27818700Y-23605242D01*
X27263735Y-23604758D01*
X26750828Y-23816687D01*
X26358066Y-24208764D01*
X26270046Y-24420738D01*
X26183313Y-24210828D01*
X25791236Y-23818066D01*
X25760000Y-23805096D01*
X25760000Y-12776661D01*
X28602758Y-12776661D01*
X28814990Y-13290303D01*
X29207630Y-13683629D01*
X29720900Y-13896757D01*
X30276661Y-13897242D01*
X30790303Y-13685010D01*
X30958590Y-13517016D01*
X36662589Y-13517016D01*
X36738295Y-13764462D01*
X37280165Y-13959703D01*
X37855503Y-13932718D01*
X38261705Y-13764462D01*
X38337411Y-13517016D01*
X37500000Y-12679605D01*
X36662589Y-13517016D01*
X30958590Y-13517016D01*
X31183629Y-13292370D01*
X31396757Y-12779100D01*
X31397192Y-12280165D01*
X36040297Y-12280165D01*
X36067282Y-12855503D01*
X36235538Y-13261705D01*
X36482984Y-13337411D01*
X37320395Y-12500000D01*
X37679605Y-12500000D01*
X38517016Y-13337411D01*
X38764462Y-13261705D01*
X38959703Y-12719835D01*
X38932718Y-12144497D01*
X38764462Y-11738295D01*
X38517016Y-11662589D01*
X37679605Y-12500000D01*
X37320395Y-12500000D01*
X36482984Y-11662589D01*
X36235538Y-11738295D01*
X36040297Y-12280165D01*
X31397192Y-12280165D01*
X31397242Y-12223339D01*
X31185010Y-11709697D01*
X30958693Y-11482984D01*
X36662589Y-11482984D01*
X37500000Y-12320395D01*
X38337411Y-11482984D01*
X38261705Y-11235538D01*
X37719835Y-11040297D01*
X37144497Y-11067282D01*
X36738295Y-11235538D01*
X36662589Y-11482984D01*
X30958693Y-11482984D01*
X30792370Y-11316371D01*
X30279100Y-11103243D01*
X29723339Y-11102758D01*
X29209697Y-11314990D01*
X28816371Y-11707630D01*
X28603243Y-12220900D01*
X28602758Y-12776661D01*
X25760000Y-12776661D01*
X25760000Y-12500000D01*
X25702148Y-12209161D01*
X25537401Y-11962599D01*
X18037401Y-4462599D01*
X17790839Y-4297852D01*
X17500000Y-4240000D01*
X16212131Y-4240000D01*
X16199610Y-4209697D01*
X15806970Y-3816371D01*
X15293700Y-3603243D01*
X14737939Y-3602758D01*
X14224297Y-3814990D01*
X13892221Y-4146487D01*
X13865162Y-4002683D01*
X13726090Y-3786559D01*
X13513890Y-3641569D01*
X13262000Y-3590560D01*
X11738000Y-3590560D01*
X11502683Y-3634838D01*
X11286559Y-3773910D01*
X11141569Y-3986110D01*
X11090560Y-4238000D01*
X11090560Y-5762000D01*
X11134838Y-5997317D01*
X11273910Y-6213441D01*
X11486110Y-6358431D01*
X11738000Y-6409440D01*
X13262000Y-6409440D01*
X13497317Y-6365162D01*
X13713441Y-6226090D01*
X13858431Y-6013890D01*
X13891209Y-5852029D01*
X14222230Y-6183629D01*
X14735500Y-6396757D01*
X15291261Y-6397242D01*
X15804903Y-6185010D01*
X16198229Y-5792370D01*
X16211670Y-5760000D01*
X17185198Y-5760000D01*
X22515758Y-11090560D01*
X21719600Y-11090560D01*
X21484283Y-11134838D01*
X21268159Y-11273910D01*
X21123169Y-11486110D01*
X21091925Y-11640396D01*
X20937116Y-11671190D01*
X20880925Y-11682367D01*
X20593810Y-11874210D01*
X20593808Y-11874213D01*
X12874210Y-19593810D01*
X12682367Y-19880925D01*
X12682367Y-19880926D01*
X12614999Y-20219600D01*
X12615000Y-20219605D01*
X12615000Y-34556411D01*
X12167104Y-34855686D01*
X11758487Y-35467224D01*
X11615000Y-36188582D01*
X11615000Y-38499995D01*
X11614999Y-38500000D01*
X11615000Y-38500005D01*
X11615000Y-43350550D01*
X11500510Y-43350550D01*
X11265193Y-43394828D01*
X11049069Y-43533900D01*
X10904079Y-43746100D01*
X10853070Y-43997990D01*
X10853070Y-45382338D01*
X10800045Y-45425677D01*
X10680009Y-45652925D01*
X10657842Y-45908971D01*
X710000Y-45908971D01*
X710000Y-36248000D01*
X5740000Y-36248000D01*
X5740000Y-37373000D01*
X6364950Y-37373000D01*
X6364950Y-37627000D01*
X5740000Y-37627000D01*
X5740000Y-38752000D01*
X5922573Y-39415856D01*
X6345295Y-39959311D01*
X6943810Y-40299629D01*
X7099957Y-40338933D01*
X7373000Y-40221206D01*
X7373000Y-39635050D01*
X7627000Y-39635050D01*
X7627000Y-40221206D01*
X7900043Y-40338933D01*
X8056190Y-40299629D01*
X8654705Y-39959311D01*
X9077427Y-39415856D01*
X9260000Y-38752000D01*
X9260000Y-37627000D01*
X8635050Y-37627000D01*
X8635050Y-37373000D01*
X9260000Y-37373000D01*
X9260000Y-36248000D01*
X9077427Y-35584144D01*
X8654705Y-35040689D01*
X8056190Y-34700371D01*
X7900043Y-34661067D01*
X7627000Y-34778794D01*
X7627000Y-35364950D01*
X7373000Y-35364950D01*
X7373000Y-34778794D01*
X7099957Y-34661067D01*
X6943810Y-34700371D01*
X6345295Y-35040689D01*
X5922573Y-35584144D01*
X5740000Y-36248000D01*
X710000Y-36248000D01*
X710000Y-24093279D01*
X743023Y-24086710D01*
X949048Y-23949048D01*
X1086710Y-23743023D01*
X1135050Y-23500000D01*
X1135050Y-22744579D01*
X1264786Y-22744579D01*
X1452408Y-23198657D01*
X1799515Y-23546371D01*
X2253266Y-23734785D01*
X2744579Y-23735214D01*
X3198657Y-23547592D01*
X3546371Y-23200485D01*
X3734785Y-22746734D01*
X3734786Y-22744579D01*
X3764786Y-22744579D01*
X3952408Y-23198657D01*
X4299515Y-23546371D01*
X4753266Y-23734785D01*
X5244579Y-23735214D01*
X5698657Y-23547592D01*
X6046371Y-23200485D01*
X6234785Y-22746734D01*
X6235000Y-22500000D01*
X8018934Y-22500000D01*
X8117053Y-22993279D01*
X8396473Y-23411461D01*
X8814655Y-23690881D01*
X9307934Y-23789000D01*
X10692066Y-23789000D01*
X11185345Y-23690881D01*
X11603527Y-23411461D01*
X11882947Y-22993279D01*
X11981066Y-22500000D01*
X11882947Y-22006721D01*
X11603527Y-21588539D01*
X11185345Y-21309119D01*
X10692066Y-21211000D01*
X9307934Y-21211000D01*
X8814655Y-21309119D01*
X8396473Y-21588539D01*
X8117053Y-22006721D01*
X8018934Y-22500000D01*
X6235000Y-22500000D01*
X6235214Y-22255421D01*
X6047592Y-21801343D01*
X5700485Y-21453629D01*
X5246734Y-21265215D01*
X4755421Y-21264786D01*
X4301343Y-21452408D01*
X3953629Y-21799515D01*
X3765215Y-22253266D01*
X3764786Y-22744579D01*
X3734786Y-22744579D01*
X3735214Y-22255421D01*
X3547592Y-21801343D01*
X3200485Y-21453629D01*
X2746734Y-21265215D01*
X2255421Y-21264786D01*
X1801343Y-21452408D01*
X1453629Y-21799515D01*
X1265215Y-22253266D01*
X1264786Y-22744579D01*
X1135050Y-22744579D01*
X1135050Y-20710000D01*
X2500000Y-20710000D01*
X2771705Y-20655954D01*
X3002046Y-20502046D01*
X3155954Y-20271705D01*
X3210000Y-20000000D01*
X3210000Y-16719000D01*
X3711000Y-16719000D01*
X3711000Y-17373000D01*
X3964950Y-17373000D01*
X3964950Y-17627000D01*
X3711000Y-17627000D01*
X3711000Y-18281000D01*
X3857720Y-18764612D01*
X4178342Y-19155264D01*
X4624054Y-19393482D01*
X4673901Y-19401068D01*
X4873000Y-19277092D01*
X4873000Y-18885050D01*
X5127000Y-18885050D01*
X5127000Y-19277092D01*
X5326099Y-19401068D01*
X5375946Y-19393482D01*
X5821658Y-19155264D01*
X6142280Y-18764612D01*
X6289000Y-18281000D01*
X6289000Y-17744579D01*
X8764786Y-17744579D01*
X8952408Y-18198657D01*
X9299515Y-18546371D01*
X9753266Y-18734785D01*
X10244579Y-18735214D01*
X10698657Y-18547592D01*
X11046371Y-18200485D01*
X11234785Y-17746734D01*
X11235214Y-17255421D01*
X11047592Y-16801343D01*
X10700485Y-16453629D01*
X10246734Y-16265215D01*
X9755421Y-16264786D01*
X9301343Y-16452408D01*
X8953629Y-16799515D01*
X8765215Y-17253266D01*
X8764786Y-17744579D01*
X6289000Y-17744579D01*
X6289000Y-17627000D01*
X6035050Y-17627000D01*
X6035050Y-17373000D01*
X6289000Y-17373000D01*
X6289000Y-16719000D01*
X6142280Y-16235388D01*
X5821658Y-15844736D01*
X5375946Y-15606518D01*
X5326099Y-15598932D01*
X5127000Y-15722908D01*
X5127000Y-16114950D01*
X4873000Y-16114950D01*
X4873000Y-15722908D01*
X4673901Y-15598932D01*
X4624054Y-15606518D01*
X4178342Y-15844736D01*
X3857720Y-16235388D01*
X3711000Y-16719000D01*
X3210000Y-16719000D01*
X3210000Y-15000000D01*
X3155954Y-14728295D01*
X3002046Y-14497954D01*
X2771705Y-14344046D01*
X2500000Y-14290000D01*
X1135050Y-14290000D01*
X1135050Y-12744579D01*
X1264786Y-12744579D01*
X1452408Y-13198657D01*
X1799515Y-13546371D01*
X2253266Y-13734785D01*
X2744579Y-13735214D01*
X3198657Y-13547592D01*
X3546371Y-13200485D01*
X3734785Y-12746734D01*
X3734786Y-12744579D01*
X3764786Y-12744579D01*
X3952408Y-13198657D01*
X4299515Y-13546371D01*
X4753266Y-13734785D01*
X5244579Y-13735214D01*
X5698657Y-13547592D01*
X6046371Y-13200485D01*
X6234785Y-12746734D01*
X6235000Y-12500000D01*
X8018934Y-12500000D01*
X8117053Y-12993279D01*
X8396473Y-13411461D01*
X8814655Y-13690881D01*
X9307934Y-13789000D01*
X10692066Y-13789000D01*
X11185345Y-13690881D01*
X11603527Y-13411461D01*
X11882947Y-12993279D01*
X11981066Y-12500000D01*
X11882947Y-12006721D01*
X11603527Y-11588539D01*
X11185345Y-11309119D01*
X10692066Y-11211000D01*
X9307934Y-11211000D01*
X8814655Y-11309119D01*
X8396473Y-11588539D01*
X8117053Y-12006721D01*
X8018934Y-12500000D01*
X6235000Y-12500000D01*
X6235214Y-12255421D01*
X6047592Y-11801343D01*
X5700485Y-11453629D01*
X5246734Y-11265215D01*
X4755421Y-11264786D01*
X4301343Y-11452408D01*
X3953629Y-11799515D01*
X3765215Y-12253266D01*
X3764786Y-12744579D01*
X3734786Y-12744579D01*
X3735214Y-12255421D01*
X3547592Y-11801343D01*
X3200485Y-11453629D01*
X2746734Y-11265215D01*
X2255421Y-11264786D01*
X1801343Y-11452408D01*
X1453629Y-11799515D01*
X1265215Y-12253266D01*
X1264786Y-12744579D01*
X1135050Y-12744579D01*
X1135050Y-11500000D01*
X1086710Y-11256977D01*
X949048Y-11050952D01*
X743023Y-10913290D01*
X710000Y-10906721D01*
X710000Y-5069931D01*
X1049408Y-3363610D01*
X1976349Y-1976346D01*
X3363610Y-1049408D01*
X5069931Y-710000D01*
X94930069Y-710000D01*
X96636390Y-1049408D01*
X96636390Y-1049408D01*
G37*
X96636390Y-1049408D02*
X98023654Y-1976349D01*
X98950592Y-3363610D01*
X99290000Y-5069931D01*
X99290000Y-69930069D01*
X98950592Y-71636390D01*
X98023654Y-73023651D01*
X96636390Y-73950592D01*
X94930069Y-74290000D01*
X5069931Y-74290000D01*
X3363610Y-73950592D01*
X1976349Y-73023654D01*
X1049408Y-71636390D01*
X710000Y-69930069D01*
X710000Y-69238000D01*
X11075960Y-69238000D01*
X11075960Y-70762000D01*
X11120238Y-70997317D01*
X11259310Y-71213441D01*
X11471510Y-71358431D01*
X11723400Y-71409440D01*
X13247400Y-71409440D01*
X13482717Y-71365162D01*
X13698841Y-71226090D01*
X13843831Y-71013890D01*
X13876609Y-70852029D01*
X14207630Y-71183629D01*
X14720900Y-71396757D01*
X15276661Y-71397242D01*
X15790303Y-71185010D01*
X16183629Y-70792370D01*
X16197070Y-70760000D01*
X22420000Y-70760000D01*
X22710839Y-70702148D01*
X22957401Y-70537401D01*
X25497401Y-67997401D01*
X25662148Y-67750840D01*
X25712043Y-67500000D01*
X25720000Y-67460000D01*
X25720000Y-62776661D01*
X28621158Y-62776661D01*
X28833390Y-63290303D01*
X29226030Y-63683629D01*
X29739300Y-63896757D01*
X30295061Y-63897242D01*
X30327455Y-63883857D01*
X34480999Y-68037401D01*
X34727561Y-68202148D01*
X35018400Y-68260000D01*
X79550000Y-68260000D01*
X79840839Y-68202148D01*
X80087401Y-68037401D01*
X93195674Y-54929128D01*
X93196838Y-54935317D01*
X93335910Y-55151441D01*
X93548110Y-55296431D01*
X93800000Y-55347440D01*
X96200000Y-55347440D01*
X96435317Y-55303162D01*
X96651441Y-55164090D01*
X96740000Y-55034480D01*
X96740000Y-57510398D01*
X93350599Y-60899799D01*
X93257080Y-61039760D01*
X93075200Y-61039760D01*
X92839883Y-61084038D01*
X92623759Y-61223110D01*
X92478769Y-61435310D01*
X92427760Y-61687200D01*
X92427760Y-63312800D01*
X92472038Y-63548117D01*
X92611110Y-63764241D01*
X92823310Y-63909231D01*
X93075200Y-63960240D01*
X94700800Y-63960240D01*
X94936117Y-63915962D01*
X95152241Y-63776890D01*
X95297231Y-63564690D01*
X95348240Y-63312800D01*
X95348240Y-61687200D01*
X95303962Y-61451883D01*
X95164890Y-61235759D01*
X95164506Y-61235496D01*
X98037401Y-58362601D01*
X98202148Y-58116040D01*
X98260000Y-57825200D01*
X98260000Y-52500000D01*
X98207178Y-52234447D01*
X98202148Y-52209160D01*
X98037401Y-51962599D01*
X96719293Y-50644491D01*
X96834681Y-50366605D01*
X96835318Y-49636597D01*
X96556545Y-48961914D01*
X96040801Y-48445270D01*
X95366605Y-48165319D01*
X94636597Y-48164682D01*
X93961914Y-48443455D01*
X93445270Y-48959199D01*
X93165319Y-49633395D01*
X93164682Y-50363403D01*
X93443455Y-51038086D01*
X93959199Y-51554730D01*
X94194799Y-51652560D01*
X93800000Y-51652560D01*
X93564683Y-51696838D01*
X93348559Y-51835910D01*
X93203569Y-52048110D01*
X93152560Y-52300000D01*
X93152560Y-52869080D01*
X93012599Y-52962599D01*
X79235198Y-66740000D01*
X35333202Y-66740000D01*
X32110218Y-63517016D01*
X36662589Y-63517016D01*
X36738295Y-63764462D01*
X37280165Y-63959703D01*
X37855503Y-63932718D01*
X38261705Y-63764462D01*
X38337411Y-63517016D01*
X37500000Y-62679605D01*
X36662589Y-63517016D01*
X32110218Y-63517016D01*
X31402583Y-62809381D01*
X31415157Y-62779100D01*
X31415592Y-62280165D01*
X36040297Y-62280165D01*
X36067282Y-62855503D01*
X36235538Y-63261705D01*
X36482984Y-63337411D01*
X37320395Y-62500000D01*
X37679605Y-62500000D01*
X38517016Y-63337411D01*
X38764462Y-63261705D01*
X38959703Y-62719835D01*
X38932718Y-62144497D01*
X38764462Y-61738295D01*
X38517016Y-61662589D01*
X37679605Y-62500000D01*
X37320395Y-62500000D01*
X36482984Y-61662589D01*
X36235538Y-61738295D01*
X36040297Y-62280165D01*
X31415592Y-62280165D01*
X31415642Y-62223339D01*
X31203410Y-61709697D01*
X30977093Y-61482984D01*
X36662589Y-61482984D01*
X37500000Y-62320395D01*
X38337411Y-61482984D01*
X38261705Y-61235538D01*
X37719835Y-61040297D01*
X37144497Y-61067282D01*
X36738295Y-61235538D01*
X36662589Y-61482984D01*
X30977093Y-61482984D01*
X30810770Y-61316371D01*
X30297500Y-61103243D01*
X29741739Y-61102758D01*
X29228097Y-61314990D01*
X28834771Y-61707630D01*
X28621643Y-62220900D01*
X28621158Y-62776661D01*
X25720000Y-62776661D01*
X25720000Y-55081922D01*
X31175479Y-60537401D01*
X31422040Y-60702148D01*
X31470294Y-60711746D01*
X31712880Y-60760000D01*
X73750510Y-60760000D01*
X74041349Y-60702148D01*
X74287911Y-60537401D01*
X76565312Y-58260000D01*
X80000000Y-58260000D01*
X80290839Y-58202148D01*
X80537401Y-58037401D01*
X83037401Y-55537401D01*
X83202148Y-55290839D01*
X83260000Y-55000000D01*
X83260000Y-54146930D01*
X83499490Y-54146930D01*
X83734807Y-54102652D01*
X83950931Y-53963580D01*
X84095921Y-53751380D01*
X84146930Y-53499490D01*
X84146930Y-52115142D01*
X84199955Y-52071803D01*
X84319991Y-51844555D01*
X84334516Y-51676769D01*
X88157842Y-51676769D01*
X88197958Y-51985377D01*
X88337030Y-52201501D01*
X88353070Y-52212461D01*
X88353070Y-53587750D01*
X88397348Y-53823067D01*
X88536420Y-54039191D01*
X88748620Y-54184181D01*
X89000510Y-54235190D01*
X90999490Y-54235190D01*
X91234807Y-54190912D01*
X91450931Y-54051840D01*
X91595921Y-53839640D01*
X91646930Y-53587750D01*
X91646930Y-52203402D01*
X91699955Y-52160063D01*
X91819991Y-51932815D01*
X91842158Y-51676769D01*
X91443378Y-48176649D01*
X91403262Y-48014623D01*
X91264190Y-47798499D01*
X91051990Y-47653509D01*
X90800100Y-47602500D01*
X89199900Y-47602500D01*
X89034374Y-47624017D01*
X88803896Y-47737730D01*
X88635817Y-47932152D01*
X88556622Y-48176649D01*
X88157842Y-51676769D01*
X84334516Y-51676769D01*
X84342158Y-51588509D01*
X83943378Y-48088389D01*
X83903262Y-47926363D01*
X83764190Y-47710239D01*
X83551990Y-47565249D01*
X83300100Y-47514240D01*
X81699900Y-47514240D01*
X81534374Y-47535757D01*
X81303896Y-47649470D01*
X81135817Y-47843892D01*
X81056622Y-48088389D01*
X80657842Y-51588509D01*
X80697958Y-51897117D01*
X80837030Y-52113241D01*
X80853070Y-52124201D01*
X80853070Y-53499490D01*
X80897348Y-53734807D01*
X81036420Y-53950931D01*
X81248620Y-54095921D01*
X81500510Y-54146930D01*
X81740000Y-54146930D01*
X81740000Y-54685198D01*
X79685198Y-56740000D01*
X76250510Y-56740000D01*
X75959671Y-56797852D01*
X75713109Y-56962599D01*
X73435708Y-59240000D01*
X32027682Y-59240000D01*
X25720000Y-52932318D01*
X25720000Y-51195367D01*
X25749172Y-51183313D01*
X26105316Y-50827790D01*
X26136838Y-50995317D01*
X26275910Y-51211441D01*
X26488110Y-51356431D01*
X26740000Y-51407440D01*
X28260000Y-51407440D01*
X28495317Y-51363162D01*
X28711441Y-51224090D01*
X28856431Y-51011890D01*
X28907440Y-50760000D01*
X28907440Y-49240000D01*
X28863162Y-49004683D01*
X28724090Y-48788559D01*
X28511890Y-48643569D01*
X28260000Y-48592560D01*
X26740000Y-48592560D01*
X26504683Y-48636838D01*
X26288559Y-48775910D01*
X26143569Y-48988110D01*
X26106031Y-49173480D01*
X25751236Y-48818066D01*
X25238700Y-48605242D01*
X24889864Y-48604938D01*
X26910812Y-46583990D01*
X29176769Y-46842158D01*
X29485377Y-46802042D01*
X29538249Y-46768019D01*
X29550859Y-46786891D01*
X38301369Y-55537401D01*
X38547931Y-55702148D01*
X38652280Y-55722904D01*
X38914591Y-56115481D01*
X39412581Y-56448227D01*
X40000000Y-56565072D01*
X40587419Y-56448227D01*
X41085409Y-56115481D01*
X41418155Y-55617491D01*
X41535000Y-55030072D01*
X41535000Y-54969928D01*
X41418155Y-54382509D01*
X41085409Y-53884519D01*
X40854155Y-53730000D01*
X41085409Y-53575481D01*
X41418155Y-53077491D01*
X41535000Y-52490072D01*
X41535000Y-52429928D01*
X41463637Y-52071165D01*
X43037401Y-50497401D01*
X43202148Y-50250839D01*
X43207332Y-50224775D01*
X48864803Y-50224775D01*
X49037233Y-50642086D01*
X49356235Y-50961645D01*
X49773244Y-51134803D01*
X50224775Y-51135197D01*
X50642086Y-50962767D01*
X50961645Y-50643765D01*
X51134803Y-50226756D01*
X51134804Y-50224775D01*
X53864803Y-50224775D01*
X54037233Y-50642086D01*
X54356235Y-50961645D01*
X54773244Y-51134803D01*
X55224775Y-51135197D01*
X55642086Y-50962767D01*
X55961645Y-50643765D01*
X56134803Y-50226756D01*
X56134804Y-50224775D01*
X58864803Y-50224775D01*
X59037233Y-50642086D01*
X59356235Y-50961645D01*
X59773244Y-51134803D01*
X60224775Y-51135197D01*
X60642086Y-50962767D01*
X60961645Y-50643765D01*
X61134803Y-50226756D01*
X61134804Y-50224775D01*
X63864803Y-50224775D01*
X64037233Y-50642086D01*
X64356235Y-50961645D01*
X64773244Y-51134803D01*
X65224775Y-51135197D01*
X65642086Y-50962767D01*
X65961645Y-50643765D01*
X66134803Y-50226756D01*
X66134804Y-50224775D01*
X68864803Y-50224775D01*
X69037233Y-50642086D01*
X69356235Y-50961645D01*
X69773244Y-51134803D01*
X70224775Y-51135197D01*
X70642086Y-50962767D01*
X70961645Y-50643765D01*
X71134803Y-50226756D01*
X71134804Y-50224775D01*
X73864803Y-50224775D01*
X74037233Y-50642086D01*
X74356235Y-50961645D01*
X74773244Y-51134803D01*
X75224775Y-51135197D01*
X75642086Y-50962767D01*
X75961645Y-50643765D01*
X76134803Y-50226756D01*
X76135197Y-49775225D01*
X75962767Y-49357914D01*
X75643765Y-49038355D01*
X75226756Y-48865197D01*
X74775225Y-48864803D01*
X74357914Y-49037233D01*
X74038355Y-49356235D01*
X73865197Y-49773244D01*
X73864803Y-50224775D01*
X71134804Y-50224775D01*
X71135197Y-49775225D01*
X70962767Y-49357914D01*
X70643765Y-49038355D01*
X70226756Y-48865197D01*
X69775225Y-48864803D01*
X69357914Y-49037233D01*
X69038355Y-49356235D01*
X68865197Y-49773244D01*
X68864803Y-50224775D01*
X66134804Y-50224775D01*
X66135197Y-49775225D01*
X65962767Y-49357914D01*
X65643765Y-49038355D01*
X65226756Y-48865197D01*
X64775225Y-48864803D01*
X64357914Y-49037233D01*
X64038355Y-49356235D01*
X63865197Y-49773244D01*
X63864803Y-50224775D01*
X61134804Y-50224775D01*
X61135197Y-49775225D01*
X60962767Y-49357914D01*
X60643765Y-49038355D01*
X60226756Y-48865197D01*
X59775225Y-48864803D01*
X59357914Y-49037233D01*
X59038355Y-49356235D01*
X58865197Y-49773244D01*
X58864803Y-50224775D01*
X56134804Y-50224775D01*
X56135197Y-49775225D01*
X55962767Y-49357914D01*
X55643765Y-49038355D01*
X55226756Y-48865197D01*
X54775225Y-48864803D01*
X54357914Y-49037233D01*
X54038355Y-49356235D01*
X53865197Y-49773244D01*
X53864803Y-50224775D01*
X51134804Y-50224775D01*
X51135197Y-49775225D01*
X50962767Y-49357914D01*
X50643765Y-49038355D01*
X50226756Y-48865197D01*
X49775225Y-48864803D01*
X49357914Y-49037233D01*
X49038355Y-49356235D01*
X48865197Y-49773244D01*
X48864803Y-50224775D01*
X43207332Y-50224775D01*
X43260000Y-49960000D01*
X43260000Y-45224775D01*
X48864803Y-45224775D01*
X49037233Y-45642086D01*
X49356235Y-45961645D01*
X49773244Y-46134803D01*
X50224775Y-46135197D01*
X50642086Y-45962767D01*
X50961645Y-45643765D01*
X51134803Y-45226756D01*
X51134804Y-45224775D01*
X53864803Y-45224775D01*
X54037233Y-45642086D01*
X54356235Y-45961645D01*
X54773244Y-46134803D01*
X55224775Y-46135197D01*
X55642086Y-45962767D01*
X55961645Y-45643765D01*
X56134803Y-45226756D01*
X56134804Y-45224775D01*
X58864803Y-45224775D01*
X59037233Y-45642086D01*
X59356235Y-45961645D01*
X59773244Y-46134803D01*
X60224775Y-46135197D01*
X60642086Y-45962767D01*
X60961645Y-45643765D01*
X61134803Y-45226756D01*
X61134804Y-45224775D01*
X63864803Y-45224775D01*
X64037233Y-45642086D01*
X64356235Y-45961645D01*
X64773244Y-46134803D01*
X65224775Y-46135197D01*
X65642086Y-45962767D01*
X65961645Y-45643765D01*
X66134803Y-45226756D01*
X66134804Y-45224775D01*
X68864803Y-45224775D01*
X69037233Y-45642086D01*
X69356235Y-45961645D01*
X69773244Y-46134803D01*
X70224775Y-46135197D01*
X70642086Y-45962767D01*
X70961645Y-45643765D01*
X71134803Y-45226756D01*
X71134804Y-45224775D01*
X73864803Y-45224775D01*
X74037233Y-45642086D01*
X74356235Y-45961645D01*
X74773244Y-46134803D01*
X75224775Y-46135197D01*
X75642086Y-45962767D01*
X75961645Y-45643765D01*
X76134803Y-45226756D01*
X76135197Y-44775225D01*
X75962767Y-44357914D01*
X75643765Y-44038355D01*
X75226756Y-43865197D01*
X74775225Y-43864803D01*
X74357914Y-44037233D01*
X74038355Y-44356235D01*
X73865197Y-44773244D01*
X73864803Y-45224775D01*
X71134804Y-45224775D01*
X71135197Y-44775225D01*
X70962767Y-44357914D01*
X70643765Y-44038355D01*
X70226756Y-43865197D01*
X69775225Y-43864803D01*
X69357914Y-44037233D01*
X69038355Y-44356235D01*
X68865197Y-44773244D01*
X68864803Y-45224775D01*
X66134804Y-45224775D01*
X66135197Y-44775225D01*
X65962767Y-44357914D01*
X65643765Y-44038355D01*
X65226756Y-43865197D01*
X64775225Y-43864803D01*
X64357914Y-44037233D01*
X64038355Y-44356235D01*
X63865197Y-44773244D01*
X63864803Y-45224775D01*
X61134804Y-45224775D01*
X61135197Y-44775225D01*
X60962767Y-44357914D01*
X60643765Y-44038355D01*
X60226756Y-43865197D01*
X59775225Y-43864803D01*
X59357914Y-44037233D01*
X59038355Y-44356235D01*
X58865197Y-44773244D01*
X58864803Y-45224775D01*
X56134804Y-45224775D01*
X56135197Y-44775225D01*
X55962767Y-44357914D01*
X55643765Y-44038355D01*
X55226756Y-43865197D01*
X54775225Y-43864803D01*
X54357914Y-44037233D01*
X54038355Y-44356235D01*
X53865197Y-44773244D01*
X53864803Y-45224775D01*
X51134804Y-45224775D01*
X51135197Y-44775225D01*
X50962767Y-44357914D01*
X50643765Y-44038355D01*
X50226756Y-43865197D01*
X49775225Y-43864803D01*
X49357914Y-44037233D01*
X49038355Y-44356235D01*
X48865197Y-44773244D01*
X48864803Y-45224775D01*
X43260000Y-45224775D01*
X43260000Y-43408971D01*
X80657842Y-43408971D01*
X81056622Y-46909091D01*
X81096738Y-47071117D01*
X81235810Y-47287241D01*
X81448010Y-47432231D01*
X81699900Y-47483240D01*
X83300100Y-47483240D01*
X83465626Y-47461723D01*
X83696104Y-47348010D01*
X83864183Y-47153588D01*
X83943378Y-46909091D01*
X84332102Y-43497231D01*
X88157842Y-43497231D01*
X88556622Y-46997351D01*
X88596738Y-47159377D01*
X88735810Y-47375501D01*
X88948010Y-47520491D01*
X89199900Y-47571500D01*
X90800100Y-47571500D01*
X90965626Y-47549983D01*
X91196104Y-47436270D01*
X91364183Y-47241848D01*
X91443378Y-46997351D01*
X91842158Y-43497231D01*
X91802042Y-43188623D01*
X91662970Y-42972499D01*
X91646930Y-42961539D01*
X91646930Y-41586250D01*
X91602652Y-41350933D01*
X91463580Y-41134809D01*
X91251380Y-40989819D01*
X90999490Y-40938810D01*
X89000510Y-40938810D01*
X88765193Y-40983088D01*
X88549069Y-41122160D01*
X88404079Y-41334360D01*
X88353070Y-41586250D01*
X88353070Y-42970598D01*
X88300045Y-43013937D01*
X88180009Y-43241185D01*
X88157842Y-43497231D01*
X84332102Y-43497231D01*
X84342158Y-43408971D01*
X84302042Y-43100363D01*
X84162970Y-42884239D01*
X84146930Y-42873279D01*
X84146930Y-41497990D01*
X84102652Y-41262673D01*
X83963580Y-41046549D01*
X83751380Y-40901559D01*
X83499490Y-40850550D01*
X81500510Y-40850550D01*
X81265193Y-40894828D01*
X81049069Y-41033900D01*
X80904079Y-41246100D01*
X80853070Y-41497990D01*
X80853070Y-42882338D01*
X80800045Y-42925677D01*
X80680009Y-43152925D01*
X80657842Y-43408971D01*
X43260000Y-43408971D01*
X43260000Y-41270000D01*
X43216635Y-41051990D01*
X43202148Y-40979160D01*
X43037401Y-40732599D01*
X42529577Y-40224775D01*
X48864803Y-40224775D01*
X49037233Y-40642086D01*
X49356235Y-40961645D01*
X49773244Y-41134803D01*
X50224775Y-41135197D01*
X50642086Y-40962767D01*
X50961645Y-40643765D01*
X51134803Y-40226756D01*
X51134804Y-40224775D01*
X53864803Y-40224775D01*
X54037233Y-40642086D01*
X54356235Y-40961645D01*
X54773244Y-41134803D01*
X55224775Y-41135197D01*
X55642086Y-40962767D01*
X55961645Y-40643765D01*
X56134803Y-40226756D01*
X56134804Y-40224775D01*
X58864803Y-40224775D01*
X59037233Y-40642086D01*
X59356235Y-40961645D01*
X59773244Y-41134803D01*
X60224775Y-41135197D01*
X60642086Y-40962767D01*
X60961645Y-40643765D01*
X61134803Y-40226756D01*
X61134804Y-40224775D01*
X63864803Y-40224775D01*
X64037233Y-40642086D01*
X64356235Y-40961645D01*
X64773244Y-41134803D01*
X65224775Y-41135197D01*
X65642086Y-40962767D01*
X65961645Y-40643765D01*
X66134803Y-40226756D01*
X66134804Y-40224775D01*
X68864803Y-40224775D01*
X69037233Y-40642086D01*
X69356235Y-40961645D01*
X69773244Y-41134803D01*
X70224775Y-41135197D01*
X70642086Y-40962767D01*
X70961645Y-40643765D01*
X71134803Y-40226756D01*
X71134804Y-40224775D01*
X73864803Y-40224775D01*
X74037233Y-40642086D01*
X74356235Y-40961645D01*
X74773244Y-41134803D01*
X75224775Y-41135197D01*
X75642086Y-40962767D01*
X75961645Y-40643765D01*
X76134803Y-40226756D01*
X76135197Y-39775225D01*
X75962767Y-39357914D01*
X75643765Y-39038355D01*
X75226756Y-38865197D01*
X74775225Y-38864803D01*
X74357914Y-39037233D01*
X74038355Y-39356235D01*
X73865197Y-39773244D01*
X73864803Y-40224775D01*
X71134804Y-40224775D01*
X71135197Y-39775225D01*
X70962767Y-39357914D01*
X70643765Y-39038355D01*
X70226756Y-38865197D01*
X69775225Y-38864803D01*
X69357914Y-39037233D01*
X69038355Y-39356235D01*
X68865197Y-39773244D01*
X68864803Y-40224775D01*
X66134804Y-40224775D01*
X66135197Y-39775225D01*
X65962767Y-39357914D01*
X65643765Y-39038355D01*
X65226756Y-38865197D01*
X64775225Y-38864803D01*
X64357914Y-39037233D01*
X64038355Y-39356235D01*
X63865197Y-39773244D01*
X63864803Y-40224775D01*
X61134804Y-40224775D01*
X61135197Y-39775225D01*
X60962767Y-39357914D01*
X60643765Y-39038355D01*
X60226756Y-38865197D01*
X59775225Y-38864803D01*
X59357914Y-39037233D01*
X59038355Y-39356235D01*
X58865197Y-39773244D01*
X58864803Y-40224775D01*
X56134804Y-40224775D01*
X56135197Y-39775225D01*
X55962767Y-39357914D01*
X55643765Y-39038355D01*
X55226756Y-38865197D01*
X54775225Y-38864803D01*
X54357914Y-39037233D01*
X54038355Y-39356235D01*
X53865197Y-39773244D01*
X53864803Y-40224775D01*
X51134804Y-40224775D01*
X51135197Y-39775225D01*
X50962767Y-39357914D01*
X50643765Y-39038355D01*
X50226756Y-38865197D01*
X49775225Y-38864803D01*
X49357914Y-39037233D01*
X49038355Y-39356235D01*
X48865197Y-39773244D01*
X48864803Y-40224775D01*
X42529577Y-40224775D01*
X41687401Y-39382599D01*
X41547440Y-39289080D01*
X41547440Y-39020000D01*
X41503162Y-38784683D01*
X41364090Y-38568559D01*
X41151890Y-38423569D01*
X40900000Y-38372560D01*
X39100000Y-38372560D01*
X38864683Y-38416838D01*
X38648559Y-38555910D01*
X38503569Y-38768110D01*
X38452560Y-39020000D01*
X38452560Y-40820000D01*
X38496838Y-41055317D01*
X38635910Y-41271441D01*
X38848110Y-41416431D01*
X38864344Y-41419719D01*
X38581845Y-41842509D01*
X38471592Y-42396790D01*
X35537401Y-39462599D01*
X35290839Y-39297852D01*
X35000000Y-39240000D01*
X31648190Y-39240000D01*
X31648190Y-39000510D01*
X31603912Y-38765193D01*
X31464840Y-38549069D01*
X31252640Y-38404079D01*
X31000750Y-38353070D01*
X29616402Y-38353070D01*
X29573063Y-38300045D01*
X29345815Y-38180009D01*
X29089769Y-38157842D01*
X25589649Y-38556622D01*
X25427623Y-38596738D01*
X25211499Y-38735810D01*
X25066509Y-38948010D01*
X25015500Y-39199900D01*
X25015500Y-40800100D01*
X25037017Y-40965626D01*
X25150730Y-41196104D01*
X25345152Y-41364183D01*
X25589649Y-41443378D01*
X29089769Y-41842158D01*
X29398377Y-41802042D01*
X29614501Y-41662970D01*
X29625461Y-41646930D01*
X31000750Y-41646930D01*
X31236067Y-41602652D01*
X31452191Y-41463580D01*
X31597181Y-41251380D01*
X31648190Y-40999490D01*
X31648190Y-40760000D01*
X34685198Y-40760000D01*
X38536363Y-44611165D01*
X38465000Y-44969928D01*
X38465000Y-45030072D01*
X38581845Y-45617491D01*
X38914591Y-46115481D01*
X39412581Y-46448227D01*
X40000000Y-46565072D01*
X40587419Y-46448227D01*
X41085409Y-46115481D01*
X41418155Y-45617491D01*
X41535000Y-45030072D01*
X41535000Y-44969928D01*
X41418155Y-44382509D01*
X41085409Y-43884519D01*
X40854155Y-43730000D01*
X41085409Y-43575481D01*
X41418155Y-43077491D01*
X41535000Y-42490072D01*
X41535000Y-42429928D01*
X41418155Y-41842509D01*
X41137163Y-41421974D01*
X41351441Y-41284090D01*
X41387100Y-41231902D01*
X41740000Y-41584802D01*
X41740000Y-49645198D01*
X41547440Y-49837758D01*
X41547440Y-49020000D01*
X41503162Y-48784683D01*
X41364090Y-48568559D01*
X41151890Y-48423569D01*
X40900000Y-48372560D01*
X39100000Y-48372560D01*
X38864683Y-48416838D01*
X38648559Y-48555910D01*
X38503569Y-48768110D01*
X38452560Y-49020000D01*
X38452560Y-50820000D01*
X38496838Y-51055317D01*
X38635910Y-51271441D01*
X38848110Y-51416431D01*
X38864344Y-51419719D01*
X38581845Y-51842509D01*
X38465000Y-52429928D01*
X38465000Y-52490072D01*
X38581845Y-53077491D01*
X38914591Y-53575481D01*
X39145845Y-53730000D01*
X38914591Y-53884519D01*
X38867928Y-53954356D01*
X31440596Y-46527024D01*
X31539191Y-46463580D01*
X31684181Y-46251380D01*
X31735190Y-45999490D01*
X31735190Y-44000510D01*
X31690912Y-43765193D01*
X31551840Y-43549069D01*
X31339640Y-43404079D01*
X31087750Y-43353070D01*
X29703402Y-43353070D01*
X29660063Y-43300045D01*
X29432815Y-43180009D01*
X29176769Y-43157842D01*
X25676649Y-43556622D01*
X25514623Y-43596738D01*
X25298499Y-43735810D01*
X25153509Y-43948010D01*
X25102500Y-44199900D01*
X25102500Y-45800100D01*
X25124017Y-45965626D01*
X25208447Y-46136751D01*
X22727851Y-48617347D01*
X22698700Y-48605242D01*
X22143735Y-48604758D01*
X21630828Y-48816687D01*
X21238066Y-49208764D01*
X21025242Y-49721300D01*
X21024758Y-50276265D01*
X21236687Y-50789172D01*
X21628764Y-51181934D01*
X22141300Y-51394758D01*
X22696265Y-51395242D01*
X23209172Y-51183313D01*
X23601934Y-50791236D01*
X23689954Y-50579262D01*
X23776687Y-50789172D01*
X24168764Y-51181934D01*
X24200000Y-51194904D01*
X24200000Y-67145198D01*
X22105198Y-69240000D01*
X16197531Y-69240000D01*
X16185010Y-69209697D01*
X15792370Y-68816371D01*
X15279100Y-68603243D01*
X14723339Y-68602758D01*
X14209697Y-68814990D01*
X13877621Y-69146487D01*
X13850562Y-69002683D01*
X13711490Y-68786559D01*
X13499290Y-68641569D01*
X13247400Y-68590560D01*
X11723400Y-68590560D01*
X11488083Y-68634838D01*
X11271959Y-68773910D01*
X11126969Y-68986110D01*
X11075960Y-69238000D01*
X710000Y-69238000D01*
X710000Y-55285750D01*
X3425000Y-55285750D01*
X3425000Y-56026310D01*
X3521673Y-56259699D01*
X3700302Y-56438327D01*
X3933691Y-56535000D01*
X4674250Y-56535000D01*
X4833000Y-56376250D01*
X4833000Y-55127000D01*
X3583750Y-55127000D01*
X3425000Y-55285750D01*
X710000Y-55285750D01*
X710000Y-53973690D01*
X3425000Y-53973690D01*
X3425000Y-54714250D01*
X3583750Y-54873000D01*
X4833000Y-54873000D01*
X4833000Y-53623750D01*
X5087000Y-53623750D01*
X5087000Y-54873000D01*
X5107000Y-54873000D01*
X5107000Y-55127000D01*
X5087000Y-55127000D01*
X5087000Y-56376250D01*
X5245750Y-56535000D01*
X5986309Y-56535000D01*
X6219698Y-56438327D01*
X6398327Y-56259699D01*
X6454119Y-56125006D01*
X6629357Y-56300551D01*
X7193330Y-56534733D01*
X7803991Y-56535265D01*
X8368371Y-56302068D01*
X8800551Y-55870643D01*
X8846494Y-55760000D01*
X10853070Y-55760000D01*
X10853070Y-55999490D01*
X10897348Y-56234807D01*
X11036420Y-56450931D01*
X11248620Y-56595921D01*
X11500510Y-56646930D01*
X13499490Y-56646930D01*
X13734807Y-56602652D01*
X13950931Y-56463580D01*
X14095921Y-56251380D01*
X14146930Y-55999490D01*
X14146930Y-54615142D01*
X14199955Y-54571803D01*
X14319991Y-54344555D01*
X14342158Y-54088509D01*
X13943378Y-50588389D01*
X13903262Y-50426363D01*
X13764190Y-50210239D01*
X13551990Y-50065249D01*
X13300100Y-50014240D01*
X11699900Y-50014240D01*
X11534374Y-50035757D01*
X11303896Y-50149470D01*
X11135817Y-50343892D01*
X11056622Y-50588389D01*
X10657842Y-54088509D01*
X10677534Y-54240000D01*
X8846846Y-54240000D01*
X8802068Y-54131629D01*
X8370643Y-53699449D01*
X7806670Y-53465267D01*
X7196009Y-53464735D01*
X6631629Y-53697932D01*
X6454159Y-53875092D01*
X6398327Y-53740301D01*
X6219698Y-53561673D01*
X5986309Y-53465000D01*
X5245750Y-53465000D01*
X5087000Y-53623750D01*
X4833000Y-53623750D01*
X4674250Y-53465000D01*
X3933691Y-53465000D01*
X3700302Y-53561673D01*
X3521673Y-53740301D01*
X3425000Y-53973690D01*
X710000Y-53973690D01*
X710000Y-45908971D01*
X10657842Y-45908971D01*
X11056622Y-49409091D01*
X11096738Y-49571117D01*
X11235810Y-49787241D01*
X11448010Y-49932231D01*
X11699900Y-49983240D01*
X13300100Y-49983240D01*
X13465626Y-49961723D01*
X13696104Y-49848010D01*
X13864183Y-49653588D01*
X13943378Y-49409091D01*
X14342158Y-45908971D01*
X14302042Y-45600363D01*
X14162970Y-45384239D01*
X14146930Y-45373279D01*
X14146930Y-43997990D01*
X14102652Y-43762673D01*
X13963580Y-43546549D01*
X13751380Y-43401559D01*
X13499490Y-43350550D01*
X13385000Y-43350550D01*
X13385000Y-42136580D01*
X16615000Y-45366579D01*
X16615000Y-57499995D01*
X16614999Y-57500000D01*
X16671190Y-57782484D01*
X16682367Y-57838675D01*
X16815151Y-58037401D01*
X16874210Y-58125790D01*
X21090560Y-62342139D01*
X21090560Y-63262000D01*
X21134838Y-63497317D01*
X21273910Y-63713441D01*
X21486110Y-63858431D01*
X21738000Y-63909440D01*
X23262000Y-63909440D01*
X23497317Y-63865162D01*
X23713441Y-63726090D01*
X23858431Y-63513890D01*
X23909440Y-63262000D01*
X23909440Y-61738000D01*
X23865162Y-61502683D01*
X23726090Y-61286559D01*
X23513890Y-61141569D01*
X23262000Y-61090560D01*
X22342139Y-61090560D01*
X18385000Y-57133420D01*
X18385000Y-45000005D01*
X18385001Y-45000000D01*
X18356838Y-44858417D01*
X18438810Y-44940389D01*
X18438810Y-45999490D01*
X18483088Y-46234807D01*
X18622160Y-46450931D01*
X18834360Y-46595921D01*
X19086250Y-46646930D01*
X20470598Y-46646930D01*
X20513937Y-46699955D01*
X20741185Y-46819991D01*
X20997231Y-46842158D01*
X24497351Y-46443378D01*
X24659377Y-46403262D01*
X24875501Y-46264190D01*
X25020491Y-46051990D01*
X25071500Y-45800100D01*
X25071500Y-44199900D01*
X25049983Y-44034374D01*
X24936270Y-43803896D01*
X24741848Y-43635817D01*
X24497351Y-43556622D01*
X20997231Y-43157842D01*
X20688623Y-43197958D01*
X20472499Y-43337030D01*
X20461539Y-43353070D01*
X19354649Y-43353070D01*
X15290099Y-39288519D01*
X15372530Y-38874110D01*
X17124208Y-40625787D01*
X17124210Y-40625790D01*
X17411325Y-40817633D01*
X17423225Y-40820000D01*
X17750000Y-40885001D01*
X17750005Y-40885000D01*
X18351810Y-40885000D01*
X18351810Y-40999490D01*
X18396088Y-41234807D01*
X18535160Y-41450931D01*
X18747360Y-41595921D01*
X18999250Y-41646930D01*
X20383598Y-41646930D01*
X20426937Y-41699955D01*
X20654185Y-41819991D01*
X20910231Y-41842158D01*
X24410351Y-41443378D01*
X24572377Y-41403262D01*
X24788501Y-41264190D01*
X24933491Y-41051990D01*
X24984500Y-40800100D01*
X24984500Y-39199900D01*
X24962983Y-39034374D01*
X24849270Y-38803896D01*
X24654848Y-38635817D01*
X24410351Y-38556622D01*
X20910231Y-38157842D01*
X20601623Y-38197958D01*
X20385499Y-38337030D01*
X20374539Y-38353070D01*
X18999250Y-38353070D01*
X18763933Y-38397348D01*
X18547809Y-38536420D01*
X18402819Y-38748620D01*
X18351810Y-39000510D01*
X18351810Y-39115000D01*
X18116579Y-39115000D01*
X16501580Y-37500000D01*
X18116579Y-35885000D01*
X18438810Y-35885000D01*
X18438810Y-35999490D01*
X18483088Y-36234807D01*
X18622160Y-36450931D01*
X18834360Y-36595921D01*
X19086250Y-36646930D01*
X20470598Y-36646930D01*
X20513937Y-36699955D01*
X20741185Y-36819991D01*
X20997231Y-36842158D01*
X24497351Y-36443378D01*
X24659377Y-36403262D01*
X24875501Y-36264190D01*
X25020491Y-36051990D01*
X25071500Y-35800100D01*
X25071500Y-34199900D01*
X25102500Y-34199900D01*
X25102500Y-35800100D01*
X25124017Y-35965626D01*
X25237730Y-36196104D01*
X25432152Y-36364183D01*
X25676649Y-36443378D01*
X29176769Y-36842158D01*
X29485377Y-36802042D01*
X29701501Y-36662970D01*
X29712461Y-36646930D01*
X31087750Y-36646930D01*
X31323067Y-36602652D01*
X31539191Y-36463580D01*
X31684181Y-36251380D01*
X31735190Y-35999490D01*
X31735190Y-35760000D01*
X38650339Y-35760000D01*
X38914591Y-36155481D01*
X39412581Y-36488227D01*
X40000000Y-36605072D01*
X40587419Y-36488227D01*
X41085409Y-36155481D01*
X41418155Y-35657491D01*
X41504227Y-35224775D01*
X48864803Y-35224775D01*
X49037233Y-35642086D01*
X49356235Y-35961645D01*
X49773244Y-36134803D01*
X50224775Y-36135197D01*
X50642086Y-35962767D01*
X50961645Y-35643765D01*
X51134803Y-35226756D01*
X51134804Y-35224775D01*
X53864803Y-35224775D01*
X54037233Y-35642086D01*
X54356235Y-35961645D01*
X54773244Y-36134803D01*
X55224775Y-36135197D01*
X55642086Y-35962767D01*
X55961645Y-35643765D01*
X56134803Y-35226756D01*
X56134804Y-35224775D01*
X58864803Y-35224775D01*
X59037233Y-35642086D01*
X59356235Y-35961645D01*
X59773244Y-36134803D01*
X60224775Y-36135197D01*
X60642086Y-35962767D01*
X60961645Y-35643765D01*
X61134803Y-35226756D01*
X61134804Y-35224775D01*
X63864803Y-35224775D01*
X64037233Y-35642086D01*
X64356235Y-35961645D01*
X64773244Y-36134803D01*
X65224775Y-36135197D01*
X65642086Y-35962767D01*
X65961645Y-35643765D01*
X66134803Y-35226756D01*
X66134804Y-35224775D01*
X68864803Y-35224775D01*
X69037233Y-35642086D01*
X69356235Y-35961645D01*
X69773244Y-36134803D01*
X70224775Y-36135197D01*
X70642086Y-35962767D01*
X70961645Y-35643765D01*
X71134803Y-35226756D01*
X71134804Y-35224775D01*
X73864803Y-35224775D01*
X74037233Y-35642086D01*
X74356235Y-35961645D01*
X74773244Y-36134803D01*
X75224775Y-36135197D01*
X75642086Y-35962767D01*
X75961645Y-35643765D01*
X76134803Y-35226756D01*
X76135197Y-34775225D01*
X75962767Y-34357914D01*
X75643765Y-34038355D01*
X75226756Y-33865197D01*
X74775225Y-33864803D01*
X74357914Y-34037233D01*
X74038355Y-34356235D01*
X73865197Y-34773244D01*
X73864803Y-35224775D01*
X71134804Y-35224775D01*
X71135197Y-34775225D01*
X70962767Y-34357914D01*
X70643765Y-34038355D01*
X70226756Y-33865197D01*
X69775225Y-33864803D01*
X69357914Y-34037233D01*
X69038355Y-34356235D01*
X68865197Y-34773244D01*
X68864803Y-35224775D01*
X66134804Y-35224775D01*
X66135197Y-34775225D01*
X65962767Y-34357914D01*
X65643765Y-34038355D01*
X65226756Y-33865197D01*
X64775225Y-33864803D01*
X64357914Y-34037233D01*
X64038355Y-34356235D01*
X63865197Y-34773244D01*
X63864803Y-35224775D01*
X61134804Y-35224775D01*
X61135197Y-34775225D01*
X60962767Y-34357914D01*
X60643765Y-34038355D01*
X60226756Y-33865197D01*
X59775225Y-33864803D01*
X59357914Y-34037233D01*
X59038355Y-34356235D01*
X58865197Y-34773244D01*
X58864803Y-35224775D01*
X56134804Y-35224775D01*
X56135197Y-34775225D01*
X55962767Y-34357914D01*
X55643765Y-34038355D01*
X55226756Y-33865197D01*
X54775225Y-33864803D01*
X54357914Y-34037233D01*
X54038355Y-34356235D01*
X53865197Y-34773244D01*
X53864803Y-35224775D01*
X51134804Y-35224775D01*
X51135197Y-34775225D01*
X50962767Y-34357914D01*
X50643765Y-34038355D01*
X50226756Y-33865197D01*
X49775225Y-33864803D01*
X49357914Y-34037233D01*
X49038355Y-34356235D01*
X48865197Y-34773244D01*
X48864803Y-35224775D01*
X41504227Y-35224775D01*
X41535000Y-35070072D01*
X41535000Y-35009928D01*
X41418155Y-34422509D01*
X41085409Y-33924519D01*
X40854155Y-33770000D01*
X41085409Y-33615481D01*
X41418155Y-33117491D01*
X41535000Y-32530072D01*
X41535000Y-32469928D01*
X41418155Y-31882509D01*
X41280685Y-31676769D01*
X80657842Y-31676769D01*
X80697958Y-31985377D01*
X80837030Y-32201501D01*
X80853070Y-32212461D01*
X80853070Y-33587750D01*
X80897348Y-33823067D01*
X81036420Y-34039191D01*
X81248620Y-34184181D01*
X81500510Y-34235190D01*
X83499490Y-34235190D01*
X83734807Y-34190912D01*
X83950931Y-34051840D01*
X84095921Y-33839640D01*
X84146930Y-33587750D01*
X84146930Y-32203402D01*
X84199955Y-32160063D01*
X84319991Y-31932815D01*
X84342158Y-31676769D01*
X84332103Y-31588509D01*
X88157842Y-31588509D01*
X88197958Y-31897117D01*
X88337030Y-32113241D01*
X88353070Y-32124201D01*
X88353070Y-33499490D01*
X88397348Y-33734807D01*
X88536420Y-33950931D01*
X88748620Y-34095921D01*
X89000510Y-34146930D01*
X90999490Y-34146930D01*
X91234807Y-34102652D01*
X91450931Y-33963580D01*
X91595921Y-33751380D01*
X91646930Y-33499490D01*
X91646930Y-32115142D01*
X91699955Y-32071803D01*
X91819991Y-31844555D01*
X91842158Y-31588509D01*
X91729102Y-30596210D01*
X93037401Y-29287911D01*
X93202148Y-29041349D01*
X93260000Y-28750510D01*
X93260000Y-27533474D01*
X93335910Y-27651441D01*
X93548110Y-27796431D01*
X93800000Y-27847440D01*
X96200000Y-27847440D01*
X96435317Y-27803162D01*
X96651441Y-27664090D01*
X96796431Y-27451890D01*
X96847440Y-27200000D01*
X96847440Y-24800000D01*
X96803162Y-24564683D01*
X96664090Y-24348559D01*
X96451890Y-24203569D01*
X96200000Y-24152560D01*
X95805712Y-24152560D01*
X96038086Y-24056545D01*
X96554730Y-23540801D01*
X96834681Y-22866605D01*
X96835318Y-22136597D01*
X96556545Y-21461914D01*
X96040801Y-20945270D01*
X95760000Y-20828671D01*
X95760000Y-12549200D01*
X95740457Y-12450952D01*
X95702148Y-12258360D01*
X95537401Y-12011799D01*
X95488201Y-11962599D01*
X95348240Y-11869080D01*
X95348240Y-11687200D01*
X95303962Y-11451883D01*
X95164890Y-11235759D01*
X94952690Y-11090769D01*
X94700800Y-11039760D01*
X93075200Y-11039760D01*
X92839883Y-11084038D01*
X92623759Y-11223110D01*
X92478769Y-11435310D01*
X92427760Y-11687200D01*
X92427760Y-13312800D01*
X92472038Y-13548117D01*
X92611110Y-13764241D01*
X92823310Y-13909231D01*
X93075200Y-13960240D01*
X94240000Y-13960240D01*
X94240000Y-20828552D01*
X93961914Y-20943455D01*
X93445270Y-21459199D01*
X93165319Y-22133395D01*
X93164682Y-22863403D01*
X93280791Y-23144407D01*
X91962599Y-24462599D01*
X91797852Y-24709161D01*
X91740000Y-25000000D01*
X91740000Y-28435708D01*
X91509240Y-28666468D01*
X91443378Y-28088389D01*
X91403262Y-27926363D01*
X91264190Y-27710239D01*
X91051990Y-27565249D01*
X90800100Y-27514240D01*
X89199900Y-27514240D01*
X89034374Y-27535757D01*
X88803896Y-27649470D01*
X88635817Y-27843892D01*
X88556622Y-28088389D01*
X88157842Y-31588509D01*
X84332103Y-31588509D01*
X83943378Y-28176649D01*
X83903262Y-28014623D01*
X83764190Y-27798499D01*
X83551990Y-27653509D01*
X83300100Y-27602500D01*
X81699900Y-27602500D01*
X81534374Y-27624017D01*
X81303896Y-27737730D01*
X81135817Y-27932152D01*
X81056622Y-28176649D01*
X80657842Y-31676769D01*
X41280685Y-31676769D01*
X41137163Y-31461974D01*
X41351441Y-31324090D01*
X41496431Y-31111890D01*
X41547440Y-30860000D01*
X41547440Y-30224775D01*
X48864803Y-30224775D01*
X49037233Y-30642086D01*
X49356235Y-30961645D01*
X49773244Y-31134803D01*
X50224775Y-31135197D01*
X50642086Y-30962767D01*
X50961645Y-30643765D01*
X51134803Y-30226756D01*
X51134804Y-30224775D01*
X53864803Y-30224775D01*
X54037233Y-30642086D01*
X54356235Y-30961645D01*
X54773244Y-31134803D01*
X55224775Y-31135197D01*
X55642086Y-30962767D01*
X55961645Y-30643765D01*
X56134803Y-30226756D01*
X56134804Y-30224775D01*
X58864803Y-30224775D01*
X59037233Y-30642086D01*
X59356235Y-30961645D01*
X59773244Y-31134803D01*
X60224775Y-31135197D01*
X60642086Y-30962767D01*
X60961645Y-30643765D01*
X61134803Y-30226756D01*
X61134804Y-30224775D01*
X63864803Y-30224775D01*
X64037233Y-30642086D01*
X64356235Y-30961645D01*
X64773244Y-31134803D01*
X65224775Y-31135197D01*
X65642086Y-30962767D01*
X65961645Y-30643765D01*
X66134803Y-30226756D01*
X66134804Y-30224775D01*
X68864803Y-30224775D01*
X69037233Y-30642086D01*
X69356235Y-30961645D01*
X69773244Y-31134803D01*
X70224775Y-31135197D01*
X70642086Y-30962767D01*
X70961645Y-30643765D01*
X71134803Y-30226756D01*
X71134804Y-30224775D01*
X73864803Y-30224775D01*
X74037233Y-30642086D01*
X74356235Y-30961645D01*
X74773244Y-31134803D01*
X75224775Y-31135197D01*
X75642086Y-30962767D01*
X75961645Y-30643765D01*
X76134803Y-30226756D01*
X76135197Y-29775225D01*
X75962767Y-29357914D01*
X75643765Y-29038355D01*
X75226756Y-28865197D01*
X74775225Y-28864803D01*
X74357914Y-29037233D01*
X74038355Y-29356235D01*
X73865197Y-29773244D01*
X73864803Y-30224775D01*
X71134804Y-30224775D01*
X71135197Y-29775225D01*
X70962767Y-29357914D01*
X70643765Y-29038355D01*
X70226756Y-28865197D01*
X69775225Y-28864803D01*
X69357914Y-29037233D01*
X69038355Y-29356235D01*
X68865197Y-29773244D01*
X68864803Y-30224775D01*
X66134804Y-30224775D01*
X66135197Y-29775225D01*
X65962767Y-29357914D01*
X65643765Y-29038355D01*
X65226756Y-28865197D01*
X64775225Y-28864803D01*
X64357914Y-29037233D01*
X64038355Y-29356235D01*
X63865197Y-29773244D01*
X63864803Y-30224775D01*
X61134804Y-30224775D01*
X61135197Y-29775225D01*
X60962767Y-29357914D01*
X60643765Y-29038355D01*
X60226756Y-28865197D01*
X59775225Y-28864803D01*
X59357914Y-29037233D01*
X59038355Y-29356235D01*
X58865197Y-29773244D01*
X58864803Y-30224775D01*
X56134804Y-30224775D01*
X56135197Y-29775225D01*
X55962767Y-29357914D01*
X55643765Y-29038355D01*
X55226756Y-28865197D01*
X54775225Y-28864803D01*
X54357914Y-29037233D01*
X54038355Y-29356235D01*
X53865197Y-29773244D01*
X53864803Y-30224775D01*
X51134804Y-30224775D01*
X51135197Y-29775225D01*
X50962767Y-29357914D01*
X50643765Y-29038355D01*
X50226756Y-28865197D01*
X49775225Y-28864803D01*
X49357914Y-29037233D01*
X49038355Y-29356235D01*
X48865197Y-29773244D01*
X48864803Y-30224775D01*
X41547440Y-30224775D01*
X41547440Y-29060000D01*
X41503162Y-28824683D01*
X41364090Y-28608559D01*
X41151890Y-28463569D01*
X40900000Y-28412560D01*
X39100000Y-28412560D01*
X38864683Y-28456838D01*
X38648559Y-28595910D01*
X38503569Y-28808110D01*
X38452560Y-29060000D01*
X38452560Y-30860000D01*
X38496838Y-31095317D01*
X38635910Y-31311441D01*
X38848110Y-31456431D01*
X38864344Y-31459719D01*
X38581845Y-31882509D01*
X38465000Y-32469928D01*
X38465000Y-32530072D01*
X38581845Y-33117491D01*
X38914591Y-33615481D01*
X39145845Y-33770000D01*
X38914591Y-33924519D01*
X38703794Y-34240000D01*
X31735190Y-34240000D01*
X31735190Y-34000510D01*
X31690912Y-33765193D01*
X31551840Y-33549069D01*
X31339640Y-33404079D01*
X31087750Y-33353070D01*
X29703402Y-33353070D01*
X29660063Y-33300045D01*
X29432815Y-33180009D01*
X29176769Y-33157842D01*
X25676649Y-33556622D01*
X25514623Y-33596738D01*
X25298499Y-33735810D01*
X25153509Y-33948010D01*
X25102500Y-34199900D01*
X25071500Y-34199900D01*
X25049983Y-34034374D01*
X24936270Y-33803896D01*
X24741848Y-33635817D01*
X24497351Y-33556622D01*
X20997231Y-33157842D01*
X20688623Y-33197958D01*
X20472499Y-33337030D01*
X20461539Y-33353070D01*
X19086250Y-33353070D01*
X18850933Y-33397348D01*
X18634809Y-33536420D01*
X18489819Y-33748620D01*
X18438810Y-34000510D01*
X18438810Y-34115000D01*
X17750005Y-34115000D01*
X17750000Y-34114999D01*
X17467516Y-34171190D01*
X17411325Y-34182367D01*
X17124210Y-34374210D01*
X17124208Y-34374213D01*
X15372530Y-36125890D01*
X15290099Y-35711481D01*
X19354649Y-31646930D01*
X20382338Y-31646930D01*
X20425677Y-31699955D01*
X20652925Y-31819991D01*
X20908971Y-31842158D01*
X24409091Y-31443378D01*
X24571117Y-31403262D01*
X24787241Y-31264190D01*
X24932231Y-31051990D01*
X24983240Y-30800100D01*
X24983240Y-29199900D01*
X24961723Y-29034374D01*
X24848010Y-28803896D01*
X24653588Y-28635817D01*
X24409091Y-28556622D01*
X20908971Y-28157842D01*
X20600363Y-28197958D01*
X20384239Y-28337030D01*
X20373279Y-28353070D01*
X18997990Y-28353070D01*
X18762673Y-28397348D01*
X18546549Y-28536420D01*
X18401559Y-28748620D01*
X18350550Y-29000510D01*
X18350550Y-30147871D01*
X14385000Y-34113420D01*
X14385000Y-20586180D01*
X21256834Y-13714345D01*
X21467710Y-13858431D01*
X21719600Y-13909440D01*
X23243600Y-13909440D01*
X23478917Y-13865162D01*
X23695041Y-13726090D01*
X23840031Y-13513890D01*
X23891040Y-13262000D01*
X23891040Y-12465842D01*
X24240000Y-12814802D01*
X24240000Y-23804633D01*
X24210828Y-23816687D01*
X23854684Y-24172210D01*
X23823162Y-24004683D01*
X23684090Y-23788559D01*
X23471890Y-23643569D01*
X23220000Y-23592560D01*
X21700000Y-23592560D01*
X21464683Y-23636838D01*
X21248559Y-23775910D01*
X21103569Y-23988110D01*
X21052560Y-24240000D01*
X21052560Y-25760000D01*
X21096838Y-25995317D01*
X21235910Y-26211441D01*
X21448110Y-26356431D01*
X21700000Y-26407440D01*
X23220000Y-26407440D01*
X23455317Y-26363162D01*
X23671441Y-26224090D01*
X23816431Y-26011890D01*
X23853969Y-25826520D01*
X24208764Y-26181934D01*
X24721300Y-26394758D01*
X25276265Y-26395242D01*
X25789172Y-26183313D01*
X26181934Y-25791236D01*
X26269954Y-25579262D01*
X26356687Y-25789172D01*
X26748764Y-26181934D01*
X27261300Y-26394758D01*
X27816265Y-26395242D01*
X28329172Y-26183313D01*
X28721934Y-25791236D01*
X28734904Y-25760000D01*
X38245198Y-25760000D01*
X34765198Y-29240000D01*
X31646930Y-29240000D01*
X31646930Y-29000510D01*
X31602652Y-28765193D01*
X31463580Y-28549069D01*
X31251380Y-28404079D01*
X30999490Y-28353070D01*
X29615142Y-28353070D01*
X29571803Y-28300045D01*
X29344555Y-28180009D01*
X29088509Y-28157842D01*
X25588389Y-28556622D01*
X25426363Y-28596738D01*
X25210239Y-28735810D01*
X25065249Y-28948010D01*
X25014240Y-29199900D01*
X25014240Y-30800100D01*
X25035757Y-30965626D01*
X25149470Y-31196104D01*
X25343892Y-31364183D01*
X25588389Y-31443378D01*
X29088509Y-31842158D01*
X29397117Y-31802042D01*
X29613241Y-31662970D01*
X29624201Y-31646930D01*
X30999490Y-31646930D01*
X31234807Y-31602652D01*
X31450931Y-31463580D01*
X31595921Y-31251380D01*
X31646930Y-30999490D01*
X31646930Y-30760000D01*
X35080000Y-30760000D01*
X35370839Y-30702148D01*
X35617401Y-30537401D01*
X39591071Y-26563731D01*
X40000000Y-26645072D01*
X40587419Y-26528227D01*
X41085409Y-26195481D01*
X41418155Y-25697491D01*
X41512184Y-25224775D01*
X48864803Y-25224775D01*
X49037233Y-25642086D01*
X49356235Y-25961645D01*
X49773244Y-26134803D01*
X50224775Y-26135197D01*
X50642086Y-25962767D01*
X50961645Y-25643765D01*
X51134803Y-25226756D01*
X51134804Y-25224775D01*
X53864803Y-25224775D01*
X54037233Y-25642086D01*
X54356235Y-25961645D01*
X54773244Y-26134803D01*
X55224775Y-26135197D01*
X55642086Y-25962767D01*
X55961645Y-25643765D01*
X56134803Y-25226756D01*
X56134804Y-25224775D01*
X58864803Y-25224775D01*
X59037233Y-25642086D01*
X59356235Y-25961645D01*
X59773244Y-26134803D01*
X60224775Y-26135197D01*
X60642086Y-25962767D01*
X60961645Y-25643765D01*
X61134803Y-25226756D01*
X61134804Y-25224775D01*
X63864803Y-25224775D01*
X64037233Y-25642086D01*
X64356235Y-25961645D01*
X64773244Y-26134803D01*
X65224775Y-26135197D01*
X65642086Y-25962767D01*
X65961645Y-25643765D01*
X66134803Y-25226756D01*
X66134804Y-25224775D01*
X68864803Y-25224775D01*
X69037233Y-25642086D01*
X69356235Y-25961645D01*
X69773244Y-26134803D01*
X70224775Y-26135197D01*
X70642086Y-25962767D01*
X70961645Y-25643765D01*
X71134803Y-25226756D01*
X71134804Y-25224775D01*
X73864803Y-25224775D01*
X74037233Y-25642086D01*
X74356235Y-25961645D01*
X74773244Y-26134803D01*
X75224775Y-26135197D01*
X75642086Y-25962767D01*
X75961645Y-25643765D01*
X76134803Y-25226756D01*
X76135197Y-24775225D01*
X75962767Y-24357914D01*
X75643765Y-24038355D01*
X75226756Y-23865197D01*
X74775225Y-23864803D01*
X74357914Y-24037233D01*
X74038355Y-24356235D01*
X73865197Y-24773244D01*
X73864803Y-25224775D01*
X71134804Y-25224775D01*
X71135197Y-24775225D01*
X70962767Y-24357914D01*
X70643765Y-24038355D01*
X70226756Y-23865197D01*
X69775225Y-23864803D01*
X69357914Y-24037233D01*
X69038355Y-24356235D01*
X68865197Y-24773244D01*
X68864803Y-25224775D01*
X66134804Y-25224775D01*
X66135197Y-24775225D01*
X65962767Y-24357914D01*
X65643765Y-24038355D01*
X65226756Y-23865197D01*
X64775225Y-23864803D01*
X64357914Y-24037233D01*
X64038355Y-24356235D01*
X63865197Y-24773244D01*
X63864803Y-25224775D01*
X61134804Y-25224775D01*
X61135197Y-24775225D01*
X60962767Y-24357914D01*
X60643765Y-24038355D01*
X60226756Y-23865197D01*
X59775225Y-23864803D01*
X59357914Y-24037233D01*
X59038355Y-24356235D01*
X58865197Y-24773244D01*
X58864803Y-25224775D01*
X56134804Y-25224775D01*
X56135197Y-24775225D01*
X55962767Y-24357914D01*
X55643765Y-24038355D01*
X55226756Y-23865197D01*
X54775225Y-23864803D01*
X54357914Y-24037233D01*
X54038355Y-24356235D01*
X53865197Y-24773244D01*
X53864803Y-25224775D01*
X51134804Y-25224775D01*
X51135197Y-24775225D01*
X50962767Y-24357914D01*
X50643765Y-24038355D01*
X50226756Y-23865197D01*
X49775225Y-23864803D01*
X49357914Y-24037233D01*
X49038355Y-24356235D01*
X48865197Y-24773244D01*
X48864803Y-25224775D01*
X41512184Y-25224775D01*
X41535000Y-25110072D01*
X41535000Y-25049928D01*
X41418155Y-24462509D01*
X41085409Y-23964519D01*
X40854155Y-23810000D01*
X41085409Y-23655481D01*
X41191148Y-23497231D01*
X80657842Y-23497231D01*
X81056622Y-26997351D01*
X81096738Y-27159377D01*
X81235810Y-27375501D01*
X81448010Y-27520491D01*
X81699900Y-27571500D01*
X83300100Y-27571500D01*
X83465626Y-27549983D01*
X83696104Y-27436270D01*
X83864183Y-27241848D01*
X83943378Y-26997351D01*
X84342158Y-23497231D01*
X84330686Y-23408971D01*
X88157842Y-23408971D01*
X88556622Y-26909091D01*
X88596738Y-27071117D01*
X88735810Y-27287241D01*
X88948010Y-27432231D01*
X89199900Y-27483240D01*
X90800100Y-27483240D01*
X90965626Y-27461723D01*
X91196104Y-27348010D01*
X91364183Y-27153588D01*
X91443378Y-26909091D01*
X91842158Y-23408971D01*
X91802042Y-23100363D01*
X91662970Y-22884239D01*
X91646930Y-22873279D01*
X91646930Y-21497990D01*
X91602652Y-21262673D01*
X91463580Y-21046549D01*
X91251380Y-20901559D01*
X90999490Y-20850550D01*
X89000510Y-20850550D01*
X88765193Y-20894828D01*
X88549069Y-21033900D01*
X88404079Y-21246100D01*
X88353070Y-21497990D01*
X88353070Y-22882338D01*
X88300045Y-22925677D01*
X88180009Y-23152925D01*
X88157842Y-23408971D01*
X84330686Y-23408971D01*
X84302042Y-23188623D01*
X84162970Y-22972499D01*
X84146930Y-22961539D01*
X84146930Y-21586250D01*
X84102652Y-21350933D01*
X83963580Y-21134809D01*
X83751380Y-20989819D01*
X83499490Y-20938810D01*
X81500510Y-20938810D01*
X81265193Y-20983088D01*
X81049069Y-21122160D01*
X80904079Y-21334360D01*
X80853070Y-21586250D01*
X80853070Y-22970598D01*
X80800045Y-23013937D01*
X80680009Y-23241185D01*
X80657842Y-23497231D01*
X41191148Y-23497231D01*
X41418155Y-23157491D01*
X41535000Y-22570072D01*
X41535000Y-22509928D01*
X41418155Y-21922509D01*
X41137163Y-21501974D01*
X41351441Y-21364090D01*
X41496431Y-21151890D01*
X41547440Y-20900000D01*
X41547440Y-19100000D01*
X41503162Y-18864683D01*
X41364090Y-18648559D01*
X41151890Y-18503569D01*
X40900000Y-18452560D01*
X39100000Y-18452560D01*
X38864683Y-18496838D01*
X38648559Y-18635910D01*
X38503569Y-18848110D01*
X38452560Y-19100000D01*
X38452560Y-20900000D01*
X38496838Y-21135317D01*
X38635910Y-21351441D01*
X38848110Y-21496431D01*
X38864344Y-21499719D01*
X38581845Y-21922509D01*
X38465000Y-22509928D01*
X38465000Y-22570072D01*
X38581845Y-23157491D01*
X38914591Y-23655481D01*
X39145845Y-23810000D01*
X38914591Y-23964519D01*
X38730521Y-24240000D01*
X28735367Y-24240000D01*
X28723313Y-24210828D01*
X28331236Y-23818066D01*
X27818700Y-23605242D01*
X27263735Y-23604758D01*
X26750828Y-23816687D01*
X26358066Y-24208764D01*
X26270046Y-24420738D01*
X26183313Y-24210828D01*
X25791236Y-23818066D01*
X25760000Y-23805096D01*
X25760000Y-12776661D01*
X28602758Y-12776661D01*
X28814990Y-13290303D01*
X29207630Y-13683629D01*
X29720900Y-13896757D01*
X30276661Y-13897242D01*
X30790303Y-13685010D01*
X30958590Y-13517016D01*
X36662589Y-13517016D01*
X36738295Y-13764462D01*
X37280165Y-13959703D01*
X37855503Y-13932718D01*
X38261705Y-13764462D01*
X38337411Y-13517016D01*
X37500000Y-12679605D01*
X36662589Y-13517016D01*
X30958590Y-13517016D01*
X31183629Y-13292370D01*
X31396757Y-12779100D01*
X31397192Y-12280165D01*
X36040297Y-12280165D01*
X36067282Y-12855503D01*
X36235538Y-13261705D01*
X36482984Y-13337411D01*
X37320395Y-12500000D01*
X37679605Y-12500000D01*
X38517016Y-13337411D01*
X38764462Y-13261705D01*
X38959703Y-12719835D01*
X38932718Y-12144497D01*
X38764462Y-11738295D01*
X38517016Y-11662589D01*
X37679605Y-12500000D01*
X37320395Y-12500000D01*
X36482984Y-11662589D01*
X36235538Y-11738295D01*
X36040297Y-12280165D01*
X31397192Y-12280165D01*
X31397242Y-12223339D01*
X31185010Y-11709697D01*
X30958693Y-11482984D01*
X36662589Y-11482984D01*
X37500000Y-12320395D01*
X38337411Y-11482984D01*
X38261705Y-11235538D01*
X37719835Y-11040297D01*
X37144497Y-11067282D01*
X36738295Y-11235538D01*
X36662589Y-11482984D01*
X30958693Y-11482984D01*
X30792370Y-11316371D01*
X30279100Y-11103243D01*
X29723339Y-11102758D01*
X29209697Y-11314990D01*
X28816371Y-11707630D01*
X28603243Y-12220900D01*
X28602758Y-12776661D01*
X25760000Y-12776661D01*
X25760000Y-12500000D01*
X25702148Y-12209161D01*
X25537401Y-11962599D01*
X18037401Y-4462599D01*
X17790839Y-4297852D01*
X17500000Y-4240000D01*
X16212131Y-4240000D01*
X16199610Y-4209697D01*
X15806970Y-3816371D01*
X15293700Y-3603243D01*
X14737939Y-3602758D01*
X14224297Y-3814990D01*
X13892221Y-4146487D01*
X13865162Y-4002683D01*
X13726090Y-3786559D01*
X13513890Y-3641569D01*
X13262000Y-3590560D01*
X11738000Y-3590560D01*
X11502683Y-3634838D01*
X11286559Y-3773910D01*
X11141569Y-3986110D01*
X11090560Y-4238000D01*
X11090560Y-5762000D01*
X11134838Y-5997317D01*
X11273910Y-6213441D01*
X11486110Y-6358431D01*
X11738000Y-6409440D01*
X13262000Y-6409440D01*
X13497317Y-6365162D01*
X13713441Y-6226090D01*
X13858431Y-6013890D01*
X13891209Y-5852029D01*
X14222230Y-6183629D01*
X14735500Y-6396757D01*
X15291261Y-6397242D01*
X15804903Y-6185010D01*
X16198229Y-5792370D01*
X16211670Y-5760000D01*
X17185198Y-5760000D01*
X22515758Y-11090560D01*
X21719600Y-11090560D01*
X21484283Y-11134838D01*
X21268159Y-11273910D01*
X21123169Y-11486110D01*
X21091925Y-11640396D01*
X20937116Y-11671190D01*
X20880925Y-11682367D01*
X20593810Y-11874210D01*
X20593808Y-11874213D01*
X12874210Y-19593810D01*
X12682367Y-19880925D01*
X12682367Y-19880926D01*
X12614999Y-20219600D01*
X12615000Y-20219605D01*
X12615000Y-34556411D01*
X12167104Y-34855686D01*
X11758487Y-35467224D01*
X11615000Y-36188582D01*
X11615000Y-38499995D01*
X11614999Y-38500000D01*
X11615000Y-38500005D01*
X11615000Y-43350550D01*
X11500510Y-43350550D01*
X11265193Y-43394828D01*
X11049069Y-43533900D01*
X10904079Y-43746100D01*
X10853070Y-43997990D01*
X10853070Y-45382338D01*
X10800045Y-45425677D01*
X10680009Y-45652925D01*
X10657842Y-45908971D01*
X710000Y-45908971D01*
X710000Y-36248000D01*
X5740000Y-36248000D01*
X5740000Y-37373000D01*
X6364950Y-37373000D01*
X6364950Y-37627000D01*
X5740000Y-37627000D01*
X5740000Y-38752000D01*
X5922573Y-39415856D01*
X6345295Y-39959311D01*
X6943810Y-40299629D01*
X7099957Y-40338933D01*
X7373000Y-40221206D01*
X7373000Y-39635050D01*
X7627000Y-39635050D01*
X7627000Y-40221206D01*
X7900043Y-40338933D01*
X8056190Y-40299629D01*
X8654705Y-39959311D01*
X9077427Y-39415856D01*
X9260000Y-38752000D01*
X9260000Y-37627000D01*
X8635050Y-37627000D01*
X8635050Y-37373000D01*
X9260000Y-37373000D01*
X9260000Y-36248000D01*
X9077427Y-35584144D01*
X8654705Y-35040689D01*
X8056190Y-34700371D01*
X7900043Y-34661067D01*
X7627000Y-34778794D01*
X7627000Y-35364950D01*
X7373000Y-35364950D01*
X7373000Y-34778794D01*
X7099957Y-34661067D01*
X6943810Y-34700371D01*
X6345295Y-35040689D01*
X5922573Y-35584144D01*
X5740000Y-36248000D01*
X710000Y-36248000D01*
X710000Y-24093279D01*
X743023Y-24086710D01*
X949048Y-23949048D01*
X1086710Y-23743023D01*
X1135050Y-23500000D01*
X1135050Y-22744579D01*
X1264786Y-22744579D01*
X1452408Y-23198657D01*
X1799515Y-23546371D01*
X2253266Y-23734785D01*
X2744579Y-23735214D01*
X3198657Y-23547592D01*
X3546371Y-23200485D01*
X3734785Y-22746734D01*
X3734786Y-22744579D01*
X3764786Y-22744579D01*
X3952408Y-23198657D01*
X4299515Y-23546371D01*
X4753266Y-23734785D01*
X5244579Y-23735214D01*
X5698657Y-23547592D01*
X6046371Y-23200485D01*
X6234785Y-22746734D01*
X6235000Y-22500000D01*
X8018934Y-22500000D01*
X8117053Y-22993279D01*
X8396473Y-23411461D01*
X8814655Y-23690881D01*
X9307934Y-23789000D01*
X10692066Y-23789000D01*
X11185345Y-23690881D01*
X11603527Y-23411461D01*
X11882947Y-22993279D01*
X11981066Y-22500000D01*
X11882947Y-22006721D01*
X11603527Y-21588539D01*
X11185345Y-21309119D01*
X10692066Y-21211000D01*
X9307934Y-21211000D01*
X8814655Y-21309119D01*
X8396473Y-21588539D01*
X8117053Y-22006721D01*
X8018934Y-22500000D01*
X6235000Y-22500000D01*
X6235214Y-22255421D01*
X6047592Y-21801343D01*
X5700485Y-21453629D01*
X5246734Y-21265215D01*
X4755421Y-21264786D01*
X4301343Y-21452408D01*
X3953629Y-21799515D01*
X3765215Y-22253266D01*
X3764786Y-22744579D01*
X3734786Y-22744579D01*
X3735214Y-22255421D01*
X3547592Y-21801343D01*
X3200485Y-21453629D01*
X2746734Y-21265215D01*
X2255421Y-21264786D01*
X1801343Y-21452408D01*
X1453629Y-21799515D01*
X1265215Y-22253266D01*
X1264786Y-22744579D01*
X1135050Y-22744579D01*
X1135050Y-20710000D01*
X2500000Y-20710000D01*
X2771705Y-20655954D01*
X3002046Y-20502046D01*
X3155954Y-20271705D01*
X3210000Y-20000000D01*
X3210000Y-16719000D01*
X3711000Y-16719000D01*
X3711000Y-17373000D01*
X3964950Y-17373000D01*
X3964950Y-17627000D01*
X3711000Y-17627000D01*
X3711000Y-18281000D01*
X3857720Y-18764612D01*
X4178342Y-19155264D01*
X4624054Y-19393482D01*
X4673901Y-19401068D01*
X4873000Y-19277092D01*
X4873000Y-18885050D01*
X5127000Y-18885050D01*
X5127000Y-19277092D01*
X5326099Y-19401068D01*
X5375946Y-19393482D01*
X5821658Y-19155264D01*
X6142280Y-18764612D01*
X6289000Y-18281000D01*
X6289000Y-17744579D01*
X8764786Y-17744579D01*
X8952408Y-18198657D01*
X9299515Y-18546371D01*
X9753266Y-18734785D01*
X10244579Y-18735214D01*
X10698657Y-18547592D01*
X11046371Y-18200485D01*
X11234785Y-17746734D01*
X11235214Y-17255421D01*
X11047592Y-16801343D01*
X10700485Y-16453629D01*
X10246734Y-16265215D01*
X9755421Y-16264786D01*
X9301343Y-16452408D01*
X8953629Y-16799515D01*
X8765215Y-17253266D01*
X8764786Y-17744579D01*
X6289000Y-17744579D01*
X6289000Y-17627000D01*
X6035050Y-17627000D01*
X6035050Y-17373000D01*
X6289000Y-17373000D01*
X6289000Y-16719000D01*
X6142280Y-16235388D01*
X5821658Y-15844736D01*
X5375946Y-15606518D01*
X5326099Y-15598932D01*
X5127000Y-15722908D01*
X5127000Y-16114950D01*
X4873000Y-16114950D01*
X4873000Y-15722908D01*
X4673901Y-15598932D01*
X4624054Y-15606518D01*
X4178342Y-15844736D01*
X3857720Y-16235388D01*
X3711000Y-16719000D01*
X3210000Y-16719000D01*
X3210000Y-15000000D01*
X3155954Y-14728295D01*
X3002046Y-14497954D01*
X2771705Y-14344046D01*
X2500000Y-14290000D01*
X1135050Y-14290000D01*
X1135050Y-12744579D01*
X1264786Y-12744579D01*
X1452408Y-13198657D01*
X1799515Y-13546371D01*
X2253266Y-13734785D01*
X2744579Y-13735214D01*
X3198657Y-13547592D01*
X3546371Y-13200485D01*
X3734785Y-12746734D01*
X3734786Y-12744579D01*
X3764786Y-12744579D01*
X3952408Y-13198657D01*
X4299515Y-13546371D01*
X4753266Y-13734785D01*
X5244579Y-13735214D01*
X5698657Y-13547592D01*
X6046371Y-13200485D01*
X6234785Y-12746734D01*
X6235000Y-12500000D01*
X8018934Y-12500000D01*
X8117053Y-12993279D01*
X8396473Y-13411461D01*
X8814655Y-13690881D01*
X9307934Y-13789000D01*
X10692066Y-13789000D01*
X11185345Y-13690881D01*
X11603527Y-13411461D01*
X11882947Y-12993279D01*
X11981066Y-12500000D01*
X11882947Y-12006721D01*
X11603527Y-11588539D01*
X11185345Y-11309119D01*
X10692066Y-11211000D01*
X9307934Y-11211000D01*
X8814655Y-11309119D01*
X8396473Y-11588539D01*
X8117053Y-12006721D01*
X8018934Y-12500000D01*
X6235000Y-12500000D01*
X6235214Y-12255421D01*
X6047592Y-11801343D01*
X5700485Y-11453629D01*
X5246734Y-11265215D01*
X4755421Y-11264786D01*
X4301343Y-11452408D01*
X3953629Y-11799515D01*
X3765215Y-12253266D01*
X3764786Y-12744579D01*
X3734786Y-12744579D01*
X3735214Y-12255421D01*
X3547592Y-11801343D01*
X3200485Y-11453629D01*
X2746734Y-11265215D01*
X2255421Y-11264786D01*
X1801343Y-11452408D01*
X1453629Y-11799515D01*
X1265215Y-12253266D01*
X1264786Y-12744579D01*
X1135050Y-12744579D01*
X1135050Y-11500000D01*
X1086710Y-11256977D01*
X949048Y-11050952D01*
X743023Y-10913290D01*
X710000Y-10906721D01*
X710000Y-5069931D01*
X1049408Y-3363610D01*
X1976349Y-1976346D01*
X3363610Y-1049408D01*
X5069931Y-710000D01*
X94930069Y-710000D01*
X96636390Y-1049408D01*
M02*
