M48
;DRILL file {KiCad 4.0.7+dfsg1-1ubuntu2} date Fri Aug 16 22:59:37 2019
;FORMAT={-:-/ absolute / metric / decimal}
FMAT,2
METRIC,TZ
T1C0.800
T2C0.900
T3C0.965
T4C1.000
T5C1.001
T6C1.067
T7C1.118
T8C1.200
T9C1.200
%
G90
G05
M71
T1
X5.Y-17.5
X10.Y-12.5
X10.Y-22.5
X22.42Y-50.
X22.46Y-25.
X24.96Y-50.
X25.Y-25.
X27.5Y-50.
X27.54Y-25.
T2
X4.96Y-55.
X7.5Y-55.
X50.Y-25.
X50.Y-30.
X50.Y-35.
X50.Y-40.
X50.Y-45.
X50.Y-50.
X55.Y-25.
X55.Y-30.
X55.Y-35.
X55.Y-40.
X55.Y-45.
X55.Y-50.
X60.Y-25.
X60.Y-30.
X60.Y-35.
X60.Y-40.
X60.Y-45.
X60.Y-50.
X65.Y-25.
X65.Y-30.
X65.Y-35.
X65.Y-40.
X65.Y-45.
X65.Y-50.
X70.Y-25.
X70.Y-30.
X70.Y-35.
X70.Y-40.
X70.Y-45.
X70.Y-50.
X75.Y-25.
X75.Y-30.
X75.Y-35.
X75.Y-40.
X75.Y-45.
X75.Y-50.
T3
X12.485Y-70.
X12.5Y-5.
X15.Y-70.
X15.015Y-5.
T4
X7.5Y-37.5
X13.5Y-37.5
X40.Y-20.
X40.Y-22.54
X40.Y-25.08
X40.Y-29.96
X40.Y-32.5
X40.Y-35.04
X40.Y-39.92
X40.Y-42.46
X40.Y-45.
X40.Y-49.92
X40.Y-52.46
X40.Y-55.
T5
X12.5Y-44.997
X12.5Y-55.
X19.997Y-30.
X19.999Y-40.
X20.086Y-35.
X20.086Y-45.
X30.Y-30.
X30.001Y-40.
X30.088Y-35.
X30.088Y-45.
X82.5Y-22.586
X82.5Y-32.588
X82.5Y-42.497
X82.5Y-52.5
X90.Y-22.497
X90.Y-32.5
X90.Y-42.586
X90.Y-52.588
T6
X22.482Y-12.5
X22.5Y-62.5
X30.Y-12.5
X30.018Y-62.5
T7
X37.5Y-12.5
X37.5Y-62.5
X93.888Y-12.5
X93.888Y-62.5
T8
X95.Y-22.5
X95.Y-26.
X95.Y-50.
X95.Y-53.5
T9
X2.5Y-12.5
X2.5Y-22.5
X5.Y-12.5
X5.Y-22.5
X10.Y-17.5
T0
M30
