M48
;DRILL file {KiCad 4.0.7+dfsg1-1ubuntu2} date Sun Aug  4 16:41:28 2019
;FORMAT={-:-/ absolute / metric / decimal}
FMAT,2
METRIC,TZ
T1C0.800
T2C0.900
T3C0.965
T4C1.000
T5C1.001
T6C1.067
T7C1.118
T8C1.200
T9C1.200
%
G90
G05
M71
T1
X5.Y-17.5
X10.Y-12.5
X10.Y-22.5
X22.42Y-35.
X22.5Y-40.
X24.96Y-35.
X25.04Y-40.
X27.5Y-35.
X27.58Y-40.
T2
X5.Y-47.46
X5.Y-50.
T3
X4.985Y-30.
X4.985Y-40.
X7.5Y-30.
X7.5Y-40.
T4
X7.5Y-60.
X13.5Y-60.
X40.Y-20.
X40.Y-22.54
X40.Y-25.08
X40.Y-29.96
X40.Y-32.5
X40.Y-35.04
X40.Y-39.92
X40.Y-42.46
X40.Y-45.
X40.Y-49.92
X40.Y-52.46
X40.Y-55.
T5
X15.Y-39.999
X15.Y-50.001
X19.997Y-30.
X19.997Y-50.
X19.999Y-25.
X19.999Y-45.
X30.Y-30.
X30.Y-50.
X30.001Y-25.
X30.001Y-45.
X82.5Y-22.586
X82.5Y-32.588
X82.5Y-42.497
X82.5Y-52.5
X87.5Y-22.499
X87.5Y-32.501
X87.5Y-42.497
X87.5Y-52.5
T6
X22.482Y-12.5
X22.5Y-62.5
X30.Y-12.5
X30.018Y-62.5
T7
X37.5Y-12.5
X37.5Y-62.5
X93.888Y-12.5
X93.888Y-62.5
T8
X95.Y-22.5
X95.Y-26.
X95.Y-50.
X95.Y-53.5
T9
X2.5Y-12.5
X2.5Y-22.5
X5.Y-12.5
X5.Y-22.5
X10.Y-17.5
T0
M30
