G04 #@! TF.FileFunction,Soldermask,Top*
%FSLAX46Y46*%
G04 Gerber Fmt 4.6, Leading zero omitted, Abs format (unit mm)*
G04 Created by KiCad (PCBNEW 4.0.7+dfsg1-1ubuntu2) date Thu Jul 25 19:08:58 2019*
%MOMM*%
%LPD*%
G01*
G04 APERTURE LIST*
%ADD10C,0.100000*%
%ADD11R,2.025600X2.025600*%
%ADD12C,2.025600*%
%ADD13R,1.924000X1.924000*%
%ADD14C,1.924000*%
%ADD15C,1.920000*%
%ADD16R,1.920000X1.920000*%
%ADD17R,2.200000X2.200000*%
%ADD18O,2.200000X2.200000*%
%ADD19C,2.800000*%
%ADD20R,2.800000X2.800000*%
%ADD21O,2.900000X5.400000*%
%ADD22O,2.650000X4.900000*%
%ADD23O,1.708000X3.016000*%
%ADD24O,3.016000X1.708000*%
%ADD25C,1.600000*%
%ADD26C,2.200000*%
%ADD27R,2.398980X2.398980*%
G04 APERTURE END LIST*
D10*
D11*
X36612000Y-85000000D03*
D12*
X93000000Y-85000000D03*
D13*
X48000000Y-45000000D03*
D14*
X55518400Y-45000000D03*
D13*
X99985400Y-85000000D03*
D14*
X102500000Y-85000000D03*
D13*
X47481600Y-70000000D03*
D14*
X55000000Y-70000000D03*
D13*
X99985400Y-30000000D03*
D14*
X102500000Y-30000000D03*
D11*
X37000000Y-30000000D03*
D12*
X93388000Y-30000000D03*
D15*
X65040000Y-70000000D03*
X62500000Y-70000000D03*
D16*
X67580000Y-70000000D03*
D15*
X65040000Y-45000000D03*
X67580000Y-45000000D03*
D16*
X62500000Y-45000000D03*
D17*
X71920000Y-69000000D03*
D18*
X74460000Y-69000000D03*
X77000000Y-69000000D03*
D17*
X71920000Y-46000000D03*
D18*
X74460000Y-46000000D03*
X77000000Y-46000000D03*
D17*
X84000000Y-46000000D03*
D18*
X86540000Y-46000000D03*
X89080000Y-46000000D03*
D17*
X83920000Y-69000000D03*
D18*
X86460000Y-69000000D03*
X89000000Y-69000000D03*
D19*
X35000000Y-72500000D03*
D20*
X35000000Y-69000000D03*
D19*
X35000000Y-46000000D03*
D20*
X35000000Y-42500000D03*
D21*
X43500000Y-57500000D03*
D22*
X37500000Y-57500000D03*
D23*
X100000000Y-72500000D03*
D24*
X95000000Y-67500000D03*
X95000000Y-77500000D03*
D25*
X102500000Y-77500000D03*
X100000000Y-77500000D03*
X95000000Y-72500000D03*
X102500000Y-67500000D03*
X100000000Y-67500000D03*
D17*
X100000000Y-60000000D03*
D26*
X100000000Y-57460000D03*
D10*
G36*
X69361800Y-38601120D02*
X69361800Y-41398880D01*
X65461680Y-41000100D01*
X65461680Y-38999900D01*
X69361800Y-38601120D01*
X69361800Y-38601120D01*
G37*
G36*
X60635680Y-41398880D02*
X60635680Y-38601120D01*
X64535800Y-38999900D01*
X64535800Y-41000100D01*
X60635680Y-41398880D01*
X60635680Y-41398880D01*
G37*
D27*
X70000000Y-40000000D03*
X59997480Y-40000000D03*
D10*
G36*
X60635680Y-53898880D02*
X60635680Y-51101120D01*
X64535800Y-51499900D01*
X64535800Y-53500100D01*
X60635680Y-53898880D01*
X60635680Y-53898880D01*
G37*
G36*
X69361800Y-51101120D02*
X69361800Y-53898880D01*
X65461680Y-53500100D01*
X65461680Y-51499900D01*
X69361800Y-51101120D01*
X69361800Y-51101120D01*
G37*
D27*
X59997480Y-52500000D03*
X70000000Y-52500000D03*
D10*
G36*
X80635680Y-41398880D02*
X80635680Y-38601120D01*
X84535800Y-38999900D01*
X84535800Y-41000100D01*
X80635680Y-41398880D01*
X80635680Y-41398880D01*
G37*
G36*
X89361800Y-38601120D02*
X89361800Y-41398880D01*
X85461680Y-41000100D01*
X85461680Y-38999900D01*
X89361800Y-38601120D01*
X89361800Y-38601120D01*
G37*
D27*
X79997480Y-40000000D03*
X90000000Y-40000000D03*
D10*
G36*
X81635680Y-54398880D02*
X81635680Y-51601120D01*
X85535800Y-51999900D01*
X85535800Y-54000100D01*
X81635680Y-54398880D01*
X81635680Y-54398880D01*
G37*
G36*
X90361800Y-51601120D02*
X90361800Y-54398880D01*
X86461680Y-54000100D01*
X86461680Y-51999900D01*
X90361800Y-51601120D01*
X90361800Y-51601120D01*
G37*
D27*
X80997480Y-53000000D03*
X91000000Y-53000000D03*
D10*
G36*
X69364320Y-73601120D02*
X69364320Y-76398880D01*
X65464200Y-76000100D01*
X65464200Y-73999900D01*
X69364320Y-73601120D01*
X69364320Y-73601120D01*
G37*
G36*
X60638200Y-76398880D02*
X60638200Y-73601120D01*
X64538320Y-73999900D01*
X64538320Y-76000100D01*
X60638200Y-76398880D01*
X60638200Y-76398880D01*
G37*
D27*
X70002520Y-75000000D03*
X60000000Y-75000000D03*
D10*
G36*
X60635680Y-63898880D02*
X60635680Y-61101120D01*
X64535800Y-61499900D01*
X64535800Y-63500100D01*
X60635680Y-63898880D01*
X60635680Y-63898880D01*
G37*
G36*
X69361800Y-61101120D02*
X69361800Y-63898880D01*
X65461680Y-63500100D01*
X65461680Y-61499900D01*
X69361800Y-61101120D01*
X69361800Y-61101120D01*
G37*
D27*
X59997480Y-62500000D03*
X70000000Y-62500000D03*
D10*
G36*
X80635680Y-76398880D02*
X80635680Y-73601120D01*
X84535800Y-73999900D01*
X84535800Y-76000100D01*
X80635680Y-76398880D01*
X80635680Y-76398880D01*
G37*
G36*
X89361800Y-73601120D02*
X89361800Y-76398880D01*
X85461680Y-76000100D01*
X85461680Y-73999900D01*
X89361800Y-73601120D01*
X89361800Y-73601120D01*
G37*
D27*
X79997480Y-75000000D03*
X90000000Y-75000000D03*
D10*
G36*
X81635680Y-63398880D02*
X81635680Y-60601120D01*
X85535800Y-60999900D01*
X85535800Y-63000100D01*
X81635680Y-63398880D01*
X81635680Y-63398880D01*
G37*
G36*
X90361800Y-60601120D02*
X90361800Y-63398880D01*
X86461680Y-63000100D01*
X86461680Y-60999900D01*
X90361800Y-60601120D01*
X90361800Y-60601120D01*
G37*
D27*
X80997480Y-62000000D03*
X91000000Y-62000000D03*
D10*
G36*
X101398880Y-49361800D02*
X98601120Y-49361800D01*
X98999900Y-45461680D01*
X101000100Y-45461680D01*
X101398880Y-49361800D01*
X101398880Y-49361800D01*
G37*
G36*
X98601120Y-40635680D02*
X101398880Y-40635680D01*
X101000100Y-44535800D01*
X98999900Y-44535800D01*
X98601120Y-40635680D01*
X98601120Y-40635680D01*
G37*
D27*
X100000000Y-50000000D03*
X100000000Y-39997480D03*
M02*
