G04 #@! TF.FileFunction,Copper,L2,Bot,Signal*
%FSLAX46Y46*%
G04 Gerber Fmt 4.6, Leading zero omitted, Abs format (unit mm)*
G04 Created by KiCad (PCBNEW 4.0.7+dfsg1-1ubuntu2) date Thu Jul 25 19:08:58 2019*
%MOMM*%
%LPD*%
G01*
G04 APERTURE LIST*
%ADD10C,0.100000*%
%ADD11R,1.625600X1.625600*%
%ADD12C,1.625600*%
%ADD13R,1.524000X1.524000*%
%ADD14C,1.524000*%
%ADD15C,1.520000*%
%ADD16R,1.520000X1.520000*%
%ADD17R,1.800000X1.800000*%
%ADD18O,1.800000X1.800000*%
%ADD19C,2.400000*%
%ADD20R,2.400000X2.400000*%
%ADD21O,2.500000X5.000000*%
%ADD22O,2.250000X4.500000*%
%ADD23O,1.308000X2.616000*%
%ADD24O,2.616000X1.308000*%
%ADD25C,1.800000*%
%ADD26R,1.998980X1.998980*%
%ADD27C,0.200000*%
%ADD28C,0.254000*%
G04 APERTURE END LIST*
D10*
D11*
X36612000Y-85000000D03*
D12*
X93000000Y-85000000D03*
D13*
X48000000Y-45000000D03*
D14*
X55518400Y-45000000D03*
D13*
X99985400Y-85000000D03*
D14*
X102500000Y-85000000D03*
D13*
X47481600Y-70000000D03*
D14*
X55000000Y-70000000D03*
D13*
X99985400Y-30000000D03*
D14*
X102500000Y-30000000D03*
D11*
X37000000Y-30000000D03*
D12*
X93388000Y-30000000D03*
D15*
X65040000Y-70000000D03*
X62500000Y-70000000D03*
D16*
X67580000Y-70000000D03*
D15*
X65040000Y-45000000D03*
X67580000Y-45000000D03*
D16*
X62500000Y-45000000D03*
D17*
X71920000Y-69000000D03*
D18*
X74460000Y-69000000D03*
X77000000Y-69000000D03*
D17*
X71920000Y-46000000D03*
D18*
X74460000Y-46000000D03*
X77000000Y-46000000D03*
D17*
X84000000Y-46000000D03*
D18*
X86540000Y-46000000D03*
X89080000Y-46000000D03*
D17*
X83920000Y-69000000D03*
D18*
X86460000Y-69000000D03*
X89000000Y-69000000D03*
D19*
X35000000Y-72500000D03*
D20*
X35000000Y-69000000D03*
D19*
X35000000Y-46000000D03*
D20*
X35000000Y-42500000D03*
D21*
X43500000Y-57500000D03*
D22*
X37500000Y-57500000D03*
D23*
X100000000Y-72500000D03*
D24*
X95000000Y-67500000D03*
X95000000Y-77500000D03*
D17*
X100000000Y-60000000D03*
D25*
X100000000Y-57460000D03*
D26*
X70000000Y-40000000D03*
X59997480Y-40000000D03*
X59997480Y-52500000D03*
X70000000Y-52500000D03*
X79997480Y-40000000D03*
X90000000Y-40000000D03*
X80997480Y-53000000D03*
X91000000Y-53000000D03*
X70002520Y-75000000D03*
X60000000Y-75000000D03*
X59997480Y-62500000D03*
X70000000Y-62500000D03*
X79997480Y-75000000D03*
X90000000Y-75000000D03*
X80997480Y-62000000D03*
X91000000Y-62000000D03*
X100000000Y-50000000D03*
X100000000Y-39997480D03*
D27*
X99985400Y-30000000D02*
X99985400Y-30962000D01*
X95000000Y-76646000D02*
X95000000Y-77500000D01*
X99985400Y-30962000D02*
X102500000Y-33476600D01*
X92500000Y-74146000D02*
X95000000Y-76646000D01*
X102500000Y-33476600D02*
X102500000Y-64584000D01*
X102500000Y-64584000D02*
X102084000Y-65000000D01*
X102084000Y-65000000D02*
X95000000Y-65000000D01*
X92500000Y-67500000D02*
X92500000Y-74146000D01*
X95000000Y-65000000D02*
X92500000Y-67500000D01*
X35000000Y-42500000D02*
X53018400Y-42500000D01*
X53018400Y-42500000D02*
X55518400Y-45000000D01*
X98000000Y-78638248D02*
X98000000Y-71354000D01*
X98000000Y-71354000D02*
X95000000Y-68354000D01*
X95000000Y-68354000D02*
X95000000Y-67500000D01*
X99985400Y-85000000D02*
X99985400Y-80623648D01*
X99985400Y-80623648D02*
X98000000Y-78638248D01*
X103300001Y-68545999D02*
X100000000Y-71846000D01*
X93388000Y-30000000D02*
X93388000Y-54488000D01*
X93388000Y-54488000D02*
X98900000Y-60000000D01*
X98900000Y-60000000D02*
X100000000Y-60000000D01*
X100000000Y-71846000D02*
X100000000Y-72500000D01*
X95960000Y-32572000D02*
X93388000Y-30000000D01*
X37500000Y-57500000D02*
X38825000Y-57500000D01*
X38825000Y-57500000D02*
X42325000Y-54000000D01*
X42325000Y-54000000D02*
X58000000Y-54000000D01*
X58000000Y-54000000D02*
X60000000Y-56000000D01*
X93000000Y-85000000D02*
X91987199Y-83987199D01*
X91987199Y-83987199D02*
X49987199Y-83987199D01*
X49987199Y-83987199D02*
X41000000Y-75000000D01*
X41000000Y-75000000D02*
X34000000Y-75000000D01*
X34000000Y-75000000D02*
X32000000Y-73000000D01*
X32000000Y-73000000D02*
X32000000Y-65450000D01*
X32000000Y-65450000D02*
X37500000Y-59950000D01*
X37500000Y-59950000D02*
X37500000Y-57500000D01*
X90000000Y-40000000D02*
X88800510Y-40000000D01*
X88800510Y-40000000D02*
X78800510Y-30000000D01*
X78800510Y-30000000D02*
X38012800Y-30000000D01*
X38012800Y-30000000D02*
X37000000Y-30000000D01*
X88199490Y-43000000D02*
X85900000Y-43000000D01*
X84000000Y-44900000D02*
X84000000Y-46000000D01*
X85900000Y-43000000D02*
X84000000Y-44900000D01*
X90000000Y-40000000D02*
X90000000Y-41199490D01*
X90000000Y-41199490D02*
X88199490Y-43000000D01*
X83920000Y-69000000D02*
X82820000Y-69000000D01*
X72820000Y-59000000D02*
X48500000Y-59000000D01*
X82820000Y-69000000D02*
X72820000Y-59000000D01*
X48500000Y-59000000D02*
X35000000Y-72500000D01*
X67580000Y-45000000D02*
X67580000Y-51279490D01*
X67580000Y-51279490D02*
X68800510Y-52500000D01*
X68800510Y-52500000D02*
X70000000Y-52500000D01*
X70000000Y-40000000D02*
X70000000Y-42580000D01*
X70000000Y-42580000D02*
X67580000Y-45000000D01*
X79000000Y-37000000D02*
X79997480Y-37997480D01*
X79997480Y-37997480D02*
X79997480Y-40000000D01*
X60000000Y-37000000D02*
X79000000Y-37000000D01*
X57540000Y-39460000D02*
X60000000Y-37000000D01*
X57540000Y-41000000D02*
X57540000Y-39460000D01*
X62500000Y-45000000D02*
X61540000Y-45000000D01*
X61540000Y-45000000D02*
X57540000Y-41000000D01*
X72820000Y-48000000D02*
X84540000Y-48000000D01*
X84540000Y-48000000D02*
X86540000Y-46000000D01*
X71920000Y-46000000D02*
X71920000Y-47100000D01*
X71920000Y-47100000D02*
X72820000Y-48000000D01*
X62500000Y-70000000D02*
X67500000Y-75000000D01*
X67500000Y-75000000D02*
X70002520Y-75000000D01*
X70000000Y-62500000D02*
X62500000Y-70000000D01*
X76797990Y-73000000D02*
X71540000Y-73000000D01*
X71540000Y-73000000D02*
X68540000Y-70000000D01*
X68540000Y-70000000D02*
X67580000Y-70000000D01*
X79997480Y-75000000D02*
X78797990Y-75000000D01*
X78797990Y-75000000D02*
X76797990Y-73000000D01*
X86460000Y-69000000D02*
X83460000Y-72000000D01*
X83460000Y-72000000D02*
X73820000Y-72000000D01*
X73820000Y-72000000D02*
X71920000Y-70100000D01*
X71920000Y-70100000D02*
X71920000Y-69000000D01*
D28*
G36*
X104290000Y-65906721D02*
X104256977Y-65913290D01*
X104050952Y-66050952D01*
X104035001Y-66074824D01*
X104035001Y-34276601D01*
X103979052Y-33995329D01*
X103819725Y-33756878D01*
X101235412Y-31172566D01*
X101343831Y-31013890D01*
X101376609Y-30852029D01*
X101707630Y-31183629D01*
X102220900Y-31396757D01*
X102776661Y-31397242D01*
X103290303Y-31185010D01*
X103683629Y-30792370D01*
X103896757Y-30279100D01*
X103897242Y-29723339D01*
X103685010Y-29209697D01*
X103292370Y-28816371D01*
X102779100Y-28603243D01*
X102223339Y-28602758D01*
X101709697Y-28814990D01*
X101377621Y-29146487D01*
X101350562Y-29002683D01*
X101211490Y-28786559D01*
X100999290Y-28641569D01*
X100747400Y-28590560D01*
X99223400Y-28590560D01*
X98988083Y-28634838D01*
X98771959Y-28773910D01*
X98626969Y-28986110D01*
X98575960Y-29238000D01*
X98575960Y-30762000D01*
X98620238Y-30997317D01*
X98759310Y-31213441D01*
X98971510Y-31358431D01*
X99223400Y-31409440D01*
X99417379Y-31409440D01*
X99465677Y-31481723D01*
X102565001Y-34581048D01*
X102565001Y-66265056D01*
X102255421Y-66264786D01*
X101801343Y-66452408D01*
X101453629Y-66799515D01*
X101265215Y-67253266D01*
X101264786Y-67744579D01*
X101452408Y-68198657D01*
X101799515Y-68546371D01*
X102125020Y-68681533D01*
X100239901Y-70566653D01*
X100000000Y-70518934D01*
X99506721Y-70617053D01*
X99088539Y-70896473D01*
X98809119Y-71314655D01*
X98735000Y-71687277D01*
X98735000Y-71354000D01*
X98679051Y-71072728D01*
X98639737Y-71013890D01*
X98519724Y-70834277D01*
X96299831Y-68614384D01*
X96603527Y-68411461D01*
X96882947Y-67993279D01*
X96932416Y-67744579D01*
X98764786Y-67744579D01*
X98952408Y-68198657D01*
X99299515Y-68546371D01*
X99753266Y-68734785D01*
X100244579Y-68735214D01*
X100698657Y-68547592D01*
X101046371Y-68200485D01*
X101234785Y-67746734D01*
X101235214Y-67255421D01*
X101047592Y-66801343D01*
X100700485Y-66453629D01*
X100246734Y-66265215D01*
X99755421Y-66264786D01*
X99301343Y-66452408D01*
X98953629Y-66799515D01*
X98765215Y-67253266D01*
X98764786Y-67744579D01*
X96932416Y-67744579D01*
X96981066Y-67500000D01*
X96882947Y-67006721D01*
X96603527Y-66588539D01*
X96185345Y-66309119D01*
X95692066Y-66211000D01*
X94307934Y-66211000D01*
X93814655Y-66309119D01*
X93396473Y-66588539D01*
X93117053Y-67006721D01*
X93018934Y-67500000D01*
X93117053Y-67993279D01*
X93396473Y-68411461D01*
X93814655Y-68690881D01*
X94307934Y-68789000D01*
X94423667Y-68789000D01*
X94480277Y-68873723D01*
X97265000Y-71658447D01*
X97265000Y-78638248D01*
X97294987Y-78789000D01*
X97320949Y-78919520D01*
X97480277Y-79157971D01*
X99250400Y-80928095D01*
X99250400Y-83590560D01*
X99223400Y-83590560D01*
X98988083Y-83634838D01*
X98771959Y-83773910D01*
X98626969Y-83986110D01*
X98575960Y-84238000D01*
X98575960Y-85762000D01*
X98620238Y-85997317D01*
X98759310Y-86213441D01*
X98971510Y-86358431D01*
X99223400Y-86409440D01*
X100747400Y-86409440D01*
X100982717Y-86365162D01*
X101198841Y-86226090D01*
X101343831Y-86013890D01*
X101376609Y-85852029D01*
X101707630Y-86183629D01*
X102220900Y-86396757D01*
X102776661Y-86397242D01*
X103290303Y-86185010D01*
X103683629Y-85792370D01*
X103896757Y-85279100D01*
X103897242Y-84723339D01*
X103685010Y-84209697D01*
X103292370Y-83816371D01*
X102779100Y-83603243D01*
X102223339Y-83602758D01*
X101709697Y-83814990D01*
X101377621Y-84146487D01*
X101350562Y-84002683D01*
X101211490Y-83786559D01*
X100999290Y-83641569D01*
X100747400Y-83590560D01*
X100720400Y-83590560D01*
X100720400Y-80623648D01*
X100664451Y-80342376D01*
X100505124Y-80103925D01*
X98735000Y-78333802D01*
X98735000Y-77744579D01*
X98764786Y-77744579D01*
X98952408Y-78198657D01*
X99299515Y-78546371D01*
X99753266Y-78734785D01*
X100244579Y-78735214D01*
X100698657Y-78547592D01*
X101046371Y-78200485D01*
X101234785Y-77746734D01*
X101234786Y-77744579D01*
X101264786Y-77744579D01*
X101452408Y-78198657D01*
X101799515Y-78546371D01*
X102253266Y-78734785D01*
X102744579Y-78735214D01*
X103198657Y-78547592D01*
X103546371Y-78200485D01*
X103734785Y-77746734D01*
X103735214Y-77255421D01*
X103547592Y-76801343D01*
X103200485Y-76453629D01*
X102746734Y-76265215D01*
X102255421Y-76264786D01*
X101801343Y-76452408D01*
X101453629Y-76799515D01*
X101265215Y-77253266D01*
X101264786Y-77744579D01*
X101234786Y-77744579D01*
X101235214Y-77255421D01*
X101047592Y-76801343D01*
X100700485Y-76453629D01*
X100246734Y-76265215D01*
X99755421Y-76264786D01*
X99301343Y-76452408D01*
X98953629Y-76799515D01*
X98765215Y-77253266D01*
X98764786Y-77744579D01*
X98735000Y-77744579D01*
X98735000Y-73312723D01*
X98809119Y-73685345D01*
X99088539Y-74103527D01*
X99506721Y-74382947D01*
X100000000Y-74481066D01*
X100493279Y-74382947D01*
X100911461Y-74103527D01*
X101190881Y-73685345D01*
X101289000Y-73192066D01*
X101289000Y-71807934D01*
X101253912Y-71631534D01*
X101790000Y-71095446D01*
X101790000Y-75000000D01*
X101844046Y-75271705D01*
X101997954Y-75502046D01*
X102228295Y-75655954D01*
X102500000Y-75710000D01*
X103864950Y-75710000D01*
X103864950Y-78500000D01*
X103913290Y-78743023D01*
X104050952Y-78949048D01*
X104256977Y-79086710D01*
X104290000Y-79093279D01*
X104290000Y-94290000D01*
X30710000Y-94290000D01*
X30710000Y-84187200D01*
X35151760Y-84187200D01*
X35151760Y-85812800D01*
X35196038Y-86048117D01*
X35335110Y-86264241D01*
X35547310Y-86409231D01*
X35799200Y-86460240D01*
X37424800Y-86460240D01*
X37660117Y-86415962D01*
X37876241Y-86276890D01*
X38021231Y-86064690D01*
X38030885Y-86017016D01*
X92162589Y-86017016D01*
X92238295Y-86264462D01*
X92780165Y-86459703D01*
X93355503Y-86432718D01*
X93761705Y-86264462D01*
X93837411Y-86017016D01*
X93000000Y-85179605D01*
X92162589Y-86017016D01*
X38030885Y-86017016D01*
X38072240Y-85812800D01*
X38072240Y-84780165D01*
X91540297Y-84780165D01*
X91567282Y-85355503D01*
X91735538Y-85761705D01*
X91982984Y-85837411D01*
X92820395Y-85000000D01*
X93179605Y-85000000D01*
X94017016Y-85837411D01*
X94264462Y-85761705D01*
X94459703Y-85219835D01*
X94432718Y-84644497D01*
X94264462Y-84238295D01*
X94017016Y-84162589D01*
X93179605Y-85000000D01*
X92820395Y-85000000D01*
X91982984Y-84162589D01*
X91735538Y-84238295D01*
X91540297Y-84780165D01*
X38072240Y-84780165D01*
X38072240Y-84187200D01*
X38033815Y-83982984D01*
X92162589Y-83982984D01*
X93000000Y-84820395D01*
X93837411Y-83982984D01*
X93761705Y-83735538D01*
X93219835Y-83540297D01*
X92644497Y-83567282D01*
X92238295Y-83735538D01*
X92162589Y-83982984D01*
X38033815Y-83982984D01*
X38027962Y-83951883D01*
X37888890Y-83735759D01*
X37676690Y-83590769D01*
X37424800Y-83539760D01*
X35799200Y-83539760D01*
X35563883Y-83584038D01*
X35347759Y-83723110D01*
X35202769Y-83935310D01*
X35151760Y-84187200D01*
X30710000Y-84187200D01*
X30710000Y-77173901D01*
X93098932Y-77173901D01*
X93222908Y-77373000D01*
X93614950Y-77373000D01*
X93614950Y-77627000D01*
X93222908Y-77627000D01*
X93098932Y-77826099D01*
X93106518Y-77875946D01*
X93344736Y-78321658D01*
X93735388Y-78642280D01*
X94219000Y-78789000D01*
X94873000Y-78789000D01*
X94873000Y-78535050D01*
X95127000Y-78535050D01*
X95127000Y-78789000D01*
X95781000Y-78789000D01*
X96264612Y-78642280D01*
X96655264Y-78321658D01*
X96893482Y-77875946D01*
X96901068Y-77826099D01*
X96777092Y-77627000D01*
X96385050Y-77627000D01*
X96385050Y-77373000D01*
X96777092Y-77373000D01*
X96901068Y-77173901D01*
X96893482Y-77124054D01*
X96655264Y-76678342D01*
X96264612Y-76357720D01*
X95781000Y-76211000D01*
X95127000Y-76211000D01*
X95127000Y-76464950D01*
X94873000Y-76464950D01*
X94873000Y-76211000D01*
X94219000Y-76211000D01*
X93735388Y-76357720D01*
X93344736Y-76678342D01*
X93106518Y-77124054D01*
X93098932Y-77173901D01*
X30710000Y-77173901D01*
X30710000Y-67800000D01*
X33152560Y-67800000D01*
X33152560Y-70200000D01*
X33196838Y-70435317D01*
X33335910Y-70651441D01*
X33548110Y-70796431D01*
X33800000Y-70847440D01*
X34194288Y-70847440D01*
X33961914Y-70943455D01*
X33445270Y-71459199D01*
X33165319Y-72133395D01*
X33164682Y-72863403D01*
X33443455Y-73538086D01*
X33959199Y-74054730D01*
X34633395Y-74334681D01*
X35363403Y-74335318D01*
X36038086Y-74056545D01*
X36094218Y-74000510D01*
X58353070Y-74000510D01*
X58353070Y-75999490D01*
X58397348Y-76234807D01*
X58536420Y-76450931D01*
X58748620Y-76595921D01*
X59000510Y-76646930D01*
X60999490Y-76646930D01*
X61234807Y-76602652D01*
X61450931Y-76463580D01*
X61595921Y-76251380D01*
X61646930Y-75999490D01*
X61646930Y-74000510D01*
X61602652Y-73765193D01*
X61463580Y-73549069D01*
X61251380Y-73404079D01*
X60999490Y-73353070D01*
X59000510Y-73353070D01*
X58765193Y-73397348D01*
X58549069Y-73536420D01*
X58404079Y-73748620D01*
X58353070Y-74000510D01*
X36094218Y-74000510D01*
X36554730Y-73540801D01*
X36834681Y-72866605D01*
X36835318Y-72136597D01*
X36708872Y-71830574D01*
X39301446Y-69238000D01*
X46072160Y-69238000D01*
X46072160Y-70762000D01*
X46116438Y-70997317D01*
X46255510Y-71213441D01*
X46467710Y-71358431D01*
X46719600Y-71409440D01*
X48243600Y-71409440D01*
X48478917Y-71365162D01*
X48695041Y-71226090D01*
X48840031Y-71013890D01*
X48891040Y-70762000D01*
X48891040Y-70276661D01*
X53602758Y-70276661D01*
X53814990Y-70790303D01*
X54207630Y-71183629D01*
X54720900Y-71396757D01*
X55276661Y-71397242D01*
X55790303Y-71185010D01*
X56183629Y-70792370D01*
X56396757Y-70279100D01*
X56397242Y-69723339D01*
X56185010Y-69209697D01*
X55792370Y-68816371D01*
X55279100Y-68603243D01*
X54723339Y-68602758D01*
X54209697Y-68814990D01*
X53816371Y-69207630D01*
X53603243Y-69720900D01*
X53602758Y-70276661D01*
X48891040Y-70276661D01*
X48891040Y-69238000D01*
X48846762Y-69002683D01*
X48707690Y-68786559D01*
X48495490Y-68641569D01*
X48243600Y-68590560D01*
X46719600Y-68590560D01*
X46484283Y-68634838D01*
X46268159Y-68773910D01*
X46123169Y-68986110D01*
X46072160Y-69238000D01*
X39301446Y-69238000D01*
X47038936Y-61500510D01*
X58350550Y-61500510D01*
X58350550Y-63499490D01*
X58394828Y-63734807D01*
X58533900Y-63950931D01*
X58746100Y-64095921D01*
X58997990Y-64146930D01*
X60996970Y-64146930D01*
X61232287Y-64102652D01*
X61448411Y-63963580D01*
X61593401Y-63751380D01*
X61644410Y-63499490D01*
X61644410Y-61500510D01*
X61600132Y-61265193D01*
X61461060Y-61049069D01*
X61248860Y-60904079D01*
X60996970Y-60853070D01*
X58997990Y-60853070D01*
X58762673Y-60897348D01*
X58546549Y-61036420D01*
X58401559Y-61248620D01*
X58350550Y-61500510D01*
X47038936Y-61500510D01*
X48804447Y-59735000D01*
X72515554Y-59735000D01*
X82300277Y-69519724D01*
X82372560Y-69568022D01*
X82372560Y-69900000D01*
X82416838Y-70135317D01*
X82555910Y-70351441D01*
X82768110Y-70496431D01*
X83020000Y-70547440D01*
X83873114Y-70547440D01*
X83155554Y-71265000D01*
X74124447Y-71265000D01*
X73242293Y-70382846D01*
X73271441Y-70364090D01*
X73416431Y-70151890D01*
X73419719Y-70135656D01*
X73842509Y-70418155D01*
X74429928Y-70535000D01*
X74490072Y-70535000D01*
X75077491Y-70418155D01*
X75575481Y-70085409D01*
X75730000Y-69854155D01*
X75884519Y-70085409D01*
X76382509Y-70418155D01*
X76969928Y-70535000D01*
X77030072Y-70535000D01*
X77617491Y-70418155D01*
X78115481Y-70085409D01*
X78448227Y-69587419D01*
X78565072Y-69000000D01*
X78448227Y-68412581D01*
X78115481Y-67914591D01*
X77617491Y-67581845D01*
X77030072Y-67465000D01*
X76969928Y-67465000D01*
X76382509Y-67581845D01*
X75884519Y-67914591D01*
X75730000Y-68145845D01*
X75575481Y-67914591D01*
X75077491Y-67581845D01*
X74490072Y-67465000D01*
X74429928Y-67465000D01*
X73842509Y-67581845D01*
X73421974Y-67862837D01*
X73284090Y-67648559D01*
X73071890Y-67503569D01*
X72820000Y-67452560D01*
X71020000Y-67452560D01*
X70784683Y-67496838D01*
X70568559Y-67635910D01*
X70423569Y-67848110D01*
X70372560Y-68100000D01*
X70372560Y-69900000D01*
X70416838Y-70135317D01*
X70555910Y-70351441D01*
X70768110Y-70496431D01*
X71020000Y-70547440D01*
X71351979Y-70547440D01*
X71400277Y-70619723D01*
X73045553Y-72265000D01*
X71844447Y-72265000D01*
X69059723Y-69480277D01*
X68987440Y-69431979D01*
X68987440Y-69240000D01*
X68943162Y-69004683D01*
X68804090Y-68788559D01*
X68591890Y-68643569D01*
X68340000Y-68592560D01*
X66820000Y-68592560D01*
X66584683Y-68636838D01*
X66368559Y-68775910D01*
X66223569Y-68988110D01*
X66186031Y-69173480D01*
X65831236Y-68818066D01*
X65318700Y-68605242D01*
X64934539Y-68604907D01*
X69392517Y-64146930D01*
X70999490Y-64146930D01*
X71234807Y-64102652D01*
X71450931Y-63963580D01*
X71595921Y-63751380D01*
X71646930Y-63499490D01*
X71646930Y-61500510D01*
X71602652Y-61265193D01*
X71463580Y-61049069D01*
X71251380Y-60904079D01*
X70999490Y-60853070D01*
X69000510Y-60853070D01*
X68765193Y-60897348D01*
X68549069Y-61036420D01*
X68404079Y-61248620D01*
X68353070Y-61500510D01*
X68353070Y-63107483D01*
X62832834Y-68627720D01*
X62778700Y-68605242D01*
X62223735Y-68604758D01*
X61710828Y-68816687D01*
X61318066Y-69208764D01*
X61105242Y-69721300D01*
X61104758Y-70276265D01*
X61316687Y-70789172D01*
X61708764Y-71181934D01*
X62221300Y-71394758D01*
X62776265Y-71395242D01*
X62832542Y-71371989D01*
X66980277Y-75519724D01*
X67184161Y-75655954D01*
X67218728Y-75679051D01*
X67500000Y-75735000D01*
X68355590Y-75735000D01*
X68355590Y-75999490D01*
X68399868Y-76234807D01*
X68538940Y-76450931D01*
X68751140Y-76595921D01*
X69003030Y-76646930D01*
X71002010Y-76646930D01*
X71237327Y-76602652D01*
X71453451Y-76463580D01*
X71598441Y-76251380D01*
X71649450Y-75999490D01*
X71649450Y-74000510D01*
X71605172Y-73765193D01*
X71585743Y-73735000D01*
X76493544Y-73735000D01*
X78278266Y-75519723D01*
X78350550Y-75568021D01*
X78350550Y-75999490D01*
X78394828Y-76234807D01*
X78533900Y-76450931D01*
X78746100Y-76595921D01*
X78997990Y-76646930D01*
X80996970Y-76646930D01*
X81232287Y-76602652D01*
X81448411Y-76463580D01*
X81593401Y-76251380D01*
X81644410Y-75999490D01*
X81644410Y-74000510D01*
X88353070Y-74000510D01*
X88353070Y-75999490D01*
X88397348Y-76234807D01*
X88536420Y-76450931D01*
X88748620Y-76595921D01*
X89000510Y-76646930D01*
X90999490Y-76646930D01*
X91234807Y-76602652D01*
X91450931Y-76463580D01*
X91595921Y-76251380D01*
X91646930Y-75999490D01*
X91646930Y-74000510D01*
X91602652Y-73765193D01*
X91463580Y-73549069D01*
X91251380Y-73404079D01*
X90999490Y-73353070D01*
X89000510Y-73353070D01*
X88765193Y-73397348D01*
X88549069Y-73536420D01*
X88404079Y-73748620D01*
X88353070Y-74000510D01*
X81644410Y-74000510D01*
X81600132Y-73765193D01*
X81461060Y-73549069D01*
X81248860Y-73404079D01*
X80996970Y-73353070D01*
X78997990Y-73353070D01*
X78762673Y-73397348D01*
X78546549Y-73536420D01*
X78476450Y-73639013D01*
X77582016Y-72744579D01*
X93764786Y-72744579D01*
X93952408Y-73198657D01*
X94299515Y-73546371D01*
X94753266Y-73734785D01*
X95244579Y-73735214D01*
X95698657Y-73547592D01*
X96046371Y-73200485D01*
X96234785Y-72746734D01*
X96235214Y-72255421D01*
X96047592Y-71801343D01*
X95700485Y-71453629D01*
X95246734Y-71265215D01*
X94755421Y-71264786D01*
X94301343Y-71452408D01*
X93953629Y-71799515D01*
X93765215Y-72253266D01*
X93764786Y-72744579D01*
X77582016Y-72744579D01*
X77572436Y-72735000D01*
X83460000Y-72735000D01*
X83741272Y-72679051D01*
X83979723Y-72519723D01*
X86041675Y-70457772D01*
X86429928Y-70535000D01*
X86490072Y-70535000D01*
X87077491Y-70418155D01*
X87575481Y-70085409D01*
X87730000Y-69854155D01*
X87884519Y-70085409D01*
X88382509Y-70418155D01*
X88969928Y-70535000D01*
X89030072Y-70535000D01*
X89617491Y-70418155D01*
X90115481Y-70085409D01*
X90448227Y-69587419D01*
X90565072Y-69000000D01*
X90448227Y-68412581D01*
X90115481Y-67914591D01*
X89617491Y-67581845D01*
X89030072Y-67465000D01*
X88969928Y-67465000D01*
X88382509Y-67581845D01*
X87884519Y-67914591D01*
X87730000Y-68145845D01*
X87575481Y-67914591D01*
X87077491Y-67581845D01*
X86490072Y-67465000D01*
X86429928Y-67465000D01*
X85842509Y-67581845D01*
X85421974Y-67862837D01*
X85284090Y-67648559D01*
X85071890Y-67503569D01*
X84820000Y-67452560D01*
X83020000Y-67452560D01*
X82784683Y-67496838D01*
X82568559Y-67635910D01*
X82538845Y-67679398D01*
X75859957Y-61000510D01*
X79350550Y-61000510D01*
X79350550Y-62999490D01*
X79394828Y-63234807D01*
X79533900Y-63450931D01*
X79746100Y-63595921D01*
X79997990Y-63646930D01*
X81996970Y-63646930D01*
X82232287Y-63602652D01*
X82448411Y-63463580D01*
X82593401Y-63251380D01*
X82644410Y-62999490D01*
X82644410Y-61000510D01*
X89353070Y-61000510D01*
X89353070Y-62999490D01*
X89397348Y-63234807D01*
X89536420Y-63450931D01*
X89748620Y-63595921D01*
X90000510Y-63646930D01*
X91999490Y-63646930D01*
X92234807Y-63602652D01*
X92450931Y-63463580D01*
X92595921Y-63251380D01*
X92646930Y-62999490D01*
X92646930Y-61120159D01*
X99099446Y-61120159D01*
X99185852Y-61376643D01*
X99759336Y-61586458D01*
X100369460Y-61560839D01*
X100814148Y-61376643D01*
X100900554Y-61120159D01*
X100000000Y-60219605D01*
X99099446Y-61120159D01*
X92646930Y-61120159D01*
X92646930Y-61000510D01*
X92602652Y-60765193D01*
X92463580Y-60549069D01*
X92251380Y-60404079D01*
X91999490Y-60353070D01*
X90000510Y-60353070D01*
X89765193Y-60397348D01*
X89549069Y-60536420D01*
X89404079Y-60748620D01*
X89353070Y-61000510D01*
X82644410Y-61000510D01*
X82600132Y-60765193D01*
X82461060Y-60549069D01*
X82248860Y-60404079D01*
X81996970Y-60353070D01*
X79997990Y-60353070D01*
X79762673Y-60397348D01*
X79546549Y-60536420D01*
X79401559Y-60748620D01*
X79350550Y-61000510D01*
X75859957Y-61000510D01*
X73339723Y-58480277D01*
X73101272Y-58320949D01*
X72820000Y-58265000D01*
X48500000Y-58265000D01*
X48218728Y-58320949D01*
X47980276Y-58480277D01*
X36847440Y-69613114D01*
X36847440Y-67800000D01*
X36803162Y-67564683D01*
X36664090Y-67348559D01*
X36451890Y-67203569D01*
X36200000Y-67152560D01*
X33800000Y-67152560D01*
X33564683Y-67196838D01*
X33348559Y-67335910D01*
X33203569Y-67548110D01*
X33152560Y-67800000D01*
X30710000Y-67800000D01*
X30710000Y-56248000D01*
X35740000Y-56248000D01*
X35740000Y-57373000D01*
X36364950Y-57373000D01*
X36364950Y-57627000D01*
X35740000Y-57627000D01*
X35740000Y-58752000D01*
X35922573Y-59415856D01*
X36345295Y-59959311D01*
X36943810Y-60299629D01*
X37099957Y-60338933D01*
X37373000Y-60221206D01*
X37373000Y-59635050D01*
X37627000Y-59635050D01*
X37627000Y-60221206D01*
X37900043Y-60338933D01*
X38056190Y-60299629D01*
X38654705Y-59959311D01*
X39077427Y-59415856D01*
X39260000Y-58752000D01*
X39260000Y-57627000D01*
X38635050Y-57627000D01*
X38635050Y-57373000D01*
X39260000Y-57373000D01*
X39260000Y-56248000D01*
X39243659Y-56188582D01*
X41615000Y-56188582D01*
X41615000Y-58811418D01*
X41758487Y-59532776D01*
X42167104Y-60144314D01*
X42778642Y-60552931D01*
X43500000Y-60696418D01*
X44221358Y-60552931D01*
X44832896Y-60144314D01*
X45241513Y-59532776D01*
X45385000Y-58811418D01*
X45385000Y-56600000D01*
X98452560Y-56600000D01*
X98452560Y-58400000D01*
X98496838Y-58635317D01*
X98635910Y-58851441D01*
X98839574Y-58990598D01*
X98805282Y-59024890D01*
X98919839Y-59139447D01*
X98663357Y-59225852D01*
X98453542Y-59799336D01*
X98479161Y-60409460D01*
X98663357Y-60854148D01*
X98919841Y-60940554D01*
X99820395Y-60040000D01*
X99806253Y-60025858D01*
X99985858Y-59846253D01*
X100000000Y-59860395D01*
X100014143Y-59846253D01*
X100193748Y-60025858D01*
X100179605Y-60040000D01*
X101080159Y-60940554D01*
X101336643Y-60854148D01*
X101546458Y-60280664D01*
X101520839Y-59670540D01*
X101336643Y-59225852D01*
X101080161Y-59139447D01*
X101194718Y-59024890D01*
X101158240Y-58988412D01*
X101351441Y-58864090D01*
X101496431Y-58651890D01*
X101547440Y-58400000D01*
X101547440Y-56600000D01*
X101503162Y-56364683D01*
X101364090Y-56148559D01*
X101151890Y-56003569D01*
X100900000Y-55952560D01*
X99100000Y-55952560D01*
X98864683Y-55996838D01*
X98648559Y-56135910D01*
X98503569Y-56348110D01*
X98452560Y-56600000D01*
X45385000Y-56600000D01*
X45385000Y-56188582D01*
X45241513Y-55467224D01*
X44832896Y-54855686D01*
X44221358Y-54447069D01*
X43500000Y-54303582D01*
X42778642Y-54447069D01*
X42167104Y-54855686D01*
X41758487Y-55467224D01*
X41615000Y-56188582D01*
X39243659Y-56188582D01*
X39077427Y-55584144D01*
X38654705Y-55040689D01*
X38056190Y-54700371D01*
X37900043Y-54661067D01*
X37627000Y-54778794D01*
X37627000Y-55364950D01*
X37373000Y-55364950D01*
X37373000Y-54778794D01*
X37099957Y-54661067D01*
X36943810Y-54700371D01*
X36345295Y-55040689D01*
X35922573Y-55584144D01*
X35740000Y-56248000D01*
X30710000Y-56248000D01*
X30710000Y-51500510D01*
X58350550Y-51500510D01*
X58350550Y-53499490D01*
X58394828Y-53734807D01*
X58533900Y-53950931D01*
X58746100Y-54095921D01*
X58997990Y-54146930D01*
X60996970Y-54146930D01*
X61232287Y-54102652D01*
X61448411Y-53963580D01*
X61593401Y-53751380D01*
X61644410Y-53499490D01*
X61644410Y-51500510D01*
X61600132Y-51265193D01*
X61461060Y-51049069D01*
X61248860Y-50904079D01*
X60996970Y-50853070D01*
X58997990Y-50853070D01*
X58762673Y-50897348D01*
X58546549Y-51036420D01*
X58401559Y-51248620D01*
X58350550Y-51500510D01*
X30710000Y-51500510D01*
X30710000Y-41300000D01*
X33152560Y-41300000D01*
X33152560Y-43700000D01*
X33196838Y-43935317D01*
X33335910Y-44151441D01*
X33548110Y-44296431D01*
X33800000Y-44347440D01*
X34194288Y-44347440D01*
X33961914Y-44443455D01*
X33445270Y-44959199D01*
X33165319Y-45633395D01*
X33164682Y-46363403D01*
X33443455Y-47038086D01*
X33959199Y-47554730D01*
X34633395Y-47834681D01*
X35363403Y-47835318D01*
X36038086Y-47556545D01*
X36554730Y-47040801D01*
X36834681Y-46366605D01*
X36835318Y-45636597D01*
X36556545Y-44961914D01*
X36040801Y-44445270D01*
X35805201Y-44347440D01*
X36200000Y-44347440D01*
X36435317Y-44303162D01*
X36536581Y-44238000D01*
X46590560Y-44238000D01*
X46590560Y-45762000D01*
X46634838Y-45997317D01*
X46773910Y-46213441D01*
X46986110Y-46358431D01*
X47238000Y-46409440D01*
X48762000Y-46409440D01*
X48997317Y-46365162D01*
X49213441Y-46226090D01*
X49358431Y-46013890D01*
X49409440Y-45762000D01*
X49409440Y-44238000D01*
X49365162Y-44002683D01*
X49226090Y-43786559D01*
X49013890Y-43641569D01*
X48762000Y-43590560D01*
X47238000Y-43590560D01*
X47002683Y-43634838D01*
X46786559Y-43773910D01*
X46641569Y-43986110D01*
X46590560Y-44238000D01*
X36536581Y-44238000D01*
X36651441Y-44164090D01*
X36796431Y-43951890D01*
X36847440Y-43700000D01*
X36847440Y-43235000D01*
X52713954Y-43235000D01*
X54144590Y-44665637D01*
X54121643Y-44720900D01*
X54121158Y-45276661D01*
X54333390Y-45790303D01*
X54726030Y-46183629D01*
X55239300Y-46396757D01*
X55795061Y-46397242D01*
X56308703Y-46185010D01*
X56702029Y-45792370D01*
X56915157Y-45279100D01*
X56915642Y-44723339D01*
X56703410Y-44209697D01*
X56310770Y-43816371D01*
X55797500Y-43603243D01*
X55241739Y-43602758D01*
X55184327Y-43626480D01*
X53538123Y-41980277D01*
X53299672Y-41820949D01*
X53018400Y-41765000D01*
X36847440Y-41765000D01*
X36847440Y-41300000D01*
X36803162Y-41064683D01*
X36664090Y-40848559D01*
X36451890Y-40703569D01*
X36200000Y-40652560D01*
X33800000Y-40652560D01*
X33564683Y-40696838D01*
X33348559Y-40835910D01*
X33203569Y-41048110D01*
X33152560Y-41300000D01*
X30710000Y-41300000D01*
X30710000Y-39460000D01*
X56805000Y-39460000D01*
X56805000Y-41000000D01*
X56854502Y-41248860D01*
X56860949Y-41281272D01*
X57020277Y-41519723D01*
X61020276Y-45519723D01*
X61092560Y-45568021D01*
X61092560Y-45760000D01*
X61136838Y-45995317D01*
X61275910Y-46211441D01*
X61488110Y-46356431D01*
X61740000Y-46407440D01*
X63260000Y-46407440D01*
X63495317Y-46363162D01*
X63711441Y-46224090D01*
X63856431Y-46011890D01*
X63893969Y-45826520D01*
X64248764Y-46181934D01*
X64761300Y-46394758D01*
X65316265Y-46395242D01*
X65829172Y-46183313D01*
X66221934Y-45791236D01*
X66309954Y-45579262D01*
X66396687Y-45789172D01*
X66788764Y-46181934D01*
X66845000Y-46205285D01*
X66845000Y-51279490D01*
X66868444Y-51397348D01*
X66900949Y-51560762D01*
X67060277Y-51799213D01*
X68280787Y-53019724D01*
X68353070Y-53068022D01*
X68353070Y-53499490D01*
X68397348Y-53734807D01*
X68536420Y-53950931D01*
X68748620Y-54095921D01*
X69000510Y-54146930D01*
X70999490Y-54146930D01*
X71234807Y-54102652D01*
X71450931Y-53963580D01*
X71595921Y-53751380D01*
X71646930Y-53499490D01*
X71646930Y-52000510D01*
X79350550Y-52000510D01*
X79350550Y-53999490D01*
X79394828Y-54234807D01*
X79533900Y-54450931D01*
X79746100Y-54595921D01*
X79997990Y-54646930D01*
X81996970Y-54646930D01*
X82232287Y-54602652D01*
X82448411Y-54463580D01*
X82593401Y-54251380D01*
X82644410Y-53999490D01*
X82644410Y-52000510D01*
X89353070Y-52000510D01*
X89353070Y-53999490D01*
X89397348Y-54234807D01*
X89536420Y-54450931D01*
X89748620Y-54595921D01*
X90000510Y-54646930D01*
X91999490Y-54646930D01*
X92234807Y-54602652D01*
X92450931Y-54463580D01*
X92595921Y-54251380D01*
X92646930Y-53999490D01*
X92646930Y-52000510D01*
X92602652Y-51765193D01*
X92463580Y-51549069D01*
X92251380Y-51404079D01*
X91999490Y-51353070D01*
X90000510Y-51353070D01*
X89765193Y-51397348D01*
X89549069Y-51536420D01*
X89404079Y-51748620D01*
X89353070Y-52000510D01*
X82644410Y-52000510D01*
X82600132Y-51765193D01*
X82461060Y-51549069D01*
X82248860Y-51404079D01*
X81996970Y-51353070D01*
X79997990Y-51353070D01*
X79762673Y-51397348D01*
X79546549Y-51536420D01*
X79401559Y-51748620D01*
X79350550Y-52000510D01*
X71646930Y-52000510D01*
X71646930Y-51500510D01*
X71602652Y-51265193D01*
X71463580Y-51049069D01*
X71251380Y-50904079D01*
X70999490Y-50853070D01*
X69000510Y-50853070D01*
X68765193Y-50897348D01*
X68549069Y-51036420D01*
X68478970Y-51139014D01*
X68315000Y-50975044D01*
X68315000Y-49000510D01*
X98353070Y-49000510D01*
X98353070Y-50999490D01*
X98397348Y-51234807D01*
X98536420Y-51450931D01*
X98748620Y-51595921D01*
X99000510Y-51646930D01*
X100999490Y-51646930D01*
X101234807Y-51602652D01*
X101450931Y-51463580D01*
X101595921Y-51251380D01*
X101646930Y-50999490D01*
X101646930Y-49000510D01*
X101602652Y-48765193D01*
X101463580Y-48549069D01*
X101251380Y-48404079D01*
X100999490Y-48353070D01*
X99000510Y-48353070D01*
X98765193Y-48397348D01*
X98549069Y-48536420D01*
X98404079Y-48748620D01*
X98353070Y-49000510D01*
X68315000Y-49000510D01*
X68315000Y-46205696D01*
X68369172Y-46183313D01*
X68761934Y-45791236D01*
X68974758Y-45278700D01*
X68975242Y-44723735D01*
X68951989Y-44667458D01*
X70519724Y-43099723D01*
X70679051Y-42861272D01*
X70707405Y-42718728D01*
X70735000Y-42580000D01*
X70735000Y-41646930D01*
X70999490Y-41646930D01*
X71234807Y-41602652D01*
X71450931Y-41463580D01*
X71595921Y-41251380D01*
X71646930Y-40999490D01*
X71646930Y-39000510D01*
X71602652Y-38765193D01*
X71463580Y-38549069D01*
X71251380Y-38404079D01*
X70999490Y-38353070D01*
X69000510Y-38353070D01*
X68765193Y-38397348D01*
X68549069Y-38536420D01*
X68404079Y-38748620D01*
X68353070Y-39000510D01*
X68353070Y-40999490D01*
X68397348Y-41234807D01*
X68536420Y-41450931D01*
X68748620Y-41595921D01*
X69000510Y-41646930D01*
X69265000Y-41646930D01*
X69265000Y-42275553D01*
X67912833Y-43627720D01*
X67858700Y-43605242D01*
X67303735Y-43604758D01*
X66790828Y-43816687D01*
X66398066Y-44208764D01*
X66310046Y-44420738D01*
X66223313Y-44210828D01*
X65831236Y-43818066D01*
X65318700Y-43605242D01*
X64763735Y-43604758D01*
X64250828Y-43816687D01*
X63894684Y-44172210D01*
X63863162Y-44004683D01*
X63724090Y-43788559D01*
X63511890Y-43643569D01*
X63260000Y-43592560D01*
X61740000Y-43592560D01*
X61504683Y-43636838D01*
X61329203Y-43749756D01*
X59226376Y-41646930D01*
X60996970Y-41646930D01*
X61232287Y-41602652D01*
X61448411Y-41463580D01*
X61593401Y-41251380D01*
X61644410Y-40999490D01*
X61644410Y-39000510D01*
X61600132Y-38765193D01*
X61461060Y-38549069D01*
X61248860Y-38404079D01*
X60996970Y-38353070D01*
X59686377Y-38353070D01*
X60304447Y-37735000D01*
X78695554Y-37735000D01*
X79262480Y-38301927D01*
X79262480Y-38353070D01*
X78997990Y-38353070D01*
X78762673Y-38397348D01*
X78546549Y-38536420D01*
X78401559Y-38748620D01*
X78350550Y-39000510D01*
X78350550Y-40999490D01*
X78394828Y-41234807D01*
X78533900Y-41450931D01*
X78746100Y-41595921D01*
X78997990Y-41646930D01*
X80996970Y-41646930D01*
X81232287Y-41602652D01*
X81448411Y-41463580D01*
X81593401Y-41251380D01*
X81644410Y-40999490D01*
X81644410Y-39000510D01*
X81600132Y-38765193D01*
X81461060Y-38549069D01*
X81248860Y-38404079D01*
X80996970Y-38353070D01*
X80732480Y-38353070D01*
X80732480Y-37997480D01*
X80676531Y-37716208D01*
X80517204Y-37477757D01*
X79519723Y-36480277D01*
X79281272Y-36320949D01*
X79000000Y-36265000D01*
X60000000Y-36265000D01*
X59718728Y-36320949D01*
X59480276Y-36480277D01*
X57020277Y-38940277D01*
X56860949Y-39178728D01*
X56805000Y-39460000D01*
X30710000Y-39460000D01*
X30710000Y-29187200D01*
X35539760Y-29187200D01*
X35539760Y-30812800D01*
X35584038Y-31048117D01*
X35723110Y-31264241D01*
X35935310Y-31409231D01*
X36187200Y-31460240D01*
X37812800Y-31460240D01*
X38048117Y-31415962D01*
X38264241Y-31276890D01*
X38409231Y-31064690D01*
X38460240Y-30812800D01*
X38460240Y-30735000D01*
X78496064Y-30735000D01*
X88280787Y-40519724D01*
X88353070Y-40568022D01*
X88353070Y-40999490D01*
X88397348Y-41234807D01*
X88536420Y-41450931D01*
X88639013Y-41521030D01*
X87895044Y-42265000D01*
X85900000Y-42265000D01*
X85618728Y-42320949D01*
X85380277Y-42480276D01*
X83480277Y-44380277D01*
X83431979Y-44452560D01*
X83100000Y-44452560D01*
X82864683Y-44496838D01*
X82648559Y-44635910D01*
X82503569Y-44848110D01*
X82452560Y-45100000D01*
X82452560Y-46900000D01*
X82496838Y-47135317D01*
X82580287Y-47265000D01*
X77846704Y-47265000D01*
X78115481Y-47085409D01*
X78448227Y-46587419D01*
X78565072Y-46000000D01*
X78448227Y-45412581D01*
X78115481Y-44914591D01*
X77617491Y-44581845D01*
X77030072Y-44465000D01*
X76969928Y-44465000D01*
X76382509Y-44581845D01*
X75884519Y-44914591D01*
X75730000Y-45145845D01*
X75575481Y-44914591D01*
X75077491Y-44581845D01*
X74490072Y-44465000D01*
X74429928Y-44465000D01*
X73842509Y-44581845D01*
X73421974Y-44862837D01*
X73284090Y-44648559D01*
X73071890Y-44503569D01*
X72820000Y-44452560D01*
X71020000Y-44452560D01*
X70784683Y-44496838D01*
X70568559Y-44635910D01*
X70423569Y-44848110D01*
X70372560Y-45100000D01*
X70372560Y-46900000D01*
X70416838Y-47135317D01*
X70555910Y-47351441D01*
X70768110Y-47496431D01*
X71020000Y-47547440D01*
X71351979Y-47547440D01*
X71400277Y-47619723D01*
X72300276Y-48519723D01*
X72344196Y-48549069D01*
X72538728Y-48679051D01*
X72820000Y-48735000D01*
X84540000Y-48735000D01*
X84821272Y-48679051D01*
X85059723Y-48519723D01*
X86121675Y-47457772D01*
X86509928Y-47535000D01*
X86570072Y-47535000D01*
X87157491Y-47418155D01*
X87655481Y-47085409D01*
X87810000Y-46854155D01*
X87964519Y-47085409D01*
X88462509Y-47418155D01*
X89049928Y-47535000D01*
X89110072Y-47535000D01*
X89697491Y-47418155D01*
X90195481Y-47085409D01*
X90528227Y-46587419D01*
X90645072Y-46000000D01*
X90528227Y-45412581D01*
X90195481Y-44914591D01*
X89697491Y-44581845D01*
X89110072Y-44465000D01*
X89049928Y-44465000D01*
X88462509Y-44581845D01*
X87964519Y-44914591D01*
X87810000Y-45145845D01*
X87655481Y-44914591D01*
X87157491Y-44581845D01*
X86570072Y-44465000D01*
X86509928Y-44465000D01*
X85922509Y-44581845D01*
X85501974Y-44862837D01*
X85364090Y-44648559D01*
X85320602Y-44618845D01*
X86204447Y-43735000D01*
X88199490Y-43735000D01*
X88480762Y-43679051D01*
X88719213Y-43519723D01*
X90519724Y-41719213D01*
X90568022Y-41646930D01*
X90999490Y-41646930D01*
X91234807Y-41602652D01*
X91450931Y-41463580D01*
X91595921Y-41251380D01*
X91646930Y-40999490D01*
X91646930Y-39000510D01*
X91646456Y-38997990D01*
X98353070Y-38997990D01*
X98353070Y-40996970D01*
X98397348Y-41232287D01*
X98536420Y-41448411D01*
X98748620Y-41593401D01*
X99000510Y-41644410D01*
X100999490Y-41644410D01*
X101234807Y-41600132D01*
X101450931Y-41461060D01*
X101595921Y-41248860D01*
X101646930Y-40996970D01*
X101646930Y-38997990D01*
X101602652Y-38762673D01*
X101463580Y-38546549D01*
X101251380Y-38401559D01*
X100999490Y-38350550D01*
X99000510Y-38350550D01*
X98765193Y-38394828D01*
X98549069Y-38533900D01*
X98404079Y-38746100D01*
X98353070Y-38997990D01*
X91646456Y-38997990D01*
X91602652Y-38765193D01*
X91463580Y-38549069D01*
X91251380Y-38404079D01*
X90999490Y-38353070D01*
X89000510Y-38353070D01*
X88765193Y-38397348D01*
X88549069Y-38536420D01*
X88478970Y-38639013D01*
X80856973Y-31017016D01*
X92550589Y-31017016D01*
X92626295Y-31264462D01*
X93168165Y-31459703D01*
X93743503Y-31432718D01*
X94149705Y-31264462D01*
X94225411Y-31017016D01*
X93388000Y-30179605D01*
X92550589Y-31017016D01*
X80856973Y-31017016D01*
X79620122Y-29780165D01*
X91928297Y-29780165D01*
X91955282Y-30355503D01*
X92123538Y-30761705D01*
X92370984Y-30837411D01*
X93208395Y-30000000D01*
X93567605Y-30000000D01*
X94405016Y-30837411D01*
X94652462Y-30761705D01*
X94847703Y-30219835D01*
X94820718Y-29644497D01*
X94652462Y-29238295D01*
X94405016Y-29162589D01*
X93567605Y-30000000D01*
X93208395Y-30000000D01*
X92370984Y-29162589D01*
X92123538Y-29238295D01*
X91928297Y-29780165D01*
X79620122Y-29780165D01*
X79320233Y-29480277D01*
X79081782Y-29320949D01*
X78800510Y-29265000D01*
X38460240Y-29265000D01*
X38460240Y-29187200D01*
X38421815Y-28982984D01*
X92550589Y-28982984D01*
X93388000Y-29820395D01*
X94225411Y-28982984D01*
X94149705Y-28735538D01*
X93607835Y-28540297D01*
X93032497Y-28567282D01*
X92626295Y-28735538D01*
X92550589Y-28982984D01*
X38421815Y-28982984D01*
X38415962Y-28951883D01*
X38276890Y-28735759D01*
X38064690Y-28590769D01*
X37812800Y-28539760D01*
X36187200Y-28539760D01*
X35951883Y-28584038D01*
X35735759Y-28723110D01*
X35590769Y-28935310D01*
X35539760Y-29187200D01*
X30710000Y-29187200D01*
X30710000Y-20710000D01*
X104290000Y-20710000D01*
X104290000Y-65906721D01*
X104290000Y-65906721D01*
G37*
X104290000Y-65906721D02*
X104256977Y-65913290D01*
X104050952Y-66050952D01*
X104035001Y-66074824D01*
X104035001Y-34276601D01*
X103979052Y-33995329D01*
X103819725Y-33756878D01*
X101235412Y-31172566D01*
X101343831Y-31013890D01*
X101376609Y-30852029D01*
X101707630Y-31183629D01*
X102220900Y-31396757D01*
X102776661Y-31397242D01*
X103290303Y-31185010D01*
X103683629Y-30792370D01*
X103896757Y-30279100D01*
X103897242Y-29723339D01*
X103685010Y-29209697D01*
X103292370Y-28816371D01*
X102779100Y-28603243D01*
X102223339Y-28602758D01*
X101709697Y-28814990D01*
X101377621Y-29146487D01*
X101350562Y-29002683D01*
X101211490Y-28786559D01*
X100999290Y-28641569D01*
X100747400Y-28590560D01*
X99223400Y-28590560D01*
X98988083Y-28634838D01*
X98771959Y-28773910D01*
X98626969Y-28986110D01*
X98575960Y-29238000D01*
X98575960Y-30762000D01*
X98620238Y-30997317D01*
X98759310Y-31213441D01*
X98971510Y-31358431D01*
X99223400Y-31409440D01*
X99417379Y-31409440D01*
X99465677Y-31481723D01*
X102565001Y-34581048D01*
X102565001Y-66265056D01*
X102255421Y-66264786D01*
X101801343Y-66452408D01*
X101453629Y-66799515D01*
X101265215Y-67253266D01*
X101264786Y-67744579D01*
X101452408Y-68198657D01*
X101799515Y-68546371D01*
X102125020Y-68681533D01*
X100239901Y-70566653D01*
X100000000Y-70518934D01*
X99506721Y-70617053D01*
X99088539Y-70896473D01*
X98809119Y-71314655D01*
X98735000Y-71687277D01*
X98735000Y-71354000D01*
X98679051Y-71072728D01*
X98639737Y-71013890D01*
X98519724Y-70834277D01*
X96299831Y-68614384D01*
X96603527Y-68411461D01*
X96882947Y-67993279D01*
X96932416Y-67744579D01*
X98764786Y-67744579D01*
X98952408Y-68198657D01*
X99299515Y-68546371D01*
X99753266Y-68734785D01*
X100244579Y-68735214D01*
X100698657Y-68547592D01*
X101046371Y-68200485D01*
X101234785Y-67746734D01*
X101235214Y-67255421D01*
X101047592Y-66801343D01*
X100700485Y-66453629D01*
X100246734Y-66265215D01*
X99755421Y-66264786D01*
X99301343Y-66452408D01*
X98953629Y-66799515D01*
X98765215Y-67253266D01*
X98764786Y-67744579D01*
X96932416Y-67744579D01*
X96981066Y-67500000D01*
X96882947Y-67006721D01*
X96603527Y-66588539D01*
X96185345Y-66309119D01*
X95692066Y-66211000D01*
X94307934Y-66211000D01*
X93814655Y-66309119D01*
X93396473Y-66588539D01*
X93117053Y-67006721D01*
X93018934Y-67500000D01*
X93117053Y-67993279D01*
X93396473Y-68411461D01*
X93814655Y-68690881D01*
X94307934Y-68789000D01*
X94423667Y-68789000D01*
X94480277Y-68873723D01*
X97265000Y-71658447D01*
X97265000Y-78638248D01*
X97294987Y-78789000D01*
X97320949Y-78919520D01*
X97480277Y-79157971D01*
X99250400Y-80928095D01*
X99250400Y-83590560D01*
X99223400Y-83590560D01*
X98988083Y-83634838D01*
X98771959Y-83773910D01*
X98626969Y-83986110D01*
X98575960Y-84238000D01*
X98575960Y-85762000D01*
X98620238Y-85997317D01*
X98759310Y-86213441D01*
X98971510Y-86358431D01*
X99223400Y-86409440D01*
X100747400Y-86409440D01*
X100982717Y-86365162D01*
X101198841Y-86226090D01*
X101343831Y-86013890D01*
X101376609Y-85852029D01*
X101707630Y-86183629D01*
X102220900Y-86396757D01*
X102776661Y-86397242D01*
X103290303Y-86185010D01*
X103683629Y-85792370D01*
X103896757Y-85279100D01*
X103897242Y-84723339D01*
X103685010Y-84209697D01*
X103292370Y-83816371D01*
X102779100Y-83603243D01*
X102223339Y-83602758D01*
X101709697Y-83814990D01*
X101377621Y-84146487D01*
X101350562Y-84002683D01*
X101211490Y-83786559D01*
X100999290Y-83641569D01*
X100747400Y-83590560D01*
X100720400Y-83590560D01*
X100720400Y-80623648D01*
X100664451Y-80342376D01*
X100505124Y-80103925D01*
X98735000Y-78333802D01*
X98735000Y-77744579D01*
X98764786Y-77744579D01*
X98952408Y-78198657D01*
X99299515Y-78546371D01*
X99753266Y-78734785D01*
X100244579Y-78735214D01*
X100698657Y-78547592D01*
X101046371Y-78200485D01*
X101234785Y-77746734D01*
X101234786Y-77744579D01*
X101264786Y-77744579D01*
X101452408Y-78198657D01*
X101799515Y-78546371D01*
X102253266Y-78734785D01*
X102744579Y-78735214D01*
X103198657Y-78547592D01*
X103546371Y-78200485D01*
X103734785Y-77746734D01*
X103735214Y-77255421D01*
X103547592Y-76801343D01*
X103200485Y-76453629D01*
X102746734Y-76265215D01*
X102255421Y-76264786D01*
X101801343Y-76452408D01*
X101453629Y-76799515D01*
X101265215Y-77253266D01*
X101264786Y-77744579D01*
X101234786Y-77744579D01*
X101235214Y-77255421D01*
X101047592Y-76801343D01*
X100700485Y-76453629D01*
X100246734Y-76265215D01*
X99755421Y-76264786D01*
X99301343Y-76452408D01*
X98953629Y-76799515D01*
X98765215Y-77253266D01*
X98764786Y-77744579D01*
X98735000Y-77744579D01*
X98735000Y-73312723D01*
X98809119Y-73685345D01*
X99088539Y-74103527D01*
X99506721Y-74382947D01*
X100000000Y-74481066D01*
X100493279Y-74382947D01*
X100911461Y-74103527D01*
X101190881Y-73685345D01*
X101289000Y-73192066D01*
X101289000Y-71807934D01*
X101253912Y-71631534D01*
X101790000Y-71095446D01*
X101790000Y-75000000D01*
X101844046Y-75271705D01*
X101997954Y-75502046D01*
X102228295Y-75655954D01*
X102500000Y-75710000D01*
X103864950Y-75710000D01*
X103864950Y-78500000D01*
X103913290Y-78743023D01*
X104050952Y-78949048D01*
X104256977Y-79086710D01*
X104290000Y-79093279D01*
X104290000Y-94290000D01*
X30710000Y-94290000D01*
X30710000Y-84187200D01*
X35151760Y-84187200D01*
X35151760Y-85812800D01*
X35196038Y-86048117D01*
X35335110Y-86264241D01*
X35547310Y-86409231D01*
X35799200Y-86460240D01*
X37424800Y-86460240D01*
X37660117Y-86415962D01*
X37876241Y-86276890D01*
X38021231Y-86064690D01*
X38030885Y-86017016D01*
X92162589Y-86017016D01*
X92238295Y-86264462D01*
X92780165Y-86459703D01*
X93355503Y-86432718D01*
X93761705Y-86264462D01*
X93837411Y-86017016D01*
X93000000Y-85179605D01*
X92162589Y-86017016D01*
X38030885Y-86017016D01*
X38072240Y-85812800D01*
X38072240Y-84780165D01*
X91540297Y-84780165D01*
X91567282Y-85355503D01*
X91735538Y-85761705D01*
X91982984Y-85837411D01*
X92820395Y-85000000D01*
X93179605Y-85000000D01*
X94017016Y-85837411D01*
X94264462Y-85761705D01*
X94459703Y-85219835D01*
X94432718Y-84644497D01*
X94264462Y-84238295D01*
X94017016Y-84162589D01*
X93179605Y-85000000D01*
X92820395Y-85000000D01*
X91982984Y-84162589D01*
X91735538Y-84238295D01*
X91540297Y-84780165D01*
X38072240Y-84780165D01*
X38072240Y-84187200D01*
X38033815Y-83982984D01*
X92162589Y-83982984D01*
X93000000Y-84820395D01*
X93837411Y-83982984D01*
X93761705Y-83735538D01*
X93219835Y-83540297D01*
X92644497Y-83567282D01*
X92238295Y-83735538D01*
X92162589Y-83982984D01*
X38033815Y-83982984D01*
X38027962Y-83951883D01*
X37888890Y-83735759D01*
X37676690Y-83590769D01*
X37424800Y-83539760D01*
X35799200Y-83539760D01*
X35563883Y-83584038D01*
X35347759Y-83723110D01*
X35202769Y-83935310D01*
X35151760Y-84187200D01*
X30710000Y-84187200D01*
X30710000Y-77173901D01*
X93098932Y-77173901D01*
X93222908Y-77373000D01*
X93614950Y-77373000D01*
X93614950Y-77627000D01*
X93222908Y-77627000D01*
X93098932Y-77826099D01*
X93106518Y-77875946D01*
X93344736Y-78321658D01*
X93735388Y-78642280D01*
X94219000Y-78789000D01*
X94873000Y-78789000D01*
X94873000Y-78535050D01*
X95127000Y-78535050D01*
X95127000Y-78789000D01*
X95781000Y-78789000D01*
X96264612Y-78642280D01*
X96655264Y-78321658D01*
X96893482Y-77875946D01*
X96901068Y-77826099D01*
X96777092Y-77627000D01*
X96385050Y-77627000D01*
X96385050Y-77373000D01*
X96777092Y-77373000D01*
X96901068Y-77173901D01*
X96893482Y-77124054D01*
X96655264Y-76678342D01*
X96264612Y-76357720D01*
X95781000Y-76211000D01*
X95127000Y-76211000D01*
X95127000Y-76464950D01*
X94873000Y-76464950D01*
X94873000Y-76211000D01*
X94219000Y-76211000D01*
X93735388Y-76357720D01*
X93344736Y-76678342D01*
X93106518Y-77124054D01*
X93098932Y-77173901D01*
X30710000Y-77173901D01*
X30710000Y-67800000D01*
X33152560Y-67800000D01*
X33152560Y-70200000D01*
X33196838Y-70435317D01*
X33335910Y-70651441D01*
X33548110Y-70796431D01*
X33800000Y-70847440D01*
X34194288Y-70847440D01*
X33961914Y-70943455D01*
X33445270Y-71459199D01*
X33165319Y-72133395D01*
X33164682Y-72863403D01*
X33443455Y-73538086D01*
X33959199Y-74054730D01*
X34633395Y-74334681D01*
X35363403Y-74335318D01*
X36038086Y-74056545D01*
X36094218Y-74000510D01*
X58353070Y-74000510D01*
X58353070Y-75999490D01*
X58397348Y-76234807D01*
X58536420Y-76450931D01*
X58748620Y-76595921D01*
X59000510Y-76646930D01*
X60999490Y-76646930D01*
X61234807Y-76602652D01*
X61450931Y-76463580D01*
X61595921Y-76251380D01*
X61646930Y-75999490D01*
X61646930Y-74000510D01*
X61602652Y-73765193D01*
X61463580Y-73549069D01*
X61251380Y-73404079D01*
X60999490Y-73353070D01*
X59000510Y-73353070D01*
X58765193Y-73397348D01*
X58549069Y-73536420D01*
X58404079Y-73748620D01*
X58353070Y-74000510D01*
X36094218Y-74000510D01*
X36554730Y-73540801D01*
X36834681Y-72866605D01*
X36835318Y-72136597D01*
X36708872Y-71830574D01*
X39301446Y-69238000D01*
X46072160Y-69238000D01*
X46072160Y-70762000D01*
X46116438Y-70997317D01*
X46255510Y-71213441D01*
X46467710Y-71358431D01*
X46719600Y-71409440D01*
X48243600Y-71409440D01*
X48478917Y-71365162D01*
X48695041Y-71226090D01*
X48840031Y-71013890D01*
X48891040Y-70762000D01*
X48891040Y-70276661D01*
X53602758Y-70276661D01*
X53814990Y-70790303D01*
X54207630Y-71183629D01*
X54720900Y-71396757D01*
X55276661Y-71397242D01*
X55790303Y-71185010D01*
X56183629Y-70792370D01*
X56396757Y-70279100D01*
X56397242Y-69723339D01*
X56185010Y-69209697D01*
X55792370Y-68816371D01*
X55279100Y-68603243D01*
X54723339Y-68602758D01*
X54209697Y-68814990D01*
X53816371Y-69207630D01*
X53603243Y-69720900D01*
X53602758Y-70276661D01*
X48891040Y-70276661D01*
X48891040Y-69238000D01*
X48846762Y-69002683D01*
X48707690Y-68786559D01*
X48495490Y-68641569D01*
X48243600Y-68590560D01*
X46719600Y-68590560D01*
X46484283Y-68634838D01*
X46268159Y-68773910D01*
X46123169Y-68986110D01*
X46072160Y-69238000D01*
X39301446Y-69238000D01*
X47038936Y-61500510D01*
X58350550Y-61500510D01*
X58350550Y-63499490D01*
X58394828Y-63734807D01*
X58533900Y-63950931D01*
X58746100Y-64095921D01*
X58997990Y-64146930D01*
X60996970Y-64146930D01*
X61232287Y-64102652D01*
X61448411Y-63963580D01*
X61593401Y-63751380D01*
X61644410Y-63499490D01*
X61644410Y-61500510D01*
X61600132Y-61265193D01*
X61461060Y-61049069D01*
X61248860Y-60904079D01*
X60996970Y-60853070D01*
X58997990Y-60853070D01*
X58762673Y-60897348D01*
X58546549Y-61036420D01*
X58401559Y-61248620D01*
X58350550Y-61500510D01*
X47038936Y-61500510D01*
X48804447Y-59735000D01*
X72515554Y-59735000D01*
X82300277Y-69519724D01*
X82372560Y-69568022D01*
X82372560Y-69900000D01*
X82416838Y-70135317D01*
X82555910Y-70351441D01*
X82768110Y-70496431D01*
X83020000Y-70547440D01*
X83873114Y-70547440D01*
X83155554Y-71265000D01*
X74124447Y-71265000D01*
X73242293Y-70382846D01*
X73271441Y-70364090D01*
X73416431Y-70151890D01*
X73419719Y-70135656D01*
X73842509Y-70418155D01*
X74429928Y-70535000D01*
X74490072Y-70535000D01*
X75077491Y-70418155D01*
X75575481Y-70085409D01*
X75730000Y-69854155D01*
X75884519Y-70085409D01*
X76382509Y-70418155D01*
X76969928Y-70535000D01*
X77030072Y-70535000D01*
X77617491Y-70418155D01*
X78115481Y-70085409D01*
X78448227Y-69587419D01*
X78565072Y-69000000D01*
X78448227Y-68412581D01*
X78115481Y-67914591D01*
X77617491Y-67581845D01*
X77030072Y-67465000D01*
X76969928Y-67465000D01*
X76382509Y-67581845D01*
X75884519Y-67914591D01*
X75730000Y-68145845D01*
X75575481Y-67914591D01*
X75077491Y-67581845D01*
X74490072Y-67465000D01*
X74429928Y-67465000D01*
X73842509Y-67581845D01*
X73421974Y-67862837D01*
X73284090Y-67648559D01*
X73071890Y-67503569D01*
X72820000Y-67452560D01*
X71020000Y-67452560D01*
X70784683Y-67496838D01*
X70568559Y-67635910D01*
X70423569Y-67848110D01*
X70372560Y-68100000D01*
X70372560Y-69900000D01*
X70416838Y-70135317D01*
X70555910Y-70351441D01*
X70768110Y-70496431D01*
X71020000Y-70547440D01*
X71351979Y-70547440D01*
X71400277Y-70619723D01*
X73045553Y-72265000D01*
X71844447Y-72265000D01*
X69059723Y-69480277D01*
X68987440Y-69431979D01*
X68987440Y-69240000D01*
X68943162Y-69004683D01*
X68804090Y-68788559D01*
X68591890Y-68643569D01*
X68340000Y-68592560D01*
X66820000Y-68592560D01*
X66584683Y-68636838D01*
X66368559Y-68775910D01*
X66223569Y-68988110D01*
X66186031Y-69173480D01*
X65831236Y-68818066D01*
X65318700Y-68605242D01*
X64934539Y-68604907D01*
X69392517Y-64146930D01*
X70999490Y-64146930D01*
X71234807Y-64102652D01*
X71450931Y-63963580D01*
X71595921Y-63751380D01*
X71646930Y-63499490D01*
X71646930Y-61500510D01*
X71602652Y-61265193D01*
X71463580Y-61049069D01*
X71251380Y-60904079D01*
X70999490Y-60853070D01*
X69000510Y-60853070D01*
X68765193Y-60897348D01*
X68549069Y-61036420D01*
X68404079Y-61248620D01*
X68353070Y-61500510D01*
X68353070Y-63107483D01*
X62832834Y-68627720D01*
X62778700Y-68605242D01*
X62223735Y-68604758D01*
X61710828Y-68816687D01*
X61318066Y-69208764D01*
X61105242Y-69721300D01*
X61104758Y-70276265D01*
X61316687Y-70789172D01*
X61708764Y-71181934D01*
X62221300Y-71394758D01*
X62776265Y-71395242D01*
X62832542Y-71371989D01*
X66980277Y-75519724D01*
X67184161Y-75655954D01*
X67218728Y-75679051D01*
X67500000Y-75735000D01*
X68355590Y-75735000D01*
X68355590Y-75999490D01*
X68399868Y-76234807D01*
X68538940Y-76450931D01*
X68751140Y-76595921D01*
X69003030Y-76646930D01*
X71002010Y-76646930D01*
X71237327Y-76602652D01*
X71453451Y-76463580D01*
X71598441Y-76251380D01*
X71649450Y-75999490D01*
X71649450Y-74000510D01*
X71605172Y-73765193D01*
X71585743Y-73735000D01*
X76493544Y-73735000D01*
X78278266Y-75519723D01*
X78350550Y-75568021D01*
X78350550Y-75999490D01*
X78394828Y-76234807D01*
X78533900Y-76450931D01*
X78746100Y-76595921D01*
X78997990Y-76646930D01*
X80996970Y-76646930D01*
X81232287Y-76602652D01*
X81448411Y-76463580D01*
X81593401Y-76251380D01*
X81644410Y-75999490D01*
X81644410Y-74000510D01*
X88353070Y-74000510D01*
X88353070Y-75999490D01*
X88397348Y-76234807D01*
X88536420Y-76450931D01*
X88748620Y-76595921D01*
X89000510Y-76646930D01*
X90999490Y-76646930D01*
X91234807Y-76602652D01*
X91450931Y-76463580D01*
X91595921Y-76251380D01*
X91646930Y-75999490D01*
X91646930Y-74000510D01*
X91602652Y-73765193D01*
X91463580Y-73549069D01*
X91251380Y-73404079D01*
X90999490Y-73353070D01*
X89000510Y-73353070D01*
X88765193Y-73397348D01*
X88549069Y-73536420D01*
X88404079Y-73748620D01*
X88353070Y-74000510D01*
X81644410Y-74000510D01*
X81600132Y-73765193D01*
X81461060Y-73549069D01*
X81248860Y-73404079D01*
X80996970Y-73353070D01*
X78997990Y-73353070D01*
X78762673Y-73397348D01*
X78546549Y-73536420D01*
X78476450Y-73639013D01*
X77582016Y-72744579D01*
X93764786Y-72744579D01*
X93952408Y-73198657D01*
X94299515Y-73546371D01*
X94753266Y-73734785D01*
X95244579Y-73735214D01*
X95698657Y-73547592D01*
X96046371Y-73200485D01*
X96234785Y-72746734D01*
X96235214Y-72255421D01*
X96047592Y-71801343D01*
X95700485Y-71453629D01*
X95246734Y-71265215D01*
X94755421Y-71264786D01*
X94301343Y-71452408D01*
X93953629Y-71799515D01*
X93765215Y-72253266D01*
X93764786Y-72744579D01*
X77582016Y-72744579D01*
X77572436Y-72735000D01*
X83460000Y-72735000D01*
X83741272Y-72679051D01*
X83979723Y-72519723D01*
X86041675Y-70457772D01*
X86429928Y-70535000D01*
X86490072Y-70535000D01*
X87077491Y-70418155D01*
X87575481Y-70085409D01*
X87730000Y-69854155D01*
X87884519Y-70085409D01*
X88382509Y-70418155D01*
X88969928Y-70535000D01*
X89030072Y-70535000D01*
X89617491Y-70418155D01*
X90115481Y-70085409D01*
X90448227Y-69587419D01*
X90565072Y-69000000D01*
X90448227Y-68412581D01*
X90115481Y-67914591D01*
X89617491Y-67581845D01*
X89030072Y-67465000D01*
X88969928Y-67465000D01*
X88382509Y-67581845D01*
X87884519Y-67914591D01*
X87730000Y-68145845D01*
X87575481Y-67914591D01*
X87077491Y-67581845D01*
X86490072Y-67465000D01*
X86429928Y-67465000D01*
X85842509Y-67581845D01*
X85421974Y-67862837D01*
X85284090Y-67648559D01*
X85071890Y-67503569D01*
X84820000Y-67452560D01*
X83020000Y-67452560D01*
X82784683Y-67496838D01*
X82568559Y-67635910D01*
X82538845Y-67679398D01*
X75859957Y-61000510D01*
X79350550Y-61000510D01*
X79350550Y-62999490D01*
X79394828Y-63234807D01*
X79533900Y-63450931D01*
X79746100Y-63595921D01*
X79997990Y-63646930D01*
X81996970Y-63646930D01*
X82232287Y-63602652D01*
X82448411Y-63463580D01*
X82593401Y-63251380D01*
X82644410Y-62999490D01*
X82644410Y-61000510D01*
X89353070Y-61000510D01*
X89353070Y-62999490D01*
X89397348Y-63234807D01*
X89536420Y-63450931D01*
X89748620Y-63595921D01*
X90000510Y-63646930D01*
X91999490Y-63646930D01*
X92234807Y-63602652D01*
X92450931Y-63463580D01*
X92595921Y-63251380D01*
X92646930Y-62999490D01*
X92646930Y-61120159D01*
X99099446Y-61120159D01*
X99185852Y-61376643D01*
X99759336Y-61586458D01*
X100369460Y-61560839D01*
X100814148Y-61376643D01*
X100900554Y-61120159D01*
X100000000Y-60219605D01*
X99099446Y-61120159D01*
X92646930Y-61120159D01*
X92646930Y-61000510D01*
X92602652Y-60765193D01*
X92463580Y-60549069D01*
X92251380Y-60404079D01*
X91999490Y-60353070D01*
X90000510Y-60353070D01*
X89765193Y-60397348D01*
X89549069Y-60536420D01*
X89404079Y-60748620D01*
X89353070Y-61000510D01*
X82644410Y-61000510D01*
X82600132Y-60765193D01*
X82461060Y-60549069D01*
X82248860Y-60404079D01*
X81996970Y-60353070D01*
X79997990Y-60353070D01*
X79762673Y-60397348D01*
X79546549Y-60536420D01*
X79401559Y-60748620D01*
X79350550Y-61000510D01*
X75859957Y-61000510D01*
X73339723Y-58480277D01*
X73101272Y-58320949D01*
X72820000Y-58265000D01*
X48500000Y-58265000D01*
X48218728Y-58320949D01*
X47980276Y-58480277D01*
X36847440Y-69613114D01*
X36847440Y-67800000D01*
X36803162Y-67564683D01*
X36664090Y-67348559D01*
X36451890Y-67203569D01*
X36200000Y-67152560D01*
X33800000Y-67152560D01*
X33564683Y-67196838D01*
X33348559Y-67335910D01*
X33203569Y-67548110D01*
X33152560Y-67800000D01*
X30710000Y-67800000D01*
X30710000Y-56248000D01*
X35740000Y-56248000D01*
X35740000Y-57373000D01*
X36364950Y-57373000D01*
X36364950Y-57627000D01*
X35740000Y-57627000D01*
X35740000Y-58752000D01*
X35922573Y-59415856D01*
X36345295Y-59959311D01*
X36943810Y-60299629D01*
X37099957Y-60338933D01*
X37373000Y-60221206D01*
X37373000Y-59635050D01*
X37627000Y-59635050D01*
X37627000Y-60221206D01*
X37900043Y-60338933D01*
X38056190Y-60299629D01*
X38654705Y-59959311D01*
X39077427Y-59415856D01*
X39260000Y-58752000D01*
X39260000Y-57627000D01*
X38635050Y-57627000D01*
X38635050Y-57373000D01*
X39260000Y-57373000D01*
X39260000Y-56248000D01*
X39243659Y-56188582D01*
X41615000Y-56188582D01*
X41615000Y-58811418D01*
X41758487Y-59532776D01*
X42167104Y-60144314D01*
X42778642Y-60552931D01*
X43500000Y-60696418D01*
X44221358Y-60552931D01*
X44832896Y-60144314D01*
X45241513Y-59532776D01*
X45385000Y-58811418D01*
X45385000Y-56600000D01*
X98452560Y-56600000D01*
X98452560Y-58400000D01*
X98496838Y-58635317D01*
X98635910Y-58851441D01*
X98839574Y-58990598D01*
X98805282Y-59024890D01*
X98919839Y-59139447D01*
X98663357Y-59225852D01*
X98453542Y-59799336D01*
X98479161Y-60409460D01*
X98663357Y-60854148D01*
X98919841Y-60940554D01*
X99820395Y-60040000D01*
X99806253Y-60025858D01*
X99985858Y-59846253D01*
X100000000Y-59860395D01*
X100014143Y-59846253D01*
X100193748Y-60025858D01*
X100179605Y-60040000D01*
X101080159Y-60940554D01*
X101336643Y-60854148D01*
X101546458Y-60280664D01*
X101520839Y-59670540D01*
X101336643Y-59225852D01*
X101080161Y-59139447D01*
X101194718Y-59024890D01*
X101158240Y-58988412D01*
X101351441Y-58864090D01*
X101496431Y-58651890D01*
X101547440Y-58400000D01*
X101547440Y-56600000D01*
X101503162Y-56364683D01*
X101364090Y-56148559D01*
X101151890Y-56003569D01*
X100900000Y-55952560D01*
X99100000Y-55952560D01*
X98864683Y-55996838D01*
X98648559Y-56135910D01*
X98503569Y-56348110D01*
X98452560Y-56600000D01*
X45385000Y-56600000D01*
X45385000Y-56188582D01*
X45241513Y-55467224D01*
X44832896Y-54855686D01*
X44221358Y-54447069D01*
X43500000Y-54303582D01*
X42778642Y-54447069D01*
X42167104Y-54855686D01*
X41758487Y-55467224D01*
X41615000Y-56188582D01*
X39243659Y-56188582D01*
X39077427Y-55584144D01*
X38654705Y-55040689D01*
X38056190Y-54700371D01*
X37900043Y-54661067D01*
X37627000Y-54778794D01*
X37627000Y-55364950D01*
X37373000Y-55364950D01*
X37373000Y-54778794D01*
X37099957Y-54661067D01*
X36943810Y-54700371D01*
X36345295Y-55040689D01*
X35922573Y-55584144D01*
X35740000Y-56248000D01*
X30710000Y-56248000D01*
X30710000Y-51500510D01*
X58350550Y-51500510D01*
X58350550Y-53499490D01*
X58394828Y-53734807D01*
X58533900Y-53950931D01*
X58746100Y-54095921D01*
X58997990Y-54146930D01*
X60996970Y-54146930D01*
X61232287Y-54102652D01*
X61448411Y-53963580D01*
X61593401Y-53751380D01*
X61644410Y-53499490D01*
X61644410Y-51500510D01*
X61600132Y-51265193D01*
X61461060Y-51049069D01*
X61248860Y-50904079D01*
X60996970Y-50853070D01*
X58997990Y-50853070D01*
X58762673Y-50897348D01*
X58546549Y-51036420D01*
X58401559Y-51248620D01*
X58350550Y-51500510D01*
X30710000Y-51500510D01*
X30710000Y-41300000D01*
X33152560Y-41300000D01*
X33152560Y-43700000D01*
X33196838Y-43935317D01*
X33335910Y-44151441D01*
X33548110Y-44296431D01*
X33800000Y-44347440D01*
X34194288Y-44347440D01*
X33961914Y-44443455D01*
X33445270Y-44959199D01*
X33165319Y-45633395D01*
X33164682Y-46363403D01*
X33443455Y-47038086D01*
X33959199Y-47554730D01*
X34633395Y-47834681D01*
X35363403Y-47835318D01*
X36038086Y-47556545D01*
X36554730Y-47040801D01*
X36834681Y-46366605D01*
X36835318Y-45636597D01*
X36556545Y-44961914D01*
X36040801Y-44445270D01*
X35805201Y-44347440D01*
X36200000Y-44347440D01*
X36435317Y-44303162D01*
X36536581Y-44238000D01*
X46590560Y-44238000D01*
X46590560Y-45762000D01*
X46634838Y-45997317D01*
X46773910Y-46213441D01*
X46986110Y-46358431D01*
X47238000Y-46409440D01*
X48762000Y-46409440D01*
X48997317Y-46365162D01*
X49213441Y-46226090D01*
X49358431Y-46013890D01*
X49409440Y-45762000D01*
X49409440Y-44238000D01*
X49365162Y-44002683D01*
X49226090Y-43786559D01*
X49013890Y-43641569D01*
X48762000Y-43590560D01*
X47238000Y-43590560D01*
X47002683Y-43634838D01*
X46786559Y-43773910D01*
X46641569Y-43986110D01*
X46590560Y-44238000D01*
X36536581Y-44238000D01*
X36651441Y-44164090D01*
X36796431Y-43951890D01*
X36847440Y-43700000D01*
X36847440Y-43235000D01*
X52713954Y-43235000D01*
X54144590Y-44665637D01*
X54121643Y-44720900D01*
X54121158Y-45276661D01*
X54333390Y-45790303D01*
X54726030Y-46183629D01*
X55239300Y-46396757D01*
X55795061Y-46397242D01*
X56308703Y-46185010D01*
X56702029Y-45792370D01*
X56915157Y-45279100D01*
X56915642Y-44723339D01*
X56703410Y-44209697D01*
X56310770Y-43816371D01*
X55797500Y-43603243D01*
X55241739Y-43602758D01*
X55184327Y-43626480D01*
X53538123Y-41980277D01*
X53299672Y-41820949D01*
X53018400Y-41765000D01*
X36847440Y-41765000D01*
X36847440Y-41300000D01*
X36803162Y-41064683D01*
X36664090Y-40848559D01*
X36451890Y-40703569D01*
X36200000Y-40652560D01*
X33800000Y-40652560D01*
X33564683Y-40696838D01*
X33348559Y-40835910D01*
X33203569Y-41048110D01*
X33152560Y-41300000D01*
X30710000Y-41300000D01*
X30710000Y-39460000D01*
X56805000Y-39460000D01*
X56805000Y-41000000D01*
X56854502Y-41248860D01*
X56860949Y-41281272D01*
X57020277Y-41519723D01*
X61020276Y-45519723D01*
X61092560Y-45568021D01*
X61092560Y-45760000D01*
X61136838Y-45995317D01*
X61275910Y-46211441D01*
X61488110Y-46356431D01*
X61740000Y-46407440D01*
X63260000Y-46407440D01*
X63495317Y-46363162D01*
X63711441Y-46224090D01*
X63856431Y-46011890D01*
X63893969Y-45826520D01*
X64248764Y-46181934D01*
X64761300Y-46394758D01*
X65316265Y-46395242D01*
X65829172Y-46183313D01*
X66221934Y-45791236D01*
X66309954Y-45579262D01*
X66396687Y-45789172D01*
X66788764Y-46181934D01*
X66845000Y-46205285D01*
X66845000Y-51279490D01*
X66868444Y-51397348D01*
X66900949Y-51560762D01*
X67060277Y-51799213D01*
X68280787Y-53019724D01*
X68353070Y-53068022D01*
X68353070Y-53499490D01*
X68397348Y-53734807D01*
X68536420Y-53950931D01*
X68748620Y-54095921D01*
X69000510Y-54146930D01*
X70999490Y-54146930D01*
X71234807Y-54102652D01*
X71450931Y-53963580D01*
X71595921Y-53751380D01*
X71646930Y-53499490D01*
X71646930Y-52000510D01*
X79350550Y-52000510D01*
X79350550Y-53999490D01*
X79394828Y-54234807D01*
X79533900Y-54450931D01*
X79746100Y-54595921D01*
X79997990Y-54646930D01*
X81996970Y-54646930D01*
X82232287Y-54602652D01*
X82448411Y-54463580D01*
X82593401Y-54251380D01*
X82644410Y-53999490D01*
X82644410Y-52000510D01*
X89353070Y-52000510D01*
X89353070Y-53999490D01*
X89397348Y-54234807D01*
X89536420Y-54450931D01*
X89748620Y-54595921D01*
X90000510Y-54646930D01*
X91999490Y-54646930D01*
X92234807Y-54602652D01*
X92450931Y-54463580D01*
X92595921Y-54251380D01*
X92646930Y-53999490D01*
X92646930Y-52000510D01*
X92602652Y-51765193D01*
X92463580Y-51549069D01*
X92251380Y-51404079D01*
X91999490Y-51353070D01*
X90000510Y-51353070D01*
X89765193Y-51397348D01*
X89549069Y-51536420D01*
X89404079Y-51748620D01*
X89353070Y-52000510D01*
X82644410Y-52000510D01*
X82600132Y-51765193D01*
X82461060Y-51549069D01*
X82248860Y-51404079D01*
X81996970Y-51353070D01*
X79997990Y-51353070D01*
X79762673Y-51397348D01*
X79546549Y-51536420D01*
X79401559Y-51748620D01*
X79350550Y-52000510D01*
X71646930Y-52000510D01*
X71646930Y-51500510D01*
X71602652Y-51265193D01*
X71463580Y-51049069D01*
X71251380Y-50904079D01*
X70999490Y-50853070D01*
X69000510Y-50853070D01*
X68765193Y-50897348D01*
X68549069Y-51036420D01*
X68478970Y-51139014D01*
X68315000Y-50975044D01*
X68315000Y-49000510D01*
X98353070Y-49000510D01*
X98353070Y-50999490D01*
X98397348Y-51234807D01*
X98536420Y-51450931D01*
X98748620Y-51595921D01*
X99000510Y-51646930D01*
X100999490Y-51646930D01*
X101234807Y-51602652D01*
X101450931Y-51463580D01*
X101595921Y-51251380D01*
X101646930Y-50999490D01*
X101646930Y-49000510D01*
X101602652Y-48765193D01*
X101463580Y-48549069D01*
X101251380Y-48404079D01*
X100999490Y-48353070D01*
X99000510Y-48353070D01*
X98765193Y-48397348D01*
X98549069Y-48536420D01*
X98404079Y-48748620D01*
X98353070Y-49000510D01*
X68315000Y-49000510D01*
X68315000Y-46205696D01*
X68369172Y-46183313D01*
X68761934Y-45791236D01*
X68974758Y-45278700D01*
X68975242Y-44723735D01*
X68951989Y-44667458D01*
X70519724Y-43099723D01*
X70679051Y-42861272D01*
X70707405Y-42718728D01*
X70735000Y-42580000D01*
X70735000Y-41646930D01*
X70999490Y-41646930D01*
X71234807Y-41602652D01*
X71450931Y-41463580D01*
X71595921Y-41251380D01*
X71646930Y-40999490D01*
X71646930Y-39000510D01*
X71602652Y-38765193D01*
X71463580Y-38549069D01*
X71251380Y-38404079D01*
X70999490Y-38353070D01*
X69000510Y-38353070D01*
X68765193Y-38397348D01*
X68549069Y-38536420D01*
X68404079Y-38748620D01*
X68353070Y-39000510D01*
X68353070Y-40999490D01*
X68397348Y-41234807D01*
X68536420Y-41450931D01*
X68748620Y-41595921D01*
X69000510Y-41646930D01*
X69265000Y-41646930D01*
X69265000Y-42275553D01*
X67912833Y-43627720D01*
X67858700Y-43605242D01*
X67303735Y-43604758D01*
X66790828Y-43816687D01*
X66398066Y-44208764D01*
X66310046Y-44420738D01*
X66223313Y-44210828D01*
X65831236Y-43818066D01*
X65318700Y-43605242D01*
X64763735Y-43604758D01*
X64250828Y-43816687D01*
X63894684Y-44172210D01*
X63863162Y-44004683D01*
X63724090Y-43788559D01*
X63511890Y-43643569D01*
X63260000Y-43592560D01*
X61740000Y-43592560D01*
X61504683Y-43636838D01*
X61329203Y-43749756D01*
X59226376Y-41646930D01*
X60996970Y-41646930D01*
X61232287Y-41602652D01*
X61448411Y-41463580D01*
X61593401Y-41251380D01*
X61644410Y-40999490D01*
X61644410Y-39000510D01*
X61600132Y-38765193D01*
X61461060Y-38549069D01*
X61248860Y-38404079D01*
X60996970Y-38353070D01*
X59686377Y-38353070D01*
X60304447Y-37735000D01*
X78695554Y-37735000D01*
X79262480Y-38301927D01*
X79262480Y-38353070D01*
X78997990Y-38353070D01*
X78762673Y-38397348D01*
X78546549Y-38536420D01*
X78401559Y-38748620D01*
X78350550Y-39000510D01*
X78350550Y-40999490D01*
X78394828Y-41234807D01*
X78533900Y-41450931D01*
X78746100Y-41595921D01*
X78997990Y-41646930D01*
X80996970Y-41646930D01*
X81232287Y-41602652D01*
X81448411Y-41463580D01*
X81593401Y-41251380D01*
X81644410Y-40999490D01*
X81644410Y-39000510D01*
X81600132Y-38765193D01*
X81461060Y-38549069D01*
X81248860Y-38404079D01*
X80996970Y-38353070D01*
X80732480Y-38353070D01*
X80732480Y-37997480D01*
X80676531Y-37716208D01*
X80517204Y-37477757D01*
X79519723Y-36480277D01*
X79281272Y-36320949D01*
X79000000Y-36265000D01*
X60000000Y-36265000D01*
X59718728Y-36320949D01*
X59480276Y-36480277D01*
X57020277Y-38940277D01*
X56860949Y-39178728D01*
X56805000Y-39460000D01*
X30710000Y-39460000D01*
X30710000Y-29187200D01*
X35539760Y-29187200D01*
X35539760Y-30812800D01*
X35584038Y-31048117D01*
X35723110Y-31264241D01*
X35935310Y-31409231D01*
X36187200Y-31460240D01*
X37812800Y-31460240D01*
X38048117Y-31415962D01*
X38264241Y-31276890D01*
X38409231Y-31064690D01*
X38460240Y-30812800D01*
X38460240Y-30735000D01*
X78496064Y-30735000D01*
X88280787Y-40519724D01*
X88353070Y-40568022D01*
X88353070Y-40999490D01*
X88397348Y-41234807D01*
X88536420Y-41450931D01*
X88639013Y-41521030D01*
X87895044Y-42265000D01*
X85900000Y-42265000D01*
X85618728Y-42320949D01*
X85380277Y-42480276D01*
X83480277Y-44380277D01*
X83431979Y-44452560D01*
X83100000Y-44452560D01*
X82864683Y-44496838D01*
X82648559Y-44635910D01*
X82503569Y-44848110D01*
X82452560Y-45100000D01*
X82452560Y-46900000D01*
X82496838Y-47135317D01*
X82580287Y-47265000D01*
X77846704Y-47265000D01*
X78115481Y-47085409D01*
X78448227Y-46587419D01*
X78565072Y-46000000D01*
X78448227Y-45412581D01*
X78115481Y-44914591D01*
X77617491Y-44581845D01*
X77030072Y-44465000D01*
X76969928Y-44465000D01*
X76382509Y-44581845D01*
X75884519Y-44914591D01*
X75730000Y-45145845D01*
X75575481Y-44914591D01*
X75077491Y-44581845D01*
X74490072Y-44465000D01*
X74429928Y-44465000D01*
X73842509Y-44581845D01*
X73421974Y-44862837D01*
X73284090Y-44648559D01*
X73071890Y-44503569D01*
X72820000Y-44452560D01*
X71020000Y-44452560D01*
X70784683Y-44496838D01*
X70568559Y-44635910D01*
X70423569Y-44848110D01*
X70372560Y-45100000D01*
X70372560Y-46900000D01*
X70416838Y-47135317D01*
X70555910Y-47351441D01*
X70768110Y-47496431D01*
X71020000Y-47547440D01*
X71351979Y-47547440D01*
X71400277Y-47619723D01*
X72300276Y-48519723D01*
X72344196Y-48549069D01*
X72538728Y-48679051D01*
X72820000Y-48735000D01*
X84540000Y-48735000D01*
X84821272Y-48679051D01*
X85059723Y-48519723D01*
X86121675Y-47457772D01*
X86509928Y-47535000D01*
X86570072Y-47535000D01*
X87157491Y-47418155D01*
X87655481Y-47085409D01*
X87810000Y-46854155D01*
X87964519Y-47085409D01*
X88462509Y-47418155D01*
X89049928Y-47535000D01*
X89110072Y-47535000D01*
X89697491Y-47418155D01*
X90195481Y-47085409D01*
X90528227Y-46587419D01*
X90645072Y-46000000D01*
X90528227Y-45412581D01*
X90195481Y-44914591D01*
X89697491Y-44581845D01*
X89110072Y-44465000D01*
X89049928Y-44465000D01*
X88462509Y-44581845D01*
X87964519Y-44914591D01*
X87810000Y-45145845D01*
X87655481Y-44914591D01*
X87157491Y-44581845D01*
X86570072Y-44465000D01*
X86509928Y-44465000D01*
X85922509Y-44581845D01*
X85501974Y-44862837D01*
X85364090Y-44648559D01*
X85320602Y-44618845D01*
X86204447Y-43735000D01*
X88199490Y-43735000D01*
X88480762Y-43679051D01*
X88719213Y-43519723D01*
X90519724Y-41719213D01*
X90568022Y-41646930D01*
X90999490Y-41646930D01*
X91234807Y-41602652D01*
X91450931Y-41463580D01*
X91595921Y-41251380D01*
X91646930Y-40999490D01*
X91646930Y-39000510D01*
X91646456Y-38997990D01*
X98353070Y-38997990D01*
X98353070Y-40996970D01*
X98397348Y-41232287D01*
X98536420Y-41448411D01*
X98748620Y-41593401D01*
X99000510Y-41644410D01*
X100999490Y-41644410D01*
X101234807Y-41600132D01*
X101450931Y-41461060D01*
X101595921Y-41248860D01*
X101646930Y-40996970D01*
X101646930Y-38997990D01*
X101602652Y-38762673D01*
X101463580Y-38546549D01*
X101251380Y-38401559D01*
X100999490Y-38350550D01*
X99000510Y-38350550D01*
X98765193Y-38394828D01*
X98549069Y-38533900D01*
X98404079Y-38746100D01*
X98353070Y-38997990D01*
X91646456Y-38997990D01*
X91602652Y-38765193D01*
X91463580Y-38549069D01*
X91251380Y-38404079D01*
X90999490Y-38353070D01*
X89000510Y-38353070D01*
X88765193Y-38397348D01*
X88549069Y-38536420D01*
X88478970Y-38639013D01*
X80856973Y-31017016D01*
X92550589Y-31017016D01*
X92626295Y-31264462D01*
X93168165Y-31459703D01*
X93743503Y-31432718D01*
X94149705Y-31264462D01*
X94225411Y-31017016D01*
X93388000Y-30179605D01*
X92550589Y-31017016D01*
X80856973Y-31017016D01*
X79620122Y-29780165D01*
X91928297Y-29780165D01*
X91955282Y-30355503D01*
X92123538Y-30761705D01*
X92370984Y-30837411D01*
X93208395Y-30000000D01*
X93567605Y-30000000D01*
X94405016Y-30837411D01*
X94652462Y-30761705D01*
X94847703Y-30219835D01*
X94820718Y-29644497D01*
X94652462Y-29238295D01*
X94405016Y-29162589D01*
X93567605Y-30000000D01*
X93208395Y-30000000D01*
X92370984Y-29162589D01*
X92123538Y-29238295D01*
X91928297Y-29780165D01*
X79620122Y-29780165D01*
X79320233Y-29480277D01*
X79081782Y-29320949D01*
X78800510Y-29265000D01*
X38460240Y-29265000D01*
X38460240Y-29187200D01*
X38421815Y-28982984D01*
X92550589Y-28982984D01*
X93388000Y-29820395D01*
X94225411Y-28982984D01*
X94149705Y-28735538D01*
X93607835Y-28540297D01*
X93032497Y-28567282D01*
X92626295Y-28735538D01*
X92550589Y-28982984D01*
X38421815Y-28982984D01*
X38415962Y-28951883D01*
X38276890Y-28735759D01*
X38064690Y-28590769D01*
X37812800Y-28539760D01*
X36187200Y-28539760D01*
X35951883Y-28584038D01*
X35735759Y-28723110D01*
X35590769Y-28935310D01*
X35539760Y-29187200D01*
X30710000Y-29187200D01*
X30710000Y-20710000D01*
X104290000Y-20710000D01*
X104290000Y-65906721D01*
M02*
