G04 #@! TF.FileFunction,Legend,Top*
%FSLAX46Y46*%
G04 Gerber Fmt 4.6, Leading zero omitted, Abs format (unit mm)*
G04 Created by KiCad (PCBNEW 4.0.7+dfsg1-1ubuntu2) date Sun Aug  4 16:41:20 2019*
%MOMM*%
%LPD*%
G01*
G04 APERTURE LIST*
%ADD10C,0.100000*%
%ADD11C,0.300000*%
%ADD12C,0.152400*%
%ADD13C,0.120000*%
%ADD14C,0.127000*%
%ADD15C,0.400000*%
%ADD16C,0.150000*%
%ADD17C,0.050000*%
G04 APERTURE END LIST*
D10*
D11*
X93535715Y-18678571D02*
X92821429Y-18678571D01*
X92821429Y-17178571D01*
X94035715Y-18107143D02*
X95178572Y-18107143D01*
X93535715Y-46678571D02*
X93035715Y-45964286D01*
X92678572Y-46678571D02*
X92678572Y-45178571D01*
X93250000Y-45178571D01*
X93392858Y-45250000D01*
X93464286Y-45321429D01*
X93535715Y-45464286D01*
X93535715Y-45678571D01*
X93464286Y-45821429D01*
X93392858Y-45892857D01*
X93250000Y-45964286D01*
X92678572Y-45964286D01*
X94178572Y-46107143D02*
X95321429Y-46107143D01*
X93535715Y-57678571D02*
X93035715Y-56964286D01*
X92678572Y-57678571D02*
X92678572Y-56178571D01*
X93250000Y-56178571D01*
X93392858Y-56250000D01*
X93464286Y-56321429D01*
X93535715Y-56464286D01*
X93535715Y-56678571D01*
X93464286Y-56821429D01*
X93392858Y-56892857D01*
X93250000Y-56964286D01*
X92678572Y-56964286D01*
X94178572Y-57107143D02*
X95321429Y-57107143D01*
X94750000Y-57678571D02*
X94750000Y-56535714D01*
X93535715Y-30678571D02*
X92821429Y-30678571D01*
X92821429Y-29178571D01*
X94035715Y-30107143D02*
X95178572Y-30107143D01*
X94607143Y-30678571D02*
X94607143Y-29535714D01*
X70750001Y-70892857D02*
X70964287Y-70964286D01*
X71035715Y-71035714D01*
X71107144Y-71178571D01*
X71107144Y-71392857D01*
X71035715Y-71535714D01*
X70964287Y-71607143D01*
X70821429Y-71678571D01*
X70250001Y-71678571D01*
X70250001Y-70178571D01*
X70750001Y-70178571D01*
X70892858Y-70250000D01*
X70964287Y-70321429D01*
X71035715Y-70464286D01*
X71035715Y-70607143D01*
X70964287Y-70750000D01*
X70892858Y-70821429D01*
X70750001Y-70892857D01*
X70250001Y-70892857D01*
X71750001Y-71678571D02*
X71750001Y-70178571D01*
X72107144Y-70178571D01*
X72321429Y-70250000D01*
X72464287Y-70392857D01*
X72535715Y-70535714D01*
X72607144Y-70821429D01*
X72607144Y-71035714D01*
X72535715Y-71321429D01*
X72464287Y-71464286D01*
X72321429Y-71607143D01*
X72107144Y-71678571D01*
X71750001Y-71678571D01*
X74035715Y-71678571D02*
X73178572Y-71678571D01*
X73607144Y-71678571D02*
X73607144Y-70178571D01*
X73464287Y-70392857D01*
X73321429Y-70535714D01*
X73178572Y-70607143D01*
X74535715Y-70178571D02*
X75464286Y-70178571D01*
X74964286Y-70750000D01*
X75178572Y-70750000D01*
X75321429Y-70821429D01*
X75392858Y-70892857D01*
X75464286Y-71035714D01*
X75464286Y-71392857D01*
X75392858Y-71535714D01*
X75321429Y-71607143D01*
X75178572Y-71678571D01*
X74750000Y-71678571D01*
X74607143Y-71607143D01*
X74535715Y-71535714D01*
X76178571Y-71678571D02*
X76464286Y-71678571D01*
X76607143Y-71607143D01*
X76678571Y-71535714D01*
X76821429Y-71321429D01*
X76892857Y-71035714D01*
X76892857Y-70464286D01*
X76821429Y-70321429D01*
X76750000Y-70250000D01*
X76607143Y-70178571D01*
X76321429Y-70178571D01*
X76178571Y-70250000D01*
X76107143Y-70321429D01*
X76035714Y-70464286D01*
X76035714Y-70821429D01*
X76107143Y-70964286D01*
X76178571Y-71035714D01*
X76321429Y-71107143D01*
X76607143Y-71107143D01*
X76750000Y-71035714D01*
X76821429Y-70964286D01*
X76892857Y-70821429D01*
X78464285Y-70178571D02*
X79321428Y-70178571D01*
X78892857Y-71678571D02*
X78892857Y-70178571D01*
X79821428Y-71678571D02*
X79821428Y-70178571D01*
X80464285Y-71678571D02*
X80464285Y-70892857D01*
X80392856Y-70750000D01*
X80249999Y-70678571D01*
X80035714Y-70678571D01*
X79892856Y-70750000D01*
X79821428Y-70821429D01*
X81178571Y-71678571D02*
X81178571Y-70678571D01*
X81178571Y-70178571D02*
X81107142Y-70250000D01*
X81178571Y-70321429D01*
X81249999Y-70250000D01*
X81178571Y-70178571D01*
X81178571Y-70321429D01*
X81892857Y-70678571D02*
X81892857Y-71678571D01*
X81892857Y-70821429D02*
X81964285Y-70750000D01*
X82107143Y-70678571D01*
X82321428Y-70678571D01*
X82464285Y-70750000D01*
X82535714Y-70892857D01*
X82535714Y-71678571D01*
X83892857Y-70678571D02*
X83892857Y-71892857D01*
X83821428Y-72035714D01*
X83750000Y-72107143D01*
X83607143Y-72178571D01*
X83392857Y-72178571D01*
X83250000Y-72107143D01*
X83892857Y-71607143D02*
X83750000Y-71678571D01*
X83464286Y-71678571D01*
X83321428Y-71607143D01*
X83250000Y-71535714D01*
X83178571Y-71392857D01*
X83178571Y-70964286D01*
X83250000Y-70821429D01*
X83321428Y-70750000D01*
X83464286Y-70678571D01*
X83750000Y-70678571D01*
X83892857Y-70750000D01*
X85607143Y-70678571D02*
X85964286Y-71678571D01*
X86321428Y-70678571D01*
X87535714Y-70178571D02*
X87250000Y-70178571D01*
X87107143Y-70250000D01*
X87035714Y-70321429D01*
X86892857Y-70535714D01*
X86821428Y-70821429D01*
X86821428Y-71392857D01*
X86892857Y-71535714D01*
X86964285Y-71607143D01*
X87107143Y-71678571D01*
X87392857Y-71678571D01*
X87535714Y-71607143D01*
X87607143Y-71535714D01*
X87678571Y-71392857D01*
X87678571Y-71035714D01*
X87607143Y-70892857D01*
X87535714Y-70821429D01*
X87392857Y-70750000D01*
X87107143Y-70750000D01*
X86964285Y-70821429D01*
X86892857Y-70892857D01*
X86821428Y-71035714D01*
X88321428Y-71535714D02*
X88392856Y-71607143D01*
X88321428Y-71678571D01*
X88249999Y-71607143D01*
X88321428Y-71535714D01*
X88321428Y-71678571D01*
X89321428Y-70178571D02*
X89464285Y-70178571D01*
X89607142Y-70250000D01*
X89678571Y-70321429D01*
X89750000Y-70464286D01*
X89821428Y-70750000D01*
X89821428Y-71107143D01*
X89750000Y-71392857D01*
X89678571Y-71535714D01*
X89607142Y-71607143D01*
X89464285Y-71678571D01*
X89321428Y-71678571D01*
X89178571Y-71607143D01*
X89107142Y-71535714D01*
X89035714Y-71392857D01*
X88964285Y-71107143D01*
X88964285Y-70750000D01*
X89035714Y-70464286D01*
X89107142Y-70321429D01*
X89178571Y-70250000D01*
X89321428Y-70178571D01*
D12*
X1556400Y-40000000D02*
X2826400Y-40000000D01*
X2191400Y-39365000D02*
X2191400Y-40635000D01*
X9532000Y-40000000D02*
G75*
G03X9532000Y-40000000I-3289300J0D01*
G01*
X16734200Y-62500000D02*
X18004200Y-62500000D01*
X17369200Y-61865000D02*
X17369200Y-63135000D01*
X34387200Y-62500000D02*
G75*
G03X34387200Y-62500000I-8128000J0D01*
G01*
X1556400Y-30000000D02*
X2826400Y-30000000D01*
X2191400Y-29365000D02*
X2191400Y-30635000D01*
X9532000Y-30000000D02*
G75*
G03X9532000Y-30000000I-3289300J0D01*
G01*
X16715800Y-12500000D02*
X17985800Y-12500000D01*
X17350800Y-11865000D02*
X17350800Y-13135000D01*
X34368800Y-12500000D02*
G75*
G03X34368800Y-12500000I-8128000J0D01*
G01*
D13*
X5000462Y-45740000D02*
G75*
G03X3455170Y-51290000I-462J-2990000D01*
G01*
X4999538Y-45740000D02*
G75*
G02X6544830Y-51290000I462J-2990000D01*
G01*
X7500000Y-48730000D02*
G75*
G03X7500000Y-48730000I-2500000J0D01*
G01*
X3455000Y-51290000D02*
X6545000Y-51290000D01*
D14*
X12500000Y-11500000D02*
X12500000Y-23500000D01*
X12500000Y-23500000D02*
X1500000Y-23500000D01*
X12500000Y-11500000D02*
X1500000Y-11500000D01*
X1500000Y-11500000D02*
X1500000Y-13000000D01*
X1500000Y-13000000D02*
X600000Y-13000000D01*
X1500000Y-22000000D02*
X1500000Y-23500000D01*
X600000Y-22000000D02*
X1500000Y-22000000D01*
X-200000Y-64500000D02*
X-200000Y-55500000D01*
X-200000Y-55500000D02*
X14300000Y-55500000D01*
X14300000Y-55500000D02*
X14300000Y-57350000D01*
X14300000Y-64500000D02*
X-200000Y-64500000D01*
X14300000Y-62550000D02*
X14300000Y-64500000D01*
D15*
X15700000Y-60000000D02*
G75*
G03X15700000Y-60000000I-200000J0D01*
G01*
D16*
X99100000Y-51750000D02*
X99500000Y-51750000D01*
X98000000Y-55250000D02*
X98000000Y-48250000D01*
X99100000Y-55250000D02*
X99100000Y-48250000D01*
X91900000Y-55250000D02*
X99500000Y-55250000D01*
X99500000Y-48250000D02*
X91900000Y-48250000D01*
X91900000Y-48250000D02*
X91900000Y-55250000D01*
X99100000Y-24250000D02*
X99500000Y-24250000D01*
X98000000Y-27750000D02*
X98000000Y-20750000D01*
X99100000Y-27750000D02*
X99100000Y-20750000D01*
X91900000Y-27750000D02*
X99500000Y-27750000D01*
X99500000Y-20750000D02*
X91900000Y-20750000D01*
X91900000Y-20750000D02*
X91900000Y-27750000D01*
D13*
X23240000Y-41850000D02*
X26840000Y-41850000D01*
X22715816Y-41122795D02*
G75*
G03X23240000Y-41850000I2324184J1122795D01*
G01*
X22683600Y-38901193D02*
G75*
G02X25040000Y-37400000I2356400J-1098807D01*
G01*
X27396400Y-38901193D02*
G75*
G03X25040000Y-37400000I-2356400J-1098807D01*
G01*
X27364184Y-41122795D02*
G75*
G02X26840000Y-41850000I-2324184J1122795D01*
G01*
X37880000Y-46580000D02*
X37880000Y-38340000D01*
X41370000Y-46580000D02*
X41370000Y-38340000D01*
X37880000Y-46580000D02*
X41370000Y-46580000D01*
X37880000Y-38340000D02*
X41370000Y-38340000D01*
X37880000Y-44060000D02*
X38950000Y-44060000D01*
X41050000Y-44060000D02*
X41370000Y-44060000D01*
X37880000Y-40859000D02*
X39460000Y-40859000D01*
X40540000Y-40859000D02*
X41370000Y-40859000D01*
X37880000Y-56580000D02*
X37880000Y-48340000D01*
X41370000Y-56580000D02*
X41370000Y-48340000D01*
X37880000Y-56580000D02*
X41370000Y-56580000D01*
X37880000Y-48340000D02*
X41370000Y-48340000D01*
X37880000Y-54060000D02*
X38950000Y-54060000D01*
X41050000Y-54060000D02*
X41370000Y-54060000D01*
X37880000Y-50859000D02*
X39460000Y-50859000D01*
X40540000Y-50859000D02*
X41370000Y-50859000D01*
X26760000Y-33150000D02*
X23160000Y-33150000D01*
X27284184Y-33877205D02*
G75*
G03X26760000Y-33150000I-2324184J-1122795D01*
G01*
X27316400Y-36098807D02*
G75*
G02X24960000Y-37600000I-2356400J1098807D01*
G01*
X22603600Y-36098807D02*
G75*
G03X24960000Y-37600000I2356400J1098807D01*
G01*
X22635816Y-33877205D02*
G75*
G02X23160000Y-33150000I2324184J-1122795D01*
G01*
X37880000Y-36620000D02*
X37880000Y-28380000D01*
X41370000Y-36620000D02*
X41370000Y-28380000D01*
X37880000Y-36620000D02*
X41370000Y-36620000D01*
X37880000Y-28380000D02*
X41370000Y-28380000D01*
X37880000Y-34100000D02*
X38950000Y-34100000D01*
X41050000Y-34100000D02*
X41370000Y-34100000D01*
X37880000Y-30899000D02*
X39460000Y-30899000D01*
X40540000Y-30899000D02*
X41370000Y-30899000D01*
X37880000Y-26660000D02*
X37880000Y-18420000D01*
X41370000Y-26660000D02*
X41370000Y-18420000D01*
X37880000Y-26660000D02*
X41370000Y-26660000D01*
X37880000Y-18420000D02*
X41370000Y-18420000D01*
X37880000Y-24140000D02*
X38950000Y-24140000D01*
X41050000Y-24140000D02*
X41370000Y-24140000D01*
X37880000Y-20939000D02*
X39460000Y-20939000D01*
X40540000Y-20939000D02*
X41370000Y-20939000D01*
D16*
X83300100Y-47498740D02*
X83300100Y-47298080D01*
X83300100Y-47498740D02*
X83300100Y-47699400D01*
X81699900Y-47597800D02*
X81699900Y-47699400D01*
X81699900Y-47699400D02*
X81699900Y-47298080D01*
X24998740Y-50800100D02*
X25199400Y-50800100D01*
X24998740Y-50800100D02*
X24798080Y-50800100D01*
X24899680Y-49199900D02*
X24798080Y-49199900D01*
X24798080Y-49199900D02*
X25199400Y-49199900D01*
X88300100Y-47498740D02*
X88300100Y-47298080D01*
X88300100Y-47498740D02*
X88300100Y-47699400D01*
X86699900Y-47597800D02*
X86699900Y-47699400D01*
X86699900Y-47699400D02*
X86699900Y-47298080D01*
X25000000Y-45800100D02*
X25200660Y-45800100D01*
X25000000Y-45800100D02*
X24799340Y-45800100D01*
X24900940Y-44199900D02*
X24799340Y-44199900D01*
X24799340Y-44199900D02*
X25200660Y-44199900D01*
D12*
X35163200Y-62500000D02*
X36354460Y-62500000D01*
X35798200Y-61865000D02*
X35798200Y-63135000D01*
X40814700Y-67872100D02*
X90573300Y-67872100D01*
X90573300Y-67872100D02*
X90573300Y-57127900D01*
X90573300Y-57127900D02*
X40814700Y-57127900D01*
X40814700Y-57127900D02*
X40814700Y-67872100D01*
D16*
X81699900Y-27587000D02*
X81699900Y-27787660D01*
X81699900Y-27587000D02*
X81699900Y-27386340D01*
X83300100Y-27487940D02*
X83300100Y-27386340D01*
X83300100Y-27386340D02*
X83300100Y-27787660D01*
X25000000Y-25800100D02*
X25200660Y-25800100D01*
X25000000Y-25800100D02*
X24799340Y-25800100D01*
X24900940Y-24199900D02*
X24799340Y-24199900D01*
X24799340Y-24199900D02*
X25200660Y-24199900D01*
X86699900Y-27500000D02*
X86699900Y-27700660D01*
X86699900Y-27500000D02*
X86699900Y-27299340D01*
X88300100Y-27400940D02*
X88300100Y-27299340D01*
X88300100Y-27299340D02*
X88300100Y-27700660D01*
X24998740Y-30800100D02*
X25199400Y-30800100D01*
X24998740Y-30800100D02*
X24798080Y-30800100D01*
X24899680Y-29199900D02*
X24798080Y-29199900D01*
X24798080Y-29199900D02*
X25199400Y-29199900D01*
D12*
X35163200Y-12500000D02*
X36354460Y-12500000D01*
X35798200Y-11865000D02*
X35798200Y-13135000D01*
X40814700Y-17872100D02*
X90573300Y-17872100D01*
X90573300Y-17872100D02*
X90573300Y-7127900D01*
X90573300Y-7127900D02*
X40814700Y-7127900D01*
X40814700Y-7127900D02*
X40814700Y-17872100D01*
D16*
X14199900Y-45000000D02*
X14199900Y-45200660D01*
X14199900Y-45000000D02*
X14199900Y-44799340D01*
X15800100Y-44900940D02*
X15800100Y-44799340D01*
X15800100Y-44799340D02*
X15800100Y-45200660D01*
X12857143Y-40166666D02*
X12904762Y-40214285D01*
X12952381Y-40357142D01*
X12952381Y-40452380D01*
X12904762Y-40595238D01*
X12809524Y-40690476D01*
X12714286Y-40738095D01*
X12523810Y-40785714D01*
X12380952Y-40785714D01*
X12190476Y-40738095D01*
X12095238Y-40690476D01*
X12000000Y-40595238D01*
X11952381Y-40452380D01*
X11952381Y-40357142D01*
X12000000Y-40214285D01*
X12047619Y-40166666D01*
X12952381Y-39214285D02*
X12952381Y-39785714D01*
X12952381Y-39500000D02*
X11952381Y-39500000D01*
X12095238Y-39595238D01*
X12190476Y-39690476D01*
X12238095Y-39785714D01*
X9785714Y-40738095D02*
X10452381Y-40738095D01*
X9404762Y-40976191D02*
X10119048Y-41214286D01*
X10119048Y-40595238D01*
X9452381Y-40309524D02*
X9452381Y-39642857D01*
X10452381Y-40071429D01*
X9785714Y-38833333D02*
X10452381Y-38833333D01*
X9785714Y-39261905D02*
X10309524Y-39261905D01*
X10404762Y-39214286D01*
X10452381Y-39119048D01*
X10452381Y-38976190D01*
X10404762Y-38880952D01*
X10357143Y-38833333D01*
X7500000Y-39452381D02*
X7500000Y-39690476D01*
X7261905Y-39595238D02*
X7500000Y-39690476D01*
X7738096Y-39595238D01*
X7357143Y-39880952D02*
X7500000Y-39690476D01*
X7642858Y-39880952D01*
X26092534Y-62857143D02*
X26044915Y-62904762D01*
X25902058Y-62952381D01*
X25806820Y-62952381D01*
X25663962Y-62904762D01*
X25568724Y-62809524D01*
X25521105Y-62714286D01*
X25473486Y-62523810D01*
X25473486Y-62380952D01*
X25521105Y-62190476D01*
X25568724Y-62095238D01*
X25663962Y-62000000D01*
X25806820Y-61952381D01*
X25902058Y-61952381D01*
X26044915Y-62000000D01*
X26092534Y-62047619D01*
X26473486Y-62047619D02*
X26521105Y-62000000D01*
X26616343Y-61952381D01*
X26854439Y-61952381D01*
X26949677Y-62000000D01*
X26997296Y-62047619D01*
X27044915Y-62142857D01*
X27044915Y-62238095D01*
X26997296Y-62380952D01*
X26425867Y-62952381D01*
X27044915Y-62952381D01*
X24092533Y-59547619D02*
X24140152Y-59500000D01*
X24235390Y-59452381D01*
X24473486Y-59452381D01*
X24568724Y-59500000D01*
X24616343Y-59547619D01*
X24663962Y-59642857D01*
X24663962Y-59738095D01*
X24616343Y-59880952D01*
X24044914Y-60452381D01*
X24663962Y-60452381D01*
X25044914Y-59547619D02*
X25092533Y-59500000D01*
X25187771Y-59452381D01*
X25425867Y-59452381D01*
X25521105Y-59500000D01*
X25568724Y-59547619D01*
X25616343Y-59642857D01*
X25616343Y-59738095D01*
X25568724Y-59880952D01*
X24997295Y-60452381D01*
X25616343Y-60452381D01*
X26235390Y-59452381D02*
X26330629Y-59452381D01*
X26425867Y-59500000D01*
X26473486Y-59547619D01*
X26521105Y-59642857D01*
X26568724Y-59833333D01*
X26568724Y-60071429D01*
X26521105Y-60261905D01*
X26473486Y-60357143D01*
X26425867Y-60404762D01*
X26330629Y-60452381D01*
X26235390Y-60452381D01*
X26140152Y-60404762D01*
X26092533Y-60357143D01*
X26044914Y-60261905D01*
X25997295Y-60071429D01*
X25997295Y-59833333D01*
X26044914Y-59642857D01*
X26092533Y-59547619D01*
X26140152Y-59500000D01*
X26235390Y-59452381D01*
X27187771Y-59452381D02*
X27283010Y-59452381D01*
X27378248Y-59500000D01*
X27425867Y-59547619D01*
X27473486Y-59642857D01*
X27521105Y-59833333D01*
X27521105Y-60071429D01*
X27473486Y-60261905D01*
X27425867Y-60357143D01*
X27378248Y-60404762D01*
X27283010Y-60452381D01*
X27187771Y-60452381D01*
X27092533Y-60404762D01*
X27044914Y-60357143D01*
X26997295Y-60261905D01*
X26949676Y-60071429D01*
X26949676Y-59833333D01*
X26997295Y-59642857D01*
X27044914Y-59547619D01*
X27092533Y-59500000D01*
X27187771Y-59452381D01*
X28378248Y-59785714D02*
X28378248Y-60452381D01*
X27949676Y-59785714D02*
X27949676Y-60309524D01*
X27997295Y-60404762D01*
X28092533Y-60452381D01*
X28235391Y-60452381D01*
X28330629Y-60404762D01*
X28378248Y-60357143D01*
X30018400Y-61952381D02*
X30018400Y-62190476D01*
X29780305Y-62095238D02*
X30018400Y-62190476D01*
X30256496Y-62095238D01*
X29875543Y-62380952D02*
X30018400Y-62190476D01*
X30161258Y-62380952D01*
X12842543Y-30166666D02*
X12890162Y-30214285D01*
X12937781Y-30357142D01*
X12937781Y-30452380D01*
X12890162Y-30595238D01*
X12794924Y-30690476D01*
X12699686Y-30738095D01*
X12509210Y-30785714D01*
X12366352Y-30785714D01*
X12175876Y-30738095D01*
X12080638Y-30690476D01*
X11985400Y-30595238D01*
X11937781Y-30452380D01*
X11937781Y-30357142D01*
X11985400Y-30214285D01*
X12033019Y-30166666D01*
X11937781Y-29833333D02*
X11937781Y-29214285D01*
X12318733Y-29547619D01*
X12318733Y-29404761D01*
X12366352Y-29309523D01*
X12413971Y-29261904D01*
X12509210Y-29214285D01*
X12747305Y-29214285D01*
X12842543Y-29261904D01*
X12890162Y-29309523D01*
X12937781Y-29404761D01*
X12937781Y-29690476D01*
X12890162Y-29785714D01*
X12842543Y-29833333D01*
X9771114Y-30738095D02*
X10437781Y-30738095D01*
X9390162Y-30976191D02*
X10104448Y-31214286D01*
X10104448Y-30595238D01*
X9437781Y-30309524D02*
X9437781Y-29642857D01*
X10437781Y-30071429D01*
X9771114Y-28833333D02*
X10437781Y-28833333D01*
X9771114Y-29261905D02*
X10294924Y-29261905D01*
X10390162Y-29214286D01*
X10437781Y-29119048D01*
X10437781Y-28976190D01*
X10390162Y-28880952D01*
X10342543Y-28833333D01*
X7500000Y-29452381D02*
X7500000Y-29690476D01*
X7261905Y-29595238D02*
X7500000Y-29690476D01*
X7738096Y-29595238D01*
X7357143Y-29880952D02*
X7500000Y-29690476D01*
X7642858Y-29880952D01*
X26074134Y-12857143D02*
X26026515Y-12904762D01*
X25883658Y-12952381D01*
X25788420Y-12952381D01*
X25645562Y-12904762D01*
X25550324Y-12809524D01*
X25502705Y-12714286D01*
X25455086Y-12523810D01*
X25455086Y-12380952D01*
X25502705Y-12190476D01*
X25550324Y-12095238D01*
X25645562Y-12000000D01*
X25788420Y-11952381D01*
X25883658Y-11952381D01*
X26026515Y-12000000D01*
X26074134Y-12047619D01*
X26931277Y-12285714D02*
X26931277Y-12952381D01*
X26693181Y-11904762D02*
X26455086Y-12619048D01*
X27074134Y-12619048D01*
X24074133Y-9547619D02*
X24121752Y-9500000D01*
X24216990Y-9452381D01*
X24455086Y-9452381D01*
X24550324Y-9500000D01*
X24597943Y-9547619D01*
X24645562Y-9642857D01*
X24645562Y-9738095D01*
X24597943Y-9880952D01*
X24026514Y-10452381D01*
X24645562Y-10452381D01*
X25026514Y-9547619D02*
X25074133Y-9500000D01*
X25169371Y-9452381D01*
X25407467Y-9452381D01*
X25502705Y-9500000D01*
X25550324Y-9547619D01*
X25597943Y-9642857D01*
X25597943Y-9738095D01*
X25550324Y-9880952D01*
X24978895Y-10452381D01*
X25597943Y-10452381D01*
X26216990Y-9452381D02*
X26312229Y-9452381D01*
X26407467Y-9500000D01*
X26455086Y-9547619D01*
X26502705Y-9642857D01*
X26550324Y-9833333D01*
X26550324Y-10071429D01*
X26502705Y-10261905D01*
X26455086Y-10357143D01*
X26407467Y-10404762D01*
X26312229Y-10452381D01*
X26216990Y-10452381D01*
X26121752Y-10404762D01*
X26074133Y-10357143D01*
X26026514Y-10261905D01*
X25978895Y-10071429D01*
X25978895Y-9833333D01*
X26026514Y-9642857D01*
X26074133Y-9547619D01*
X26121752Y-9500000D01*
X26216990Y-9452381D01*
X27169371Y-9452381D02*
X27264610Y-9452381D01*
X27359848Y-9500000D01*
X27407467Y-9547619D01*
X27455086Y-9642857D01*
X27502705Y-9833333D01*
X27502705Y-10071429D01*
X27455086Y-10261905D01*
X27407467Y-10357143D01*
X27359848Y-10404762D01*
X27264610Y-10452381D01*
X27169371Y-10452381D01*
X27074133Y-10404762D01*
X27026514Y-10357143D01*
X26978895Y-10261905D01*
X26931276Y-10071429D01*
X26931276Y-9833333D01*
X26978895Y-9642857D01*
X27026514Y-9547619D01*
X27074133Y-9500000D01*
X27169371Y-9452381D01*
X28359848Y-9785714D02*
X28359848Y-10452381D01*
X27931276Y-9785714D02*
X27931276Y-10309524D01*
X27978895Y-10404762D01*
X28074133Y-10452381D01*
X28216991Y-10452381D01*
X28312229Y-10404762D01*
X28359848Y-10357143D01*
X30000000Y-11952381D02*
X30000000Y-12190476D01*
X29761905Y-12095238D02*
X30000000Y-12190476D01*
X30238096Y-12095238D01*
X29857143Y-12380952D02*
X30000000Y-12190476D01*
X30142858Y-12380952D01*
X1492381Y-49468095D02*
X492381Y-49468095D01*
X492381Y-49230000D01*
X540000Y-49087142D01*
X635238Y-48991904D01*
X730476Y-48944285D01*
X920952Y-48896666D01*
X1063810Y-48896666D01*
X1254286Y-48944285D01*
X1349524Y-48991904D01*
X1444762Y-49087142D01*
X1492381Y-49230000D01*
X1492381Y-49468095D01*
X1492381Y-47944285D02*
X1492381Y-48515714D01*
X1492381Y-48230000D02*
X492381Y-48230000D01*
X635238Y-48325238D01*
X730476Y-48420476D01*
X778095Y-48515714D01*
D17*
X3706577Y-9316848D02*
X3706577Y-10031177D01*
X3658955Y-10174042D01*
X3563711Y-10269286D01*
X3420846Y-10316908D01*
X3325602Y-10316908D01*
X4706636Y-10316908D02*
X4135174Y-10316908D01*
X4420905Y-10316908D02*
X4420905Y-9316848D01*
X4325661Y-9459714D01*
X4230417Y-9554958D01*
X4135174Y-9602580D01*
X-541273Y-25304467D02*
X-64911Y-25304467D01*
X-636546Y-25590284D02*
X-303092Y-24589924D01*
X30361Y-25590284D01*
X792540Y-24923377D02*
X792540Y-25590284D01*
X363814Y-24923377D02*
X363814Y-25447375D01*
X411450Y-25542648D01*
X506723Y-25590284D01*
X649631Y-25590284D01*
X744903Y-25542648D01*
X792540Y-25495011D01*
X1697628Y-25590284D02*
X1697628Y-24589924D01*
X1697628Y-25542648D02*
X1602355Y-25590284D01*
X1411811Y-25590284D01*
X1316538Y-25542648D01*
X1268902Y-25495011D01*
X1221266Y-25399739D01*
X1221266Y-25113922D01*
X1268902Y-25018650D01*
X1316538Y-24971013D01*
X1411811Y-24923377D01*
X1602355Y-24923377D01*
X1697628Y-24971013D01*
X2173990Y-25590284D02*
X2173990Y-24923377D01*
X2173990Y-24589924D02*
X2126354Y-24637560D01*
X2173990Y-24685196D01*
X2221626Y-24637560D01*
X2173990Y-24589924D01*
X2173990Y-24685196D01*
X2793261Y-25590284D02*
X2697988Y-25542648D01*
X2650352Y-25495011D01*
X2602716Y-25399739D01*
X2602716Y-25113922D01*
X2650352Y-25018650D01*
X2697988Y-24971013D01*
X2793261Y-24923377D01*
X2936169Y-24923377D01*
X3031441Y-24971013D01*
X3079078Y-25018650D01*
X3126714Y-25113922D01*
X3126714Y-25399739D01*
X3079078Y-25495011D01*
X3031441Y-25542648D01*
X2936169Y-25590284D01*
X2793261Y-25590284D01*
X3555440Y-25209194D02*
X4317619Y-25209194D01*
X5079798Y-24589924D02*
X5079798Y-25304467D01*
X5032162Y-25447375D01*
X4936890Y-25542648D01*
X4793981Y-25590284D01*
X4698709Y-25590284D01*
X5984886Y-25590284D02*
X5984886Y-25066286D01*
X5937249Y-24971013D01*
X5841977Y-24923377D01*
X5651432Y-24923377D01*
X5556160Y-24971013D01*
X5984886Y-25542648D02*
X5889613Y-25590284D01*
X5651432Y-25590284D01*
X5556160Y-25542648D01*
X5508524Y-25447375D01*
X5508524Y-25352103D01*
X5556160Y-25256830D01*
X5651432Y-25209194D01*
X5889613Y-25209194D01*
X5984886Y-25161558D01*
X6889974Y-25542648D02*
X6794701Y-25590284D01*
X6604157Y-25590284D01*
X6508884Y-25542648D01*
X6461248Y-25495011D01*
X6413612Y-25399739D01*
X6413612Y-25113922D01*
X6461248Y-25018650D01*
X6508884Y-24971013D01*
X6604157Y-24923377D01*
X6794701Y-24923377D01*
X6889974Y-24971013D01*
X7318699Y-25590284D02*
X7318699Y-24589924D01*
X7413971Y-25209194D02*
X7699788Y-25590284D01*
X7699788Y-24923377D02*
X7318699Y-25304467D01*
X8128514Y-25209194D02*
X8890693Y-25209194D01*
X9271783Y-24589924D02*
X9891053Y-24589924D01*
X9557600Y-24971013D01*
X9700508Y-24971013D01*
X9795781Y-25018650D01*
X9843417Y-25066286D01*
X9891053Y-25161558D01*
X9891053Y-25399739D01*
X9843417Y-25495011D01*
X9795781Y-25542648D01*
X9700508Y-25590284D01*
X9414691Y-25590284D01*
X9319419Y-25542648D01*
X9271783Y-25495011D01*
X11314673Y-66223083D02*
X11314673Y-66938018D01*
X11267011Y-67081005D01*
X11171686Y-67176330D01*
X11028699Y-67223993D01*
X10933374Y-67223993D01*
X11743635Y-66318407D02*
X11791297Y-66270745D01*
X11886622Y-66223083D01*
X12124934Y-66223083D01*
X12220258Y-66270745D01*
X12267921Y-66318407D01*
X12315583Y-66413732D01*
X12315583Y-66509057D01*
X12267921Y-66652044D01*
X11695972Y-67223993D01*
X12315583Y-67223993D01*
X8246781Y-53669794D02*
X8246781Y-54384937D01*
X8199105Y-54527965D01*
X8103753Y-54623318D01*
X7960724Y-54670994D01*
X7865372Y-54670994D01*
X9152629Y-54670994D02*
X9152629Y-54146556D01*
X9104952Y-54051203D01*
X9009600Y-54003527D01*
X8818895Y-54003527D01*
X8723543Y-54051203D01*
X9152629Y-54623318D02*
X9057276Y-54670994D01*
X8818895Y-54670994D01*
X8723543Y-54623318D01*
X8675867Y-54527965D01*
X8675867Y-54432613D01*
X8723543Y-54337260D01*
X8818895Y-54289584D01*
X9057276Y-54289584D01*
X9152629Y-54241908D01*
X10058477Y-54623318D02*
X9963124Y-54670994D01*
X9772420Y-54670994D01*
X9677067Y-54623318D01*
X9629391Y-54575641D01*
X9581715Y-54480289D01*
X9581715Y-54194232D01*
X9629391Y-54098880D01*
X9677067Y-54051203D01*
X9772420Y-54003527D01*
X9963124Y-54003527D01*
X10058477Y-54051203D01*
X10487562Y-54670994D02*
X10487562Y-53669794D01*
X10582914Y-54289584D02*
X10868971Y-54670994D01*
X10868971Y-54003527D02*
X10487562Y-54384937D01*
X11298057Y-54289584D02*
X12060876Y-54289584D01*
X12537638Y-54670994D02*
X12537638Y-53669794D01*
X12776019Y-53669794D01*
X12919047Y-53717470D01*
X13014400Y-53812822D01*
X13062076Y-53908175D01*
X13109752Y-54098880D01*
X13109752Y-54241908D01*
X13062076Y-54432613D01*
X13014400Y-54527965D01*
X12919047Y-54623318D01*
X12776019Y-54670994D01*
X12537638Y-54670994D01*
X14110952Y-54575641D02*
X14063276Y-54623318D01*
X13920247Y-54670994D01*
X13824895Y-54670994D01*
X13681867Y-54623318D01*
X13586514Y-54527965D01*
X13538838Y-54432613D01*
X13491162Y-54241908D01*
X13491162Y-54098880D01*
X13538838Y-53908175D01*
X13586514Y-53812822D01*
X13681867Y-53717470D01*
X13824895Y-53669794D01*
X13920247Y-53669794D01*
X14063276Y-53717470D01*
X14110952Y-53765146D01*
D16*
X91152381Y-52392857D02*
X91152381Y-52869048D01*
X90152381Y-52869048D01*
X91104762Y-52107143D02*
X91152381Y-51964286D01*
X91152381Y-51726190D01*
X91104762Y-51630952D01*
X91057143Y-51583333D01*
X90961905Y-51535714D01*
X90866667Y-51535714D01*
X90771429Y-51583333D01*
X90723810Y-51630952D01*
X90676190Y-51726190D01*
X90628571Y-51916667D01*
X90580952Y-52011905D01*
X90533333Y-52059524D01*
X90438095Y-52107143D01*
X90342857Y-52107143D01*
X90247619Y-52059524D01*
X90200000Y-52011905D01*
X90152381Y-51916667D01*
X90152381Y-51678571D01*
X90200000Y-51535714D01*
X91152381Y-50583333D02*
X91152381Y-51154762D01*
X91152381Y-50869048D02*
X90152381Y-50869048D01*
X90295238Y-50964286D01*
X90390476Y-51059524D01*
X90438095Y-51154762D01*
X91152381Y-24892857D02*
X91152381Y-25369048D01*
X90152381Y-25369048D01*
X91104762Y-24607143D02*
X91152381Y-24464286D01*
X91152381Y-24226190D01*
X91104762Y-24130952D01*
X91057143Y-24083333D01*
X90961905Y-24035714D01*
X90866667Y-24035714D01*
X90771429Y-24083333D01*
X90723810Y-24130952D01*
X90676190Y-24226190D01*
X90628571Y-24416667D01*
X90580952Y-24511905D01*
X90533333Y-24559524D01*
X90438095Y-24607143D01*
X90342857Y-24607143D01*
X90247619Y-24559524D01*
X90200000Y-24511905D01*
X90152381Y-24416667D01*
X90152381Y-24178571D01*
X90200000Y-24035714D01*
X90247619Y-23654762D02*
X90200000Y-23607143D01*
X90152381Y-23511905D01*
X90152381Y-23273809D01*
X90200000Y-23178571D01*
X90247619Y-23130952D01*
X90342857Y-23083333D01*
X90438095Y-23083333D01*
X90580952Y-23130952D01*
X91152381Y-23702381D01*
X91152381Y-23083333D01*
X19904762Y-35547619D02*
X19809524Y-35500000D01*
X19714286Y-35404762D01*
X19571429Y-35261905D01*
X19476190Y-35214286D01*
X19380952Y-35214286D01*
X19428571Y-35452381D02*
X19333333Y-35404762D01*
X19238095Y-35309524D01*
X19190476Y-35119048D01*
X19190476Y-34785714D01*
X19238095Y-34595238D01*
X19333333Y-34500000D01*
X19428571Y-34452381D01*
X19619048Y-34452381D01*
X19714286Y-34500000D01*
X19809524Y-34595238D01*
X19857143Y-34785714D01*
X19857143Y-35119048D01*
X19809524Y-35309524D01*
X19714286Y-35404762D01*
X19619048Y-35452381D01*
X19428571Y-35452381D01*
X20809524Y-35452381D02*
X20238095Y-35452381D01*
X20523809Y-35452381D02*
X20523809Y-34452381D01*
X20428571Y-34595238D01*
X20333333Y-34690476D01*
X20238095Y-34738095D01*
X22349524Y-43242381D02*
X22349524Y-42242381D01*
X22730477Y-42242381D01*
X22825715Y-42290000D01*
X22873334Y-42337619D01*
X22920953Y-42432857D01*
X22920953Y-42575714D01*
X22873334Y-42670952D01*
X22825715Y-42718571D01*
X22730477Y-42766190D01*
X22349524Y-42766190D01*
X23349524Y-43242381D02*
X23349524Y-42242381D01*
X23920953Y-43242381D01*
X23920953Y-42242381D01*
X24349524Y-42337619D02*
X24397143Y-42290000D01*
X24492381Y-42242381D01*
X24730477Y-42242381D01*
X24825715Y-42290000D01*
X24873334Y-42337619D01*
X24920953Y-42432857D01*
X24920953Y-42528095D01*
X24873334Y-42670952D01*
X24301905Y-43242381D01*
X24920953Y-43242381D01*
X25301905Y-42337619D02*
X25349524Y-42290000D01*
X25444762Y-42242381D01*
X25682858Y-42242381D01*
X25778096Y-42290000D01*
X25825715Y-42337619D01*
X25873334Y-42432857D01*
X25873334Y-42528095D01*
X25825715Y-42670952D01*
X25254286Y-43242381D01*
X25873334Y-43242381D01*
X26254286Y-42337619D02*
X26301905Y-42290000D01*
X26397143Y-42242381D01*
X26635239Y-42242381D01*
X26730477Y-42290000D01*
X26778096Y-42337619D01*
X26825715Y-42432857D01*
X26825715Y-42528095D01*
X26778096Y-42670952D01*
X26206667Y-43242381D01*
X26825715Y-43242381D01*
X27206667Y-42337619D02*
X27254286Y-42290000D01*
X27349524Y-42242381D01*
X27587620Y-42242381D01*
X27682858Y-42290000D01*
X27730477Y-42337619D01*
X27778096Y-42432857D01*
X27778096Y-42528095D01*
X27730477Y-42670952D01*
X27159048Y-43242381D01*
X27778096Y-43242381D01*
X37427619Y-42555238D02*
X37380000Y-42650476D01*
X37284762Y-42745714D01*
X37141905Y-42888571D01*
X37094286Y-42983810D01*
X37094286Y-43079048D01*
X37332381Y-43031429D02*
X37284762Y-43126667D01*
X37189524Y-43221905D01*
X36999048Y-43269524D01*
X36665714Y-43269524D01*
X36475238Y-43221905D01*
X36380000Y-43126667D01*
X36332381Y-43031429D01*
X36332381Y-42840952D01*
X36380000Y-42745714D01*
X36475238Y-42650476D01*
X36665714Y-42602857D01*
X36999048Y-42602857D01*
X37189524Y-42650476D01*
X37284762Y-42745714D01*
X37332381Y-42840952D01*
X37332381Y-43031429D01*
X36427619Y-42221905D02*
X36380000Y-42174286D01*
X36332381Y-42079048D01*
X36332381Y-41840952D01*
X36380000Y-41745714D01*
X36427619Y-41698095D01*
X36522857Y-41650476D01*
X36618095Y-41650476D01*
X36760952Y-41698095D01*
X37332381Y-42269524D01*
X37332381Y-41650476D01*
X43198571Y-45269523D02*
X43246190Y-45126666D01*
X43293810Y-45079047D01*
X43389048Y-45031428D01*
X43531905Y-45031428D01*
X43627143Y-45079047D01*
X43674762Y-45126666D01*
X43722381Y-45221904D01*
X43722381Y-45602857D01*
X42722381Y-45602857D01*
X42722381Y-45269523D01*
X42770000Y-45174285D01*
X42817619Y-45126666D01*
X42912857Y-45079047D01*
X43008095Y-45079047D01*
X43103333Y-45126666D01*
X43150952Y-45174285D01*
X43198571Y-45269523D01*
X43198571Y-45602857D01*
X43722381Y-44602857D02*
X42722381Y-44602857D01*
X42722381Y-44364762D01*
X42770000Y-44221904D01*
X42865238Y-44126666D01*
X42960476Y-44079047D01*
X43150952Y-44031428D01*
X43293810Y-44031428D01*
X43484286Y-44079047D01*
X43579524Y-44126666D01*
X43674762Y-44221904D01*
X43722381Y-44364762D01*
X43722381Y-44602857D01*
X43722381Y-43079047D02*
X43722381Y-43650476D01*
X43722381Y-43364762D02*
X42722381Y-43364762D01*
X42865238Y-43460000D01*
X42960476Y-43555238D01*
X43008095Y-43650476D01*
X42722381Y-42745714D02*
X42722381Y-42126666D01*
X43103333Y-42460000D01*
X43103333Y-42317142D01*
X43150952Y-42221904D01*
X43198571Y-42174285D01*
X43293810Y-42126666D01*
X43531905Y-42126666D01*
X43627143Y-42174285D01*
X43674762Y-42221904D01*
X43722381Y-42317142D01*
X43722381Y-42602857D01*
X43674762Y-42698095D01*
X43627143Y-42745714D01*
X43722381Y-41650476D02*
X43722381Y-41460000D01*
X43674762Y-41364761D01*
X43627143Y-41317142D01*
X43484286Y-41221904D01*
X43293810Y-41174285D01*
X42912857Y-41174285D01*
X42817619Y-41221904D01*
X42770000Y-41269523D01*
X42722381Y-41364761D01*
X42722381Y-41555238D01*
X42770000Y-41650476D01*
X42817619Y-41698095D01*
X42912857Y-41745714D01*
X43150952Y-41745714D01*
X43246190Y-41698095D01*
X43293810Y-41650476D01*
X43341429Y-41555238D01*
X43341429Y-41364761D01*
X43293810Y-41269523D01*
X43246190Y-41221904D01*
X43150952Y-41174285D01*
X43722381Y-40221904D02*
X43722381Y-40793333D01*
X43722381Y-40507619D02*
X42722381Y-40507619D01*
X42865238Y-40602857D01*
X42960476Y-40698095D01*
X43008095Y-40793333D01*
X42722381Y-39364761D02*
X42722381Y-39555238D01*
X42770000Y-39650476D01*
X42817619Y-39698095D01*
X42960476Y-39793333D01*
X43150952Y-39840952D01*
X43531905Y-39840952D01*
X43627143Y-39793333D01*
X43674762Y-39745714D01*
X43722381Y-39650476D01*
X43722381Y-39459999D01*
X43674762Y-39364761D01*
X43627143Y-39317142D01*
X43531905Y-39269523D01*
X43293810Y-39269523D01*
X43198571Y-39317142D01*
X43150952Y-39364761D01*
X43103333Y-39459999D01*
X43103333Y-39650476D01*
X43150952Y-39745714D01*
X43198571Y-39793333D01*
X43293810Y-39840952D01*
X37427619Y-52555238D02*
X37380000Y-52650476D01*
X37284762Y-52745714D01*
X37141905Y-52888571D01*
X37094286Y-52983810D01*
X37094286Y-53079048D01*
X37332381Y-53031429D02*
X37284762Y-53126667D01*
X37189524Y-53221905D01*
X36999048Y-53269524D01*
X36665714Y-53269524D01*
X36475238Y-53221905D01*
X36380000Y-53126667D01*
X36332381Y-53031429D01*
X36332381Y-52840952D01*
X36380000Y-52745714D01*
X36475238Y-52650476D01*
X36665714Y-52602857D01*
X36999048Y-52602857D01*
X37189524Y-52650476D01*
X37284762Y-52745714D01*
X37332381Y-52840952D01*
X37332381Y-53031429D01*
X36332381Y-52269524D02*
X36332381Y-51650476D01*
X36713333Y-51983810D01*
X36713333Y-51840952D01*
X36760952Y-51745714D01*
X36808571Y-51698095D01*
X36903810Y-51650476D01*
X37141905Y-51650476D01*
X37237143Y-51698095D01*
X37284762Y-51745714D01*
X37332381Y-51840952D01*
X37332381Y-52126667D01*
X37284762Y-52221905D01*
X37237143Y-52269524D01*
X43198571Y-55269523D02*
X43246190Y-55126666D01*
X43293810Y-55079047D01*
X43389048Y-55031428D01*
X43531905Y-55031428D01*
X43627143Y-55079047D01*
X43674762Y-55126666D01*
X43722381Y-55221904D01*
X43722381Y-55602857D01*
X42722381Y-55602857D01*
X42722381Y-55269523D01*
X42770000Y-55174285D01*
X42817619Y-55126666D01*
X42912857Y-55079047D01*
X43008095Y-55079047D01*
X43103333Y-55126666D01*
X43150952Y-55174285D01*
X43198571Y-55269523D01*
X43198571Y-55602857D01*
X43722381Y-54602857D02*
X42722381Y-54602857D01*
X42722381Y-54364762D01*
X42770000Y-54221904D01*
X42865238Y-54126666D01*
X42960476Y-54079047D01*
X43150952Y-54031428D01*
X43293810Y-54031428D01*
X43484286Y-54079047D01*
X43579524Y-54126666D01*
X43674762Y-54221904D01*
X43722381Y-54364762D01*
X43722381Y-54602857D01*
X43722381Y-53079047D02*
X43722381Y-53650476D01*
X43722381Y-53364762D02*
X42722381Y-53364762D01*
X42865238Y-53460000D01*
X42960476Y-53555238D01*
X43008095Y-53650476D01*
X42722381Y-52745714D02*
X42722381Y-52126666D01*
X43103333Y-52460000D01*
X43103333Y-52317142D01*
X43150952Y-52221904D01*
X43198571Y-52174285D01*
X43293810Y-52126666D01*
X43531905Y-52126666D01*
X43627143Y-52174285D01*
X43674762Y-52221904D01*
X43722381Y-52317142D01*
X43722381Y-52602857D01*
X43674762Y-52698095D01*
X43627143Y-52745714D01*
X43722381Y-51650476D02*
X43722381Y-51460000D01*
X43674762Y-51364761D01*
X43627143Y-51317142D01*
X43484286Y-51221904D01*
X43293810Y-51174285D01*
X42912857Y-51174285D01*
X42817619Y-51221904D01*
X42770000Y-51269523D01*
X42722381Y-51364761D01*
X42722381Y-51555238D01*
X42770000Y-51650476D01*
X42817619Y-51698095D01*
X42912857Y-51745714D01*
X43150952Y-51745714D01*
X43246190Y-51698095D01*
X43293810Y-51650476D01*
X43341429Y-51555238D01*
X43341429Y-51364761D01*
X43293810Y-51269523D01*
X43246190Y-51221904D01*
X43150952Y-51174285D01*
X43722381Y-50221904D02*
X43722381Y-50793333D01*
X43722381Y-50507619D02*
X42722381Y-50507619D01*
X42865238Y-50602857D01*
X42960476Y-50698095D01*
X43008095Y-50793333D01*
X42722381Y-49364761D02*
X42722381Y-49555238D01*
X42770000Y-49650476D01*
X42817619Y-49698095D01*
X42960476Y-49793333D01*
X43150952Y-49840952D01*
X43531905Y-49840952D01*
X43627143Y-49793333D01*
X43674762Y-49745714D01*
X43722381Y-49650476D01*
X43722381Y-49459999D01*
X43674762Y-49364761D01*
X43627143Y-49317142D01*
X43531905Y-49269523D01*
X43293810Y-49269523D01*
X43198571Y-49317142D01*
X43150952Y-49364761D01*
X43103333Y-49459999D01*
X43103333Y-49650476D01*
X43150952Y-49745714D01*
X43198571Y-49793333D01*
X43293810Y-49840952D01*
X19904762Y-40547619D02*
X19809524Y-40500000D01*
X19714286Y-40404762D01*
X19571429Y-40261905D01*
X19476190Y-40214286D01*
X19380952Y-40214286D01*
X19428571Y-40452381D02*
X19333333Y-40404762D01*
X19238095Y-40309524D01*
X19190476Y-40119048D01*
X19190476Y-39785714D01*
X19238095Y-39595238D01*
X19333333Y-39500000D01*
X19428571Y-39452381D01*
X19619048Y-39452381D01*
X19714286Y-39500000D01*
X19809524Y-39595238D01*
X19857143Y-39785714D01*
X19857143Y-40119048D01*
X19809524Y-40309524D01*
X19714286Y-40404762D01*
X19619048Y-40452381D01*
X19428571Y-40452381D01*
X20714286Y-39785714D02*
X20714286Y-40452381D01*
X20476190Y-39404762D02*
X20238095Y-40119048D01*
X20857143Y-40119048D01*
X22269524Y-32662381D02*
X22269524Y-31662381D01*
X22650477Y-31662381D01*
X22745715Y-31710000D01*
X22793334Y-31757619D01*
X22840953Y-31852857D01*
X22840953Y-31995714D01*
X22793334Y-32090952D01*
X22745715Y-32138571D01*
X22650477Y-32186190D01*
X22269524Y-32186190D01*
X23269524Y-32662381D02*
X23269524Y-31662381D01*
X23840953Y-32662381D01*
X23840953Y-31662381D01*
X24269524Y-31757619D02*
X24317143Y-31710000D01*
X24412381Y-31662381D01*
X24650477Y-31662381D01*
X24745715Y-31710000D01*
X24793334Y-31757619D01*
X24840953Y-31852857D01*
X24840953Y-31948095D01*
X24793334Y-32090952D01*
X24221905Y-32662381D01*
X24840953Y-32662381D01*
X25221905Y-31757619D02*
X25269524Y-31710000D01*
X25364762Y-31662381D01*
X25602858Y-31662381D01*
X25698096Y-31710000D01*
X25745715Y-31757619D01*
X25793334Y-31852857D01*
X25793334Y-31948095D01*
X25745715Y-32090952D01*
X25174286Y-32662381D01*
X25793334Y-32662381D01*
X26174286Y-31757619D02*
X26221905Y-31710000D01*
X26317143Y-31662381D01*
X26555239Y-31662381D01*
X26650477Y-31710000D01*
X26698096Y-31757619D01*
X26745715Y-31852857D01*
X26745715Y-31948095D01*
X26698096Y-32090952D01*
X26126667Y-32662381D01*
X26745715Y-32662381D01*
X27126667Y-31757619D02*
X27174286Y-31710000D01*
X27269524Y-31662381D01*
X27507620Y-31662381D01*
X27602858Y-31710000D01*
X27650477Y-31757619D01*
X27698096Y-31852857D01*
X27698096Y-31948095D01*
X27650477Y-32090952D01*
X27079048Y-32662381D01*
X27698096Y-32662381D01*
X37427619Y-32595238D02*
X37380000Y-32690476D01*
X37284762Y-32785714D01*
X37141905Y-32928571D01*
X37094286Y-33023810D01*
X37094286Y-33119048D01*
X37332381Y-33071429D02*
X37284762Y-33166667D01*
X37189524Y-33261905D01*
X36999048Y-33309524D01*
X36665714Y-33309524D01*
X36475238Y-33261905D01*
X36380000Y-33166667D01*
X36332381Y-33071429D01*
X36332381Y-32880952D01*
X36380000Y-32785714D01*
X36475238Y-32690476D01*
X36665714Y-32642857D01*
X36999048Y-32642857D01*
X37189524Y-32690476D01*
X37284762Y-32785714D01*
X37332381Y-32880952D01*
X37332381Y-33071429D01*
X36332381Y-31738095D02*
X36332381Y-32214286D01*
X36808571Y-32261905D01*
X36760952Y-32214286D01*
X36713333Y-32119048D01*
X36713333Y-31880952D01*
X36760952Y-31785714D01*
X36808571Y-31738095D01*
X36903810Y-31690476D01*
X37141905Y-31690476D01*
X37237143Y-31738095D01*
X37284762Y-31785714D01*
X37332381Y-31880952D01*
X37332381Y-32119048D01*
X37284762Y-32214286D01*
X37237143Y-32261905D01*
X43198571Y-35309523D02*
X43246190Y-35166666D01*
X43293810Y-35119047D01*
X43389048Y-35071428D01*
X43531905Y-35071428D01*
X43627143Y-35119047D01*
X43674762Y-35166666D01*
X43722381Y-35261904D01*
X43722381Y-35642857D01*
X42722381Y-35642857D01*
X42722381Y-35309523D01*
X42770000Y-35214285D01*
X42817619Y-35166666D01*
X42912857Y-35119047D01*
X43008095Y-35119047D01*
X43103333Y-35166666D01*
X43150952Y-35214285D01*
X43198571Y-35309523D01*
X43198571Y-35642857D01*
X43722381Y-34642857D02*
X42722381Y-34642857D01*
X42722381Y-34404762D01*
X42770000Y-34261904D01*
X42865238Y-34166666D01*
X42960476Y-34119047D01*
X43150952Y-34071428D01*
X43293810Y-34071428D01*
X43484286Y-34119047D01*
X43579524Y-34166666D01*
X43674762Y-34261904D01*
X43722381Y-34404762D01*
X43722381Y-34642857D01*
X43722381Y-33119047D02*
X43722381Y-33690476D01*
X43722381Y-33404762D02*
X42722381Y-33404762D01*
X42865238Y-33500000D01*
X42960476Y-33595238D01*
X43008095Y-33690476D01*
X42722381Y-32785714D02*
X42722381Y-32166666D01*
X43103333Y-32500000D01*
X43103333Y-32357142D01*
X43150952Y-32261904D01*
X43198571Y-32214285D01*
X43293810Y-32166666D01*
X43531905Y-32166666D01*
X43627143Y-32214285D01*
X43674762Y-32261904D01*
X43722381Y-32357142D01*
X43722381Y-32642857D01*
X43674762Y-32738095D01*
X43627143Y-32785714D01*
X43722381Y-31690476D02*
X43722381Y-31500000D01*
X43674762Y-31404761D01*
X43627143Y-31357142D01*
X43484286Y-31261904D01*
X43293810Y-31214285D01*
X42912857Y-31214285D01*
X42817619Y-31261904D01*
X42770000Y-31309523D01*
X42722381Y-31404761D01*
X42722381Y-31595238D01*
X42770000Y-31690476D01*
X42817619Y-31738095D01*
X42912857Y-31785714D01*
X43150952Y-31785714D01*
X43246190Y-31738095D01*
X43293810Y-31690476D01*
X43341429Y-31595238D01*
X43341429Y-31404761D01*
X43293810Y-31309523D01*
X43246190Y-31261904D01*
X43150952Y-31214285D01*
X43722381Y-30261904D02*
X43722381Y-30833333D01*
X43722381Y-30547619D02*
X42722381Y-30547619D01*
X42865238Y-30642857D01*
X42960476Y-30738095D01*
X43008095Y-30833333D01*
X42722381Y-29404761D02*
X42722381Y-29595238D01*
X42770000Y-29690476D01*
X42817619Y-29738095D01*
X42960476Y-29833333D01*
X43150952Y-29880952D01*
X43531905Y-29880952D01*
X43627143Y-29833333D01*
X43674762Y-29785714D01*
X43722381Y-29690476D01*
X43722381Y-29499999D01*
X43674762Y-29404761D01*
X43627143Y-29357142D01*
X43531905Y-29309523D01*
X43293810Y-29309523D01*
X43198571Y-29357142D01*
X43150952Y-29404761D01*
X43103333Y-29499999D01*
X43103333Y-29690476D01*
X43150952Y-29785714D01*
X43198571Y-29833333D01*
X43293810Y-29880952D01*
X37427619Y-22635238D02*
X37380000Y-22730476D01*
X37284762Y-22825714D01*
X37141905Y-22968571D01*
X37094286Y-23063810D01*
X37094286Y-23159048D01*
X37332381Y-23111429D02*
X37284762Y-23206667D01*
X37189524Y-23301905D01*
X36999048Y-23349524D01*
X36665714Y-23349524D01*
X36475238Y-23301905D01*
X36380000Y-23206667D01*
X36332381Y-23111429D01*
X36332381Y-22920952D01*
X36380000Y-22825714D01*
X36475238Y-22730476D01*
X36665714Y-22682857D01*
X36999048Y-22682857D01*
X37189524Y-22730476D01*
X37284762Y-22825714D01*
X37332381Y-22920952D01*
X37332381Y-23111429D01*
X36332381Y-21825714D02*
X36332381Y-22016191D01*
X36380000Y-22111429D01*
X36427619Y-22159048D01*
X36570476Y-22254286D01*
X36760952Y-22301905D01*
X37141905Y-22301905D01*
X37237143Y-22254286D01*
X37284762Y-22206667D01*
X37332381Y-22111429D01*
X37332381Y-21920952D01*
X37284762Y-21825714D01*
X37237143Y-21778095D01*
X37141905Y-21730476D01*
X36903810Y-21730476D01*
X36808571Y-21778095D01*
X36760952Y-21825714D01*
X36713333Y-21920952D01*
X36713333Y-22111429D01*
X36760952Y-22206667D01*
X36808571Y-22254286D01*
X36903810Y-22301905D01*
X43198571Y-25349523D02*
X43246190Y-25206666D01*
X43293810Y-25159047D01*
X43389048Y-25111428D01*
X43531905Y-25111428D01*
X43627143Y-25159047D01*
X43674762Y-25206666D01*
X43722381Y-25301904D01*
X43722381Y-25682857D01*
X42722381Y-25682857D01*
X42722381Y-25349523D01*
X42770000Y-25254285D01*
X42817619Y-25206666D01*
X42912857Y-25159047D01*
X43008095Y-25159047D01*
X43103333Y-25206666D01*
X43150952Y-25254285D01*
X43198571Y-25349523D01*
X43198571Y-25682857D01*
X43722381Y-24682857D02*
X42722381Y-24682857D01*
X42722381Y-24444762D01*
X42770000Y-24301904D01*
X42865238Y-24206666D01*
X42960476Y-24159047D01*
X43150952Y-24111428D01*
X43293810Y-24111428D01*
X43484286Y-24159047D01*
X43579524Y-24206666D01*
X43674762Y-24301904D01*
X43722381Y-24444762D01*
X43722381Y-24682857D01*
X43722381Y-23159047D02*
X43722381Y-23730476D01*
X43722381Y-23444762D02*
X42722381Y-23444762D01*
X42865238Y-23540000D01*
X42960476Y-23635238D01*
X43008095Y-23730476D01*
X42722381Y-22825714D02*
X42722381Y-22206666D01*
X43103333Y-22540000D01*
X43103333Y-22397142D01*
X43150952Y-22301904D01*
X43198571Y-22254285D01*
X43293810Y-22206666D01*
X43531905Y-22206666D01*
X43627143Y-22254285D01*
X43674762Y-22301904D01*
X43722381Y-22397142D01*
X43722381Y-22682857D01*
X43674762Y-22778095D01*
X43627143Y-22825714D01*
X43722381Y-21730476D02*
X43722381Y-21540000D01*
X43674762Y-21444761D01*
X43627143Y-21397142D01*
X43484286Y-21301904D01*
X43293810Y-21254285D01*
X42912857Y-21254285D01*
X42817619Y-21301904D01*
X42770000Y-21349523D01*
X42722381Y-21444761D01*
X42722381Y-21635238D01*
X42770000Y-21730476D01*
X42817619Y-21778095D01*
X42912857Y-21825714D01*
X43150952Y-21825714D01*
X43246190Y-21778095D01*
X43293810Y-21730476D01*
X43341429Y-21635238D01*
X43341429Y-21444761D01*
X43293810Y-21349523D01*
X43246190Y-21301904D01*
X43150952Y-21254285D01*
X43722381Y-20301904D02*
X43722381Y-20873333D01*
X43722381Y-20587619D02*
X42722381Y-20587619D01*
X42865238Y-20682857D01*
X42960476Y-20778095D01*
X43008095Y-20873333D01*
X42722381Y-19444761D02*
X42722381Y-19635238D01*
X42770000Y-19730476D01*
X42817619Y-19778095D01*
X42960476Y-19873333D01*
X43150952Y-19920952D01*
X43531905Y-19920952D01*
X43627143Y-19873333D01*
X43674762Y-19825714D01*
X43722381Y-19730476D01*
X43722381Y-19539999D01*
X43674762Y-19444761D01*
X43627143Y-19397142D01*
X43531905Y-19349523D01*
X43293810Y-19349523D01*
X43198571Y-19397142D01*
X43150952Y-19444761D01*
X43103333Y-19539999D01*
X43103333Y-19730476D01*
X43150952Y-19825714D01*
X43198571Y-19873333D01*
X43293810Y-19920952D01*
X82952381Y-55166666D02*
X82476190Y-55500000D01*
X82952381Y-55738095D02*
X81952381Y-55738095D01*
X81952381Y-55357142D01*
X82000000Y-55261904D01*
X82047619Y-55214285D01*
X82142857Y-55166666D01*
X82285714Y-55166666D01*
X82380952Y-55214285D01*
X82428571Y-55261904D01*
X82476190Y-55357142D01*
X82476190Y-55738095D01*
X82952381Y-54214285D02*
X82952381Y-54785714D01*
X82952381Y-54500000D02*
X81952381Y-54500000D01*
X82095238Y-54595238D01*
X82190476Y-54690476D01*
X82238095Y-54785714D01*
X82952381Y-40190476D02*
X82952381Y-40761905D01*
X82952381Y-40476191D02*
X81952381Y-40476191D01*
X82095238Y-40571429D01*
X82190476Y-40666667D01*
X82238095Y-40761905D01*
X82952381Y-39238095D02*
X82952381Y-39809524D01*
X82952381Y-39523810D02*
X81952381Y-39523810D01*
X82095238Y-39619048D01*
X82190476Y-39714286D01*
X82238095Y-39809524D01*
X32333334Y-50452381D02*
X32000000Y-49976190D01*
X31761905Y-50452381D02*
X31761905Y-49452381D01*
X32142858Y-49452381D01*
X32238096Y-49500000D01*
X32285715Y-49547619D01*
X32333334Y-49642857D01*
X32333334Y-49785714D01*
X32285715Y-49880952D01*
X32238096Y-49928571D01*
X32142858Y-49976190D01*
X31761905Y-49976190D01*
X32714286Y-49547619D02*
X32761905Y-49500000D01*
X32857143Y-49452381D01*
X33095239Y-49452381D01*
X33190477Y-49500000D01*
X33238096Y-49547619D01*
X33285715Y-49642857D01*
X33285715Y-49738095D01*
X33238096Y-49880952D01*
X32666667Y-50452381D01*
X33285715Y-50452381D01*
X16738096Y-49452381D02*
X16547619Y-49452381D01*
X16452381Y-49500000D01*
X16404762Y-49547619D01*
X16309524Y-49690476D01*
X16261905Y-49880952D01*
X16261905Y-50261905D01*
X16309524Y-50357143D01*
X16357143Y-50404762D01*
X16452381Y-50452381D01*
X16642858Y-50452381D01*
X16738096Y-50404762D01*
X16785715Y-50357143D01*
X16833334Y-50261905D01*
X16833334Y-50023810D01*
X16785715Y-49928571D01*
X16738096Y-49880952D01*
X16642858Y-49833333D01*
X16452381Y-49833333D01*
X16357143Y-49880952D01*
X16309524Y-49928571D01*
X16261905Y-50023810D01*
X17214286Y-49547619D02*
X17261905Y-49500000D01*
X17357143Y-49452381D01*
X17595239Y-49452381D01*
X17690477Y-49500000D01*
X17738096Y-49547619D01*
X17785715Y-49642857D01*
X17785715Y-49738095D01*
X17738096Y-49880952D01*
X17166667Y-50452381D01*
X17785715Y-50452381D01*
X18404762Y-49452381D02*
X18500001Y-49452381D01*
X18595239Y-49500000D01*
X18642858Y-49547619D01*
X18690477Y-49642857D01*
X18738096Y-49833333D01*
X18738096Y-50071429D01*
X18690477Y-50261905D01*
X18642858Y-50357143D01*
X18595239Y-50404762D01*
X18500001Y-50452381D01*
X18404762Y-50452381D01*
X18309524Y-50404762D01*
X18261905Y-50357143D01*
X18214286Y-50261905D01*
X18166667Y-50071429D01*
X18166667Y-49833333D01*
X18214286Y-49642857D01*
X18261905Y-49547619D01*
X18309524Y-49500000D01*
X18404762Y-49452381D01*
X87952381Y-55166666D02*
X87476190Y-55500000D01*
X87952381Y-55738095D02*
X86952381Y-55738095D01*
X86952381Y-55357142D01*
X87000000Y-55261904D01*
X87047619Y-55214285D01*
X87142857Y-55166666D01*
X87285714Y-55166666D01*
X87380952Y-55214285D01*
X87428571Y-55261904D01*
X87476190Y-55357142D01*
X87476190Y-55738095D01*
X86952381Y-54833333D02*
X86952381Y-54214285D01*
X87333333Y-54547619D01*
X87333333Y-54404761D01*
X87380952Y-54309523D01*
X87428571Y-54261904D01*
X87523810Y-54214285D01*
X87761905Y-54214285D01*
X87857143Y-54261904D01*
X87904762Y-54309523D01*
X87952381Y-54404761D01*
X87952381Y-54690476D01*
X87904762Y-54785714D01*
X87857143Y-54833333D01*
X89547619Y-41404762D02*
X89500000Y-41357143D01*
X89452381Y-41261905D01*
X89452381Y-41023809D01*
X89500000Y-40928571D01*
X89547619Y-40880952D01*
X89642857Y-40833333D01*
X89738095Y-40833333D01*
X89880952Y-40880952D01*
X90452381Y-41452381D01*
X90452381Y-40833333D01*
X90357143Y-40404762D02*
X90404762Y-40357143D01*
X90452381Y-40404762D01*
X90404762Y-40452381D01*
X90357143Y-40404762D01*
X90452381Y-40404762D01*
X89547619Y-39976191D02*
X89500000Y-39928572D01*
X89452381Y-39833334D01*
X89452381Y-39595238D01*
X89500000Y-39500000D01*
X89547619Y-39452381D01*
X89642857Y-39404762D01*
X89738095Y-39404762D01*
X89880952Y-39452381D01*
X90452381Y-40023810D01*
X90452381Y-39404762D01*
X90452381Y-38976191D02*
X89452381Y-38976191D01*
X90071429Y-38880953D02*
X90452381Y-38595238D01*
X89785714Y-38595238D02*
X90166667Y-38976191D01*
X32333334Y-45452381D02*
X32000000Y-44976190D01*
X31761905Y-45452381D02*
X31761905Y-44452381D01*
X32142858Y-44452381D01*
X32238096Y-44500000D01*
X32285715Y-44547619D01*
X32333334Y-44642857D01*
X32333334Y-44785714D01*
X32285715Y-44880952D01*
X32238096Y-44928571D01*
X32142858Y-44976190D01*
X31761905Y-44976190D01*
X33190477Y-44785714D02*
X33190477Y-45452381D01*
X32952381Y-44404762D02*
X32714286Y-45119048D01*
X33333334Y-45119048D01*
X16214286Y-44452381D02*
X16833334Y-44452381D01*
X16500000Y-44833333D01*
X16642858Y-44833333D01*
X16738096Y-44880952D01*
X16785715Y-44928571D01*
X16833334Y-45023810D01*
X16833334Y-45261905D01*
X16785715Y-45357143D01*
X16738096Y-45404762D01*
X16642858Y-45452381D01*
X16357143Y-45452381D01*
X16261905Y-45404762D01*
X16214286Y-45357143D01*
X17166667Y-44452381D02*
X17785715Y-44452381D01*
X17452381Y-44833333D01*
X17595239Y-44833333D01*
X17690477Y-44880952D01*
X17738096Y-44928571D01*
X17785715Y-45023810D01*
X17785715Y-45261905D01*
X17738096Y-45357143D01*
X17690477Y-45404762D01*
X17595239Y-45452381D01*
X17309524Y-45452381D01*
X17214286Y-45404762D01*
X17166667Y-45357143D01*
X18404762Y-44452381D02*
X18500001Y-44452381D01*
X18595239Y-44500000D01*
X18642858Y-44547619D01*
X18690477Y-44642857D01*
X18738096Y-44833333D01*
X18738096Y-45071429D01*
X18690477Y-45261905D01*
X18642858Y-45357143D01*
X18595239Y-45404762D01*
X18500001Y-45452381D01*
X18404762Y-45452381D01*
X18309524Y-45404762D01*
X18261905Y-45357143D01*
X18214286Y-45261905D01*
X18166667Y-45071429D01*
X18166667Y-44833333D01*
X18214286Y-44642857D01*
X18261905Y-44547619D01*
X18309524Y-44500000D01*
X18404762Y-44452381D01*
X36221334Y-60452381D02*
X35888000Y-59976190D01*
X35649905Y-60452381D02*
X35649905Y-59452381D01*
X36030858Y-59452381D01*
X36126096Y-59500000D01*
X36173715Y-59547619D01*
X36221334Y-59642857D01*
X36221334Y-59785714D01*
X36173715Y-59880952D01*
X36126096Y-59928571D01*
X36030858Y-59976190D01*
X35649905Y-59976190D01*
X37126096Y-59452381D02*
X36649905Y-59452381D01*
X36602286Y-59928571D01*
X36649905Y-59880952D01*
X36745143Y-59833333D01*
X36983239Y-59833333D01*
X37078477Y-59880952D01*
X37126096Y-59928571D01*
X37173715Y-60023810D01*
X37173715Y-60261905D01*
X37126096Y-60357143D01*
X37078477Y-60404762D01*
X36983239Y-60452381D01*
X36745143Y-60452381D01*
X36649905Y-60404762D01*
X36602286Y-60357143D01*
X65503524Y-62952381D02*
X64932095Y-62952381D01*
X65217809Y-62952381D02*
X65217809Y-61952381D01*
X65122571Y-62095238D01*
X65027333Y-62190476D01*
X64932095Y-62238095D01*
X66360667Y-61952381D02*
X66170190Y-61952381D01*
X66074952Y-62000000D01*
X66027333Y-62047619D01*
X65932095Y-62190476D01*
X65884476Y-62380952D01*
X65884476Y-62761905D01*
X65932095Y-62857143D01*
X65979714Y-62904762D01*
X66074952Y-62952381D01*
X66265429Y-62952381D01*
X66360667Y-62904762D01*
X66408286Y-62857143D01*
X66455905Y-62761905D01*
X66455905Y-62523810D01*
X66408286Y-62428571D01*
X66360667Y-62380952D01*
X66265429Y-62333333D01*
X66074952Y-62333333D01*
X65979714Y-62380952D01*
X65932095Y-62428571D01*
X65884476Y-62523810D01*
X93888000Y-61952381D02*
X93888000Y-62190476D01*
X93649905Y-62095238D02*
X93888000Y-62190476D01*
X94126096Y-62095238D01*
X93745143Y-62380952D02*
X93888000Y-62190476D01*
X94030858Y-62380952D01*
X82952381Y-20340666D02*
X82476190Y-20674000D01*
X82952381Y-20912095D02*
X81952381Y-20912095D01*
X81952381Y-20531142D01*
X82000000Y-20435904D01*
X82047619Y-20388285D01*
X82142857Y-20340666D01*
X82285714Y-20340666D01*
X82380952Y-20388285D01*
X82428571Y-20435904D01*
X82476190Y-20531142D01*
X82476190Y-20912095D01*
X81952381Y-19483523D02*
X81952381Y-19674000D01*
X82000000Y-19769238D01*
X82047619Y-19816857D01*
X82190476Y-19912095D01*
X82380952Y-19959714D01*
X82761905Y-19959714D01*
X82857143Y-19912095D01*
X82904762Y-19864476D01*
X82952381Y-19769238D01*
X82952381Y-19578761D01*
X82904762Y-19483523D01*
X82857143Y-19435904D01*
X82761905Y-19388285D01*
X82523810Y-19388285D01*
X82428571Y-19435904D01*
X82380952Y-19483523D01*
X82333333Y-19578761D01*
X82333333Y-19769238D01*
X82380952Y-19864476D01*
X82428571Y-19912095D01*
X82523810Y-19959714D01*
X82952381Y-35190476D02*
X82952381Y-35761905D01*
X82952381Y-35476191D02*
X81952381Y-35476191D01*
X82095238Y-35571429D01*
X82190476Y-35666667D01*
X82238095Y-35761905D01*
X82952381Y-34238095D02*
X82952381Y-34809524D01*
X82952381Y-34523810D02*
X81952381Y-34523810D01*
X82095238Y-34619048D01*
X82190476Y-34714286D01*
X82238095Y-34809524D01*
X32333334Y-25452381D02*
X32000000Y-24976190D01*
X31761905Y-25452381D02*
X31761905Y-24452381D01*
X32142858Y-24452381D01*
X32238096Y-24500000D01*
X32285715Y-24547619D01*
X32333334Y-24642857D01*
X32333334Y-24785714D01*
X32285715Y-24880952D01*
X32238096Y-24928571D01*
X32142858Y-24976190D01*
X31761905Y-24976190D01*
X32666667Y-24452381D02*
X33333334Y-24452381D01*
X32904762Y-25452381D01*
X16738096Y-24452381D02*
X16547619Y-24452381D01*
X16452381Y-24500000D01*
X16404762Y-24547619D01*
X16309524Y-24690476D01*
X16261905Y-24880952D01*
X16261905Y-25261905D01*
X16309524Y-25357143D01*
X16357143Y-25404762D01*
X16452381Y-25452381D01*
X16642858Y-25452381D01*
X16738096Y-25404762D01*
X16785715Y-25357143D01*
X16833334Y-25261905D01*
X16833334Y-25023810D01*
X16785715Y-24928571D01*
X16738096Y-24880952D01*
X16642858Y-24833333D01*
X16452381Y-24833333D01*
X16357143Y-24880952D01*
X16309524Y-24928571D01*
X16261905Y-25023810D01*
X17214286Y-24547619D02*
X17261905Y-24500000D01*
X17357143Y-24452381D01*
X17595239Y-24452381D01*
X17690477Y-24500000D01*
X17738096Y-24547619D01*
X17785715Y-24642857D01*
X17785715Y-24738095D01*
X17738096Y-24880952D01*
X17166667Y-25452381D01*
X17785715Y-25452381D01*
X18404762Y-24452381D02*
X18500001Y-24452381D01*
X18595239Y-24500000D01*
X18642858Y-24547619D01*
X18690477Y-24642857D01*
X18738096Y-24833333D01*
X18738096Y-25071429D01*
X18690477Y-25261905D01*
X18642858Y-25357143D01*
X18595239Y-25404762D01*
X18500001Y-25452381D01*
X18404762Y-25452381D01*
X18309524Y-25404762D01*
X18261905Y-25357143D01*
X18214286Y-25261905D01*
X18166667Y-25071429D01*
X18166667Y-24833333D01*
X18214286Y-24642857D01*
X18261905Y-24547619D01*
X18309524Y-24500000D01*
X18404762Y-24452381D01*
X87952381Y-20166666D02*
X87476190Y-20500000D01*
X87952381Y-20738095D02*
X86952381Y-20738095D01*
X86952381Y-20357142D01*
X87000000Y-20261904D01*
X87047619Y-20214285D01*
X87142857Y-20166666D01*
X87285714Y-20166666D01*
X87380952Y-20214285D01*
X87428571Y-20261904D01*
X87476190Y-20357142D01*
X87476190Y-20738095D01*
X87380952Y-19595238D02*
X87333333Y-19690476D01*
X87285714Y-19738095D01*
X87190476Y-19785714D01*
X87142857Y-19785714D01*
X87047619Y-19738095D01*
X87000000Y-19690476D01*
X86952381Y-19595238D01*
X86952381Y-19404761D01*
X87000000Y-19309523D01*
X87047619Y-19261904D01*
X87142857Y-19214285D01*
X87190476Y-19214285D01*
X87285714Y-19261904D01*
X87333333Y-19309523D01*
X87380952Y-19404761D01*
X87380952Y-19595238D01*
X87428571Y-19690476D01*
X87476190Y-19738095D01*
X87571429Y-19785714D01*
X87761905Y-19785714D01*
X87857143Y-19738095D01*
X87904762Y-19690476D01*
X87952381Y-19595238D01*
X87952381Y-19404761D01*
X87904762Y-19309523D01*
X87857143Y-19261904D01*
X87761905Y-19214285D01*
X87571429Y-19214285D01*
X87476190Y-19261904D01*
X87428571Y-19309523D01*
X87380952Y-19404761D01*
X89547619Y-36404762D02*
X89500000Y-36357143D01*
X89452381Y-36261905D01*
X89452381Y-36023809D01*
X89500000Y-35928571D01*
X89547619Y-35880952D01*
X89642857Y-35833333D01*
X89738095Y-35833333D01*
X89880952Y-35880952D01*
X90452381Y-36452381D01*
X90452381Y-35833333D01*
X90357143Y-35404762D02*
X90404762Y-35357143D01*
X90452381Y-35404762D01*
X90404762Y-35452381D01*
X90357143Y-35404762D01*
X90452381Y-35404762D01*
X89547619Y-34976191D02*
X89500000Y-34928572D01*
X89452381Y-34833334D01*
X89452381Y-34595238D01*
X89500000Y-34500000D01*
X89547619Y-34452381D01*
X89642857Y-34404762D01*
X89738095Y-34404762D01*
X89880952Y-34452381D01*
X90452381Y-35023810D01*
X90452381Y-34404762D01*
X90452381Y-33976191D02*
X89452381Y-33976191D01*
X90071429Y-33880953D02*
X90452381Y-33595238D01*
X89785714Y-33595238D02*
X90166667Y-33976191D01*
X32332074Y-30452381D02*
X31998740Y-29976190D01*
X31760645Y-30452381D02*
X31760645Y-29452381D01*
X32141598Y-29452381D01*
X32236836Y-29500000D01*
X32284455Y-29547619D01*
X32332074Y-29642857D01*
X32332074Y-29785714D01*
X32284455Y-29880952D01*
X32236836Y-29928571D01*
X32141598Y-29976190D01*
X31760645Y-29976190D01*
X32808264Y-30452381D02*
X32998740Y-30452381D01*
X33093979Y-30404762D01*
X33141598Y-30357143D01*
X33236836Y-30214286D01*
X33284455Y-30023810D01*
X33284455Y-29642857D01*
X33236836Y-29547619D01*
X33189217Y-29500000D01*
X33093979Y-29452381D01*
X32903502Y-29452381D01*
X32808264Y-29500000D01*
X32760645Y-29547619D01*
X32713026Y-29642857D01*
X32713026Y-29880952D01*
X32760645Y-29976190D01*
X32808264Y-30023810D01*
X32903502Y-30071429D01*
X33093979Y-30071429D01*
X33189217Y-30023810D01*
X33236836Y-29976190D01*
X33284455Y-29880952D01*
X16213026Y-29452381D02*
X16832074Y-29452381D01*
X16498740Y-29833333D01*
X16641598Y-29833333D01*
X16736836Y-29880952D01*
X16784455Y-29928571D01*
X16832074Y-30023810D01*
X16832074Y-30261905D01*
X16784455Y-30357143D01*
X16736836Y-30404762D01*
X16641598Y-30452381D01*
X16355883Y-30452381D01*
X16260645Y-30404762D01*
X16213026Y-30357143D01*
X17165407Y-29452381D02*
X17784455Y-29452381D01*
X17451121Y-29833333D01*
X17593979Y-29833333D01*
X17689217Y-29880952D01*
X17736836Y-29928571D01*
X17784455Y-30023810D01*
X17784455Y-30261905D01*
X17736836Y-30357143D01*
X17689217Y-30404762D01*
X17593979Y-30452381D01*
X17308264Y-30452381D01*
X17213026Y-30404762D01*
X17165407Y-30357143D01*
X18403502Y-29452381D02*
X18498741Y-29452381D01*
X18593979Y-29500000D01*
X18641598Y-29547619D01*
X18689217Y-29642857D01*
X18736836Y-29833333D01*
X18736836Y-30071429D01*
X18689217Y-30261905D01*
X18641598Y-30357143D01*
X18593979Y-30404762D01*
X18498741Y-30452381D01*
X18403502Y-30452381D01*
X18308264Y-30404762D01*
X18260645Y-30357143D01*
X18213026Y-30261905D01*
X18165407Y-30071429D01*
X18165407Y-29833333D01*
X18213026Y-29642857D01*
X18260645Y-29547619D01*
X18308264Y-29500000D01*
X18403502Y-29452381D01*
X35745143Y-15452381D02*
X35411809Y-14976190D01*
X35173714Y-15452381D02*
X35173714Y-14452381D01*
X35554667Y-14452381D01*
X35649905Y-14500000D01*
X35697524Y-14547619D01*
X35745143Y-14642857D01*
X35745143Y-14785714D01*
X35697524Y-14880952D01*
X35649905Y-14928571D01*
X35554667Y-14976190D01*
X35173714Y-14976190D01*
X36697524Y-15452381D02*
X36126095Y-15452381D01*
X36411809Y-15452381D02*
X36411809Y-14452381D01*
X36316571Y-14595238D01*
X36221333Y-14690476D01*
X36126095Y-14738095D01*
X37316571Y-14452381D02*
X37411810Y-14452381D01*
X37507048Y-14500000D01*
X37554667Y-14547619D01*
X37602286Y-14642857D01*
X37649905Y-14833333D01*
X37649905Y-15071429D01*
X37602286Y-15261905D01*
X37554667Y-15357143D01*
X37507048Y-15404762D01*
X37411810Y-15452381D01*
X37316571Y-15452381D01*
X37221333Y-15404762D01*
X37173714Y-15357143D01*
X37126095Y-15261905D01*
X37078476Y-15071429D01*
X37078476Y-14833333D01*
X37126095Y-14642857D01*
X37173714Y-14547619D01*
X37221333Y-14500000D01*
X37316571Y-14452381D01*
X65503524Y-12952381D02*
X64932095Y-12952381D01*
X65217809Y-12952381D02*
X65217809Y-11952381D01*
X65122571Y-12095238D01*
X65027333Y-12190476D01*
X64932095Y-12238095D01*
X66360667Y-11952381D02*
X66170190Y-11952381D01*
X66074952Y-12000000D01*
X66027333Y-12047619D01*
X65932095Y-12190476D01*
X65884476Y-12380952D01*
X65884476Y-12761905D01*
X65932095Y-12857143D01*
X65979714Y-12904762D01*
X66074952Y-12952381D01*
X66265429Y-12952381D01*
X66360667Y-12904762D01*
X66408286Y-12857143D01*
X66455905Y-12761905D01*
X66455905Y-12523810D01*
X66408286Y-12428571D01*
X66360667Y-12380952D01*
X66265429Y-12333333D01*
X66074952Y-12333333D01*
X65979714Y-12380952D01*
X65932095Y-12428571D01*
X65884476Y-12523810D01*
X93888000Y-11952381D02*
X93888000Y-12190476D01*
X93649905Y-12095238D02*
X93888000Y-12190476D01*
X94126096Y-12095238D01*
X93745143Y-12380952D02*
X93888000Y-12190476D01*
X94030858Y-12380952D01*
X17952381Y-48141597D02*
X17476190Y-48474931D01*
X17952381Y-48713026D02*
X16952381Y-48713026D01*
X16952381Y-48332073D01*
X17000000Y-48236835D01*
X17047619Y-48189216D01*
X17142857Y-48141597D01*
X17285714Y-48141597D01*
X17380952Y-48189216D01*
X17428571Y-48236835D01*
X17476190Y-48332073D01*
X17476190Y-48713026D01*
X17952381Y-47189216D02*
X17952381Y-47760645D01*
X17952381Y-47474931D02*
X16952381Y-47474931D01*
X17095238Y-47570169D01*
X17190476Y-47665407D01*
X17238095Y-47760645D01*
X17952381Y-46236835D02*
X17952381Y-46808264D01*
X17952381Y-46522550D02*
X16952381Y-46522550D01*
X17095238Y-46617788D01*
X17190476Y-46713026D01*
X17238095Y-46808264D01*
X17952381Y-43093978D02*
X17952381Y-43665407D01*
X17952381Y-43379693D02*
X16952381Y-43379693D01*
X17095238Y-43474931D01*
X17190476Y-43570169D01*
X17238095Y-43665407D01*
X16952381Y-42474931D02*
X16952381Y-42379692D01*
X17000000Y-42284454D01*
X17047619Y-42236835D01*
X17142857Y-42189216D01*
X17333333Y-42141597D01*
X17571429Y-42141597D01*
X17761905Y-42189216D01*
X17857143Y-42236835D01*
X17904762Y-42284454D01*
X17952381Y-42379692D01*
X17952381Y-42474931D01*
X17904762Y-42570169D01*
X17857143Y-42617788D01*
X17761905Y-42665407D01*
X17571429Y-42713026D01*
X17333333Y-42713026D01*
X17142857Y-42665407D01*
X17047619Y-42617788D01*
X17000000Y-42570169D01*
X16952381Y-42474931D01*
X17952381Y-41713026D02*
X16952381Y-41713026D01*
X17571429Y-41617788D02*
X17952381Y-41332073D01*
X17285714Y-41332073D02*
X17666667Y-41713026D01*
M02*
