G04 #@! TF.FileFunction,Legend,Top*
%FSLAX46Y46*%
G04 Gerber Fmt 4.6, Leading zero omitted, Abs format (unit mm)*
G04 Created by KiCad (PCBNEW 4.0.7+dfsg1-1ubuntu2) date Sun Jul 21 21:14:32 2019*
%MOMM*%
%LPD*%
G01*
G04 APERTURE LIST*
%ADD10C,0.100000*%
%ADD11C,0.300000*%
%ADD12C,0.152400*%
%ADD13C,0.120000*%
%ADD14C,0.150000*%
%ADD15C,0.127000*%
%ADD16C,0.400000*%
%ADD17C,0.050000*%
G04 APERTURE END LIST*
D10*
D11*
X58678572Y-56117857D02*
X58892858Y-56189286D01*
X58964286Y-56260714D01*
X59035715Y-56403571D01*
X59035715Y-56617857D01*
X58964286Y-56760714D01*
X58892858Y-56832143D01*
X58750000Y-56903571D01*
X58178572Y-56903571D01*
X58178572Y-55403571D01*
X58678572Y-55403571D01*
X58821429Y-55475000D01*
X58892858Y-55546429D01*
X58964286Y-55689286D01*
X58964286Y-55832143D01*
X58892858Y-55975000D01*
X58821429Y-56046429D01*
X58678572Y-56117857D01*
X58178572Y-56117857D01*
X59678572Y-56903571D02*
X59678572Y-55403571D01*
X60035715Y-55403571D01*
X60250000Y-55475000D01*
X60392858Y-55617857D01*
X60464286Y-55760714D01*
X60535715Y-56046429D01*
X60535715Y-56260714D01*
X60464286Y-56546429D01*
X60392858Y-56689286D01*
X60250000Y-56832143D01*
X60035715Y-56903571D01*
X59678572Y-56903571D01*
X61964286Y-56903571D02*
X61107143Y-56903571D01*
X61535715Y-56903571D02*
X61535715Y-55403571D01*
X61392858Y-55617857D01*
X61250000Y-55760714D01*
X61107143Y-55832143D01*
X62464286Y-55403571D02*
X63392857Y-55403571D01*
X62892857Y-55975000D01*
X63107143Y-55975000D01*
X63250000Y-56046429D01*
X63321429Y-56117857D01*
X63392857Y-56260714D01*
X63392857Y-56617857D01*
X63321429Y-56760714D01*
X63250000Y-56832143D01*
X63107143Y-56903571D01*
X62678571Y-56903571D01*
X62535714Y-56832143D01*
X62464286Y-56760714D01*
X64107142Y-56903571D02*
X64392857Y-56903571D01*
X64535714Y-56832143D01*
X64607142Y-56760714D01*
X64750000Y-56546429D01*
X64821428Y-56260714D01*
X64821428Y-55689286D01*
X64750000Y-55546429D01*
X64678571Y-55475000D01*
X64535714Y-55403571D01*
X64250000Y-55403571D01*
X64107142Y-55475000D01*
X64035714Y-55546429D01*
X63964285Y-55689286D01*
X63964285Y-56046429D01*
X64035714Y-56189286D01*
X64107142Y-56260714D01*
X64250000Y-56332143D01*
X64535714Y-56332143D01*
X64678571Y-56260714D01*
X64750000Y-56189286D01*
X64821428Y-56046429D01*
X66392856Y-55403571D02*
X67249999Y-55403571D01*
X66821428Y-56903571D02*
X66821428Y-55403571D01*
X67749999Y-56903571D02*
X67749999Y-55403571D01*
X68392856Y-56903571D02*
X68392856Y-56117857D01*
X68321427Y-55975000D01*
X68178570Y-55903571D01*
X67964285Y-55903571D01*
X67821427Y-55975000D01*
X67749999Y-56046429D01*
X69107142Y-56903571D02*
X69107142Y-55903571D01*
X69107142Y-55403571D02*
X69035713Y-55475000D01*
X69107142Y-55546429D01*
X69178570Y-55475000D01*
X69107142Y-55403571D01*
X69107142Y-55546429D01*
X69821428Y-55903571D02*
X69821428Y-56903571D01*
X69821428Y-56046429D02*
X69892856Y-55975000D01*
X70035714Y-55903571D01*
X70249999Y-55903571D01*
X70392856Y-55975000D01*
X70464285Y-56117857D01*
X70464285Y-56903571D01*
X71821428Y-55903571D02*
X71821428Y-57117857D01*
X71749999Y-57260714D01*
X71678571Y-57332143D01*
X71535714Y-57403571D01*
X71321428Y-57403571D01*
X71178571Y-57332143D01*
X71821428Y-56832143D02*
X71678571Y-56903571D01*
X71392857Y-56903571D01*
X71249999Y-56832143D01*
X71178571Y-56760714D01*
X71107142Y-56617857D01*
X71107142Y-56189286D01*
X71178571Y-56046429D01*
X71249999Y-55975000D01*
X71392857Y-55903571D01*
X71678571Y-55903571D01*
X71821428Y-55975000D01*
X60035716Y-58453571D02*
X60392859Y-59453571D01*
X60750001Y-58453571D01*
X61892858Y-59382143D02*
X61750001Y-59453571D01*
X61464287Y-59453571D01*
X61321430Y-59382143D01*
X61250001Y-59239286D01*
X61250001Y-58667857D01*
X61321430Y-58525000D01*
X61464287Y-58453571D01*
X61750001Y-58453571D01*
X61892858Y-58525000D01*
X61964287Y-58667857D01*
X61964287Y-58810714D01*
X61250001Y-58953571D01*
X62607144Y-59453571D02*
X62607144Y-58453571D01*
X62607144Y-58739286D02*
X62678572Y-58596429D01*
X62750001Y-58525000D01*
X62892858Y-58453571D01*
X63035715Y-58453571D01*
X63535715Y-59310714D02*
X63607143Y-59382143D01*
X63535715Y-59453571D01*
X63464286Y-59382143D01*
X63535715Y-59310714D01*
X63535715Y-59453571D01*
X65392858Y-59453571D02*
X65392858Y-58453571D01*
X65392858Y-58739286D02*
X65464286Y-58596429D01*
X65535715Y-58525000D01*
X65678572Y-58453571D01*
X65821429Y-58453571D01*
X67035715Y-57953571D02*
X66321429Y-57953571D01*
X66250000Y-58667857D01*
X66321429Y-58596429D01*
X66464286Y-58525000D01*
X66821429Y-58525000D01*
X66964286Y-58596429D01*
X67035715Y-58667857D01*
X67107143Y-58810714D01*
X67107143Y-59167857D01*
X67035715Y-59310714D01*
X66964286Y-59382143D01*
X66821429Y-59453571D01*
X66464286Y-59453571D01*
X66321429Y-59382143D01*
X66250000Y-59310714D01*
X67750000Y-58453571D02*
X67750000Y-59953571D01*
X67750000Y-58525000D02*
X67892857Y-58453571D01*
X68178571Y-58453571D01*
X68321428Y-58525000D01*
X68392857Y-58596429D01*
X68464286Y-58739286D01*
X68464286Y-59167857D01*
X68392857Y-59310714D01*
X68321428Y-59382143D01*
X68178571Y-59453571D01*
X67892857Y-59453571D01*
X67750000Y-59382143D01*
X69392857Y-57953571D02*
X69535714Y-57953571D01*
X69678571Y-58025000D01*
X69750000Y-58096429D01*
X69821429Y-58239286D01*
X69892857Y-58525000D01*
X69892857Y-58882143D01*
X69821429Y-59167857D01*
X69750000Y-59310714D01*
X69678571Y-59382143D01*
X69535714Y-59453571D01*
X69392857Y-59453571D01*
X69250000Y-59382143D01*
X69178571Y-59310714D01*
X69107143Y-59167857D01*
X69035714Y-58882143D01*
X69035714Y-58525000D01*
X69107143Y-58239286D01*
X69178571Y-58096429D01*
X69250000Y-58025000D01*
X69392857Y-57953571D01*
D12*
X34275200Y-85000000D02*
X35466460Y-85000000D01*
X34910200Y-84365000D02*
X34910200Y-85635000D01*
X39926700Y-90372100D02*
X89685300Y-90372100D01*
X89685300Y-90372100D02*
X89685300Y-79627900D01*
X89685300Y-79627900D02*
X39926700Y-79627900D01*
X39926700Y-79627900D02*
X39926700Y-90372100D01*
X42234200Y-45000000D02*
X43504200Y-45000000D01*
X42869200Y-44365000D02*
X42869200Y-45635000D01*
X59887200Y-45000000D02*
G75*
G03X59887200Y-45000000I-8128000J0D01*
G01*
X96556400Y-85000000D02*
X97826400Y-85000000D01*
X97191400Y-84365000D02*
X97191400Y-85635000D01*
X104532000Y-85000000D02*
G75*
G03X104532000Y-85000000I-3289300J0D01*
G01*
X41715800Y-70000000D02*
X42985800Y-70000000D01*
X42350800Y-69365000D02*
X42350800Y-70635000D01*
X59368800Y-70000000D02*
G75*
G03X59368800Y-70000000I-8128000J0D01*
G01*
X96556400Y-30000000D02*
X97826400Y-30000000D01*
X97191400Y-29365000D02*
X97191400Y-30635000D01*
X104532000Y-30000000D02*
G75*
G03X104532000Y-30000000I-3289300J0D01*
G01*
X34663200Y-30000000D02*
X35854460Y-30000000D01*
X35298200Y-29365000D02*
X35298200Y-30635000D01*
X40314700Y-35372100D02*
X90073300Y-35372100D01*
X90073300Y-35372100D02*
X90073300Y-24627900D01*
X90073300Y-24627900D02*
X40314700Y-24627900D01*
X40314700Y-24627900D02*
X40314700Y-35372100D01*
D13*
X66840000Y-68150000D02*
X63240000Y-68150000D01*
X67364184Y-68877205D02*
G75*
G03X66840000Y-68150000I-2324184J-1122795D01*
G01*
X67396400Y-71098807D02*
G75*
G02X65040000Y-72600000I-2356400J1098807D01*
G01*
X62683600Y-71098807D02*
G75*
G03X65040000Y-72600000I2356400J1098807D01*
G01*
X62715816Y-68877205D02*
G75*
G02X63240000Y-68150000I2324184J-1122795D01*
G01*
X63240000Y-46850000D02*
X66840000Y-46850000D01*
X62715816Y-46122795D02*
G75*
G03X63240000Y-46850000I2324184J1122795D01*
G01*
X62683600Y-43901193D02*
G75*
G02X65040000Y-42400000I2356400J-1098807D01*
G01*
X67396400Y-43901193D02*
G75*
G03X65040000Y-42400000I-2356400J-1098807D01*
G01*
X67364184Y-46122795D02*
G75*
G02X66840000Y-46850000I-2324184J1122795D01*
G01*
X70340000Y-66880000D02*
X78580000Y-66880000D01*
X70340000Y-70370000D02*
X78580000Y-70370000D01*
X70340000Y-66880000D02*
X70340000Y-70370000D01*
X78580000Y-66880000D02*
X78580000Y-70370000D01*
X72860000Y-66880000D02*
X72860000Y-67950000D01*
X72860000Y-70050000D02*
X72860000Y-70370000D01*
X76061000Y-66880000D02*
X76061000Y-68460000D01*
X76061000Y-69540000D02*
X76061000Y-70370000D01*
X70340000Y-43880000D02*
X78580000Y-43880000D01*
X70340000Y-47370000D02*
X78580000Y-47370000D01*
X70340000Y-43880000D02*
X70340000Y-47370000D01*
X78580000Y-43880000D02*
X78580000Y-47370000D01*
X72860000Y-43880000D02*
X72860000Y-44950000D01*
X72860000Y-47050000D02*
X72860000Y-47370000D01*
X76061000Y-43880000D02*
X76061000Y-45460000D01*
X76061000Y-46540000D02*
X76061000Y-47370000D01*
X82420000Y-43880000D02*
X90660000Y-43880000D01*
X82420000Y-47370000D02*
X90660000Y-47370000D01*
X82420000Y-43880000D02*
X82420000Y-47370000D01*
X90660000Y-43880000D02*
X90660000Y-47370000D01*
X84940000Y-43880000D02*
X84940000Y-44950000D01*
X84940000Y-47050000D02*
X84940000Y-47370000D01*
X88141000Y-43880000D02*
X88141000Y-45460000D01*
X88141000Y-46540000D02*
X88141000Y-47370000D01*
X82340000Y-66880000D02*
X90580000Y-66880000D01*
X82340000Y-70370000D02*
X90580000Y-70370000D01*
X82340000Y-66880000D02*
X82340000Y-70370000D01*
X90580000Y-66880000D02*
X90580000Y-70370000D01*
X84860000Y-66880000D02*
X84860000Y-67950000D01*
X84860000Y-70050000D02*
X84860000Y-70370000D01*
X88061000Y-66880000D02*
X88061000Y-68460000D01*
X88061000Y-69540000D02*
X88061000Y-70370000D01*
D14*
X30900000Y-70750000D02*
X30500000Y-70750000D01*
X32000000Y-67250000D02*
X32000000Y-74250000D01*
X30900000Y-67250000D02*
X30900000Y-74250000D01*
X38100000Y-67250000D02*
X30500000Y-67250000D01*
X30500000Y-74250000D02*
X38100000Y-74250000D01*
X38100000Y-74250000D02*
X38100000Y-67250000D01*
X30900000Y-44250000D02*
X30500000Y-44250000D01*
X32000000Y-40750000D02*
X32000000Y-47750000D01*
X30900000Y-40750000D02*
X30900000Y-47750000D01*
X38100000Y-40750000D02*
X30500000Y-40750000D01*
X30500000Y-47750000D02*
X38100000Y-47750000D01*
X38100000Y-47750000D02*
X38100000Y-40750000D01*
D15*
X29800000Y-62000000D02*
X29800000Y-53000000D01*
X29800000Y-53000000D02*
X44300000Y-53000000D01*
X44300000Y-53000000D02*
X44300000Y-54850000D01*
X44300000Y-62000000D02*
X29800000Y-62000000D01*
X44300000Y-60050000D02*
X44300000Y-62000000D01*
D16*
X45700000Y-57500000D02*
G75*
G03X45700000Y-57500000I-200000J0D01*
G01*
D15*
X92500000Y-78500000D02*
X92500000Y-66500000D01*
X92500000Y-66500000D02*
X103500000Y-66500000D01*
X92500000Y-78500000D02*
X103500000Y-78500000D01*
X103500000Y-78500000D02*
X103500000Y-77000000D01*
X103500000Y-77000000D02*
X104400000Y-77000000D01*
X103500000Y-68000000D02*
X103500000Y-66500000D01*
X104400000Y-68000000D02*
X103500000Y-68000000D01*
D13*
X99999538Y-61760000D02*
G75*
G03X101544830Y-56210000I462J2990000D01*
G01*
X100000462Y-61760000D02*
G75*
G02X98455170Y-56210000I-462J2990000D01*
G01*
X102500000Y-58770000D02*
G75*
G03X102500000Y-58770000I-2500000J0D01*
G01*
X101545000Y-56210000D02*
X98455000Y-56210000D01*
D14*
X64998740Y-39199900D02*
X64798080Y-39199900D01*
X64998740Y-39199900D02*
X65199400Y-39199900D01*
X65097800Y-40800100D02*
X65199400Y-40800100D01*
X65199400Y-40800100D02*
X64798080Y-40800100D01*
X64998740Y-53300100D02*
X65199400Y-53300100D01*
X64998740Y-53300100D02*
X64798080Y-53300100D01*
X64899680Y-51699900D02*
X64798080Y-51699900D01*
X64798080Y-51699900D02*
X65199400Y-51699900D01*
X84998740Y-40800100D02*
X85199400Y-40800100D01*
X84998740Y-40800100D02*
X84798080Y-40800100D01*
X84899680Y-39199900D02*
X84798080Y-39199900D01*
X84798080Y-39199900D02*
X85199400Y-39199900D01*
X85998740Y-53800100D02*
X86199400Y-53800100D01*
X85998740Y-53800100D02*
X85798080Y-53800100D01*
X85899680Y-52199900D02*
X85798080Y-52199900D01*
X85798080Y-52199900D02*
X86199400Y-52199900D01*
X65001260Y-74199900D02*
X64800600Y-74199900D01*
X65001260Y-74199900D02*
X65201920Y-74199900D01*
X65100320Y-75800100D02*
X65201920Y-75800100D01*
X65201920Y-75800100D02*
X64800600Y-75800100D01*
X64998740Y-63300100D02*
X65199400Y-63300100D01*
X64998740Y-63300100D02*
X64798080Y-63300100D01*
X64899680Y-61699900D02*
X64798080Y-61699900D01*
X64798080Y-61699900D02*
X65199400Y-61699900D01*
X84998740Y-75800100D02*
X85199400Y-75800100D01*
X84998740Y-75800100D02*
X84798080Y-75800100D01*
X84899680Y-74199900D02*
X84798080Y-74199900D01*
X84798080Y-74199900D02*
X85199400Y-74199900D01*
X85998740Y-62800100D02*
X86199400Y-62800100D01*
X85998740Y-62800100D02*
X85798080Y-62800100D01*
X85899680Y-61199900D02*
X85798080Y-61199900D01*
X85798080Y-61199900D02*
X86199400Y-61199900D01*
X100800100Y-44998740D02*
X100800100Y-44798080D01*
X100800100Y-44998740D02*
X100800100Y-45199400D01*
X99199900Y-45097800D02*
X99199900Y-45199400D01*
X99199900Y-45199400D02*
X99199900Y-44798080D01*
X92357143Y-82452381D02*
X92023809Y-81976190D01*
X91785714Y-82452381D02*
X91785714Y-81452381D01*
X92166667Y-81452381D01*
X92261905Y-81500000D01*
X92309524Y-81547619D01*
X92357143Y-81642857D01*
X92357143Y-81785714D01*
X92309524Y-81880952D01*
X92261905Y-81928571D01*
X92166667Y-81976190D01*
X91785714Y-81976190D01*
X93309524Y-82452381D02*
X92738095Y-82452381D01*
X93023809Y-82452381D02*
X93023809Y-81452381D01*
X92928571Y-81595238D01*
X92833333Y-81690476D01*
X92738095Y-81738095D01*
X93928571Y-81452381D02*
X94023810Y-81452381D01*
X94119048Y-81500000D01*
X94166667Y-81547619D01*
X94214286Y-81642857D01*
X94261905Y-81833333D01*
X94261905Y-82071429D01*
X94214286Y-82261905D01*
X94166667Y-82357143D01*
X94119048Y-82404762D01*
X94023810Y-82452381D01*
X93928571Y-82452381D01*
X93833333Y-82404762D01*
X93785714Y-82357143D01*
X93738095Y-82261905D01*
X93690476Y-82071429D01*
X93690476Y-81833333D01*
X93738095Y-81642857D01*
X93785714Y-81547619D01*
X93833333Y-81500000D01*
X93928571Y-81452381D01*
X64615524Y-85452381D02*
X64044095Y-85452381D01*
X64329809Y-85452381D02*
X64329809Y-84452381D01*
X64234571Y-84595238D01*
X64139333Y-84690476D01*
X64044095Y-84738095D01*
X65472667Y-84452381D02*
X65282190Y-84452381D01*
X65186952Y-84500000D01*
X65139333Y-84547619D01*
X65044095Y-84690476D01*
X64996476Y-84880952D01*
X64996476Y-85261905D01*
X65044095Y-85357143D01*
X65091714Y-85404762D01*
X65186952Y-85452381D01*
X65377429Y-85452381D01*
X65472667Y-85404762D01*
X65520286Y-85357143D01*
X65567905Y-85261905D01*
X65567905Y-85023810D01*
X65520286Y-84928571D01*
X65472667Y-84880952D01*
X65377429Y-84833333D01*
X65186952Y-84833333D01*
X65091714Y-84880952D01*
X65044095Y-84928571D01*
X64996476Y-85023810D01*
X93000000Y-84452381D02*
X93000000Y-84690476D01*
X92761905Y-84595238D02*
X93000000Y-84690476D01*
X93238096Y-84595238D01*
X92857143Y-84880952D02*
X93000000Y-84690476D01*
X93142858Y-84880952D01*
X51592534Y-44357143D02*
X51544915Y-44404762D01*
X51402058Y-44452381D01*
X51306820Y-44452381D01*
X51163962Y-44404762D01*
X51068724Y-44309524D01*
X51021105Y-44214286D01*
X50973486Y-44023810D01*
X50973486Y-43880952D01*
X51021105Y-43690476D01*
X51068724Y-43595238D01*
X51163962Y-43500000D01*
X51306820Y-43452381D01*
X51402058Y-43452381D01*
X51544915Y-43500000D01*
X51592534Y-43547619D01*
X51973486Y-43547619D02*
X52021105Y-43500000D01*
X52116343Y-43452381D01*
X52354439Y-43452381D01*
X52449677Y-43500000D01*
X52497296Y-43547619D01*
X52544915Y-43642857D01*
X52544915Y-43738095D01*
X52497296Y-43880952D01*
X51925867Y-44452381D01*
X52544915Y-44452381D01*
X49592533Y-45547619D02*
X49640152Y-45500000D01*
X49735390Y-45452381D01*
X49973486Y-45452381D01*
X50068724Y-45500000D01*
X50116343Y-45547619D01*
X50163962Y-45642857D01*
X50163962Y-45738095D01*
X50116343Y-45880952D01*
X49544914Y-46452381D01*
X50163962Y-46452381D01*
X50544914Y-45547619D02*
X50592533Y-45500000D01*
X50687771Y-45452381D01*
X50925867Y-45452381D01*
X51021105Y-45500000D01*
X51068724Y-45547619D01*
X51116343Y-45642857D01*
X51116343Y-45738095D01*
X51068724Y-45880952D01*
X50497295Y-46452381D01*
X51116343Y-46452381D01*
X51735390Y-45452381D02*
X51830629Y-45452381D01*
X51925867Y-45500000D01*
X51973486Y-45547619D01*
X52021105Y-45642857D01*
X52068724Y-45833333D01*
X52068724Y-46071429D01*
X52021105Y-46261905D01*
X51973486Y-46357143D01*
X51925867Y-46404762D01*
X51830629Y-46452381D01*
X51735390Y-46452381D01*
X51640152Y-46404762D01*
X51592533Y-46357143D01*
X51544914Y-46261905D01*
X51497295Y-46071429D01*
X51497295Y-45833333D01*
X51544914Y-45642857D01*
X51592533Y-45547619D01*
X51640152Y-45500000D01*
X51735390Y-45452381D01*
X52687771Y-45452381D02*
X52783010Y-45452381D01*
X52878248Y-45500000D01*
X52925867Y-45547619D01*
X52973486Y-45642857D01*
X53021105Y-45833333D01*
X53021105Y-46071429D01*
X52973486Y-46261905D01*
X52925867Y-46357143D01*
X52878248Y-46404762D01*
X52783010Y-46452381D01*
X52687771Y-46452381D01*
X52592533Y-46404762D01*
X52544914Y-46357143D01*
X52497295Y-46261905D01*
X52449676Y-46071429D01*
X52449676Y-45833333D01*
X52497295Y-45642857D01*
X52544914Y-45547619D01*
X52592533Y-45500000D01*
X52687771Y-45452381D01*
X53878248Y-45785714D02*
X53878248Y-46452381D01*
X53449676Y-45785714D02*
X53449676Y-46309524D01*
X53497295Y-46404762D01*
X53592533Y-46452381D01*
X53735391Y-46452381D01*
X53830629Y-46404762D01*
X53878248Y-46357143D01*
X55518400Y-44452381D02*
X55518400Y-44690476D01*
X55280305Y-44595238D02*
X55518400Y-44690476D01*
X55756496Y-44595238D01*
X55375543Y-44880952D02*
X55518400Y-44690476D01*
X55661258Y-44880952D01*
X101076034Y-85357143D02*
X101028415Y-85404762D01*
X100885558Y-85452381D01*
X100790320Y-85452381D01*
X100647462Y-85404762D01*
X100552224Y-85309524D01*
X100504605Y-85214286D01*
X100456986Y-85023810D01*
X100456986Y-84880952D01*
X100504605Y-84690476D01*
X100552224Y-84595238D01*
X100647462Y-84500000D01*
X100790320Y-84452381D01*
X100885558Y-84452381D01*
X101028415Y-84500000D01*
X101076034Y-84547619D01*
X101409367Y-84452381D02*
X102028415Y-84452381D01*
X101695081Y-84833333D01*
X101837939Y-84833333D01*
X101933177Y-84880952D01*
X101980796Y-84928571D01*
X102028415Y-85023810D01*
X102028415Y-85261905D01*
X101980796Y-85357143D01*
X101933177Y-85404762D01*
X101837939Y-85452381D01*
X101552224Y-85452381D01*
X101456986Y-85404762D01*
X101409367Y-85357143D01*
X100504605Y-84785714D02*
X100504605Y-85452381D01*
X100266509Y-84404762D02*
X100028414Y-85119048D01*
X100647462Y-85119048D01*
X100933176Y-84452381D02*
X101599843Y-84452381D01*
X101171271Y-85452381D01*
X102409367Y-84785714D02*
X102409367Y-85452381D01*
X101980795Y-84785714D02*
X101980795Y-85309524D01*
X102028414Y-85404762D01*
X102123652Y-85452381D01*
X102266510Y-85452381D01*
X102361748Y-85404762D01*
X102409367Y-85357143D01*
X102500000Y-84452381D02*
X102500000Y-84690476D01*
X102261905Y-84595238D02*
X102500000Y-84690476D01*
X102738096Y-84595238D01*
X102357143Y-84880952D02*
X102500000Y-84690476D01*
X102642858Y-84880952D01*
X50814934Y-71357143D02*
X50767315Y-71404762D01*
X50624458Y-71452381D01*
X50529220Y-71452381D01*
X50386362Y-71404762D01*
X50291124Y-71309524D01*
X50243505Y-71214286D01*
X50195886Y-71023810D01*
X50195886Y-70880952D01*
X50243505Y-70690476D01*
X50291124Y-70595238D01*
X50386362Y-70500000D01*
X50529220Y-70452381D01*
X50624458Y-70452381D01*
X50767315Y-70500000D01*
X50814934Y-70547619D01*
X51672077Y-70785714D02*
X51672077Y-71452381D01*
X51433981Y-70404762D02*
X51195886Y-71119048D01*
X51814934Y-71119048D01*
X49074133Y-68547619D02*
X49121752Y-68500000D01*
X49216990Y-68452381D01*
X49455086Y-68452381D01*
X49550324Y-68500000D01*
X49597943Y-68547619D01*
X49645562Y-68642857D01*
X49645562Y-68738095D01*
X49597943Y-68880952D01*
X49026514Y-69452381D01*
X49645562Y-69452381D01*
X50026514Y-68547619D02*
X50074133Y-68500000D01*
X50169371Y-68452381D01*
X50407467Y-68452381D01*
X50502705Y-68500000D01*
X50550324Y-68547619D01*
X50597943Y-68642857D01*
X50597943Y-68738095D01*
X50550324Y-68880952D01*
X49978895Y-69452381D01*
X50597943Y-69452381D01*
X51216990Y-68452381D02*
X51312229Y-68452381D01*
X51407467Y-68500000D01*
X51455086Y-68547619D01*
X51502705Y-68642857D01*
X51550324Y-68833333D01*
X51550324Y-69071429D01*
X51502705Y-69261905D01*
X51455086Y-69357143D01*
X51407467Y-69404762D01*
X51312229Y-69452381D01*
X51216990Y-69452381D01*
X51121752Y-69404762D01*
X51074133Y-69357143D01*
X51026514Y-69261905D01*
X50978895Y-69071429D01*
X50978895Y-68833333D01*
X51026514Y-68642857D01*
X51074133Y-68547619D01*
X51121752Y-68500000D01*
X51216990Y-68452381D01*
X52169371Y-68452381D02*
X52264610Y-68452381D01*
X52359848Y-68500000D01*
X52407467Y-68547619D01*
X52455086Y-68642857D01*
X52502705Y-68833333D01*
X52502705Y-69071429D01*
X52455086Y-69261905D01*
X52407467Y-69357143D01*
X52359848Y-69404762D01*
X52264610Y-69452381D01*
X52169371Y-69452381D01*
X52074133Y-69404762D01*
X52026514Y-69357143D01*
X51978895Y-69261905D01*
X51931276Y-69071429D01*
X51931276Y-68833333D01*
X51978895Y-68642857D01*
X52026514Y-68547619D01*
X52074133Y-68500000D01*
X52169371Y-68452381D01*
X53359848Y-68785714D02*
X53359848Y-69452381D01*
X52931276Y-68785714D02*
X52931276Y-69309524D01*
X52978895Y-69404762D01*
X53074133Y-69452381D01*
X53216991Y-69452381D01*
X53312229Y-69404762D01*
X53359848Y-69357143D01*
X55000000Y-69452381D02*
X55000000Y-69690476D01*
X54761905Y-69595238D02*
X55000000Y-69690476D01*
X55238096Y-69595238D01*
X54857143Y-69880952D02*
X55000000Y-69690476D01*
X55142858Y-69880952D01*
X101076034Y-30357143D02*
X101028415Y-30404762D01*
X100885558Y-30452381D01*
X100790320Y-30452381D01*
X100647462Y-30404762D01*
X100552224Y-30309524D01*
X100504605Y-30214286D01*
X100456986Y-30023810D01*
X100456986Y-29880952D01*
X100504605Y-29690476D01*
X100552224Y-29595238D01*
X100647462Y-29500000D01*
X100790320Y-29452381D01*
X100885558Y-29452381D01*
X101028415Y-29500000D01*
X101076034Y-29547619D01*
X102028415Y-30452381D02*
X101456986Y-30452381D01*
X101742700Y-30452381D02*
X101742700Y-29452381D01*
X101647462Y-29595238D01*
X101552224Y-29690476D01*
X101456986Y-29738095D01*
X100504605Y-29785714D02*
X100504605Y-30452381D01*
X100266509Y-29404762D02*
X100028414Y-30119048D01*
X100647462Y-30119048D01*
X100933176Y-29452381D02*
X101599843Y-29452381D01*
X101171271Y-30452381D01*
X102409367Y-29785714D02*
X102409367Y-30452381D01*
X101980795Y-29785714D02*
X101980795Y-30309524D01*
X102028414Y-30404762D01*
X102123652Y-30452381D01*
X102266510Y-30452381D01*
X102361748Y-30404762D01*
X102409367Y-30357143D01*
X102500000Y-29452381D02*
X102500000Y-29690476D01*
X102261905Y-29595238D02*
X102500000Y-29690476D01*
X102738096Y-29595238D01*
X102357143Y-29880952D02*
X102500000Y-29690476D01*
X102642858Y-29880952D01*
X93833334Y-33452381D02*
X93500000Y-32976190D01*
X93261905Y-33452381D02*
X93261905Y-32452381D01*
X93642858Y-32452381D01*
X93738096Y-32500000D01*
X93785715Y-32547619D01*
X93833334Y-32642857D01*
X93833334Y-32785714D01*
X93785715Y-32880952D01*
X93738096Y-32928571D01*
X93642858Y-32976190D01*
X93261905Y-32976190D01*
X94738096Y-32452381D02*
X94261905Y-32452381D01*
X94214286Y-32928571D01*
X94261905Y-32880952D01*
X94357143Y-32833333D01*
X94595239Y-32833333D01*
X94690477Y-32880952D01*
X94738096Y-32928571D01*
X94785715Y-33023810D01*
X94785715Y-33261905D01*
X94738096Y-33357143D01*
X94690477Y-33404762D01*
X94595239Y-33452381D01*
X94357143Y-33452381D01*
X94261905Y-33404762D01*
X94214286Y-33357143D01*
X65003524Y-30452381D02*
X64432095Y-30452381D01*
X64717809Y-30452381D02*
X64717809Y-29452381D01*
X64622571Y-29595238D01*
X64527333Y-29690476D01*
X64432095Y-29738095D01*
X65860667Y-29452381D02*
X65670190Y-29452381D01*
X65574952Y-29500000D01*
X65527333Y-29547619D01*
X65432095Y-29690476D01*
X65384476Y-29880952D01*
X65384476Y-30261905D01*
X65432095Y-30357143D01*
X65479714Y-30404762D01*
X65574952Y-30452381D01*
X65765429Y-30452381D01*
X65860667Y-30404762D01*
X65908286Y-30357143D01*
X65955905Y-30261905D01*
X65955905Y-30023810D01*
X65908286Y-29928571D01*
X65860667Y-29880952D01*
X65765429Y-29833333D01*
X65574952Y-29833333D01*
X65479714Y-29880952D01*
X65432095Y-29928571D01*
X65384476Y-30023810D01*
X93388000Y-29452381D02*
X93388000Y-29690476D01*
X93149905Y-29595238D02*
X93388000Y-29690476D01*
X93626096Y-29595238D01*
X93245143Y-29880952D02*
X93388000Y-29690476D01*
X93530858Y-29880952D01*
X64944762Y-74107619D02*
X64849524Y-74060000D01*
X64754286Y-73964762D01*
X64611429Y-73821905D01*
X64516190Y-73774286D01*
X64420952Y-73774286D01*
X64468571Y-74012381D02*
X64373333Y-73964762D01*
X64278095Y-73869524D01*
X64230476Y-73679048D01*
X64230476Y-73345714D01*
X64278095Y-73155238D01*
X64373333Y-73060000D01*
X64468571Y-73012381D01*
X64659048Y-73012381D01*
X64754286Y-73060000D01*
X64849524Y-73155238D01*
X64897143Y-73345714D01*
X64897143Y-73679048D01*
X64849524Y-73869524D01*
X64754286Y-73964762D01*
X64659048Y-74012381D01*
X64468571Y-74012381D01*
X65754286Y-73345714D02*
X65754286Y-74012381D01*
X65516190Y-72964762D02*
X65278095Y-73679048D01*
X65897143Y-73679048D01*
X64944762Y-41987619D02*
X64849524Y-41940000D01*
X64754286Y-41844762D01*
X64611429Y-41701905D01*
X64516190Y-41654286D01*
X64420952Y-41654286D01*
X64468571Y-41892381D02*
X64373333Y-41844762D01*
X64278095Y-41749524D01*
X64230476Y-41559048D01*
X64230476Y-41225714D01*
X64278095Y-41035238D01*
X64373333Y-40940000D01*
X64468571Y-40892381D01*
X64659048Y-40892381D01*
X64754286Y-40940000D01*
X64849524Y-41035238D01*
X64897143Y-41225714D01*
X64897143Y-41559048D01*
X64849524Y-41749524D01*
X64754286Y-41844762D01*
X64659048Y-41892381D01*
X64468571Y-41892381D01*
X65849524Y-41892381D02*
X65278095Y-41892381D01*
X65563809Y-41892381D02*
X65563809Y-40892381D01*
X65468571Y-41035238D01*
X65373333Y-41130476D01*
X65278095Y-41178095D01*
X74364762Y-66427619D02*
X74269524Y-66380000D01*
X74174286Y-66284762D01*
X74031429Y-66141905D01*
X73936190Y-66094286D01*
X73840952Y-66094286D01*
X73888571Y-66332381D02*
X73793333Y-66284762D01*
X73698095Y-66189524D01*
X73650476Y-65999048D01*
X73650476Y-65665714D01*
X73698095Y-65475238D01*
X73793333Y-65380000D01*
X73888571Y-65332381D01*
X74079048Y-65332381D01*
X74174286Y-65380000D01*
X74269524Y-65475238D01*
X74317143Y-65665714D01*
X74317143Y-65999048D01*
X74269524Y-66189524D01*
X74174286Y-66284762D01*
X74079048Y-66332381D01*
X73888571Y-66332381D01*
X75221905Y-65332381D02*
X74745714Y-65332381D01*
X74698095Y-65808571D01*
X74745714Y-65760952D01*
X74840952Y-65713333D01*
X75079048Y-65713333D01*
X75174286Y-65760952D01*
X75221905Y-65808571D01*
X75269524Y-65903810D01*
X75269524Y-66141905D01*
X75221905Y-66237143D01*
X75174286Y-66284762D01*
X75079048Y-66332381D01*
X74840952Y-66332381D01*
X74745714Y-66284762D01*
X74698095Y-66237143D01*
X74364762Y-43427619D02*
X74269524Y-43380000D01*
X74174286Y-43284762D01*
X74031429Y-43141905D01*
X73936190Y-43094286D01*
X73840952Y-43094286D01*
X73888571Y-43332381D02*
X73793333Y-43284762D01*
X73698095Y-43189524D01*
X73650476Y-42999048D01*
X73650476Y-42665714D01*
X73698095Y-42475238D01*
X73793333Y-42380000D01*
X73888571Y-42332381D01*
X74079048Y-42332381D01*
X74174286Y-42380000D01*
X74269524Y-42475238D01*
X74317143Y-42665714D01*
X74317143Y-42999048D01*
X74269524Y-43189524D01*
X74174286Y-43284762D01*
X74079048Y-43332381D01*
X73888571Y-43332381D01*
X74698095Y-42427619D02*
X74745714Y-42380000D01*
X74840952Y-42332381D01*
X75079048Y-42332381D01*
X75174286Y-42380000D01*
X75221905Y-42427619D01*
X75269524Y-42522857D01*
X75269524Y-42618095D01*
X75221905Y-42760952D01*
X74650476Y-43332381D01*
X75269524Y-43332381D01*
X86444762Y-43427619D02*
X86349524Y-43380000D01*
X86254286Y-43284762D01*
X86111429Y-43141905D01*
X86016190Y-43094286D01*
X85920952Y-43094286D01*
X85968571Y-43332381D02*
X85873333Y-43284762D01*
X85778095Y-43189524D01*
X85730476Y-42999048D01*
X85730476Y-42665714D01*
X85778095Y-42475238D01*
X85873333Y-42380000D01*
X85968571Y-42332381D01*
X86159048Y-42332381D01*
X86254286Y-42380000D01*
X86349524Y-42475238D01*
X86397143Y-42665714D01*
X86397143Y-42999048D01*
X86349524Y-43189524D01*
X86254286Y-43284762D01*
X86159048Y-43332381D01*
X85968571Y-43332381D01*
X86730476Y-42332381D02*
X87349524Y-42332381D01*
X87016190Y-42713333D01*
X87159048Y-42713333D01*
X87254286Y-42760952D01*
X87301905Y-42808571D01*
X87349524Y-42903810D01*
X87349524Y-43141905D01*
X87301905Y-43237143D01*
X87254286Y-43284762D01*
X87159048Y-43332381D01*
X86873333Y-43332381D01*
X86778095Y-43284762D01*
X86730476Y-43237143D01*
X86364762Y-66427619D02*
X86269524Y-66380000D01*
X86174286Y-66284762D01*
X86031429Y-66141905D01*
X85936190Y-66094286D01*
X85840952Y-66094286D01*
X85888571Y-66332381D02*
X85793333Y-66284762D01*
X85698095Y-66189524D01*
X85650476Y-65999048D01*
X85650476Y-65665714D01*
X85698095Y-65475238D01*
X85793333Y-65380000D01*
X85888571Y-65332381D01*
X86079048Y-65332381D01*
X86174286Y-65380000D01*
X86269524Y-65475238D01*
X86317143Y-65665714D01*
X86317143Y-65999048D01*
X86269524Y-66189524D01*
X86174286Y-66284762D01*
X86079048Y-66332381D01*
X85888571Y-66332381D01*
X87174286Y-65332381D02*
X86983809Y-65332381D01*
X86888571Y-65380000D01*
X86840952Y-65427619D01*
X86745714Y-65570476D01*
X86698095Y-65760952D01*
X86698095Y-66141905D01*
X86745714Y-66237143D01*
X86793333Y-66284762D01*
X86888571Y-66332381D01*
X87079048Y-66332381D01*
X87174286Y-66284762D01*
X87221905Y-66237143D01*
X87269524Y-66141905D01*
X87269524Y-65903810D01*
X87221905Y-65808571D01*
X87174286Y-65760952D01*
X87079048Y-65713333D01*
X86888571Y-65713333D01*
X86793333Y-65760952D01*
X86745714Y-65808571D01*
X86698095Y-65903810D01*
X39752381Y-71392857D02*
X39752381Y-71869048D01*
X38752381Y-71869048D01*
X39704762Y-71107143D02*
X39752381Y-70964286D01*
X39752381Y-70726190D01*
X39704762Y-70630952D01*
X39657143Y-70583333D01*
X39561905Y-70535714D01*
X39466667Y-70535714D01*
X39371429Y-70583333D01*
X39323810Y-70630952D01*
X39276190Y-70726190D01*
X39228571Y-70916667D01*
X39180952Y-71011905D01*
X39133333Y-71059524D01*
X39038095Y-71107143D01*
X38942857Y-71107143D01*
X38847619Y-71059524D01*
X38800000Y-71011905D01*
X38752381Y-70916667D01*
X38752381Y-70678571D01*
X38800000Y-70535714D01*
X38847619Y-70154762D02*
X38800000Y-70107143D01*
X38752381Y-70011905D01*
X38752381Y-69773809D01*
X38800000Y-69678571D01*
X38847619Y-69630952D01*
X38942857Y-69583333D01*
X39038095Y-69583333D01*
X39180952Y-69630952D01*
X39752381Y-70202381D01*
X39752381Y-69583333D01*
X39752381Y-44892857D02*
X39752381Y-45369048D01*
X38752381Y-45369048D01*
X39704762Y-44607143D02*
X39752381Y-44464286D01*
X39752381Y-44226190D01*
X39704762Y-44130952D01*
X39657143Y-44083333D01*
X39561905Y-44035714D01*
X39466667Y-44035714D01*
X39371429Y-44083333D01*
X39323810Y-44130952D01*
X39276190Y-44226190D01*
X39228571Y-44416667D01*
X39180952Y-44511905D01*
X39133333Y-44559524D01*
X39038095Y-44607143D01*
X38942857Y-44607143D01*
X38847619Y-44559524D01*
X38800000Y-44511905D01*
X38752381Y-44416667D01*
X38752381Y-44178571D01*
X38800000Y-44035714D01*
X39752381Y-43083333D02*
X39752381Y-43654762D01*
X39752381Y-43369048D02*
X38752381Y-43369048D01*
X38895238Y-43464286D01*
X38990476Y-43559524D01*
X39038095Y-43654762D01*
D17*
X41314673Y-63723083D02*
X41314673Y-64438018D01*
X41267011Y-64581005D01*
X41171686Y-64676330D01*
X41028699Y-64723993D01*
X40933374Y-64723993D01*
X41743635Y-63818407D02*
X41791297Y-63770745D01*
X41886622Y-63723083D01*
X42124934Y-63723083D01*
X42220258Y-63770745D01*
X42267921Y-63818407D01*
X42315583Y-63913732D01*
X42315583Y-64009057D01*
X42267921Y-64152044D01*
X41695972Y-64723993D01*
X42315583Y-64723993D01*
X38246781Y-51169794D02*
X38246781Y-51884937D01*
X38199105Y-52027965D01*
X38103753Y-52123318D01*
X37960724Y-52170994D01*
X37865372Y-52170994D01*
X39152629Y-52170994D02*
X39152629Y-51646556D01*
X39104952Y-51551203D01*
X39009600Y-51503527D01*
X38818895Y-51503527D01*
X38723543Y-51551203D01*
X39152629Y-52123318D02*
X39057276Y-52170994D01*
X38818895Y-52170994D01*
X38723543Y-52123318D01*
X38675867Y-52027965D01*
X38675867Y-51932613D01*
X38723543Y-51837260D01*
X38818895Y-51789584D01*
X39057276Y-51789584D01*
X39152629Y-51741908D01*
X40058477Y-52123318D02*
X39963124Y-52170994D01*
X39772420Y-52170994D01*
X39677067Y-52123318D01*
X39629391Y-52075641D01*
X39581715Y-51980289D01*
X39581715Y-51694232D01*
X39629391Y-51598880D01*
X39677067Y-51551203D01*
X39772420Y-51503527D01*
X39963124Y-51503527D01*
X40058477Y-51551203D01*
X40487562Y-52170994D02*
X40487562Y-51169794D01*
X40582914Y-51789584D02*
X40868971Y-52170994D01*
X40868971Y-51503527D02*
X40487562Y-51884937D01*
X41298057Y-51789584D02*
X42060876Y-51789584D01*
X42537638Y-52170994D02*
X42537638Y-51169794D01*
X42776019Y-51169794D01*
X42919047Y-51217470D01*
X43014400Y-51312822D01*
X43062076Y-51408175D01*
X43109752Y-51598880D01*
X43109752Y-51741908D01*
X43062076Y-51932613D01*
X43014400Y-52027965D01*
X42919047Y-52123318D01*
X42776019Y-52170994D01*
X42537638Y-52170994D01*
X44110952Y-52075641D02*
X44063276Y-52123318D01*
X43920247Y-52170994D01*
X43824895Y-52170994D01*
X43681867Y-52123318D01*
X43586514Y-52027965D01*
X43538838Y-51932613D01*
X43491162Y-51741908D01*
X43491162Y-51598880D01*
X43538838Y-51408175D01*
X43586514Y-51312822D01*
X43681867Y-51217470D01*
X43824895Y-51169794D01*
X43920247Y-51169794D01*
X44063276Y-51217470D01*
X44110952Y-51265146D01*
X100626717Y-79587848D02*
X100626717Y-80302177D01*
X100579095Y-80445042D01*
X100483851Y-80540286D01*
X100340986Y-80587908D01*
X100245742Y-80587908D01*
X101626776Y-80587908D02*
X101055314Y-80587908D01*
X101341045Y-80587908D02*
X101341045Y-79587848D01*
X101245801Y-79730714D01*
X101150557Y-79825958D01*
X101055314Y-79873580D01*
X95108947Y-65028987D02*
X95585309Y-65028987D01*
X95013674Y-65314804D02*
X95347128Y-64314444D01*
X95680581Y-65314804D01*
X96442760Y-64647897D02*
X96442760Y-65314804D01*
X96014034Y-64647897D02*
X96014034Y-65171895D01*
X96061670Y-65267168D01*
X96156943Y-65314804D01*
X96299851Y-65314804D01*
X96395123Y-65267168D01*
X96442760Y-65219531D01*
X97347848Y-65314804D02*
X97347848Y-64314444D01*
X97347848Y-65267168D02*
X97252575Y-65314804D01*
X97062031Y-65314804D01*
X96966758Y-65267168D01*
X96919122Y-65219531D01*
X96871486Y-65124259D01*
X96871486Y-64838442D01*
X96919122Y-64743170D01*
X96966758Y-64695533D01*
X97062031Y-64647897D01*
X97252575Y-64647897D01*
X97347848Y-64695533D01*
X97824210Y-65314804D02*
X97824210Y-64647897D01*
X97824210Y-64314444D02*
X97776574Y-64362080D01*
X97824210Y-64409716D01*
X97871846Y-64362080D01*
X97824210Y-64314444D01*
X97824210Y-64409716D01*
X98443481Y-65314804D02*
X98348208Y-65267168D01*
X98300572Y-65219531D01*
X98252936Y-65124259D01*
X98252936Y-64838442D01*
X98300572Y-64743170D01*
X98348208Y-64695533D01*
X98443481Y-64647897D01*
X98586389Y-64647897D01*
X98681661Y-64695533D01*
X98729298Y-64743170D01*
X98776934Y-64838442D01*
X98776934Y-65124259D01*
X98729298Y-65219531D01*
X98681661Y-65267168D01*
X98586389Y-65314804D01*
X98443481Y-65314804D01*
X99205660Y-64933714D02*
X99967839Y-64933714D01*
X100730018Y-64314444D02*
X100730018Y-65028987D01*
X100682382Y-65171895D01*
X100587110Y-65267168D01*
X100444201Y-65314804D01*
X100348929Y-65314804D01*
X101635106Y-65314804D02*
X101635106Y-64790806D01*
X101587469Y-64695533D01*
X101492197Y-64647897D01*
X101301652Y-64647897D01*
X101206380Y-64695533D01*
X101635106Y-65267168D02*
X101539833Y-65314804D01*
X101301652Y-65314804D01*
X101206380Y-65267168D01*
X101158744Y-65171895D01*
X101158744Y-65076623D01*
X101206380Y-64981350D01*
X101301652Y-64933714D01*
X101539833Y-64933714D01*
X101635106Y-64886078D01*
X102540194Y-65267168D02*
X102444921Y-65314804D01*
X102254377Y-65314804D01*
X102159104Y-65267168D01*
X102111468Y-65219531D01*
X102063832Y-65124259D01*
X102063832Y-64838442D01*
X102111468Y-64743170D01*
X102159104Y-64695533D01*
X102254377Y-64647897D01*
X102444921Y-64647897D01*
X102540194Y-64695533D01*
X102968919Y-65314804D02*
X102968919Y-64314444D01*
X103064191Y-64933714D02*
X103350008Y-65314804D01*
X103350008Y-64647897D02*
X102968919Y-65028987D01*
X103778734Y-64933714D02*
X104540913Y-64933714D01*
X104922003Y-64314444D02*
X105541273Y-64314444D01*
X105207820Y-64695533D01*
X105350728Y-64695533D01*
X105446001Y-64743170D01*
X105493637Y-64790806D01*
X105541273Y-64886078D01*
X105541273Y-65124259D01*
X105493637Y-65219531D01*
X105446001Y-65267168D01*
X105350728Y-65314804D01*
X105064911Y-65314804D01*
X104969639Y-65267168D01*
X104922003Y-65219531D01*
D14*
X104412381Y-59508095D02*
X103412381Y-59508095D01*
X103412381Y-59270000D01*
X103460000Y-59127142D01*
X103555238Y-59031904D01*
X103650476Y-58984285D01*
X103840952Y-58936666D01*
X103983810Y-58936666D01*
X104174286Y-58984285D01*
X104269524Y-59031904D01*
X104364762Y-59127142D01*
X104412381Y-59270000D01*
X104412381Y-59508095D01*
X104412381Y-57984285D02*
X104412381Y-58555714D01*
X104412381Y-58270000D02*
X103412381Y-58270000D01*
X103555238Y-58365238D01*
X103650476Y-58460476D01*
X103698095Y-58555714D01*
X64733014Y-43551181D02*
X64399680Y-43074990D01*
X64161585Y-43551181D02*
X64161585Y-42551181D01*
X64542538Y-42551181D01*
X64637776Y-42598800D01*
X64685395Y-42646419D01*
X64733014Y-42741657D01*
X64733014Y-42884514D01*
X64685395Y-42979752D01*
X64637776Y-43027371D01*
X64542538Y-43074990D01*
X64161585Y-43074990D01*
X65685395Y-43551181D02*
X65113966Y-43551181D01*
X65399680Y-43551181D02*
X65399680Y-42551181D01*
X65304442Y-42694038D01*
X65209204Y-42789276D01*
X65113966Y-42836895D01*
X64931134Y-49853581D02*
X64597800Y-49377390D01*
X64359705Y-49853581D02*
X64359705Y-48853581D01*
X64740658Y-48853581D01*
X64835896Y-48901200D01*
X64883515Y-48948819D01*
X64931134Y-49044057D01*
X64931134Y-49186914D01*
X64883515Y-49282152D01*
X64835896Y-49329771D01*
X64740658Y-49377390D01*
X64359705Y-49377390D01*
X65312086Y-48948819D02*
X65359705Y-48901200D01*
X65454943Y-48853581D01*
X65693039Y-48853581D01*
X65788277Y-48901200D01*
X65835896Y-48948819D01*
X65883515Y-49044057D01*
X65883515Y-49139295D01*
X65835896Y-49282152D01*
X65264467Y-49853581D01*
X65883515Y-49853581D01*
X84931134Y-37353581D02*
X84597800Y-36877390D01*
X84359705Y-37353581D02*
X84359705Y-36353581D01*
X84740658Y-36353581D01*
X84835896Y-36401200D01*
X84883515Y-36448819D01*
X84931134Y-36544057D01*
X84931134Y-36686914D01*
X84883515Y-36782152D01*
X84835896Y-36829771D01*
X84740658Y-36877390D01*
X84359705Y-36877390D01*
X85264467Y-36353581D02*
X85883515Y-36353581D01*
X85550181Y-36734533D01*
X85693039Y-36734533D01*
X85788277Y-36782152D01*
X85835896Y-36829771D01*
X85883515Y-36925010D01*
X85883515Y-37163105D01*
X85835896Y-37258343D01*
X85788277Y-37305962D01*
X85693039Y-37353581D01*
X85407324Y-37353581D01*
X85312086Y-37305962D01*
X85264467Y-37258343D01*
X85931134Y-50353581D02*
X85597800Y-49877390D01*
X85359705Y-50353581D02*
X85359705Y-49353581D01*
X85740658Y-49353581D01*
X85835896Y-49401200D01*
X85883515Y-49448819D01*
X85931134Y-49544057D01*
X85931134Y-49686914D01*
X85883515Y-49782152D01*
X85835896Y-49829771D01*
X85740658Y-49877390D01*
X85359705Y-49877390D01*
X86788277Y-49686914D02*
X86788277Y-50353581D01*
X86550181Y-49305962D02*
X86312086Y-50020248D01*
X86931134Y-50020248D01*
X64735534Y-78551181D02*
X64402200Y-78074990D01*
X64164105Y-78551181D02*
X64164105Y-77551181D01*
X64545058Y-77551181D01*
X64640296Y-77598800D01*
X64687915Y-77646419D01*
X64735534Y-77741657D01*
X64735534Y-77884514D01*
X64687915Y-77979752D01*
X64640296Y-78027371D01*
X64545058Y-78074990D01*
X64164105Y-78074990D01*
X65592677Y-77551181D02*
X65402200Y-77551181D01*
X65306962Y-77598800D01*
X65259343Y-77646419D01*
X65164105Y-77789276D01*
X65116486Y-77979752D01*
X65116486Y-78360705D01*
X65164105Y-78455943D01*
X65211724Y-78503562D01*
X65306962Y-78551181D01*
X65497439Y-78551181D01*
X65592677Y-78503562D01*
X65640296Y-78455943D01*
X65687915Y-78360705D01*
X65687915Y-78122610D01*
X65640296Y-78027371D01*
X65592677Y-77979752D01*
X65497439Y-77932133D01*
X65306962Y-77932133D01*
X65211724Y-77979752D01*
X65164105Y-78027371D01*
X65116486Y-78122610D01*
X64931134Y-59853581D02*
X64597800Y-59377390D01*
X64359705Y-59853581D02*
X64359705Y-58853581D01*
X64740658Y-58853581D01*
X64835896Y-58901200D01*
X64883515Y-58948819D01*
X64931134Y-59044057D01*
X64931134Y-59186914D01*
X64883515Y-59282152D01*
X64835896Y-59329771D01*
X64740658Y-59377390D01*
X64359705Y-59377390D01*
X65264467Y-58853581D02*
X65931134Y-58853581D01*
X65502562Y-59853581D01*
X84931134Y-72353581D02*
X84597800Y-71877390D01*
X84359705Y-72353581D02*
X84359705Y-71353581D01*
X84740658Y-71353581D01*
X84835896Y-71401200D01*
X84883515Y-71448819D01*
X84931134Y-71544057D01*
X84931134Y-71686914D01*
X84883515Y-71782152D01*
X84835896Y-71829771D01*
X84740658Y-71877390D01*
X84359705Y-71877390D01*
X85502562Y-71782152D02*
X85407324Y-71734533D01*
X85359705Y-71686914D01*
X85312086Y-71591676D01*
X85312086Y-71544057D01*
X85359705Y-71448819D01*
X85407324Y-71401200D01*
X85502562Y-71353581D01*
X85693039Y-71353581D01*
X85788277Y-71401200D01*
X85835896Y-71448819D01*
X85883515Y-71544057D01*
X85883515Y-71591676D01*
X85835896Y-71686914D01*
X85788277Y-71734533D01*
X85693039Y-71782152D01*
X85502562Y-71782152D01*
X85407324Y-71829771D01*
X85359705Y-71877390D01*
X85312086Y-71972629D01*
X85312086Y-72163105D01*
X85359705Y-72258343D01*
X85407324Y-72305962D01*
X85502562Y-72353581D01*
X85693039Y-72353581D01*
X85788277Y-72305962D01*
X85835896Y-72258343D01*
X85883515Y-72163105D01*
X85883515Y-71972629D01*
X85835896Y-71877390D01*
X85788277Y-71829771D01*
X85693039Y-71782152D01*
X85931134Y-59353581D02*
X85597800Y-58877390D01*
X85359705Y-59353581D02*
X85359705Y-58353581D01*
X85740658Y-58353581D01*
X85835896Y-58401200D01*
X85883515Y-58448819D01*
X85931134Y-58544057D01*
X85931134Y-58686914D01*
X85883515Y-58782152D01*
X85835896Y-58829771D01*
X85740658Y-58877390D01*
X85359705Y-58877390D01*
X86407324Y-59353581D02*
X86597800Y-59353581D01*
X86693039Y-59305962D01*
X86740658Y-59258343D01*
X86835896Y-59115486D01*
X86883515Y-58925010D01*
X86883515Y-58544057D01*
X86835896Y-58448819D01*
X86788277Y-58401200D01*
X86693039Y-58353581D01*
X86502562Y-58353581D01*
X86407324Y-58401200D01*
X86359705Y-58448819D01*
X86312086Y-58544057D01*
X86312086Y-58782152D01*
X86359705Y-58877390D01*
X86407324Y-58925010D01*
X86502562Y-58972629D01*
X86693039Y-58972629D01*
X86788277Y-58925010D01*
X86835896Y-58877390D01*
X86883515Y-58782152D01*
X97353581Y-45542537D02*
X96877390Y-45875871D01*
X97353581Y-46113966D02*
X96353581Y-46113966D01*
X96353581Y-45733013D01*
X96401200Y-45637775D01*
X96448819Y-45590156D01*
X96544057Y-45542537D01*
X96686914Y-45542537D01*
X96782152Y-45590156D01*
X96829771Y-45637775D01*
X96877390Y-45733013D01*
X96877390Y-46113966D01*
X97353581Y-44590156D02*
X97353581Y-45161585D01*
X97353581Y-44875871D02*
X96353581Y-44875871D01*
X96496438Y-44971109D01*
X96591676Y-45066347D01*
X96639295Y-45161585D01*
X97353581Y-43637775D02*
X97353581Y-44209204D01*
X97353581Y-43923490D02*
X96353581Y-43923490D01*
X96496438Y-44018728D01*
X96591676Y-44113966D01*
X96639295Y-44209204D01*
M02*
