G04 #@! TF.FileFunction,Legend,Top*
%FSLAX46Y46*%
G04 Gerber Fmt 4.6, Leading zero omitted, Abs format (unit mm)*
G04 Created by KiCad (PCBNEW 4.0.7+dfsg1-1ubuntu2) date Fri Aug 16 22:59:17 2019*
%MOMM*%
%LPD*%
G01*
G04 APERTURE LIST*
%ADD10C,0.100000*%
%ADD11C,0.500000*%
%ADD12C,0.300000*%
%ADD13C,0.152400*%
%ADD14C,0.120000*%
%ADD15C,0.127000*%
%ADD16C,0.400000*%
%ADD17C,0.150000*%
%ADD18C,0.050000*%
G04 APERTURE END LIST*
D10*
D11*
X77500000Y-55000000D02*
X80000000Y-52500000D01*
X80000000Y-47500000D02*
X72500000Y-55000000D01*
X80000000Y-42500000D02*
X67500000Y-55000000D01*
X62500000Y-55000000D02*
X80000000Y-37500000D01*
X57500000Y-55000000D02*
X62500000Y-55000000D01*
X80000000Y-32500000D02*
X57500000Y-55000000D01*
X52500000Y-55000000D02*
X80000000Y-27500000D01*
X47500000Y-55000000D02*
X80000000Y-22500000D01*
X47500000Y-20000000D02*
X45000000Y-22500000D01*
X45000000Y-27500000D02*
X52500000Y-20000000D01*
X57500000Y-20000000D02*
X45000000Y-32500000D01*
X45000000Y-37500000D02*
X62500000Y-20000000D01*
X67500000Y-20000000D02*
X45000000Y-42500000D01*
X45000000Y-47500000D02*
X72500000Y-20000000D01*
X77500000Y-20000000D02*
X45000000Y-52500000D01*
X45000000Y-55000000D02*
X45000000Y-20000000D01*
X80000000Y-55000000D02*
X45000000Y-55000000D01*
X80000000Y-20000000D02*
X80000000Y-55000000D01*
X45000000Y-20000000D02*
X80000000Y-20000000D01*
D12*
X93535715Y-18678571D02*
X92821429Y-18678571D01*
X92821429Y-17178571D01*
X94035715Y-18107143D02*
X95178572Y-18107143D01*
X93535715Y-46678571D02*
X93035715Y-45964286D01*
X92678572Y-46678571D02*
X92678572Y-45178571D01*
X93250000Y-45178571D01*
X93392858Y-45250000D01*
X93464286Y-45321429D01*
X93535715Y-45464286D01*
X93535715Y-45678571D01*
X93464286Y-45821429D01*
X93392858Y-45892857D01*
X93250000Y-45964286D01*
X92678572Y-45964286D01*
X94178572Y-46107143D02*
X95321429Y-46107143D01*
X93535715Y-57678571D02*
X93035715Y-56964286D01*
X92678572Y-57678571D02*
X92678572Y-56178571D01*
X93250000Y-56178571D01*
X93392858Y-56250000D01*
X93464286Y-56321429D01*
X93535715Y-56464286D01*
X93535715Y-56678571D01*
X93464286Y-56821429D01*
X93392858Y-56892857D01*
X93250000Y-56964286D01*
X92678572Y-56964286D01*
X94178572Y-57107143D02*
X95321429Y-57107143D01*
X94750000Y-57678571D02*
X94750000Y-56535714D01*
X93535715Y-30678571D02*
X92821429Y-30678571D01*
X92821429Y-29178571D01*
X94035715Y-30107143D02*
X95178572Y-30107143D01*
X94607143Y-30678571D02*
X94607143Y-29535714D01*
X70750001Y-70892857D02*
X70964287Y-70964286D01*
X71035715Y-71035714D01*
X71107144Y-71178571D01*
X71107144Y-71392857D01*
X71035715Y-71535714D01*
X70964287Y-71607143D01*
X70821429Y-71678571D01*
X70250001Y-71678571D01*
X70250001Y-70178571D01*
X70750001Y-70178571D01*
X70892858Y-70250000D01*
X70964287Y-70321429D01*
X71035715Y-70464286D01*
X71035715Y-70607143D01*
X70964287Y-70750000D01*
X70892858Y-70821429D01*
X70750001Y-70892857D01*
X70250001Y-70892857D01*
X71750001Y-71678571D02*
X71750001Y-70178571D01*
X72107144Y-70178571D01*
X72321429Y-70250000D01*
X72464287Y-70392857D01*
X72535715Y-70535714D01*
X72607144Y-70821429D01*
X72607144Y-71035714D01*
X72535715Y-71321429D01*
X72464287Y-71464286D01*
X72321429Y-71607143D01*
X72107144Y-71678571D01*
X71750001Y-71678571D01*
X74035715Y-71678571D02*
X73178572Y-71678571D01*
X73607144Y-71678571D02*
X73607144Y-70178571D01*
X73464287Y-70392857D01*
X73321429Y-70535714D01*
X73178572Y-70607143D01*
X74535715Y-70178571D02*
X75464286Y-70178571D01*
X74964286Y-70750000D01*
X75178572Y-70750000D01*
X75321429Y-70821429D01*
X75392858Y-70892857D01*
X75464286Y-71035714D01*
X75464286Y-71392857D01*
X75392858Y-71535714D01*
X75321429Y-71607143D01*
X75178572Y-71678571D01*
X74750000Y-71678571D01*
X74607143Y-71607143D01*
X74535715Y-71535714D01*
X76178571Y-71678571D02*
X76464286Y-71678571D01*
X76607143Y-71607143D01*
X76678571Y-71535714D01*
X76821429Y-71321429D01*
X76892857Y-71035714D01*
X76892857Y-70464286D01*
X76821429Y-70321429D01*
X76750000Y-70250000D01*
X76607143Y-70178571D01*
X76321429Y-70178571D01*
X76178571Y-70250000D01*
X76107143Y-70321429D01*
X76035714Y-70464286D01*
X76035714Y-70821429D01*
X76107143Y-70964286D01*
X76178571Y-71035714D01*
X76321429Y-71107143D01*
X76607143Y-71107143D01*
X76750000Y-71035714D01*
X76821429Y-70964286D01*
X76892857Y-70821429D01*
X78464285Y-70178571D02*
X79321428Y-70178571D01*
X78892857Y-71678571D02*
X78892857Y-70178571D01*
X79821428Y-71678571D02*
X79821428Y-70178571D01*
X80464285Y-71678571D02*
X80464285Y-70892857D01*
X80392856Y-70750000D01*
X80249999Y-70678571D01*
X80035714Y-70678571D01*
X79892856Y-70750000D01*
X79821428Y-70821429D01*
X81178571Y-71678571D02*
X81178571Y-70678571D01*
X81178571Y-70178571D02*
X81107142Y-70250000D01*
X81178571Y-70321429D01*
X81249999Y-70250000D01*
X81178571Y-70178571D01*
X81178571Y-70321429D01*
X81892857Y-70678571D02*
X81892857Y-71678571D01*
X81892857Y-70821429D02*
X81964285Y-70750000D01*
X82107143Y-70678571D01*
X82321428Y-70678571D01*
X82464285Y-70750000D01*
X82535714Y-70892857D01*
X82535714Y-71678571D01*
X83892857Y-70678571D02*
X83892857Y-71892857D01*
X83821428Y-72035714D01*
X83750000Y-72107143D01*
X83607143Y-72178571D01*
X83392857Y-72178571D01*
X83250000Y-72107143D01*
X83892857Y-71607143D02*
X83750000Y-71678571D01*
X83464286Y-71678571D01*
X83321428Y-71607143D01*
X83250000Y-71535714D01*
X83178571Y-71392857D01*
X83178571Y-70964286D01*
X83250000Y-70821429D01*
X83321428Y-70750000D01*
X83464286Y-70678571D01*
X83750000Y-70678571D01*
X83892857Y-70750000D01*
X85607143Y-70678571D02*
X85964286Y-71678571D01*
X86321428Y-70678571D01*
X87535714Y-70178571D02*
X87250000Y-70178571D01*
X87107143Y-70250000D01*
X87035714Y-70321429D01*
X86892857Y-70535714D01*
X86821428Y-70821429D01*
X86821428Y-71392857D01*
X86892857Y-71535714D01*
X86964285Y-71607143D01*
X87107143Y-71678571D01*
X87392857Y-71678571D01*
X87535714Y-71607143D01*
X87607143Y-71535714D01*
X87678571Y-71392857D01*
X87678571Y-71035714D01*
X87607143Y-70892857D01*
X87535714Y-70821429D01*
X87392857Y-70750000D01*
X87107143Y-70750000D01*
X86964285Y-70821429D01*
X86892857Y-70892857D01*
X86821428Y-71035714D01*
X88321428Y-71535714D02*
X88392856Y-71607143D01*
X88321428Y-71678571D01*
X88249999Y-71607143D01*
X88321428Y-71535714D01*
X88321428Y-71678571D01*
X89821428Y-71678571D02*
X88964285Y-71678571D01*
X89392857Y-71678571D02*
X89392857Y-70178571D01*
X89250000Y-70392857D01*
X89107142Y-70535714D01*
X88964285Y-70607143D01*
D13*
X9056400Y-70000000D02*
X10326400Y-70000000D01*
X9691400Y-69365000D02*
X9691400Y-70635000D01*
X17032000Y-70000000D02*
G75*
G03X17032000Y-70000000I-3289300J0D01*
G01*
X16734200Y-62500000D02*
X18004200Y-62500000D01*
X17369200Y-61865000D02*
X17369200Y-63135000D01*
X34387200Y-62500000D02*
G75*
G03X34387200Y-62500000I-8128000J0D01*
G01*
X9071000Y-5000000D02*
X10341000Y-5000000D01*
X9706000Y-4365000D02*
X9706000Y-5635000D01*
X17046600Y-5000000D02*
G75*
G03X17046600Y-5000000I-3289300J0D01*
G01*
X16715800Y-12500000D02*
X17985800Y-12500000D01*
X17350800Y-11865000D02*
X17350800Y-13135000D01*
X34368800Y-12500000D02*
G75*
G03X34368800Y-12500000I-8128000J0D01*
G01*
D14*
X9220000Y-55000462D02*
G75*
G03X3670000Y-53455170I-2990000J462D01*
G01*
X9220000Y-54999538D02*
G75*
G02X3670000Y-56544830I-2990000J-462D01*
G01*
X8730000Y-55000000D02*
G75*
G03X8730000Y-55000000I-2500000J0D01*
G01*
X3670000Y-53455000D02*
X3670000Y-56545000D01*
D15*
X12500000Y-11500000D02*
X12500000Y-23500000D01*
X12500000Y-23500000D02*
X1500000Y-23500000D01*
X12500000Y-11500000D02*
X1500000Y-11500000D01*
X1500000Y-11500000D02*
X1500000Y-13000000D01*
X1500000Y-13000000D02*
X600000Y-13000000D01*
X1500000Y-22000000D02*
X1500000Y-23500000D01*
X600000Y-22000000D02*
X1500000Y-22000000D01*
X-200000Y-42000000D02*
X-200000Y-33000000D01*
X-200000Y-33000000D02*
X14300000Y-33000000D01*
X14300000Y-33000000D02*
X14300000Y-34850000D01*
X14300000Y-42000000D02*
X-200000Y-42000000D01*
X14300000Y-40050000D02*
X14300000Y-42000000D01*
D16*
X15700000Y-37500000D02*
G75*
G03X15700000Y-37500000I-200000J0D01*
G01*
D17*
X99100000Y-51750000D02*
X99500000Y-51750000D01*
X98000000Y-55250000D02*
X98000000Y-48250000D01*
X99100000Y-55250000D02*
X99100000Y-48250000D01*
X91900000Y-55250000D02*
X99500000Y-55250000D01*
X99500000Y-48250000D02*
X91900000Y-48250000D01*
X91900000Y-48250000D02*
X91900000Y-55250000D01*
X99100000Y-24250000D02*
X99500000Y-24250000D01*
X98000000Y-27750000D02*
X98000000Y-20750000D01*
X99100000Y-27750000D02*
X99100000Y-20750000D01*
X91900000Y-27750000D02*
X99500000Y-27750000D01*
X99500000Y-20750000D02*
X91900000Y-20750000D01*
X91900000Y-20750000D02*
X91900000Y-27750000D01*
D14*
X26760000Y-48150000D02*
X23160000Y-48150000D01*
X27284184Y-48877205D02*
G75*
G03X26760000Y-48150000I-2324184J-1122795D01*
G01*
X27316400Y-51098807D02*
G75*
G02X24960000Y-52600000I-2356400J1098807D01*
G01*
X22603600Y-51098807D02*
G75*
G03X24960000Y-52600000I2356400J1098807D01*
G01*
X22635816Y-48877205D02*
G75*
G02X23160000Y-48150000I2324184J-1122795D01*
G01*
X42120000Y-38340000D02*
X42120000Y-46580000D01*
X38630000Y-38340000D02*
X38630000Y-46580000D01*
X42120000Y-38340000D02*
X38630000Y-38340000D01*
X42120000Y-46580000D02*
X38630000Y-46580000D01*
X42120000Y-40860000D02*
X41050000Y-40860000D01*
X38950000Y-40860000D02*
X38630000Y-40860000D01*
X42120000Y-44061000D02*
X40540000Y-44061000D01*
X39460000Y-44061000D02*
X38630000Y-44061000D01*
X42120000Y-48340000D02*
X42120000Y-56580000D01*
X38630000Y-48340000D02*
X38630000Y-56580000D01*
X42120000Y-48340000D02*
X38630000Y-48340000D01*
X42120000Y-56580000D02*
X38630000Y-56580000D01*
X42120000Y-50860000D02*
X41050000Y-50860000D01*
X38950000Y-50860000D02*
X38630000Y-50860000D01*
X42120000Y-54061000D02*
X40540000Y-54061000D01*
X39460000Y-54061000D02*
X38630000Y-54061000D01*
X23200000Y-26850000D02*
X26800000Y-26850000D01*
X22675816Y-26122795D02*
G75*
G03X23200000Y-26850000I2324184J1122795D01*
G01*
X22643600Y-23901193D02*
G75*
G02X25000000Y-22400000I2356400J-1098807D01*
G01*
X27356400Y-23901193D02*
G75*
G03X25000000Y-22400000I-2356400J-1098807D01*
G01*
X27324184Y-26122795D02*
G75*
G02X26800000Y-26850000I-2324184J1122795D01*
G01*
X42120000Y-28380000D02*
X42120000Y-36620000D01*
X38630000Y-28380000D02*
X38630000Y-36620000D01*
X42120000Y-28380000D02*
X38630000Y-28380000D01*
X42120000Y-36620000D02*
X38630000Y-36620000D01*
X42120000Y-30900000D02*
X41050000Y-30900000D01*
X38950000Y-30900000D02*
X38630000Y-30900000D01*
X42120000Y-34101000D02*
X40540000Y-34101000D01*
X39460000Y-34101000D02*
X38630000Y-34101000D01*
X42120000Y-18420000D02*
X42120000Y-26660000D01*
X38630000Y-18420000D02*
X38630000Y-26660000D01*
X42120000Y-18420000D02*
X38630000Y-18420000D01*
X42120000Y-26660000D02*
X38630000Y-26660000D01*
X42120000Y-20940000D02*
X41050000Y-20940000D01*
X38950000Y-20940000D02*
X38630000Y-20940000D01*
X42120000Y-24141000D02*
X40540000Y-24141000D01*
X39460000Y-24141000D02*
X38630000Y-24141000D01*
D17*
X81699900Y-47498740D02*
X81699900Y-47699400D01*
X81699900Y-47498740D02*
X81699900Y-47298080D01*
X83300100Y-47399680D02*
X83300100Y-47298080D01*
X83300100Y-47298080D02*
X83300100Y-47699400D01*
X25087000Y-45800100D02*
X25287660Y-45800100D01*
X25087000Y-45800100D02*
X24886340Y-45800100D01*
X24987940Y-44199900D02*
X24886340Y-44199900D01*
X24886340Y-44199900D02*
X25287660Y-44199900D01*
X90800100Y-47587000D02*
X90800100Y-47386340D01*
X90800100Y-47587000D02*
X90800100Y-47787660D01*
X89199900Y-47686060D02*
X89199900Y-47787660D01*
X89199900Y-47787660D02*
X89199900Y-47386340D01*
X25000000Y-40800100D02*
X25200660Y-40800100D01*
X25000000Y-40800100D02*
X24799340Y-40800100D01*
X24900940Y-39199900D02*
X24799340Y-39199900D01*
X24799340Y-39199900D02*
X25200660Y-39199900D01*
D13*
X96224800Y-62500000D02*
X95033540Y-62500000D01*
X95589800Y-63135000D02*
X95589800Y-61865000D01*
X90573300Y-57127900D02*
X40814700Y-57127900D01*
X40814700Y-57127900D02*
X40814700Y-67872100D01*
X40814700Y-67872100D02*
X90573300Y-67872100D01*
X90573300Y-67872100D02*
X90573300Y-57127900D01*
D17*
X83300100Y-27587000D02*
X83300100Y-27386340D01*
X83300100Y-27587000D02*
X83300100Y-27787660D01*
X81699900Y-27686060D02*
X81699900Y-27787660D01*
X81699900Y-27787660D02*
X81699900Y-27386340D01*
X24998740Y-30800100D02*
X25199400Y-30800100D01*
X24998740Y-30800100D02*
X24798080Y-30800100D01*
X24899680Y-29199900D02*
X24798080Y-29199900D01*
X24798080Y-29199900D02*
X25199400Y-29199900D01*
X89199900Y-27498740D02*
X89199900Y-27699400D01*
X89199900Y-27498740D02*
X89199900Y-27298080D01*
X90800100Y-27399680D02*
X90800100Y-27298080D01*
X90800100Y-27298080D02*
X90800100Y-27699400D01*
X25087000Y-35800100D02*
X25287660Y-35800100D01*
X25087000Y-35800100D02*
X24886340Y-35800100D01*
X24987940Y-34199900D02*
X24886340Y-34199900D01*
X24886340Y-34199900D02*
X25287660Y-34199900D01*
D13*
X96224800Y-12500000D02*
X95033540Y-12500000D01*
X95589800Y-13135000D02*
X95589800Y-11865000D01*
X90573300Y-7127900D02*
X40814700Y-7127900D01*
X40814700Y-7127900D02*
X40814700Y-17872100D01*
X40814700Y-17872100D02*
X90573300Y-17872100D01*
X90573300Y-17872100D02*
X90573300Y-7127900D01*
D17*
X13300100Y-49998740D02*
X13300100Y-49798080D01*
X13300100Y-49998740D02*
X13300100Y-50199400D01*
X11699900Y-50097800D02*
X11699900Y-50199400D01*
X11699900Y-50199400D02*
X11699900Y-49798080D01*
X20357143Y-70166666D02*
X20404762Y-70214285D01*
X20452381Y-70357142D01*
X20452381Y-70452380D01*
X20404762Y-70595238D01*
X20309524Y-70690476D01*
X20214286Y-70738095D01*
X20023810Y-70785714D01*
X19880952Y-70785714D01*
X19690476Y-70738095D01*
X19595238Y-70690476D01*
X19500000Y-70595238D01*
X19452381Y-70452380D01*
X19452381Y-70357142D01*
X19500000Y-70214285D01*
X19547619Y-70166666D01*
X20452381Y-69214285D02*
X20452381Y-69785714D01*
X20452381Y-69500000D02*
X19452381Y-69500000D01*
X19595238Y-69595238D01*
X19690476Y-69690476D01*
X19738095Y-69785714D01*
X17285714Y-70738095D02*
X17952381Y-70738095D01*
X16904762Y-70976191D02*
X17619048Y-71214286D01*
X17619048Y-70595238D01*
X16952381Y-70309524D02*
X16952381Y-69642857D01*
X17952381Y-70071429D01*
X17285714Y-68833333D02*
X17952381Y-68833333D01*
X17285714Y-69261905D02*
X17809524Y-69261905D01*
X17904762Y-69214286D01*
X17952381Y-69119048D01*
X17952381Y-68976190D01*
X17904762Y-68880952D01*
X17857143Y-68833333D01*
X15000000Y-69452381D02*
X15000000Y-69690476D01*
X14761905Y-69595238D02*
X15000000Y-69690476D01*
X15238096Y-69595238D01*
X14857143Y-69880952D02*
X15000000Y-69690476D01*
X15142858Y-69880952D01*
X26092534Y-62857143D02*
X26044915Y-62904762D01*
X25902058Y-62952381D01*
X25806820Y-62952381D01*
X25663962Y-62904762D01*
X25568724Y-62809524D01*
X25521105Y-62714286D01*
X25473486Y-62523810D01*
X25473486Y-62380952D01*
X25521105Y-62190476D01*
X25568724Y-62095238D01*
X25663962Y-62000000D01*
X25806820Y-61952381D01*
X25902058Y-61952381D01*
X26044915Y-62000000D01*
X26092534Y-62047619D01*
X26473486Y-62047619D02*
X26521105Y-62000000D01*
X26616343Y-61952381D01*
X26854439Y-61952381D01*
X26949677Y-62000000D01*
X26997296Y-62047619D01*
X27044915Y-62142857D01*
X27044915Y-62238095D01*
X26997296Y-62380952D01*
X26425867Y-62952381D01*
X27044915Y-62952381D01*
X24092533Y-59547619D02*
X24140152Y-59500000D01*
X24235390Y-59452381D01*
X24473486Y-59452381D01*
X24568724Y-59500000D01*
X24616343Y-59547619D01*
X24663962Y-59642857D01*
X24663962Y-59738095D01*
X24616343Y-59880952D01*
X24044914Y-60452381D01*
X24663962Y-60452381D01*
X25044914Y-59547619D02*
X25092533Y-59500000D01*
X25187771Y-59452381D01*
X25425867Y-59452381D01*
X25521105Y-59500000D01*
X25568724Y-59547619D01*
X25616343Y-59642857D01*
X25616343Y-59738095D01*
X25568724Y-59880952D01*
X24997295Y-60452381D01*
X25616343Y-60452381D01*
X26235390Y-59452381D02*
X26330629Y-59452381D01*
X26425867Y-59500000D01*
X26473486Y-59547619D01*
X26521105Y-59642857D01*
X26568724Y-59833333D01*
X26568724Y-60071429D01*
X26521105Y-60261905D01*
X26473486Y-60357143D01*
X26425867Y-60404762D01*
X26330629Y-60452381D01*
X26235390Y-60452381D01*
X26140152Y-60404762D01*
X26092533Y-60357143D01*
X26044914Y-60261905D01*
X25997295Y-60071429D01*
X25997295Y-59833333D01*
X26044914Y-59642857D01*
X26092533Y-59547619D01*
X26140152Y-59500000D01*
X26235390Y-59452381D01*
X27187771Y-59452381D02*
X27283010Y-59452381D01*
X27378248Y-59500000D01*
X27425867Y-59547619D01*
X27473486Y-59642857D01*
X27521105Y-59833333D01*
X27521105Y-60071429D01*
X27473486Y-60261905D01*
X27425867Y-60357143D01*
X27378248Y-60404762D01*
X27283010Y-60452381D01*
X27187771Y-60452381D01*
X27092533Y-60404762D01*
X27044914Y-60357143D01*
X26997295Y-60261905D01*
X26949676Y-60071429D01*
X26949676Y-59833333D01*
X26997295Y-59642857D01*
X27044914Y-59547619D01*
X27092533Y-59500000D01*
X27187771Y-59452381D01*
X28378248Y-59785714D02*
X28378248Y-60452381D01*
X27949676Y-59785714D02*
X27949676Y-60309524D01*
X27997295Y-60404762D01*
X28092533Y-60452381D01*
X28235391Y-60452381D01*
X28330629Y-60404762D01*
X28378248Y-60357143D01*
X30018400Y-61952381D02*
X30018400Y-62190476D01*
X29780305Y-62095238D02*
X30018400Y-62190476D01*
X30256496Y-62095238D01*
X29875543Y-62380952D02*
X30018400Y-62190476D01*
X30161258Y-62380952D01*
X20357143Y-5166666D02*
X20404762Y-5214285D01*
X20452381Y-5357142D01*
X20452381Y-5452380D01*
X20404762Y-5595238D01*
X20309524Y-5690476D01*
X20214286Y-5738095D01*
X20023810Y-5785714D01*
X19880952Y-5785714D01*
X19690476Y-5738095D01*
X19595238Y-5690476D01*
X19500000Y-5595238D01*
X19452381Y-5452380D01*
X19452381Y-5357142D01*
X19500000Y-5214285D01*
X19547619Y-5166666D01*
X19452381Y-4833333D02*
X19452381Y-4214285D01*
X19833333Y-4547619D01*
X19833333Y-4404761D01*
X19880952Y-4309523D01*
X19928571Y-4261904D01*
X20023810Y-4214285D01*
X20261905Y-4214285D01*
X20357143Y-4261904D01*
X20404762Y-4309523D01*
X20452381Y-4404761D01*
X20452381Y-4690476D01*
X20404762Y-4785714D01*
X20357143Y-4833333D01*
X17285714Y-5738095D02*
X17952381Y-5738095D01*
X16904762Y-5976191D02*
X17619048Y-6214286D01*
X17619048Y-5595238D01*
X16952381Y-5309524D02*
X16952381Y-4642857D01*
X17952381Y-5071429D01*
X17285714Y-3833333D02*
X17952381Y-3833333D01*
X17285714Y-4261905D02*
X17809524Y-4261905D01*
X17904762Y-4214286D01*
X17952381Y-4119048D01*
X17952381Y-3976190D01*
X17904762Y-3880952D01*
X17857143Y-3833333D01*
X15014600Y-4452381D02*
X15014600Y-4690476D01*
X14776505Y-4595238D02*
X15014600Y-4690476D01*
X15252696Y-4595238D01*
X14871743Y-4880952D02*
X15014600Y-4690476D01*
X15157458Y-4880952D01*
X26074134Y-12857143D02*
X26026515Y-12904762D01*
X25883658Y-12952381D01*
X25788420Y-12952381D01*
X25645562Y-12904762D01*
X25550324Y-12809524D01*
X25502705Y-12714286D01*
X25455086Y-12523810D01*
X25455086Y-12380952D01*
X25502705Y-12190476D01*
X25550324Y-12095238D01*
X25645562Y-12000000D01*
X25788420Y-11952381D01*
X25883658Y-11952381D01*
X26026515Y-12000000D01*
X26074134Y-12047619D01*
X26931277Y-12285714D02*
X26931277Y-12952381D01*
X26693181Y-11904762D02*
X26455086Y-12619048D01*
X27074134Y-12619048D01*
X24074133Y-9547619D02*
X24121752Y-9500000D01*
X24216990Y-9452381D01*
X24455086Y-9452381D01*
X24550324Y-9500000D01*
X24597943Y-9547619D01*
X24645562Y-9642857D01*
X24645562Y-9738095D01*
X24597943Y-9880952D01*
X24026514Y-10452381D01*
X24645562Y-10452381D01*
X25026514Y-9547619D02*
X25074133Y-9500000D01*
X25169371Y-9452381D01*
X25407467Y-9452381D01*
X25502705Y-9500000D01*
X25550324Y-9547619D01*
X25597943Y-9642857D01*
X25597943Y-9738095D01*
X25550324Y-9880952D01*
X24978895Y-10452381D01*
X25597943Y-10452381D01*
X26216990Y-9452381D02*
X26312229Y-9452381D01*
X26407467Y-9500000D01*
X26455086Y-9547619D01*
X26502705Y-9642857D01*
X26550324Y-9833333D01*
X26550324Y-10071429D01*
X26502705Y-10261905D01*
X26455086Y-10357143D01*
X26407467Y-10404762D01*
X26312229Y-10452381D01*
X26216990Y-10452381D01*
X26121752Y-10404762D01*
X26074133Y-10357143D01*
X26026514Y-10261905D01*
X25978895Y-10071429D01*
X25978895Y-9833333D01*
X26026514Y-9642857D01*
X26074133Y-9547619D01*
X26121752Y-9500000D01*
X26216990Y-9452381D01*
X27169371Y-9452381D02*
X27264610Y-9452381D01*
X27359848Y-9500000D01*
X27407467Y-9547619D01*
X27455086Y-9642857D01*
X27502705Y-9833333D01*
X27502705Y-10071429D01*
X27455086Y-10261905D01*
X27407467Y-10357143D01*
X27359848Y-10404762D01*
X27264610Y-10452381D01*
X27169371Y-10452381D01*
X27074133Y-10404762D01*
X27026514Y-10357143D01*
X26978895Y-10261905D01*
X26931276Y-10071429D01*
X26931276Y-9833333D01*
X26978895Y-9642857D01*
X27026514Y-9547619D01*
X27074133Y-9500000D01*
X27169371Y-9452381D01*
X28359848Y-9785714D02*
X28359848Y-10452381D01*
X27931276Y-9785714D02*
X27931276Y-10309524D01*
X27978895Y-10404762D01*
X28074133Y-10452381D01*
X28216991Y-10452381D01*
X28312229Y-10404762D01*
X28359848Y-10357143D01*
X30000000Y-11952381D02*
X30000000Y-12190476D01*
X29761905Y-12095238D02*
X30000000Y-12190476D01*
X30238096Y-12095238D01*
X29857143Y-12380952D02*
X30000000Y-12190476D01*
X30142858Y-12380952D01*
X5491905Y-51492381D02*
X5491905Y-50492381D01*
X5730000Y-50492381D01*
X5872858Y-50540000D01*
X5968096Y-50635238D01*
X6015715Y-50730476D01*
X6063334Y-50920952D01*
X6063334Y-51063810D01*
X6015715Y-51254286D01*
X5968096Y-51349524D01*
X5872858Y-51444762D01*
X5730000Y-51492381D01*
X5491905Y-51492381D01*
X7015715Y-51492381D02*
X6444286Y-51492381D01*
X6730000Y-51492381D02*
X6730000Y-50492381D01*
X6634762Y-50635238D01*
X6539524Y-50730476D01*
X6444286Y-50778095D01*
D18*
X3706577Y-9316848D02*
X3706577Y-10031177D01*
X3658955Y-10174042D01*
X3563711Y-10269286D01*
X3420846Y-10316908D01*
X3325602Y-10316908D01*
X4706636Y-10316908D02*
X4135174Y-10316908D01*
X4420905Y-10316908D02*
X4420905Y-9316848D01*
X4325661Y-9459714D01*
X4230417Y-9554958D01*
X4135174Y-9602580D01*
X-541273Y-25304467D02*
X-64911Y-25304467D01*
X-636546Y-25590284D02*
X-303092Y-24589924D01*
X30361Y-25590284D01*
X792540Y-24923377D02*
X792540Y-25590284D01*
X363814Y-24923377D02*
X363814Y-25447375D01*
X411450Y-25542648D01*
X506723Y-25590284D01*
X649631Y-25590284D01*
X744903Y-25542648D01*
X792540Y-25495011D01*
X1697628Y-25590284D02*
X1697628Y-24589924D01*
X1697628Y-25542648D02*
X1602355Y-25590284D01*
X1411811Y-25590284D01*
X1316538Y-25542648D01*
X1268902Y-25495011D01*
X1221266Y-25399739D01*
X1221266Y-25113922D01*
X1268902Y-25018650D01*
X1316538Y-24971013D01*
X1411811Y-24923377D01*
X1602355Y-24923377D01*
X1697628Y-24971013D01*
X2173990Y-25590284D02*
X2173990Y-24923377D01*
X2173990Y-24589924D02*
X2126354Y-24637560D01*
X2173990Y-24685196D01*
X2221626Y-24637560D01*
X2173990Y-24589924D01*
X2173990Y-24685196D01*
X2793261Y-25590284D02*
X2697988Y-25542648D01*
X2650352Y-25495011D01*
X2602716Y-25399739D01*
X2602716Y-25113922D01*
X2650352Y-25018650D01*
X2697988Y-24971013D01*
X2793261Y-24923377D01*
X2936169Y-24923377D01*
X3031441Y-24971013D01*
X3079078Y-25018650D01*
X3126714Y-25113922D01*
X3126714Y-25399739D01*
X3079078Y-25495011D01*
X3031441Y-25542648D01*
X2936169Y-25590284D01*
X2793261Y-25590284D01*
X3555440Y-25209194D02*
X4317619Y-25209194D01*
X5079798Y-24589924D02*
X5079798Y-25304467D01*
X5032162Y-25447375D01*
X4936890Y-25542648D01*
X4793981Y-25590284D01*
X4698709Y-25590284D01*
X5984886Y-25590284D02*
X5984886Y-25066286D01*
X5937249Y-24971013D01*
X5841977Y-24923377D01*
X5651432Y-24923377D01*
X5556160Y-24971013D01*
X5984886Y-25542648D02*
X5889613Y-25590284D01*
X5651432Y-25590284D01*
X5556160Y-25542648D01*
X5508524Y-25447375D01*
X5508524Y-25352103D01*
X5556160Y-25256830D01*
X5651432Y-25209194D01*
X5889613Y-25209194D01*
X5984886Y-25161558D01*
X6889974Y-25542648D02*
X6794701Y-25590284D01*
X6604157Y-25590284D01*
X6508884Y-25542648D01*
X6461248Y-25495011D01*
X6413612Y-25399739D01*
X6413612Y-25113922D01*
X6461248Y-25018650D01*
X6508884Y-24971013D01*
X6604157Y-24923377D01*
X6794701Y-24923377D01*
X6889974Y-24971013D01*
X7318699Y-25590284D02*
X7318699Y-24589924D01*
X7413971Y-25209194D02*
X7699788Y-25590284D01*
X7699788Y-24923377D02*
X7318699Y-25304467D01*
X8128514Y-25209194D02*
X8890693Y-25209194D01*
X9271783Y-24589924D02*
X9891053Y-24589924D01*
X9557600Y-24971013D01*
X9700508Y-24971013D01*
X9795781Y-25018650D01*
X9843417Y-25066286D01*
X9891053Y-25161558D01*
X9891053Y-25399739D01*
X9843417Y-25495011D01*
X9795781Y-25542648D01*
X9700508Y-25590284D01*
X9414691Y-25590284D01*
X9319419Y-25542648D01*
X9271783Y-25495011D01*
X11314673Y-43723083D02*
X11314673Y-44438018D01*
X11267011Y-44581005D01*
X11171686Y-44676330D01*
X11028699Y-44723993D01*
X10933374Y-44723993D01*
X11743635Y-43818407D02*
X11791297Y-43770745D01*
X11886622Y-43723083D01*
X12124934Y-43723083D01*
X12220258Y-43770745D01*
X12267921Y-43818407D01*
X12315583Y-43913732D01*
X12315583Y-44009057D01*
X12267921Y-44152044D01*
X11695972Y-44723993D01*
X12315583Y-44723993D01*
X8246781Y-31169794D02*
X8246781Y-31884937D01*
X8199105Y-32027965D01*
X8103753Y-32123318D01*
X7960724Y-32170994D01*
X7865372Y-32170994D01*
X9152629Y-32170994D02*
X9152629Y-31646556D01*
X9104952Y-31551203D01*
X9009600Y-31503527D01*
X8818895Y-31503527D01*
X8723543Y-31551203D01*
X9152629Y-32123318D02*
X9057276Y-32170994D01*
X8818895Y-32170994D01*
X8723543Y-32123318D01*
X8675867Y-32027965D01*
X8675867Y-31932613D01*
X8723543Y-31837260D01*
X8818895Y-31789584D01*
X9057276Y-31789584D01*
X9152629Y-31741908D01*
X10058477Y-32123318D02*
X9963124Y-32170994D01*
X9772420Y-32170994D01*
X9677067Y-32123318D01*
X9629391Y-32075641D01*
X9581715Y-31980289D01*
X9581715Y-31694232D01*
X9629391Y-31598880D01*
X9677067Y-31551203D01*
X9772420Y-31503527D01*
X9963124Y-31503527D01*
X10058477Y-31551203D01*
X10487562Y-32170994D02*
X10487562Y-31169794D01*
X10582914Y-31789584D02*
X10868971Y-32170994D01*
X10868971Y-31503527D02*
X10487562Y-31884937D01*
X11298057Y-31789584D02*
X12060876Y-31789584D01*
X12537638Y-32170994D02*
X12537638Y-31169794D01*
X12776019Y-31169794D01*
X12919047Y-31217470D01*
X13014400Y-31312822D01*
X13062076Y-31408175D01*
X13109752Y-31598880D01*
X13109752Y-31741908D01*
X13062076Y-31932613D01*
X13014400Y-32027965D01*
X12919047Y-32123318D01*
X12776019Y-32170994D01*
X12537638Y-32170994D01*
X14110952Y-32075641D02*
X14063276Y-32123318D01*
X13920247Y-32170994D01*
X13824895Y-32170994D01*
X13681867Y-32123318D01*
X13586514Y-32027965D01*
X13538838Y-31932613D01*
X13491162Y-31741908D01*
X13491162Y-31598880D01*
X13538838Y-31408175D01*
X13586514Y-31312822D01*
X13681867Y-31217470D01*
X13824895Y-31169794D01*
X13920247Y-31169794D01*
X14063276Y-31217470D01*
X14110952Y-31265146D01*
D17*
X94357143Y-42952381D02*
X93880952Y-42952381D01*
X93880952Y-41952381D01*
X94642857Y-42904762D02*
X94785714Y-42952381D01*
X95023810Y-42952381D01*
X95119048Y-42904762D01*
X95166667Y-42857143D01*
X95214286Y-42761905D01*
X95214286Y-42666667D01*
X95166667Y-42571429D01*
X95119048Y-42523810D01*
X95023810Y-42476190D01*
X94833333Y-42428571D01*
X94738095Y-42380952D01*
X94690476Y-42333333D01*
X94642857Y-42238095D01*
X94642857Y-42142857D01*
X94690476Y-42047619D01*
X94738095Y-42000000D01*
X94833333Y-41952381D01*
X95071429Y-41952381D01*
X95214286Y-42000000D01*
X96166667Y-42952381D02*
X95595238Y-42952381D01*
X95880952Y-42952381D02*
X95880952Y-41952381D01*
X95785714Y-42095238D01*
X95690476Y-42190476D01*
X95595238Y-42238095D01*
X94357143Y-32952381D02*
X93880952Y-32952381D01*
X93880952Y-31952381D01*
X94642857Y-32904762D02*
X94785714Y-32952381D01*
X95023810Y-32952381D01*
X95119048Y-32904762D01*
X95166667Y-32857143D01*
X95214286Y-32761905D01*
X95214286Y-32666667D01*
X95166667Y-32571429D01*
X95119048Y-32523810D01*
X95023810Y-32476190D01*
X94833333Y-32428571D01*
X94738095Y-32380952D01*
X94690476Y-32333333D01*
X94642857Y-32238095D01*
X94642857Y-32142857D01*
X94690476Y-32047619D01*
X94738095Y-32000000D01*
X94833333Y-31952381D01*
X95071429Y-31952381D01*
X95214286Y-32000000D01*
X95595238Y-32047619D02*
X95642857Y-32000000D01*
X95738095Y-31952381D01*
X95976191Y-31952381D01*
X96071429Y-32000000D01*
X96119048Y-32047619D01*
X96166667Y-32142857D01*
X96166667Y-32238095D01*
X96119048Y-32380952D01*
X95547619Y-32952381D01*
X96166667Y-32952381D01*
X29904762Y-50547619D02*
X29809524Y-50500000D01*
X29714286Y-50404762D01*
X29571429Y-50261905D01*
X29476190Y-50214286D01*
X29380952Y-50214286D01*
X29428571Y-50452381D02*
X29333333Y-50404762D01*
X29238095Y-50309524D01*
X29190476Y-50119048D01*
X29190476Y-49785714D01*
X29238095Y-49595238D01*
X29333333Y-49500000D01*
X29428571Y-49452381D01*
X29619048Y-49452381D01*
X29714286Y-49500000D01*
X29809524Y-49595238D01*
X29857143Y-49785714D01*
X29857143Y-50119048D01*
X29809524Y-50309524D01*
X29714286Y-50404762D01*
X29619048Y-50452381D01*
X29428571Y-50452381D01*
X30809524Y-50452381D02*
X30238095Y-50452381D01*
X30523809Y-50452381D02*
X30523809Y-49452381D01*
X30428571Y-49595238D01*
X30333333Y-49690476D01*
X30238095Y-49738095D01*
X22269524Y-47662381D02*
X22269524Y-46662381D01*
X22650477Y-46662381D01*
X22745715Y-46710000D01*
X22793334Y-46757619D01*
X22840953Y-46852857D01*
X22840953Y-46995714D01*
X22793334Y-47090952D01*
X22745715Y-47138571D01*
X22650477Y-47186190D01*
X22269524Y-47186190D01*
X23269524Y-47662381D02*
X23269524Y-46662381D01*
X23840953Y-47662381D01*
X23840953Y-46662381D01*
X24269524Y-46757619D02*
X24317143Y-46710000D01*
X24412381Y-46662381D01*
X24650477Y-46662381D01*
X24745715Y-46710000D01*
X24793334Y-46757619D01*
X24840953Y-46852857D01*
X24840953Y-46948095D01*
X24793334Y-47090952D01*
X24221905Y-47662381D01*
X24840953Y-47662381D01*
X25221905Y-46757619D02*
X25269524Y-46710000D01*
X25364762Y-46662381D01*
X25602858Y-46662381D01*
X25698096Y-46710000D01*
X25745715Y-46757619D01*
X25793334Y-46852857D01*
X25793334Y-46948095D01*
X25745715Y-47090952D01*
X25174286Y-47662381D01*
X25793334Y-47662381D01*
X26174286Y-46757619D02*
X26221905Y-46710000D01*
X26317143Y-46662381D01*
X26555239Y-46662381D01*
X26650477Y-46710000D01*
X26698096Y-46757619D01*
X26745715Y-46852857D01*
X26745715Y-46948095D01*
X26698096Y-47090952D01*
X26126667Y-47662381D01*
X26745715Y-47662381D01*
X27126667Y-46757619D02*
X27174286Y-46710000D01*
X27269524Y-46662381D01*
X27507620Y-46662381D01*
X27602858Y-46710000D01*
X27650477Y-46757619D01*
X27698096Y-46852857D01*
X27698096Y-46948095D01*
X27650477Y-47090952D01*
X27079048Y-47662381D01*
X27698096Y-47662381D01*
X43667619Y-42555238D02*
X43620000Y-42650476D01*
X43524762Y-42745714D01*
X43381905Y-42888571D01*
X43334286Y-42983810D01*
X43334286Y-43079048D01*
X43572381Y-43031429D02*
X43524762Y-43126667D01*
X43429524Y-43221905D01*
X43239048Y-43269524D01*
X42905714Y-43269524D01*
X42715238Y-43221905D01*
X42620000Y-43126667D01*
X42572381Y-43031429D01*
X42572381Y-42840952D01*
X42620000Y-42745714D01*
X42715238Y-42650476D01*
X42905714Y-42602857D01*
X43239048Y-42602857D01*
X43429524Y-42650476D01*
X43524762Y-42745714D01*
X43572381Y-42840952D01*
X43572381Y-43031429D01*
X42667619Y-42221905D02*
X42620000Y-42174286D01*
X42572381Y-42079048D01*
X42572381Y-41840952D01*
X42620000Y-41745714D01*
X42667619Y-41698095D01*
X42762857Y-41650476D01*
X42858095Y-41650476D01*
X43000952Y-41698095D01*
X43572381Y-42269524D01*
X43572381Y-41650476D01*
X36658571Y-45269523D02*
X36706190Y-45126666D01*
X36753810Y-45079047D01*
X36849048Y-45031428D01*
X36991905Y-45031428D01*
X37087143Y-45079047D01*
X37134762Y-45126666D01*
X37182381Y-45221904D01*
X37182381Y-45602857D01*
X36182381Y-45602857D01*
X36182381Y-45269523D01*
X36230000Y-45174285D01*
X36277619Y-45126666D01*
X36372857Y-45079047D01*
X36468095Y-45079047D01*
X36563333Y-45126666D01*
X36610952Y-45174285D01*
X36658571Y-45269523D01*
X36658571Y-45602857D01*
X37182381Y-44602857D02*
X36182381Y-44602857D01*
X36182381Y-44364762D01*
X36230000Y-44221904D01*
X36325238Y-44126666D01*
X36420476Y-44079047D01*
X36610952Y-44031428D01*
X36753810Y-44031428D01*
X36944286Y-44079047D01*
X37039524Y-44126666D01*
X37134762Y-44221904D01*
X37182381Y-44364762D01*
X37182381Y-44602857D01*
X37182381Y-43079047D02*
X37182381Y-43650476D01*
X37182381Y-43364762D02*
X36182381Y-43364762D01*
X36325238Y-43460000D01*
X36420476Y-43555238D01*
X36468095Y-43650476D01*
X36182381Y-42745714D02*
X36182381Y-42126666D01*
X36563333Y-42460000D01*
X36563333Y-42317142D01*
X36610952Y-42221904D01*
X36658571Y-42174285D01*
X36753810Y-42126666D01*
X36991905Y-42126666D01*
X37087143Y-42174285D01*
X37134762Y-42221904D01*
X37182381Y-42317142D01*
X37182381Y-42602857D01*
X37134762Y-42698095D01*
X37087143Y-42745714D01*
X37182381Y-41650476D02*
X37182381Y-41460000D01*
X37134762Y-41364761D01*
X37087143Y-41317142D01*
X36944286Y-41221904D01*
X36753810Y-41174285D01*
X36372857Y-41174285D01*
X36277619Y-41221904D01*
X36230000Y-41269523D01*
X36182381Y-41364761D01*
X36182381Y-41555238D01*
X36230000Y-41650476D01*
X36277619Y-41698095D01*
X36372857Y-41745714D01*
X36610952Y-41745714D01*
X36706190Y-41698095D01*
X36753810Y-41650476D01*
X36801429Y-41555238D01*
X36801429Y-41364761D01*
X36753810Y-41269523D01*
X36706190Y-41221904D01*
X36610952Y-41174285D01*
X37182381Y-40221904D02*
X37182381Y-40793333D01*
X37182381Y-40507619D02*
X36182381Y-40507619D01*
X36325238Y-40602857D01*
X36420476Y-40698095D01*
X36468095Y-40793333D01*
X36182381Y-39364761D02*
X36182381Y-39555238D01*
X36230000Y-39650476D01*
X36277619Y-39698095D01*
X36420476Y-39793333D01*
X36610952Y-39840952D01*
X36991905Y-39840952D01*
X37087143Y-39793333D01*
X37134762Y-39745714D01*
X37182381Y-39650476D01*
X37182381Y-39459999D01*
X37134762Y-39364761D01*
X37087143Y-39317142D01*
X36991905Y-39269523D01*
X36753810Y-39269523D01*
X36658571Y-39317142D01*
X36610952Y-39364761D01*
X36563333Y-39459999D01*
X36563333Y-39650476D01*
X36610952Y-39745714D01*
X36658571Y-39793333D01*
X36753810Y-39840952D01*
X43667619Y-52555238D02*
X43620000Y-52650476D01*
X43524762Y-52745714D01*
X43381905Y-52888571D01*
X43334286Y-52983810D01*
X43334286Y-53079048D01*
X43572381Y-53031429D02*
X43524762Y-53126667D01*
X43429524Y-53221905D01*
X43239048Y-53269524D01*
X42905714Y-53269524D01*
X42715238Y-53221905D01*
X42620000Y-53126667D01*
X42572381Y-53031429D01*
X42572381Y-52840952D01*
X42620000Y-52745714D01*
X42715238Y-52650476D01*
X42905714Y-52602857D01*
X43239048Y-52602857D01*
X43429524Y-52650476D01*
X43524762Y-52745714D01*
X43572381Y-52840952D01*
X43572381Y-53031429D01*
X42572381Y-52269524D02*
X42572381Y-51650476D01*
X42953333Y-51983810D01*
X42953333Y-51840952D01*
X43000952Y-51745714D01*
X43048571Y-51698095D01*
X43143810Y-51650476D01*
X43381905Y-51650476D01*
X43477143Y-51698095D01*
X43524762Y-51745714D01*
X43572381Y-51840952D01*
X43572381Y-52126667D01*
X43524762Y-52221905D01*
X43477143Y-52269524D01*
X36658571Y-55269523D02*
X36706190Y-55126666D01*
X36753810Y-55079047D01*
X36849048Y-55031428D01*
X36991905Y-55031428D01*
X37087143Y-55079047D01*
X37134762Y-55126666D01*
X37182381Y-55221904D01*
X37182381Y-55602857D01*
X36182381Y-55602857D01*
X36182381Y-55269523D01*
X36230000Y-55174285D01*
X36277619Y-55126666D01*
X36372857Y-55079047D01*
X36468095Y-55079047D01*
X36563333Y-55126666D01*
X36610952Y-55174285D01*
X36658571Y-55269523D01*
X36658571Y-55602857D01*
X37182381Y-54602857D02*
X36182381Y-54602857D01*
X36182381Y-54364762D01*
X36230000Y-54221904D01*
X36325238Y-54126666D01*
X36420476Y-54079047D01*
X36610952Y-54031428D01*
X36753810Y-54031428D01*
X36944286Y-54079047D01*
X37039524Y-54126666D01*
X37134762Y-54221904D01*
X37182381Y-54364762D01*
X37182381Y-54602857D01*
X37182381Y-53079047D02*
X37182381Y-53650476D01*
X37182381Y-53364762D02*
X36182381Y-53364762D01*
X36325238Y-53460000D01*
X36420476Y-53555238D01*
X36468095Y-53650476D01*
X36182381Y-52745714D02*
X36182381Y-52126666D01*
X36563333Y-52460000D01*
X36563333Y-52317142D01*
X36610952Y-52221904D01*
X36658571Y-52174285D01*
X36753810Y-52126666D01*
X36991905Y-52126666D01*
X37087143Y-52174285D01*
X37134762Y-52221904D01*
X37182381Y-52317142D01*
X37182381Y-52602857D01*
X37134762Y-52698095D01*
X37087143Y-52745714D01*
X37182381Y-51650476D02*
X37182381Y-51460000D01*
X37134762Y-51364761D01*
X37087143Y-51317142D01*
X36944286Y-51221904D01*
X36753810Y-51174285D01*
X36372857Y-51174285D01*
X36277619Y-51221904D01*
X36230000Y-51269523D01*
X36182381Y-51364761D01*
X36182381Y-51555238D01*
X36230000Y-51650476D01*
X36277619Y-51698095D01*
X36372857Y-51745714D01*
X36610952Y-51745714D01*
X36706190Y-51698095D01*
X36753810Y-51650476D01*
X36801429Y-51555238D01*
X36801429Y-51364761D01*
X36753810Y-51269523D01*
X36706190Y-51221904D01*
X36610952Y-51174285D01*
X37182381Y-50221904D02*
X37182381Y-50793333D01*
X37182381Y-50507619D02*
X36182381Y-50507619D01*
X36325238Y-50602857D01*
X36420476Y-50698095D01*
X36468095Y-50793333D01*
X36182381Y-49364761D02*
X36182381Y-49555238D01*
X36230000Y-49650476D01*
X36277619Y-49698095D01*
X36420476Y-49793333D01*
X36610952Y-49840952D01*
X36991905Y-49840952D01*
X37087143Y-49793333D01*
X37134762Y-49745714D01*
X37182381Y-49650476D01*
X37182381Y-49459999D01*
X37134762Y-49364761D01*
X37087143Y-49317142D01*
X36991905Y-49269523D01*
X36753810Y-49269523D01*
X36658571Y-49317142D01*
X36610952Y-49364761D01*
X36563333Y-49459999D01*
X36563333Y-49650476D01*
X36610952Y-49745714D01*
X36658571Y-49793333D01*
X36753810Y-49840952D01*
X19904762Y-25547619D02*
X19809524Y-25500000D01*
X19714286Y-25404762D01*
X19571429Y-25261905D01*
X19476190Y-25214286D01*
X19380952Y-25214286D01*
X19428571Y-25452381D02*
X19333333Y-25404762D01*
X19238095Y-25309524D01*
X19190476Y-25119048D01*
X19190476Y-24785714D01*
X19238095Y-24595238D01*
X19333333Y-24500000D01*
X19428571Y-24452381D01*
X19619048Y-24452381D01*
X19714286Y-24500000D01*
X19809524Y-24595238D01*
X19857143Y-24785714D01*
X19857143Y-25119048D01*
X19809524Y-25309524D01*
X19714286Y-25404762D01*
X19619048Y-25452381D01*
X19428571Y-25452381D01*
X20714286Y-24785714D02*
X20714286Y-25452381D01*
X20476190Y-24404762D02*
X20238095Y-25119048D01*
X20857143Y-25119048D01*
X22309524Y-28242381D02*
X22309524Y-27242381D01*
X22690477Y-27242381D01*
X22785715Y-27290000D01*
X22833334Y-27337619D01*
X22880953Y-27432857D01*
X22880953Y-27575714D01*
X22833334Y-27670952D01*
X22785715Y-27718571D01*
X22690477Y-27766190D01*
X22309524Y-27766190D01*
X23309524Y-28242381D02*
X23309524Y-27242381D01*
X23880953Y-28242381D01*
X23880953Y-27242381D01*
X24309524Y-27337619D02*
X24357143Y-27290000D01*
X24452381Y-27242381D01*
X24690477Y-27242381D01*
X24785715Y-27290000D01*
X24833334Y-27337619D01*
X24880953Y-27432857D01*
X24880953Y-27528095D01*
X24833334Y-27670952D01*
X24261905Y-28242381D01*
X24880953Y-28242381D01*
X25261905Y-27337619D02*
X25309524Y-27290000D01*
X25404762Y-27242381D01*
X25642858Y-27242381D01*
X25738096Y-27290000D01*
X25785715Y-27337619D01*
X25833334Y-27432857D01*
X25833334Y-27528095D01*
X25785715Y-27670952D01*
X25214286Y-28242381D01*
X25833334Y-28242381D01*
X26214286Y-27337619D02*
X26261905Y-27290000D01*
X26357143Y-27242381D01*
X26595239Y-27242381D01*
X26690477Y-27290000D01*
X26738096Y-27337619D01*
X26785715Y-27432857D01*
X26785715Y-27528095D01*
X26738096Y-27670952D01*
X26166667Y-28242381D01*
X26785715Y-28242381D01*
X27166667Y-27337619D02*
X27214286Y-27290000D01*
X27309524Y-27242381D01*
X27547620Y-27242381D01*
X27642858Y-27290000D01*
X27690477Y-27337619D01*
X27738096Y-27432857D01*
X27738096Y-27528095D01*
X27690477Y-27670952D01*
X27119048Y-28242381D01*
X27738096Y-28242381D01*
X43667619Y-32595238D02*
X43620000Y-32690476D01*
X43524762Y-32785714D01*
X43381905Y-32928571D01*
X43334286Y-33023810D01*
X43334286Y-33119048D01*
X43572381Y-33071429D02*
X43524762Y-33166667D01*
X43429524Y-33261905D01*
X43239048Y-33309524D01*
X42905714Y-33309524D01*
X42715238Y-33261905D01*
X42620000Y-33166667D01*
X42572381Y-33071429D01*
X42572381Y-32880952D01*
X42620000Y-32785714D01*
X42715238Y-32690476D01*
X42905714Y-32642857D01*
X43239048Y-32642857D01*
X43429524Y-32690476D01*
X43524762Y-32785714D01*
X43572381Y-32880952D01*
X43572381Y-33071429D01*
X42572381Y-31738095D02*
X42572381Y-32214286D01*
X43048571Y-32261905D01*
X43000952Y-32214286D01*
X42953333Y-32119048D01*
X42953333Y-31880952D01*
X43000952Y-31785714D01*
X43048571Y-31738095D01*
X43143810Y-31690476D01*
X43381905Y-31690476D01*
X43477143Y-31738095D01*
X43524762Y-31785714D01*
X43572381Y-31880952D01*
X43572381Y-32119048D01*
X43524762Y-32214286D01*
X43477143Y-32261905D01*
X36658571Y-35309523D02*
X36706190Y-35166666D01*
X36753810Y-35119047D01*
X36849048Y-35071428D01*
X36991905Y-35071428D01*
X37087143Y-35119047D01*
X37134762Y-35166666D01*
X37182381Y-35261904D01*
X37182381Y-35642857D01*
X36182381Y-35642857D01*
X36182381Y-35309523D01*
X36230000Y-35214285D01*
X36277619Y-35166666D01*
X36372857Y-35119047D01*
X36468095Y-35119047D01*
X36563333Y-35166666D01*
X36610952Y-35214285D01*
X36658571Y-35309523D01*
X36658571Y-35642857D01*
X37182381Y-34642857D02*
X36182381Y-34642857D01*
X36182381Y-34404762D01*
X36230000Y-34261904D01*
X36325238Y-34166666D01*
X36420476Y-34119047D01*
X36610952Y-34071428D01*
X36753810Y-34071428D01*
X36944286Y-34119047D01*
X37039524Y-34166666D01*
X37134762Y-34261904D01*
X37182381Y-34404762D01*
X37182381Y-34642857D01*
X37182381Y-33119047D02*
X37182381Y-33690476D01*
X37182381Y-33404762D02*
X36182381Y-33404762D01*
X36325238Y-33500000D01*
X36420476Y-33595238D01*
X36468095Y-33690476D01*
X36182381Y-32785714D02*
X36182381Y-32166666D01*
X36563333Y-32500000D01*
X36563333Y-32357142D01*
X36610952Y-32261904D01*
X36658571Y-32214285D01*
X36753810Y-32166666D01*
X36991905Y-32166666D01*
X37087143Y-32214285D01*
X37134762Y-32261904D01*
X37182381Y-32357142D01*
X37182381Y-32642857D01*
X37134762Y-32738095D01*
X37087143Y-32785714D01*
X37182381Y-31690476D02*
X37182381Y-31500000D01*
X37134762Y-31404761D01*
X37087143Y-31357142D01*
X36944286Y-31261904D01*
X36753810Y-31214285D01*
X36372857Y-31214285D01*
X36277619Y-31261904D01*
X36230000Y-31309523D01*
X36182381Y-31404761D01*
X36182381Y-31595238D01*
X36230000Y-31690476D01*
X36277619Y-31738095D01*
X36372857Y-31785714D01*
X36610952Y-31785714D01*
X36706190Y-31738095D01*
X36753810Y-31690476D01*
X36801429Y-31595238D01*
X36801429Y-31404761D01*
X36753810Y-31309523D01*
X36706190Y-31261904D01*
X36610952Y-31214285D01*
X37182381Y-30261904D02*
X37182381Y-30833333D01*
X37182381Y-30547619D02*
X36182381Y-30547619D01*
X36325238Y-30642857D01*
X36420476Y-30738095D01*
X36468095Y-30833333D01*
X36182381Y-29404761D02*
X36182381Y-29595238D01*
X36230000Y-29690476D01*
X36277619Y-29738095D01*
X36420476Y-29833333D01*
X36610952Y-29880952D01*
X36991905Y-29880952D01*
X37087143Y-29833333D01*
X37134762Y-29785714D01*
X37182381Y-29690476D01*
X37182381Y-29499999D01*
X37134762Y-29404761D01*
X37087143Y-29357142D01*
X36991905Y-29309523D01*
X36753810Y-29309523D01*
X36658571Y-29357142D01*
X36610952Y-29404761D01*
X36563333Y-29499999D01*
X36563333Y-29690476D01*
X36610952Y-29785714D01*
X36658571Y-29833333D01*
X36753810Y-29880952D01*
X43667619Y-22635238D02*
X43620000Y-22730476D01*
X43524762Y-22825714D01*
X43381905Y-22968571D01*
X43334286Y-23063810D01*
X43334286Y-23159048D01*
X43572381Y-23111429D02*
X43524762Y-23206667D01*
X43429524Y-23301905D01*
X43239048Y-23349524D01*
X42905714Y-23349524D01*
X42715238Y-23301905D01*
X42620000Y-23206667D01*
X42572381Y-23111429D01*
X42572381Y-22920952D01*
X42620000Y-22825714D01*
X42715238Y-22730476D01*
X42905714Y-22682857D01*
X43239048Y-22682857D01*
X43429524Y-22730476D01*
X43524762Y-22825714D01*
X43572381Y-22920952D01*
X43572381Y-23111429D01*
X42572381Y-21825714D02*
X42572381Y-22016191D01*
X42620000Y-22111429D01*
X42667619Y-22159048D01*
X42810476Y-22254286D01*
X43000952Y-22301905D01*
X43381905Y-22301905D01*
X43477143Y-22254286D01*
X43524762Y-22206667D01*
X43572381Y-22111429D01*
X43572381Y-21920952D01*
X43524762Y-21825714D01*
X43477143Y-21778095D01*
X43381905Y-21730476D01*
X43143810Y-21730476D01*
X43048571Y-21778095D01*
X43000952Y-21825714D01*
X42953333Y-21920952D01*
X42953333Y-22111429D01*
X43000952Y-22206667D01*
X43048571Y-22254286D01*
X43143810Y-22301905D01*
X36658571Y-25349523D02*
X36706190Y-25206666D01*
X36753810Y-25159047D01*
X36849048Y-25111428D01*
X36991905Y-25111428D01*
X37087143Y-25159047D01*
X37134762Y-25206666D01*
X37182381Y-25301904D01*
X37182381Y-25682857D01*
X36182381Y-25682857D01*
X36182381Y-25349523D01*
X36230000Y-25254285D01*
X36277619Y-25206666D01*
X36372857Y-25159047D01*
X36468095Y-25159047D01*
X36563333Y-25206666D01*
X36610952Y-25254285D01*
X36658571Y-25349523D01*
X36658571Y-25682857D01*
X37182381Y-24682857D02*
X36182381Y-24682857D01*
X36182381Y-24444762D01*
X36230000Y-24301904D01*
X36325238Y-24206666D01*
X36420476Y-24159047D01*
X36610952Y-24111428D01*
X36753810Y-24111428D01*
X36944286Y-24159047D01*
X37039524Y-24206666D01*
X37134762Y-24301904D01*
X37182381Y-24444762D01*
X37182381Y-24682857D01*
X37182381Y-23159047D02*
X37182381Y-23730476D01*
X37182381Y-23444762D02*
X36182381Y-23444762D01*
X36325238Y-23540000D01*
X36420476Y-23635238D01*
X36468095Y-23730476D01*
X36182381Y-22825714D02*
X36182381Y-22206666D01*
X36563333Y-22540000D01*
X36563333Y-22397142D01*
X36610952Y-22301904D01*
X36658571Y-22254285D01*
X36753810Y-22206666D01*
X36991905Y-22206666D01*
X37087143Y-22254285D01*
X37134762Y-22301904D01*
X37182381Y-22397142D01*
X37182381Y-22682857D01*
X37134762Y-22778095D01*
X37087143Y-22825714D01*
X37182381Y-21730476D02*
X37182381Y-21540000D01*
X37134762Y-21444761D01*
X37087143Y-21397142D01*
X36944286Y-21301904D01*
X36753810Y-21254285D01*
X36372857Y-21254285D01*
X36277619Y-21301904D01*
X36230000Y-21349523D01*
X36182381Y-21444761D01*
X36182381Y-21635238D01*
X36230000Y-21730476D01*
X36277619Y-21778095D01*
X36372857Y-21825714D01*
X36610952Y-21825714D01*
X36706190Y-21778095D01*
X36753810Y-21730476D01*
X36801429Y-21635238D01*
X36801429Y-21444761D01*
X36753810Y-21349523D01*
X36706190Y-21301904D01*
X36610952Y-21254285D01*
X37182381Y-20301904D02*
X37182381Y-20873333D01*
X37182381Y-20587619D02*
X36182381Y-20587619D01*
X36325238Y-20682857D01*
X36420476Y-20778095D01*
X36468095Y-20873333D01*
X36182381Y-19444761D02*
X36182381Y-19635238D01*
X36230000Y-19730476D01*
X36277619Y-19778095D01*
X36420476Y-19873333D01*
X36610952Y-19920952D01*
X36991905Y-19920952D01*
X37087143Y-19873333D01*
X37134762Y-19825714D01*
X37182381Y-19730476D01*
X37182381Y-19539999D01*
X37134762Y-19444761D01*
X37087143Y-19397142D01*
X36991905Y-19349523D01*
X36753810Y-19349523D01*
X36658571Y-19397142D01*
X36610952Y-19444761D01*
X36563333Y-19539999D01*
X36563333Y-19730476D01*
X36610952Y-19825714D01*
X36658571Y-19873333D01*
X36753810Y-19920952D01*
X82952381Y-40164146D02*
X82476190Y-40497480D01*
X82952381Y-40735575D02*
X81952381Y-40735575D01*
X81952381Y-40354622D01*
X82000000Y-40259384D01*
X82047619Y-40211765D01*
X82142857Y-40164146D01*
X82285714Y-40164146D01*
X82380952Y-40211765D01*
X82428571Y-40259384D01*
X82476190Y-40354622D01*
X82476190Y-40735575D01*
X82952381Y-39211765D02*
X82952381Y-39783194D01*
X82952381Y-39497480D02*
X81952381Y-39497480D01*
X82095238Y-39592718D01*
X82190476Y-39687956D01*
X82238095Y-39783194D01*
X82952381Y-55187956D02*
X82952381Y-55759385D01*
X82952381Y-55473671D02*
X81952381Y-55473671D01*
X82095238Y-55568909D01*
X82190476Y-55664147D01*
X82238095Y-55759385D01*
X82952381Y-54235575D02*
X82952381Y-54807004D01*
X82952381Y-54521290D02*
X81952381Y-54521290D01*
X82095238Y-54616528D01*
X82190476Y-54711766D01*
X82238095Y-54807004D01*
X32421594Y-45452381D02*
X32088260Y-44976190D01*
X31850165Y-45452381D02*
X31850165Y-44452381D01*
X32231118Y-44452381D01*
X32326356Y-44500000D01*
X32373975Y-44547619D01*
X32421594Y-44642857D01*
X32421594Y-44785714D01*
X32373975Y-44880952D01*
X32326356Y-44928571D01*
X32231118Y-44976190D01*
X31850165Y-44976190D01*
X32802546Y-44547619D02*
X32850165Y-44500000D01*
X32945403Y-44452381D01*
X33183499Y-44452381D01*
X33278737Y-44500000D01*
X33326356Y-44547619D01*
X33373975Y-44642857D01*
X33373975Y-44738095D01*
X33326356Y-44880952D01*
X32754927Y-45452381D01*
X33373975Y-45452381D01*
X16826356Y-44452381D02*
X16635879Y-44452381D01*
X16540641Y-44500000D01*
X16493022Y-44547619D01*
X16397784Y-44690476D01*
X16350165Y-44880952D01*
X16350165Y-45261905D01*
X16397784Y-45357143D01*
X16445403Y-45404762D01*
X16540641Y-45452381D01*
X16731118Y-45452381D01*
X16826356Y-45404762D01*
X16873975Y-45357143D01*
X16921594Y-45261905D01*
X16921594Y-45023810D01*
X16873975Y-44928571D01*
X16826356Y-44880952D01*
X16731118Y-44833333D01*
X16540641Y-44833333D01*
X16445403Y-44880952D01*
X16397784Y-44928571D01*
X16350165Y-45023810D01*
X17302546Y-44547619D02*
X17350165Y-44500000D01*
X17445403Y-44452381D01*
X17683499Y-44452381D01*
X17778737Y-44500000D01*
X17826356Y-44547619D01*
X17873975Y-44642857D01*
X17873975Y-44738095D01*
X17826356Y-44880952D01*
X17254927Y-45452381D01*
X17873975Y-45452381D01*
X18493022Y-44452381D02*
X18588261Y-44452381D01*
X18683499Y-44500000D01*
X18731118Y-44547619D01*
X18778737Y-44642857D01*
X18826356Y-44833333D01*
X18826356Y-45071429D01*
X18778737Y-45261905D01*
X18731118Y-45357143D01*
X18683499Y-45404762D01*
X18588261Y-45452381D01*
X18493022Y-45452381D01*
X18397784Y-45404762D01*
X18350165Y-45357143D01*
X18302546Y-45261905D01*
X18254927Y-45071429D01*
X18254927Y-44833333D01*
X18302546Y-44642857D01*
X18350165Y-44547619D01*
X18397784Y-44500000D01*
X18493022Y-44452381D01*
X90452381Y-55254926D02*
X89976190Y-55588260D01*
X90452381Y-55826355D02*
X89452381Y-55826355D01*
X89452381Y-55445402D01*
X89500000Y-55350164D01*
X89547619Y-55302545D01*
X89642857Y-55254926D01*
X89785714Y-55254926D01*
X89880952Y-55302545D01*
X89928571Y-55350164D01*
X89976190Y-55445402D01*
X89976190Y-55826355D01*
X89452381Y-54921593D02*
X89452381Y-54302545D01*
X89833333Y-54635879D01*
X89833333Y-54493021D01*
X89880952Y-54397783D01*
X89928571Y-54350164D01*
X90023810Y-54302545D01*
X90261905Y-54302545D01*
X90357143Y-54350164D01*
X90404762Y-54397783D01*
X90452381Y-54493021D01*
X90452381Y-54778736D01*
X90404762Y-54873974D01*
X90357143Y-54921593D01*
X92047619Y-41493022D02*
X92000000Y-41445403D01*
X91952381Y-41350165D01*
X91952381Y-41112069D01*
X92000000Y-41016831D01*
X92047619Y-40969212D01*
X92142857Y-40921593D01*
X92238095Y-40921593D01*
X92380952Y-40969212D01*
X92952381Y-41540641D01*
X92952381Y-40921593D01*
X92857143Y-40493022D02*
X92904762Y-40445403D01*
X92952381Y-40493022D01*
X92904762Y-40540641D01*
X92857143Y-40493022D01*
X92952381Y-40493022D01*
X92047619Y-40064451D02*
X92000000Y-40016832D01*
X91952381Y-39921594D01*
X91952381Y-39683498D01*
X92000000Y-39588260D01*
X92047619Y-39540641D01*
X92142857Y-39493022D01*
X92238095Y-39493022D01*
X92380952Y-39540641D01*
X92952381Y-40112070D01*
X92952381Y-39493022D01*
X92952381Y-39064451D02*
X91952381Y-39064451D01*
X92571429Y-38969213D02*
X92952381Y-38683498D01*
X92285714Y-38683498D02*
X92666667Y-39064451D01*
X32333334Y-40452381D02*
X32000000Y-39976190D01*
X31761905Y-40452381D02*
X31761905Y-39452381D01*
X32142858Y-39452381D01*
X32238096Y-39500000D01*
X32285715Y-39547619D01*
X32333334Y-39642857D01*
X32333334Y-39785714D01*
X32285715Y-39880952D01*
X32238096Y-39928571D01*
X32142858Y-39976190D01*
X31761905Y-39976190D01*
X33190477Y-39785714D02*
X33190477Y-40452381D01*
X32952381Y-39404762D02*
X32714286Y-40119048D01*
X33333334Y-40119048D01*
X16214286Y-39452381D02*
X16833334Y-39452381D01*
X16500000Y-39833333D01*
X16642858Y-39833333D01*
X16738096Y-39880952D01*
X16785715Y-39928571D01*
X16833334Y-40023810D01*
X16833334Y-40261905D01*
X16785715Y-40357143D01*
X16738096Y-40404762D01*
X16642858Y-40452381D01*
X16357143Y-40452381D01*
X16261905Y-40404762D01*
X16214286Y-40357143D01*
X17166667Y-39452381D02*
X17785715Y-39452381D01*
X17452381Y-39833333D01*
X17595239Y-39833333D01*
X17690477Y-39880952D01*
X17738096Y-39928571D01*
X17785715Y-40023810D01*
X17785715Y-40261905D01*
X17738096Y-40357143D01*
X17690477Y-40404762D01*
X17595239Y-40452381D01*
X17309524Y-40452381D01*
X17214286Y-40404762D01*
X17166667Y-40357143D01*
X18404762Y-39452381D02*
X18500001Y-39452381D01*
X18595239Y-39500000D01*
X18642858Y-39547619D01*
X18690477Y-39642857D01*
X18738096Y-39833333D01*
X18738096Y-40071429D01*
X18690477Y-40261905D01*
X18642858Y-40357143D01*
X18595239Y-40404762D01*
X18500001Y-40452381D01*
X18404762Y-40452381D01*
X18309524Y-40404762D01*
X18261905Y-40357143D01*
X18214286Y-40261905D01*
X18166667Y-40071429D01*
X18166667Y-39833333D01*
X18214286Y-39642857D01*
X18261905Y-39547619D01*
X18309524Y-39500000D01*
X18404762Y-39452381D01*
X94833334Y-65452381D02*
X94500000Y-64976190D01*
X94261905Y-65452381D02*
X94261905Y-64452381D01*
X94642858Y-64452381D01*
X94738096Y-64500000D01*
X94785715Y-64547619D01*
X94833334Y-64642857D01*
X94833334Y-64785714D01*
X94785715Y-64880952D01*
X94738096Y-64928571D01*
X94642858Y-64976190D01*
X94261905Y-64976190D01*
X95738096Y-64452381D02*
X95261905Y-64452381D01*
X95214286Y-64928571D01*
X95261905Y-64880952D01*
X95357143Y-64833333D01*
X95595239Y-64833333D01*
X95690477Y-64880952D01*
X95738096Y-64928571D01*
X95785715Y-65023810D01*
X95785715Y-65261905D01*
X95738096Y-65357143D01*
X95690477Y-65404762D01*
X95595239Y-65452381D01*
X95357143Y-65452381D01*
X95261905Y-65404762D01*
X95214286Y-65357143D01*
X65503524Y-62952381D02*
X64932095Y-62952381D01*
X65217809Y-62952381D02*
X65217809Y-61952381D01*
X65122571Y-62095238D01*
X65027333Y-62190476D01*
X64932095Y-62238095D01*
X66360667Y-61952381D02*
X66170190Y-61952381D01*
X66074952Y-62000000D01*
X66027333Y-62047619D01*
X65932095Y-62190476D01*
X65884476Y-62380952D01*
X65884476Y-62761905D01*
X65932095Y-62857143D01*
X65979714Y-62904762D01*
X66074952Y-62952381D01*
X66265429Y-62952381D01*
X66360667Y-62904762D01*
X66408286Y-62857143D01*
X66455905Y-62761905D01*
X66455905Y-62523810D01*
X66408286Y-62428571D01*
X66360667Y-62380952D01*
X66265429Y-62333333D01*
X66074952Y-62333333D01*
X65979714Y-62380952D01*
X65932095Y-62428571D01*
X65884476Y-62523810D01*
X37500000Y-61952381D02*
X37500000Y-62190476D01*
X37261905Y-62095238D02*
X37500000Y-62190476D01*
X37738096Y-62095238D01*
X37357143Y-62380952D02*
X37500000Y-62190476D01*
X37642858Y-62380952D01*
X82952381Y-35166666D02*
X82476190Y-35500000D01*
X82952381Y-35738095D02*
X81952381Y-35738095D01*
X81952381Y-35357142D01*
X82000000Y-35261904D01*
X82047619Y-35214285D01*
X82142857Y-35166666D01*
X82285714Y-35166666D01*
X82380952Y-35214285D01*
X82428571Y-35261904D01*
X82476190Y-35357142D01*
X82476190Y-35738095D01*
X81952381Y-34309523D02*
X81952381Y-34500000D01*
X82000000Y-34595238D01*
X82047619Y-34642857D01*
X82190476Y-34738095D01*
X82380952Y-34785714D01*
X82761905Y-34785714D01*
X82857143Y-34738095D01*
X82904762Y-34690476D01*
X82952381Y-34595238D01*
X82952381Y-34404761D01*
X82904762Y-34309523D01*
X82857143Y-34261904D01*
X82761905Y-34214285D01*
X82523810Y-34214285D01*
X82428571Y-34261904D01*
X82380952Y-34309523D01*
X82333333Y-34404761D01*
X82333333Y-34595238D01*
X82380952Y-34690476D01*
X82428571Y-34738095D01*
X82523810Y-34785714D01*
X82952381Y-20364476D02*
X82952381Y-20935905D01*
X82952381Y-20650191D02*
X81952381Y-20650191D01*
X82095238Y-20745429D01*
X82190476Y-20840667D01*
X82238095Y-20935905D01*
X82952381Y-19412095D02*
X82952381Y-19983524D01*
X82952381Y-19697810D02*
X81952381Y-19697810D01*
X82095238Y-19793048D01*
X82190476Y-19888286D01*
X82238095Y-19983524D01*
X32332074Y-30452381D02*
X31998740Y-29976190D01*
X31760645Y-30452381D02*
X31760645Y-29452381D01*
X32141598Y-29452381D01*
X32236836Y-29500000D01*
X32284455Y-29547619D01*
X32332074Y-29642857D01*
X32332074Y-29785714D01*
X32284455Y-29880952D01*
X32236836Y-29928571D01*
X32141598Y-29976190D01*
X31760645Y-29976190D01*
X32665407Y-29452381D02*
X33332074Y-29452381D01*
X32903502Y-30452381D01*
X16736836Y-29452381D02*
X16546359Y-29452381D01*
X16451121Y-29500000D01*
X16403502Y-29547619D01*
X16308264Y-29690476D01*
X16260645Y-29880952D01*
X16260645Y-30261905D01*
X16308264Y-30357143D01*
X16355883Y-30404762D01*
X16451121Y-30452381D01*
X16641598Y-30452381D01*
X16736836Y-30404762D01*
X16784455Y-30357143D01*
X16832074Y-30261905D01*
X16832074Y-30023810D01*
X16784455Y-29928571D01*
X16736836Y-29880952D01*
X16641598Y-29833333D01*
X16451121Y-29833333D01*
X16355883Y-29880952D01*
X16308264Y-29928571D01*
X16260645Y-30023810D01*
X17213026Y-29547619D02*
X17260645Y-29500000D01*
X17355883Y-29452381D01*
X17593979Y-29452381D01*
X17689217Y-29500000D01*
X17736836Y-29547619D01*
X17784455Y-29642857D01*
X17784455Y-29738095D01*
X17736836Y-29880952D01*
X17165407Y-30452381D01*
X17784455Y-30452381D01*
X18403502Y-29452381D02*
X18498741Y-29452381D01*
X18593979Y-29500000D01*
X18641598Y-29547619D01*
X18689217Y-29642857D01*
X18736836Y-29833333D01*
X18736836Y-30071429D01*
X18689217Y-30261905D01*
X18641598Y-30357143D01*
X18593979Y-30404762D01*
X18498741Y-30452381D01*
X18403502Y-30452381D01*
X18308264Y-30404762D01*
X18260645Y-30357143D01*
X18213026Y-30261905D01*
X18165407Y-30071429D01*
X18165407Y-29833333D01*
X18213026Y-29642857D01*
X18260645Y-29547619D01*
X18308264Y-29500000D01*
X18403502Y-29452381D01*
X90452381Y-20165406D02*
X89976190Y-20498740D01*
X90452381Y-20736835D02*
X89452381Y-20736835D01*
X89452381Y-20355882D01*
X89500000Y-20260644D01*
X89547619Y-20213025D01*
X89642857Y-20165406D01*
X89785714Y-20165406D01*
X89880952Y-20213025D01*
X89928571Y-20260644D01*
X89976190Y-20355882D01*
X89976190Y-20736835D01*
X89880952Y-19593978D02*
X89833333Y-19689216D01*
X89785714Y-19736835D01*
X89690476Y-19784454D01*
X89642857Y-19784454D01*
X89547619Y-19736835D01*
X89500000Y-19689216D01*
X89452381Y-19593978D01*
X89452381Y-19403501D01*
X89500000Y-19308263D01*
X89547619Y-19260644D01*
X89642857Y-19213025D01*
X89690476Y-19213025D01*
X89785714Y-19260644D01*
X89833333Y-19308263D01*
X89880952Y-19403501D01*
X89880952Y-19593978D01*
X89928571Y-19689216D01*
X89976190Y-19736835D01*
X90071429Y-19784454D01*
X90261905Y-19784454D01*
X90357143Y-19736835D01*
X90404762Y-19689216D01*
X90452381Y-19593978D01*
X90452381Y-19403501D01*
X90404762Y-19308263D01*
X90357143Y-19260644D01*
X90261905Y-19213025D01*
X90071429Y-19213025D01*
X89976190Y-19260644D01*
X89928571Y-19308263D01*
X89880952Y-19403501D01*
X92047619Y-36403502D02*
X92000000Y-36355883D01*
X91952381Y-36260645D01*
X91952381Y-36022549D01*
X92000000Y-35927311D01*
X92047619Y-35879692D01*
X92142857Y-35832073D01*
X92238095Y-35832073D01*
X92380952Y-35879692D01*
X92952381Y-36451121D01*
X92952381Y-35832073D01*
X92857143Y-35403502D02*
X92904762Y-35355883D01*
X92952381Y-35403502D01*
X92904762Y-35451121D01*
X92857143Y-35403502D01*
X92952381Y-35403502D01*
X92047619Y-34974931D02*
X92000000Y-34927312D01*
X91952381Y-34832074D01*
X91952381Y-34593978D01*
X92000000Y-34498740D01*
X92047619Y-34451121D01*
X92142857Y-34403502D01*
X92238095Y-34403502D01*
X92380952Y-34451121D01*
X92952381Y-35022550D01*
X92952381Y-34403502D01*
X92952381Y-33974931D02*
X91952381Y-33974931D01*
X92571429Y-33879693D02*
X92952381Y-33593978D01*
X92285714Y-33593978D02*
X92666667Y-33974931D01*
X32420334Y-35452381D02*
X32087000Y-34976190D01*
X31848905Y-35452381D02*
X31848905Y-34452381D01*
X32229858Y-34452381D01*
X32325096Y-34500000D01*
X32372715Y-34547619D01*
X32420334Y-34642857D01*
X32420334Y-34785714D01*
X32372715Y-34880952D01*
X32325096Y-34928571D01*
X32229858Y-34976190D01*
X31848905Y-34976190D01*
X32896524Y-35452381D02*
X33087000Y-35452381D01*
X33182239Y-35404762D01*
X33229858Y-35357143D01*
X33325096Y-35214286D01*
X33372715Y-35023810D01*
X33372715Y-34642857D01*
X33325096Y-34547619D01*
X33277477Y-34500000D01*
X33182239Y-34452381D01*
X32991762Y-34452381D01*
X32896524Y-34500000D01*
X32848905Y-34547619D01*
X32801286Y-34642857D01*
X32801286Y-34880952D01*
X32848905Y-34976190D01*
X32896524Y-35023810D01*
X32991762Y-35071429D01*
X33182239Y-35071429D01*
X33277477Y-35023810D01*
X33325096Y-34976190D01*
X33372715Y-34880952D01*
X16301286Y-34452381D02*
X16920334Y-34452381D01*
X16587000Y-34833333D01*
X16729858Y-34833333D01*
X16825096Y-34880952D01*
X16872715Y-34928571D01*
X16920334Y-35023810D01*
X16920334Y-35261905D01*
X16872715Y-35357143D01*
X16825096Y-35404762D01*
X16729858Y-35452381D01*
X16444143Y-35452381D01*
X16348905Y-35404762D01*
X16301286Y-35357143D01*
X17253667Y-34452381D02*
X17872715Y-34452381D01*
X17539381Y-34833333D01*
X17682239Y-34833333D01*
X17777477Y-34880952D01*
X17825096Y-34928571D01*
X17872715Y-35023810D01*
X17872715Y-35261905D01*
X17825096Y-35357143D01*
X17777477Y-35404762D01*
X17682239Y-35452381D01*
X17396524Y-35452381D01*
X17301286Y-35404762D01*
X17253667Y-35357143D01*
X18491762Y-34452381D02*
X18587001Y-34452381D01*
X18682239Y-34500000D01*
X18729858Y-34547619D01*
X18777477Y-34642857D01*
X18825096Y-34833333D01*
X18825096Y-35071429D01*
X18777477Y-35261905D01*
X18729858Y-35357143D01*
X18682239Y-35404762D01*
X18587001Y-35452381D01*
X18491762Y-35452381D01*
X18396524Y-35404762D01*
X18348905Y-35357143D01*
X18301286Y-35261905D01*
X18253667Y-35071429D01*
X18253667Y-34833333D01*
X18301286Y-34642857D01*
X18348905Y-34547619D01*
X18396524Y-34500000D01*
X18491762Y-34452381D01*
X94357143Y-10452381D02*
X94023809Y-9976190D01*
X93785714Y-10452381D02*
X93785714Y-9452381D01*
X94166667Y-9452381D01*
X94261905Y-9500000D01*
X94309524Y-9547619D01*
X94357143Y-9642857D01*
X94357143Y-9785714D01*
X94309524Y-9880952D01*
X94261905Y-9928571D01*
X94166667Y-9976190D01*
X93785714Y-9976190D01*
X95309524Y-10452381D02*
X94738095Y-10452381D01*
X95023809Y-10452381D02*
X95023809Y-9452381D01*
X94928571Y-9595238D01*
X94833333Y-9690476D01*
X94738095Y-9738095D01*
X95928571Y-9452381D02*
X96023810Y-9452381D01*
X96119048Y-9500000D01*
X96166667Y-9547619D01*
X96214286Y-9642857D01*
X96261905Y-9833333D01*
X96261905Y-10071429D01*
X96214286Y-10261905D01*
X96166667Y-10357143D01*
X96119048Y-10404762D01*
X96023810Y-10452381D01*
X95928571Y-10452381D01*
X95833333Y-10404762D01*
X95785714Y-10357143D01*
X95738095Y-10261905D01*
X95690476Y-10071429D01*
X95690476Y-9833333D01*
X95738095Y-9642857D01*
X95785714Y-9547619D01*
X95833333Y-9500000D01*
X95928571Y-9452381D01*
X65503524Y-12952381D02*
X64932095Y-12952381D01*
X65217809Y-12952381D02*
X65217809Y-11952381D01*
X65122571Y-12095238D01*
X65027333Y-12190476D01*
X64932095Y-12238095D01*
X66360667Y-11952381D02*
X66170190Y-11952381D01*
X66074952Y-12000000D01*
X66027333Y-12047619D01*
X65932095Y-12190476D01*
X65884476Y-12380952D01*
X65884476Y-12761905D01*
X65932095Y-12857143D01*
X65979714Y-12904762D01*
X66074952Y-12952381D01*
X66265429Y-12952381D01*
X66360667Y-12904762D01*
X66408286Y-12857143D01*
X66455905Y-12761905D01*
X66455905Y-12523810D01*
X66408286Y-12428571D01*
X66360667Y-12380952D01*
X66265429Y-12333333D01*
X66074952Y-12333333D01*
X65979714Y-12380952D01*
X65932095Y-12428571D01*
X65884476Y-12523810D01*
X37500000Y-11952381D02*
X37500000Y-12190476D01*
X37261905Y-12095238D02*
X37500000Y-12190476D01*
X37738096Y-12095238D01*
X37357143Y-12380952D02*
X37500000Y-12190476D01*
X37642858Y-12380952D01*
X10452381Y-48142857D02*
X9976190Y-48476191D01*
X10452381Y-48714286D02*
X9452381Y-48714286D01*
X9452381Y-48333333D01*
X9500000Y-48238095D01*
X9547619Y-48190476D01*
X9642857Y-48142857D01*
X9785714Y-48142857D01*
X9880952Y-48190476D01*
X9928571Y-48238095D01*
X9976190Y-48333333D01*
X9976190Y-48714286D01*
X10452381Y-47190476D02*
X10452381Y-47761905D01*
X10452381Y-47476191D02*
X9452381Y-47476191D01*
X9595238Y-47571429D01*
X9690476Y-47666667D01*
X9738095Y-47761905D01*
X10452381Y-46238095D02*
X10452381Y-46809524D01*
X10452381Y-46523810D02*
X9452381Y-46523810D01*
X9595238Y-46619048D01*
X9690476Y-46714286D01*
X9738095Y-46809524D01*
X10452381Y-53095238D02*
X10452381Y-53666667D01*
X10452381Y-53380953D02*
X9452381Y-53380953D01*
X9595238Y-53476191D01*
X9690476Y-53571429D01*
X9738095Y-53666667D01*
X9452381Y-52476191D02*
X9452381Y-52380952D01*
X9500000Y-52285714D01*
X9547619Y-52238095D01*
X9642857Y-52190476D01*
X9833333Y-52142857D01*
X10071429Y-52142857D01*
X10261905Y-52190476D01*
X10357143Y-52238095D01*
X10404762Y-52285714D01*
X10452381Y-52380952D01*
X10452381Y-52476191D01*
X10404762Y-52571429D01*
X10357143Y-52619048D01*
X10261905Y-52666667D01*
X10071429Y-52714286D01*
X9833333Y-52714286D01*
X9642857Y-52666667D01*
X9547619Y-52619048D01*
X9500000Y-52571429D01*
X9452381Y-52476191D01*
X10452381Y-51714286D02*
X9452381Y-51714286D01*
X10071429Y-51619048D02*
X10452381Y-51333333D01*
X9785714Y-51333333D02*
X10166667Y-51714286D01*
M02*
