M48
;DRILL file {KiCad 4.0.7+dfsg1-1ubuntu2} date Thu Jul 25 19:09:05 2019
;FORMAT={-:-/ absolute / metric / decimal}
FMAT,2
METRIC,TZ
T1C0.800
T2C0.900
T3C0.965
T4C1.000
T5C1.001
T6C1.067
T7C1.118
T8C1.200
T9C1.200
%
G90
G05
M71
T1
X62.5Y-45.
X62.5Y-70.
X65.04Y-45.
X65.04Y-70.
X67.58Y-45.
X67.58Y-70.
X95.Y-67.5
X95.Y-77.5
X100.Y-72.5
T2
X100.Y-57.46
X100.Y-60.
T3
X99.985Y-30.
X99.985Y-85.
X102.5Y-30.
X102.5Y-85.
T4
X37.5Y-57.5
X43.5Y-57.5
X71.92Y-46.
X71.92Y-69.
X74.46Y-46.
X74.46Y-69.
X77.Y-46.
X77.Y-69.
X83.92Y-69.
X84.Y-46.
X86.46Y-69.
X86.54Y-46.
X89.Y-69.
X89.08Y-46.
T5
X59.997Y-40.
X59.997Y-52.5
X59.997Y-62.5
X60.Y-75.
X70.Y-40.
X70.Y-52.5
X70.Y-62.5
X70.003Y-75.
X79.997Y-40.
X79.997Y-75.
X80.997Y-53.
X80.997Y-62.
X90.Y-40.
X90.Y-75.
X91.Y-53.
X91.Y-62.
X100.Y-39.997
X100.Y-50.
T6
X47.482Y-70.
X48.Y-45.
X55.Y-70.
X55.518Y-45.
T7
X36.612Y-85.
X37.Y-30.
X93.Y-85.
X93.388Y-30.
T8
X35.Y-42.5
X35.Y-46.
X35.Y-69.
X35.Y-72.5
T9
X95.Y-72.5
X100.Y-67.5
X100.Y-77.5
X102.5Y-67.5
X102.5Y-77.5
T0
M30
